%FSLAX33Y33*%
%MOMM*%
%AMRR-H1606400-W2006400-R530710-RO0.750*
21,1,0.94498,1.6064,0.,-0.,225*
21,1,2.0064,0.54498,0.,-0.,225*
1,1,1.06142,0.5267804098,0.1414213562*
1,1,1.06142,-0.1414213562,-0.5267804098*
1,1,1.06142,-0.5267804098,-0.1414213562*
1,1,1.06142,0.1414213562,0.5267804098*%
%AMRR-H1606400-W2006400-R530710-RO1.250*
21,1,0.94498,1.6064,-0.,0.,135*
21,1,2.0064,0.54498,-0.,0.,135*
1,1,1.06142,0.1414213562,-0.5267804098*
1,1,1.06142,-0.5267804098,0.1414213562*
1,1,1.06142,-0.1414213562,0.5267804098*
1,1,1.06142,0.5267804098,-0.1414213562*%
%AMRect-W2006400-H1606400-RO0.750*
21,1,2.0064,1.6064,0.,0.,225*%
%AMRect-W2006400-H1606400-RO1.250*
21,1,2.0064,1.6064,0.,0.,135*%
%AMRR-H1606400-W2006400-R530710-RO0.250*
21,1,0.94498,1.6064,0.,0.,315*
21,1,2.0064,0.54498,0.,0.,315*
1,1,1.06142,-0.1414213562,0.5267804098*
1,1,1.06142,0.5267804098,-0.1414213562*
1,1,1.06142,0.1414213562,-0.5267804098*
1,1,1.06142,-0.5267804098,0.1414213562*%
%AMRect-W2006400-H1606400-RO0.250*
21,1,2.0064,1.6064,0.,0.,315*%
%AMRect-W2006400-H1606400-RO1.750*
21,1,2.0064,1.6064,0.,0.,45*%
%AMRR-H1606400-W2006400-R530710-RO1.750*
21,1,0.94498,1.6064,0.,0.,45*
21,1,2.0064,0.54498,0.,0.,45*
1,1,1.06142,-0.5267804098,-0.1414213562*
1,1,1.06142,0.1414213562,0.5267804098*
1,1,1.06142,0.5267804098,0.1414213562*
1,1,1.06142,-0.1414213562,-0.5267804098*%
%AMRect-W1104800-H203200-RO0.750*
21,1,1.1048,0.2032,0.,0.,225*%
%AMRect-W1104800-H203200-RO1.250*
21,1,1.1048,0.2032,0.,0.,135*%
%AMRect-W203200-H929800-RO1.500*
21,1,0.2032,0.9298,0.,0.,90*%
%AMRect-W929800-H203200-RO1.500*
21,1,0.9298,0.2032,0.,0.,90*%
%AMRect-W400000-H1129800-RO0.500*
21,1,0.4,1.1298,0.,0.,270*%
%AMRect-W1129800-H400000-RO0.500*
21,1,1.1298,0.4,0.,0.,270*%
%AMRect-W1104800-H203200-RO0.250*
21,1,1.1048,0.2032,0.,0.,315*%
%AMRect-W1104800-H203200-RO1.750*
21,1,1.1048,0.2032,0.,0.,45*%
%AMRect-W1600000-H1200000-RO0.250*
21,1,1.6,1.2,0.,0.,315*%
%AMRR-H1200000-W1600000-R530710-RO0.250*
21,1,0.53858,1.2,0.,0.,315*
21,1,1.6,0.13858,0.,0.,315*
1,1,1.06142,-0.1414213562,0.239412214*
1,1,1.06142,0.239412214,-0.1414213562*
1,1,1.06142,0.1414213562,-0.239412214*
1,1,1.06142,-0.239412214,0.1414213562*%
%AMRect-W1600000-H1200000-RO1.250*
21,1,1.6,1.2,0.,0.,135*%
%AMRR-H1200000-W1600000-R530710-RO1.250*
21,1,0.53858,1.2,-0.,0.,135*
21,1,1.6,0.13858,-0.,0.,135*
1,1,1.06142,0.1414213562,-0.239412214*
1,1,1.06142,-0.239412214,0.1414213562*
1,1,1.06142,-0.1414213562,0.239412214*
1,1,1.06142,0.239412214,-0.1414213562*%
%AMRect-W1600000-H1200000-RO0.750*
21,1,1.6,1.2,0.,0.,225*%
%AMRR-H1200000-W1600000-R530710-RO0.750*
21,1,0.53858,1.2,0.,-0.,225*
21,1,1.6,0.13858,0.,-0.,225*
1,1,1.06142,0.239412214,0.1414213562*
1,1,1.06142,-0.1414213562,-0.239412214*
1,1,1.06142,-0.239412214,-0.1414213562*
1,1,1.06142,0.1414213562,0.239412214*%
%AMRect-W1600000-H1200000-RO1.750*
21,1,1.6,1.2,0.,0.,45*%
%AMRR-H1200000-W1600000-R530710-RO1.750*
21,1,0.53858,1.2,0.,0.,45*
21,1,1.6,0.13858,0.,0.,45*
1,1,1.06142,-0.239412214,-0.1414213562*
1,1,1.06142,0.1414213562,0.239412214*
1,1,1.06142,0.239412214,0.1414213562*
1,1,1.06142,-0.1414213562,-0.239412214*%
%ADD10C,0.9144*%
%ADD11C,0.8636*%
%ADD12C,1.4732*%
%ADD13C,1.6564*%
%ADD14C,2.0564*%
%ADD15C,1.8288*%
%ADD16C,1.0414*%
%ADD17C,1.5064*%
%ADD18C,1.1064*%
%ADD19C,1.1684*%
%ADD20RR-H1606400-W2006400-R530710-RO0.750*%
%ADD21RR-H1606400-W2006400-R530710-RO1.250*%
%ADD22Rect-W2006400-H1606400-RO0.750*%
%ADD23Rect-W2006400-H1606400-RO1.250*%
%ADD24RR-H1606400-W2006400-R530710-RO0.250*%
%ADD25Rect-W2006400-H1606400-RO0.250*%
%ADD26Rect-W2006400-H1606400-RO1.750*%
%ADD27RR-H1606400-W2006400-R530710-RO1.750*%
%ADD28Rect-W1104800-H203200-RO0.750*%
%ADD29Rect-W1104800-H203200-RO1.250*%
%ADD30Rect-W203200-H929800-RO1.500*%
%ADD31Rect-W929800-H203200-RO1.500*%
%ADD32Rect-W400000-H1129800-RO0.500*%
%ADD33Rect-W1129800-H400000-RO0.500*%
%ADD34Rect-W1104800-H203200-RO0.250*%
%ADD35Rect-W1104800-H203200-RO1.750*%
%ADD36C,0.4572*%
%ADD37C,0.508*%
%ADD38C,1.0668*%
%ADD39C,1.4224*%
%ADD40C,1.25*%
%ADD41Rect-W1600000-H1200000-RO0.250*%
%ADD42RR-H1200000-W1600000-R530710-RO0.250*%
%ADD43Rect-W1600000-H1200000-RO1.250*%
%ADD44RR-H1200000-W1600000-R530710-RO1.250*%
%ADD45Rect-W1600000-H1200000-RO0.750*%
%ADD46RR-H1200000-W1600000-R530710-RO0.750*%
%ADD47Rect-W1600000-H1200000-RO1.750*%
%ADD48RR-H1200000-W1600000-R530710-RO1.750*%
%ADD49C,1.65*%
D10*
%LNpour fill*%
G36*
G01*
X-30480Y30480D02*
X-30480Y-30734D01*
X30226Y-30734D01*
X30226Y30480D01*
X-30480Y30480D01*
G37*
%LNpour subtractive shapes*%
%LPC*%
X25146Y22606D02*
X25146Y25146D01*
X23876Y26416D02*
X25146Y25146D01*
X21844Y26162D02*
X21082Y26162D01*
X20066Y27686D02*
X20066Y27028D01*
X21082Y28702D02*
X20066Y27686D01*
X22860Y25146D02*
X21844Y26162D01*
X21844Y23876D02*
X20066Y25654D01*
X20066Y26924*
X-24917Y24917D02*
X-25146Y25146D01*
X-25171Y25171D02*
X-25121Y25171D01*
X-26187Y24155D02*
X-25171Y25171D01*
D11*
X5954Y18662D02*
X5842Y18774D01*
X4572Y21590D02*
X7620Y21590D01*
X5954Y12712D02*
X5954Y18662D01*
X-9750Y12154D02*
X-8348Y13556D01*
D10*
X-25908Y20066D02*
X-25654Y20066D01*
X-23901Y21819D02*
X-23901Y22073D01*
X-25654Y20066D02*
X-23901Y21819D01*
X-23368Y24917D02*
X-23368Y24892D01*
D11*
X-17131Y12900D02*
X-16385Y12154D01*
D10*
X-23368Y24917D02*
X-24917Y24917D01*
X-26187Y22073D02*
X-25654Y22606D01*
X-28727Y21107D02*
X-27686Y20066D01*
X-26416Y20066D02*
X-25908Y20066D01*
X-26187Y21107D02*
X-26187Y22073D01*
X-27686Y20066D02*
X-26416Y20066D01*
D11*
X21196Y1887D02*
X21196Y-3324D01*
X21073Y1887D02*
X21196Y2010D01*
X16050Y1887D02*
X21073Y1887D01*
X22606Y1887D02*
X24752Y-0259D01*
X12610Y0486D02*
X12061Y-0063D01*
X14986Y0486D02*
X12610Y0486D01*
X22606Y-0375D02*
X22606Y0333D01*
X12074Y4677D02*
X14864Y1887D01*
X16050Y1887*
X9605Y3138D02*
X9605Y-0712D01*
X-0768Y1470D02*
X2064Y1470D01*
X-2398Y3138D02*
X2178Y3138D01*
X2978Y2338D02*
X2178Y3138D01*
X12074Y6783D02*
X12074Y4677D01*
X2064Y1470D02*
X2286Y1248D01*
X1086Y0162D02*
X1086Y-1476D01*
X6350Y3138D02*
X6350Y0962D01*
X12074Y-0063D02*
X12074Y-2144D01*
X6350Y0962D02*
X4248Y-1140D01*
X8955Y9902D02*
X12074Y6783D01*
X11045Y1237D02*
X11045Y-1873D01*
X8079Y3138D02*
X8079Y-0063D01*
X2978Y2338D02*
X2978Y-1454D01*
X2286Y1248D02*
X2286Y-1778D01*
X-15630Y12154D02*
X-9750Y12154D01*
X-16385Y12154D02*
X-15630Y12154D01*
X24752Y-0259D02*
X24752Y-0399D01*
X21196Y-4086D02*
X21196Y-8352D01*
X21196Y-3313D02*
X21196Y-4086D01*
X9652Y-12446D02*
X12700Y-15494D01*
X23736Y-1505D02*
X22606Y-0375D01*
X21196Y-8352D02*
X20434Y-9114D01*
X14986Y-1619D02*
X14986Y-1363D01*
X14986Y-1619D02*
X14986Y-5812D01*
X14224Y-6574*
X14224Y-13970D02*
X14224Y-8806D01*
X12530Y-7112*
X11514Y-6096*
X12074Y-2144D02*
X10905Y-3313D01*
X1086Y-1476D02*
X0254Y-2308D01*
X9605Y-0712D02*
X8079Y-2238D01*
X3204Y-11960D02*
X6836Y-11960D01*
X0254Y-2238D02*
X-2398Y-4890D01*
X4248Y-1140D02*
X4248Y-1324D01*
X0664Y-7388D02*
X9217Y-7388D01*
X11045Y-1873D02*
X9605Y-3313D01*
X-2032Y-7112D02*
X0664Y-4416D01*
X0664Y-3302*
X6836Y-11960D02*
X9166Y-11960D01*
X9652Y-12446*
X7620Y-10436D02*
X7620Y-10690D01*
X5842Y-10690D02*
X8128Y-8404D01*
X8241Y-8404*
X7620Y-10690D02*
X9652Y-8658D01*
X9652Y-8291*
X9398Y-7366D02*
X10823Y-7366D01*
X11006Y-7549*
X10154Y-4064D02*
X10905Y-3313D01*
X3810Y-2286D02*
X3778Y-2254D01*
X2978Y-1454D02*
X3810Y-2286D01*
X3778Y-2254D02*
X3778Y-2238D01*
X3810Y-2238D02*
X6556Y-2238D01*
X7366Y-3048*
X9605Y-3313D02*
X7641Y-3313D01*
X7366Y-3038*
X2286Y-1778D02*
X2794Y-2286D01*
X2794Y-2254*
X7366Y-4064D02*
X6858Y-3556D01*
X10154Y-4064D02*
X7366Y-4064D01*
X6858Y-3556D02*
X6858Y-3556D01*
X6350Y-3048D02*
X5842Y-3048D01*
X6858Y-3556D02*
X6350Y-3048D01*
X5842Y-3048D02*
X5842Y-3038D01*
X3546Y-3038*
X2794Y-2286*
X8128Y-6096D02*
X11430Y-6096D01*
X2286Y-3302D02*
X5080Y-6096D01*
X8128Y-6096*
X11514Y-6096D02*
X11299Y-6096D01*
X-2398Y-4890D02*
X-2398Y-5214D01*
X-3556Y-14194D02*
X-3556Y-8636D01*
X-2032Y-7112*
D10*
X-24892Y-5334D02*
X-18796Y-11430D01*
X-18796Y-13208*
D11*
X-24892Y-5334D02*
X-24892Y-3810D01*
D10*
X25400Y-25146D02*
X25146Y-25146D01*
X26670Y-20066D02*
X27686Y-20066D01*
X26670Y-23876D02*
X25400Y-25146D01*
X25908Y-20066D02*
X26670Y-20066D01*
X22860Y-25146D02*
X25146Y-25146D01*
X25654Y-20066D02*
X23876Y-21844D01*
X28194Y-20574D02*
X28702Y-21082D01*
X26162Y-21082D02*
X26162Y-22098D01*
X25908Y-20066D02*
X25654Y-20066D01*
X26162Y-22098D02*
X25654Y-22606D01*
X27686Y-20066D02*
X28194Y-20574D01*
X23876Y-21844D02*
X23876Y-22098D01*
D11*
X6350Y-19304D02*
X13716Y-19304D01*
X14732Y-20320*
X12700Y-15494D02*
X16002Y-18796D01*
X16002Y-21844*
X13462Y-24384*
X10414Y-24384*
X5080Y-17780D02*
X5080Y-22138D01*
X8382Y-14478D02*
X5080Y-17780D01*
D10*
X0Y-19050D02*
X0Y-14194D01*
D11*
X5702Y-24384D02*
X9144Y-24384D01*
X10414Y-24384D02*
X9144Y-24384D01*
X-24384Y-13208D02*
X-20310Y-13208D01*
D10*
X-25146Y-23114D02*
X-25261Y-22999D01*
X-25146Y-25146D02*
X-25146Y-23114D01*
X-25146Y-25146D02*
X-24130Y-26162D01*
X-20066Y-26162D02*
X-20066Y-25654D01*
X-22098Y-26162D02*
X-22606Y-25654D01*
X-21590Y-24130D02*
X-21969Y-24130D01*
X-20066Y-25654D02*
X-21590Y-24130D01*
X-24130Y-26162D02*
X-24130Y-26187D01*
X-20066Y-27432D02*
X-20066Y-26162D01*
X-21107Y-28473D02*
X-20066Y-27432D01*
X-21107Y-26162D02*
X-22098Y-26162D01*
D12*
X25146Y25146D03*
X21082Y26162D03*
X21082Y28702D03*
X-25171Y25171D03*
X5954Y18662D03*
X7620Y21590D03*
X4572Y21590D03*
X5954Y12712D03*
X-8348Y13556D03*
X-17131Y12900D03*
X-28727Y21107D03*
X-26187Y21107D03*
X21196Y2010D03*
X14986Y0486D03*
X22606Y0333D03*
X22606Y1887D03*
X24752Y-0399D03*
X9605Y3138D03*
X8955Y9902D03*
X8079Y3138D03*
X1086Y0232D03*
X11138Y1237D03*
X12074Y4677D03*
X8079Y-0063D03*
X6350Y3060D03*
X-2398Y3138D03*
X-0768Y1470D03*
D13*
X-19360Y6348D03*
X-19360Y4348D03*
D12*
X14986Y-1038D03*
X20434Y-9114D03*
X21196Y-4086D03*
X23876Y-1505D03*
X14190Y-6574D03*
D14*
X3204Y-9420D03*
D12*
X7592Y-10690D03*
D14*
X0664Y-11960D03*
X3204Y-11960D03*
D12*
X5842Y-10690D03*
X4248Y-1324D03*
X8079Y-2308D03*
X0664Y-7388D03*
D14*
X0664Y-9420D03*
D12*
X0762Y-3302D03*
X9652Y-8404D03*
X8128Y-8404D03*
X11006Y-7549D03*
X2286Y-3302D03*
D14*
X-1876Y-9420D03*
D12*
X-2398Y-5214D03*
D15*
X-7112Y-8118D03*
X-7112Y-3038D03*
D14*
X-1876Y-11960D03*
D12*
X-20310Y-13208D03*
X-18796Y-13208D03*
X-24384Y-13208D03*
X-24892Y-3810D03*
X26162Y-21082D03*
X25146Y-25146D03*
X28702Y-21082D03*
X14732Y-20320D03*
X14224Y-13970D03*
X5080Y-22098D03*
X0Y-14194D03*
X8382Y-14478D03*
X0Y-19050D03*
X5702Y-24384D03*
X6350Y-19304D03*
X9144Y-24384D03*
X-3556Y-14224D03*
X-25146Y-25146D03*
X-21107Y-26187D03*
X-21107Y-28473D03*
D16*
X25146Y25146D03*
X21082Y26162D03*
X21082Y28702D03*
X-25171Y25171D03*
X5954Y18662D03*
X7620Y21590D03*
X4572Y21590D03*
X5954Y12712D03*
X-8348Y13556D03*
X-17131Y12900D03*
X-28727Y21107D03*
X-26187Y21107D03*
X21196Y2010D03*
X14986Y0486D03*
X22606Y0333D03*
X22606Y1887D03*
X9605Y3138D03*
X8955Y9902D03*
X8079Y3138D03*
X1086Y0232D03*
X11138Y1237D03*
X12074Y4677D03*
X8079Y-0063D03*
X6350Y3060D03*
X-2398Y3138D03*
X-0768Y1470D03*
D17*
X-21060Y7848D03*
D18*
X-19360Y6348D03*
X-19360Y4348D03*
D16*
X14986Y-1038D03*
X20434Y-9114D03*
X21196Y-4086D03*
X23876Y-1505D03*
X24752Y-0399D03*
X14190Y-6574D03*
D17*
X3204Y-9420D03*
D16*
X7592Y-10690D03*
D17*
X0664Y-11960D03*
X3204Y-11960D03*
D16*
X5842Y-10690D03*
X4248Y-1324D03*
X8079Y-2308D03*
X0664Y-7388D03*
D17*
X0664Y-9420D03*
D16*
X0762Y-3302D03*
X9652Y-8404D03*
X8128Y-8404D03*
X11006Y-7549D03*
X2286Y-3302D03*
D17*
X-1876Y-9420D03*
D16*
X-2398Y-5214D03*
D19*
X-7112Y-8118D03*
X-7112Y-3038D03*
D17*
X-1876Y-11960D03*
D16*
X-24892Y-3810D03*
X26162Y-21082D03*
X25146Y-25146D03*
X28702Y-21082D03*
X14732Y-20320D03*
X14224Y-13970D03*
X5080Y-22098D03*
X0Y-14194D03*
X8382Y-14478D03*
X0Y-19050D03*
X5702Y-24384D03*
X6350Y-19304D03*
X9144Y-24384D03*
X-3556Y-14224D03*
X-20310Y-13208D03*
X-18796Y-13208D03*
X-24384Y-13208D03*
X-25146Y-25146D03*
X-21107Y-26187D03*
X-21107Y-28473D03*
D20*
X22999Y25261D03*
X24130Y26393D03*
D21*
X-24130Y26393D03*
X-22999Y25261D03*
D20*
X25261Y22999D03*
X26393Y24130D03*
D22*
X21867Y24130D03*
D20*
X24130Y21867D03*
D23*
X-24130Y21867D03*
D21*
X-21867Y24130D03*
X-25261Y22999D03*
X-26393Y24130D03*
D24*
X25261Y-22999D03*
X26393Y-24130D03*
X22999Y-25261D03*
D25*
X24130Y-21867D03*
D24*
X21867Y-24130D03*
D26*
X-21867Y-24130D03*
D27*
X-22999Y-25261D03*
X-24130Y-21867D03*
X-25261Y-22999D03*
X-26393Y-24130D03*
D24*
X24130Y-26393D03*
D27*
X-24130Y-26393D03*
%LNpour readded shapes*%
%LPD*%
D28*
X23775Y21513D03*
D29*
X-21513Y23775D03*
D30*
X-19774Y4348D03*
X-18946Y4348D03*
D31*
X-19360Y3934D03*
X-19360Y4762D03*
D32*
X-1362Y-11960D03*
X-2391Y-11960D03*
D33*
X-1876Y-11446D03*
X-1876Y-12474D03*
D34*
X21513Y-23775D03*
D35*
X-23775Y-21513D03*
D30*
X-19774Y4348D03*
X-18946Y4348D03*
D31*
X-19360Y3934D03*
X-19360Y4762D03*
D32*
X-1362Y-11960D03*
X-2391Y-11960D03*
D33*
X-1876Y-11446D03*
X-1876Y-12474D03*
%LNbottom copper_traces*%
D36*
X13462Y-24384D02*
X10414Y-24384D01*
D37*
X20066Y25654D02*
X20066Y26924D01*
D36*
X11045Y-1873D02*
X9605Y-3313D01*
D37*
X-23876Y-23876D02*
X-24130Y-24130D01*
D36*
X2978Y-1454D02*
X3810Y-2286D01*
D37*
X21844Y23876D02*
X20066Y25654D01*
X23876Y-21844D02*
X23876Y-22098D01*
X23876Y26416D02*
X25146Y25146D01*
D36*
X8128Y-8404D02*
X8241Y-8404D01*
D37*
X-23368Y24917D02*
X-24917Y24917D01*
D36*
X5954Y12712D02*
X5954Y18662D01*
D37*
X-26187Y22073D02*
X-25654Y22606D01*
D36*
X0664Y-7388D02*
X9217Y-7388D01*
X21196Y-8352D02*
X20434Y-9114D01*
X23736Y-1505D02*
X22606Y-0375D01*
X5842Y-3038D02*
X3546Y-3038D01*
D37*
X-27686Y20066D02*
X-26416Y20066D01*
X27686Y-20066D02*
X28194Y-20574D01*
D36*
X2794Y-2286D02*
X2794Y-2254D01*
D37*
X26162Y-21082D02*
X26162Y-22098D01*
D36*
X-9750Y12154D02*
X-8348Y13556D01*
X14986Y-1619D02*
X14986Y-1363D01*
X7366Y-4064D02*
X6858Y-3556D01*
X14986Y-1619D02*
X14986Y-5812D01*
X8079Y3138D02*
X8079Y-0063D01*
X7620Y-10690D02*
X9652Y-8658D01*
X6858Y-3556D02*
X6350Y-3048D01*
X9652Y-12446D02*
X12700Y-15494D01*
X5954Y18662D02*
X5842Y18774D01*
X9166Y-11960D02*
X9652Y-12446D01*
X11514Y-6096D02*
X11299Y-6096D01*
D37*
X-21107Y-26162D02*
X-22098Y-26162D01*
X-23876Y-22098D02*
X-23876Y-23876D01*
X-21107Y-28473D02*
X-20066Y-27432D01*
X-25654Y20066D02*
X-23901Y21819D01*
X-26187Y21107D02*
X-26187Y22073D01*
D36*
X6556Y-2238D02*
X7366Y-3048D01*
X10414Y-24384D02*
X9144Y-24384D01*
D37*
X26162Y-22098D02*
X25654Y-22606D01*
X0Y-19050D02*
X0Y-14194D01*
X-24130Y-21867D02*
X-23899Y-22098D01*
D36*
X14224Y-8806D02*
X12530Y-7112D01*
D37*
X22860Y25146D02*
X21844Y26162D01*
D36*
X2978Y2338D02*
X2978Y-1454D01*
X-3556Y-8636D02*
X-2032Y-7112D01*
D37*
X-20066Y-25654D02*
X-21590Y-24130D01*
D36*
X3810Y-2238D02*
X6556Y-2238D01*
X14864Y1887D02*
X16050Y1887D01*
X8382Y-14478D02*
X5080Y-17780D01*
D37*
X-21590Y-24130D02*
X-21969Y-24130D01*
X-26187Y24155D02*
X-25171Y25171D01*
D36*
X12074Y4677D02*
X14864Y1887D01*
X22606Y-0375D02*
X22606Y0333D01*
D37*
X-28727Y21107D02*
X-27686Y20066D01*
D36*
X3778Y-2254D02*
X3778Y-2238D01*
X5080Y-17780D02*
X5080Y-22138D01*
X11045Y1237D02*
X11045Y-1873D01*
X6350Y-3048D02*
X5842Y-3048D01*
D37*
X25908Y-20066D02*
X25654Y-20066D01*
D36*
X3546Y-3038D02*
X2794Y-2286D01*
X-15630Y12154D02*
X-9750Y12154D01*
X-24892Y-5334D02*
X-24892Y-3810D01*
X8955Y9902D02*
X12074Y6783D01*
X10823Y-7366D02*
X11006Y-7549D01*
X4248Y-1140D02*
X4248Y-1324D01*
X9605Y-0712D02*
X8079Y-2238D01*
X14986Y0486D02*
X12610Y0486D01*
X12700Y-15494D02*
X16002Y-18796D01*
X5080Y-6096D02*
X8128Y-6096D01*
D37*
X28194Y-20574D02*
X28702Y-21082D01*
X-25171Y25171D02*
X-25121Y25171D01*
D36*
X9605Y3138D02*
X9605Y-0712D01*
D37*
X-20066Y-27432D02*
X-20066Y-26162D01*
D36*
X5842Y-10690D02*
X8128Y-8404D01*
D37*
X25654Y-20066D02*
X23876Y-21844D01*
D36*
X6350Y0962D02*
X4248Y-1140D01*
D37*
X-26416Y20066D02*
X-25908Y20066D01*
D36*
X7620Y-10436D02*
X7620Y-10690D01*
X0254Y-2238D02*
X-2398Y-4890D01*
D37*
X22860Y-25146D02*
X25146Y-25146D01*
D36*
X0664Y-4416D02*
X0664Y-3302D01*
X-3556Y-14194D02*
X-3556Y-8636D01*
X12610Y0486D02*
X12061Y-0063D01*
X3204Y-11960D02*
X6836Y-11960D01*
X5842Y-3048D02*
X5842Y-3038D01*
X22606Y1887D02*
X24752Y-0259D01*
X21196Y-3313D02*
X21196Y-4086D01*
X12074Y-0063D02*
X12074Y-2144D01*
D37*
X-22098Y-26162D02*
X-22606Y-25654D01*
D36*
X21196Y-4086D02*
X21196Y-8352D01*
D37*
X23876Y22606D02*
X23876Y23876D01*
D36*
X6350Y3138D02*
X6350Y0962D01*
X1086Y0162D02*
X1086Y-1476D01*
D37*
X-23622Y23901D02*
X-22327Y23901D01*
D36*
X-17131Y12900D02*
X-16385Y12154D01*
X9398Y-7366D02*
X10823Y-7366D01*
D37*
X26670Y-20066D02*
X27686Y-20066D01*
D36*
X16002Y-18796D02*
X16002Y-21844D01*
D37*
X-20066Y-26162D02*
X-20066Y-25654D01*
D36*
X2064Y1470D02*
X2286Y1248D01*
D37*
X25908Y-20066D02*
X26670Y-20066D01*
D36*
X-2398Y-4890D02*
X-2398Y-5214D01*
X4572Y21590D02*
X7620Y21590D01*
X12530Y-7112D02*
X11514Y-6096D01*
X9605Y-3313D02*
X7641Y-3313D01*
D37*
X25146Y22606D02*
X25146Y25146D01*
D36*
X24752Y-0259D02*
X24752Y-0399D01*
X3810Y-2286D02*
X3778Y-2254D01*
D37*
X26670Y-23876D02*
X25400Y-25146D01*
D36*
X14986Y-5812D02*
X14224Y-6574D01*
X2286Y1248D02*
X2286Y-1778D01*
X2286Y-3302D02*
X5080Y-6096D01*
X5702Y-24384D02*
X9144Y-24384D01*
X8128Y-6096D02*
X11430Y-6096D01*
D37*
X-23368Y24917D02*
X-23368Y24892D01*
D36*
X9652Y-8658D02*
X9652Y-8291D01*
X6350Y-19304D02*
X13716Y-19304D01*
D37*
X-25146Y-25146D02*
X-24130Y-26162D01*
X-25146Y-25146D02*
X-25146Y-23114D01*
X-22327Y23901D02*
X-22223Y24005D01*
X-18796Y-11430D02*
X-18796Y-13208D01*
D36*
X14224Y-13970D02*
X14224Y-8806D01*
D37*
X21082Y28702D02*
X20066Y27686D01*
X23876Y-23876D02*
X21844Y-23876D01*
D36*
X12074Y6783D02*
X12074Y4677D01*
X-2032Y-7112D02*
X0664Y-4416D01*
D37*
X-23901Y21819D02*
X-23901Y22073D01*
D36*
X6836Y-11960D02*
X9166Y-11960D01*
D37*
X20066Y27686D02*
X20066Y27028D01*
D36*
X2978Y2338D02*
X2178Y3138D01*
X10154Y-4064D02*
X10905Y-3313D01*
X-2398Y3138D02*
X2178Y3138D01*
X-0768Y1470D02*
X2064Y1470D01*
D37*
X-25146Y-23114D02*
X-25261Y-22999D01*
X-24892Y-5334D02*
X-18796Y-11430D01*
D36*
X16050Y1887D02*
X21073Y1887D01*
D37*
X-24917Y24917D02*
X-25146Y25146D01*
X25400Y-25146D02*
X25146Y-25146D01*
D36*
X13716Y-19304D02*
X14732Y-20320D01*
D37*
X-24130Y-26162D02*
X-24130Y-26187D01*
X-23899Y-22098D02*
X-23876Y-22098D01*
D36*
X10154Y-4064D02*
X7366Y-4064D01*
D37*
X-25908Y20066D02*
X-25654Y20066D01*
D36*
X6858Y-3556D02*
X6858Y-3556D01*
X-16385Y12154D02*
X-15630Y12154D01*
X-24384Y-13208D02*
X-20310Y-13208D01*
X2286Y-1778D02*
X2794Y-2286D01*
X7641Y-3313D02*
X7366Y-3038D01*
X16002Y-21844D02*
X13462Y-24384D01*
X21073Y1887D02*
X21196Y2010D01*
D37*
X21844Y26162D02*
X21082Y26162D01*
D36*
X1086Y-1476D02*
X0254Y-2308D01*
X21196Y1887D02*
X21196Y-3324D01*
X12074Y-2144D02*
X10905Y-3313D01*
D38*
X6350Y3060D03*
X24752Y-0399D03*
X5954Y12712D03*
X0664Y-7388D03*
X8079Y-0063D03*
X4070Y0454D03*
X9144Y-24384D03*
X-24384Y-13208D03*
X-0768Y1470D03*
X-8348Y13556D03*
X8128Y-8404D03*
X23876Y-23876D03*
X-23901Y23901D03*
X8079Y-2308D03*
X23876Y-1505D03*
X-25908Y1270D03*
X28702Y-21082D03*
X2540Y-22138D03*
X12074Y4677D03*
X0762Y-3302D03*
X-21107Y-28473D03*
X4248Y-1324D03*
X-21107Y-26187D03*
X14478Y9902D03*
X25146Y25146D03*
X22606Y1887D03*
X-26187Y21107D03*
X21196Y-4086D03*
X11138Y1237D03*
X-24130Y-24130D03*
X25146Y-25146D03*
X5842Y-10690D03*
X6350Y-19304D03*
X-22916Y-10438D03*
X-20552Y14948D03*
X0Y-19050D03*
X-28727Y21107D03*
X3556Y17134D03*
X23876Y23876D03*
X8382Y-14478D03*
X26162Y-21082D03*
X14224Y-13970D03*
X14190Y-6574D03*
X22606Y0333D03*
X14986Y0486D03*
X1086Y0232D03*
X14732Y-20320D03*
X4572Y21590D03*
X0Y-14194D03*
X-10228Y13556D03*
X-18796Y-13208D03*
X-2398Y-5214D03*
X11006Y-7549D03*
X21082Y28702D03*
X-17131Y12900D03*
X5080Y-22098D03*
X-24892Y-3810D03*
X-0768Y-1140D03*
X9652Y-8404D03*
X21082Y26162D03*
X21196Y2010D03*
X10905Y2524D03*
X7620Y21590D03*
X-2398Y3138D03*
X-2540Y-27686D03*
X20434Y-9114D03*
X-5588Y17134D03*
X-10228Y19520D03*
X-25146Y-25146D03*
X14986Y-1038D03*
X-25171Y25171D03*
X5702Y-24384D03*
X5954Y18662D03*
X8079Y3138D03*
X8955Y9902D03*
X-20310Y-13208D03*
X-17582Y-10438D03*
X-3556Y-14224D03*
X2286Y-3302D03*
X1270Y26050D03*
X-11176Y-5356D03*
X7592Y-10690D03*
X9605Y3138D03*
%LNbottom copper component db8f1da01d8f6e47*%
D39*
X-7112Y-8118D03*
X-7112Y-3038D03*
%LNbottom copper component 26f6fa9b4e3697ca*%
D40*
X-19360Y6348D03*
X-19360Y4348D03*
%LNbottom copper component b0b7ce341c71e36d*%
D41*
X21867Y24130D03*
D42*
X22999Y25261D03*
X24130Y26393D03*
X26393Y24130D03*
X25261Y22999D03*
X24130Y21867D03*
%LNbottom copper component 0aa07872bdd810e4*%
D43*
X-21867Y-24130D03*
D44*
X-22999Y-25261D03*
X-24130Y-26393D03*
X-26393Y-24130D03*
X-25261Y-22999D03*
X-24130Y-21867D03*
%LNbottom copper component b05ff74f7c6ce018*%
D45*
X24130Y-21867D03*
D46*
X25261Y-22999D03*
X26393Y-24130D03*
X24130Y-26393D03*
X22999Y-25261D03*
X21867Y-24130D03*
%LNbottom copper component 20fe53ca9ea174ff*%
D47*
X-24130Y21867D03*
D48*
X-25261Y22999D03*
X-26393Y24130D03*
X-24130Y26393D03*
X-22999Y25261D03*
X-21867Y24130D03*
%LNbottom copper component ab0f4d277d178ad3*%
D49*
X3204Y-9420D03*
X0664Y-9420D03*
X-1876Y-9420D03*
X3204Y-11960D03*
X0664Y-11960D03*
X-1876Y-11960D03*
M02*