%FSLAX33Y33*%
%MOMM*%
%ADD10C,0.508*%
%ADD11C,0.15*%
%ADD12C,0.2032*%
%ADD13C,0.5*%
%ADD14C,0.5*%
%ADD15C,0.6*%
%ADD16C,0.5*%
%ADD17C,5.334X4.826*%
%ADD18C,5.334X4.826*%
%ADD19C,0.25*%
%ADD20C,0.5*%
%ADD21C,0.32*%
%ADD22C,0.5*%
D10*
%LNpath-1*%
G01*
X-21336Y-30480D02*
X-17526Y-26670D01*
X-26670Y-17526*
X-30480Y-21336*
X-21336Y-30480*
%LNpath-2*%
G75*
G03*
X-30734Y0D02*
X30480Y0I30607J0125D01*
X30480Y0D02*
X-30734Y0I-30607J-0127D01*
G01*
X-30734Y0D02*
X-30734Y0D01*
%LNpath-3*%
X-30480Y21336D02*
X-26670Y17526D01*
X-17526Y26670*
X-21336Y30480*
X-30480Y21336*
%LNpath-4*%
X30480Y-21336D02*
X26670Y-17526D01*
X17526Y-26670*
X21336Y-30480*
X30480Y-21336*
%LNpath-5*%
X21336Y30480D02*
X17526Y26670D01*
X26670Y17526*
X30480Y21336*
X21336Y30480*
X21336Y30480*
%LNpath-1*%
X-21336Y-30480D02*
X-17526Y-26670D01*
X-26670Y-17526*
X-30480Y-21336*
X-21336Y-30480*
%LNpath-2*%
G03*
X-30734Y0D02*
X30480Y0I30607J0125D01*
X30480Y0D02*
X-30734Y0I-30607J-0127D01*
G01*
X-30734Y0D02*
X-30734Y0D01*
%LNpath-3*%
X-30480Y21336D02*
X-26670Y17526D01*
X-17526Y26670*
X-21336Y30480*
X-30480Y21336*
%LNpath-4*%
X30480Y-21336D02*
X26670Y-17526D01*
X17526Y-26670*
X21336Y-30480*
X30480Y-21336*
%LNpath-5*%
X21336Y30480D02*
X17526Y26670D01*
X26670Y17526*
X30480Y21336*
X21336Y30480*
X21336Y30480*
%LNtop silkscreen_traces*%
%LNtop silkscreen component beb80eaad782ebe9*%
D11*
X-8557Y14581D02*
X-11899Y14581D01*
X-8557Y14581D02*
X-8557Y16331D01*
X-11899Y16331*
X-11899Y14581*
D12*
X-8257Y14930D02*
X-8257Y16260D01*
X-7674Y16260*
X-7586Y16257*
X-7511Y16251*
X-7450Y16239*
X-7401Y16225*
X-7361Y16205*
X-7326Y16180*
X-7294Y16148*
X-7266Y16109*
X-7244Y16065*
X-7227Y16019*
X-7217Y15971*
X-7214Y15921*
X-7220Y15856*
X-7236Y15798*
X-7262Y15746*
X-7299Y15699*
X-7347Y15658*
X-7408Y15624*
X-7483Y15598*
X-7721Y15552*
X-7556Y15468*
X-7527Y15451*
X-7504Y15436*
X-7486Y15421*
X-7448Y15384*
X-7411Y15341*
X-7374Y15293*
X-7337Y15241*
X-7139Y14930*
X-7256Y14930*
X-7431Y15204*
X-7471Y15266*
X-7508Y15320*
X-7541Y15366*
X-7571Y15406*
X-7599Y15439*
X-7626Y15468*
X-7652Y15493*
X-7679Y15512*
X-7704Y15527*
X-7729Y15540*
X-7755Y15550*
X-7782Y15558*
X-7806Y15561*
X-7832Y15564*
X-7863Y15565*
X-7898Y15566*
X-8169Y15566*
X-8169Y14930*
X-8257Y14930*
X-8118Y15679D02*
X-8118Y15679D01*
X-7711Y15679*
X-7650Y15680*
X-7595Y15686*
X-7548Y15694*
X-7508Y15706*
X-7474Y15721*
X-7444Y15741*
X-7418Y15764*
X-7397Y15792*
X-7380Y15822*
X-7368Y15853*
X-7361Y15886*
X-7359Y15920*
X-7363Y15969*
X-7377Y16013*
X-7400Y16052*
X-7432Y16087*
X-7475Y16116*
X-7527Y16136*
X-7591Y16148*
X-7665Y16152*
X-8118Y16152*
X-8118Y15679*
X-6875Y16174D02*
X-6875Y16241D01*
X-6050Y16241*
X-6050Y16174*
X-6107Y16109*
X-6177Y16015*
X-6246Y15910*
X-6315Y15793*
X-6379Y15669*
X-6436Y15544*
X-6485Y15416*
X-6527Y15287*
X-6551Y15192*
X-6571Y15093*
X-6586Y14990*
X-6591Y14930*
X-6672Y14930*
X-6670Y14963*
X-6658Y15057*
X-6638Y15161*
X-6610Y15274*
X-6576Y15390*
X-6535Y15504*
X-6487Y15615*
X-6432Y15725*
X-6373Y15829*
X-6313Y15925*
X-6250Y16012*
X-6118Y16174*
X-6875Y16174*
%LNtop silkscreen component f220e2559b024aca*%
D13*
X11755Y-21716D02*
X8078Y-18039D01*
X11755Y-14362*
X15432Y-18039*
X11755Y-21716*
D12*
X14905Y-21032D02*
X14957Y-20970D01*
X14963Y-20975*
X15010Y-21001*
X15058Y-21021*
X15106Y-21034*
X15156Y-21040*
X15207Y-21037*
X15260Y-21026*
X15314Y-21008*
X15368Y-20984*
X15420Y-20952*
X15470Y-20915*
X15517Y-20872*
X15556Y-20830*
X15589Y-20787*
X15617Y-20743*
X15640Y-20698*
X15657Y-20653*
X15668Y-20608*
X15672Y-20563*
X15669Y-20520*
X15659Y-20480*
X15644Y-20442*
X15623Y-20407*
X15597Y-20377*
X15566Y-20350*
X15532Y-20329*
X15495Y-20315*
X15456Y-20306*
X15414Y-20305*
X15370Y-20311*
X15325Y-20323*
X15278Y-20342*
X15240Y-20361*
X15188Y-20389*
X15122Y-20428*
X15043Y-20476*
X14963Y-20523*
X14895Y-20560*
X14839Y-20587*
X14795Y-20603*
X14747Y-20615*
X14701Y-20621*
X14659Y-20621*
X14619Y-20616*
X14582Y-20604*
X14547Y-20588*
X14514Y-20566*
X14483Y-20539*
X14453Y-20504*
X14428Y-20466*
X14410Y-20424*
X14397Y-20378*
X14391Y-20330*
X14392Y-20282*
X14402Y-20231*
X14420Y-20179*
X14445Y-20126*
X14477Y-20074*
X14515Y-20024*
X14560Y-19975*
X14614Y-19926*
X14668Y-19885*
X14723Y-19851*
X14778Y-19824*
X14832Y-19806*
X14885Y-19797*
X14937Y-19795*
X14988Y-19802*
X15037Y-19816*
X15085Y-19836*
X15130Y-19864*
X15134Y-19868*
X15079Y-19932*
X15060Y-19919*
X14998Y-19890*
X14934Y-19875*
X14868Y-19874*
X14802Y-19888*
X14738Y-19917*
X14674Y-19960*
X14612Y-20016*
X14554Y-20080*
X14510Y-20142*
X14479Y-20205*
X14464Y-20267*
X14463Y-20326*
X14474Y-20380*
X14496Y-20430*
X14530Y-20472*
X14567Y-20503*
X14608Y-20524*
X14652Y-20536*
X14700Y-20538*
X14756Y-20526*
X14823Y-20499*
X14903Y-20457*
X14997Y-20401*
X15089Y-20344*
X15167Y-20299*
X15230Y-20266*
X15277Y-20245*
X15334Y-20228*
X15388Y-20218*
X15437Y-20215*
X15483Y-20221*
X15526Y-20232*
X15567Y-20251*
X15606Y-20276*
X15643Y-20308*
X15675Y-20345*
X15701Y-20386*
X15721Y-20432*
X15735Y-20481*
X15742Y-20533*
X15741Y-20586*
X15732Y-20641*
X15715Y-20697*
X15690Y-20754*
X15658Y-20809*
X15619Y-20862*
X15571Y-20914*
X15506Y-20974*
X15442Y-21024*
X15379Y-21064*
X15318Y-21093*
X15259Y-21112*
X15199Y-21122*
X15140Y-21123*
X15081Y-21115*
X15023Y-21099*
X14969Y-21075*
X14917Y-21043*
X14905Y-21032*
X16316Y-20135D02*
X15126Y-19444D01*
X15188Y-19382*
X15971Y-19870*
X16035Y-19910*
X16098Y-19950*
X16159Y-19991*
X16418Y-20170*
X16236Y-19875*
X16195Y-19806*
X16166Y-19759*
X16151Y-19733*
X15679Y-18891*
X15786Y-18784*
X16410Y-19132*
X16528Y-19200*
X16639Y-19269*
X16744Y-19338*
X17064Y-19568*
X16875Y-19280*
X16834Y-19215*
X16791Y-19146*
X16745Y-19071*
X16274Y-18295*
X16334Y-18236*
X17016Y-19434*
X16942Y-19509*
X15991Y-18970*
X15935Y-18938*
X15892Y-18914*
X15861Y-18895*
X15659Y-18772*
X15798Y-18995*
X15821Y-19033*
X15842Y-19068*
X15860Y-19101*
X16398Y-20053*
X16316Y-20135*
X17242Y-18816D02*
X17296Y-18751D01*
X17316Y-18764*
X17377Y-18791*
X17438Y-18808*
X17499Y-18811*
X17557Y-18803*
X17612Y-18784*
X17663Y-18755*
X17709Y-18716*
X17754Y-18661*
X17786Y-18599*
X17804Y-18531*
X17807Y-18459*
X17797Y-18385*
X17770Y-18314*
X17730Y-18246*
X17675Y-18183*
X17615Y-18131*
X17551Y-18093*
X17483Y-18069*
X17412Y-18060*
X17343Y-18066*
X17276Y-18087*
X17214Y-18122*
X17158Y-18170*
X17126Y-18206*
X17100Y-18244*
X17079Y-18285*
X17064Y-18328*
X17054Y-18372*
X17050Y-18415*
X17051Y-18457*
X17053Y-18467*
X16987Y-18517*
X16619Y-17978*
X17057Y-17541*
X17104Y-17588*
X16706Y-17985*
X17011Y-18442*
X17056Y-18260*
X17081Y-18200*
X17113Y-18147*
X17153Y-18100*
X17215Y-18048*
X17282Y-18011*
X17354Y-17990*
X17432Y-17982*
X17511Y-17991*
X17585Y-18015*
X17656Y-18055*
X17724Y-18113*
X17780Y-18178*
X17822Y-18247*
X17851Y-18321*
X17867Y-18399*
X17867Y-18495*
X17846Y-18584*
X17804Y-18667*
X17738Y-18747*
X17674Y-18803*
X17607Y-18843*
X17539Y-18869*
X17468Y-18880*
X17398Y-18878*
X17330Y-18861*
X17264Y-18831*
X17242Y-18816*
%LNtop silkscreen component 716399b5ec3ff10e*%
D11*
X20338Y-4713D02*
X11763Y-4713D01*
X20338Y-4713D02*
X20338Y2637D01*
X11763Y2637*
X11763Y-4713*
D12*
X12687Y4383D02*
X12775Y4383D01*
X12775Y3607*
X12772Y3507*
X12764Y3420*
X12749Y3345*
X12730Y3282*
X12704Y3229*
X12670Y3182*
X12627Y3139*
X12574Y3101*
X12513Y3070*
X12442Y3047*
X12360Y3033*
X12266Y3028*
X12175Y3033*
X12094Y3045*
X12023Y3065*
X11962Y3092*
X11909Y3126*
X11866Y3166*
X11830Y3213*
X11802Y3267*
X11780Y3332*
X11764Y3411*
X11754Y3502*
X11751Y3607*
X11751Y4383*
X11839Y4383*
X11839Y3607*
X11841Y3518*
X11848Y3439*
X11860Y3371*
X11877Y3314*
X11901Y3265*
X11933Y3221*
X11972Y3183*
X12018Y3152*
X12070Y3128*
X12126Y3111*
X12186Y3101*
X12250Y3098*
X12354Y3104*
X12445Y3124*
X12522Y3158*
X12586Y3208*
X12633Y3279*
X12664Y3369*
X12682Y3478*
X12687Y3606*
X12687Y4383*
X13133Y4297D02*
X13133Y4364D01*
X13958Y4364*
X13958Y4297*
X13901Y4232*
X13831Y4138*
X13762Y4033*
X13693Y3916*
X13629Y3792*
X13572Y3667*
X13523Y3539*
X13481Y3410*
X13457Y3315*
X13437Y3216*
X13422Y3113*
X13417Y3053*
X13336Y3053*
X13338Y3086*
X13350Y3180*
X13370Y3284*
X13398Y3397*
X13432Y3513*
X13473Y3627*
X13521Y3738*
X13576Y3848*
X13635Y3952*
X13695Y4048*
X13758Y4135*
X13890Y4297*
X13133Y4297*
X14594Y3773D02*
X14425Y3846D01*
X14387Y3869*
X14357Y3894*
X14332Y3922*
X14314Y3954*
X14300Y3989*
X14292Y4027*
X14289Y4070*
X14295Y4135*
X14313Y4194*
X14343Y4247*
X14385Y4296*
X14438Y4336*
X14499Y4365*
X14569Y4383*
X14649Y4389*
X14730Y4382*
X14801Y4364*
X14863Y4335*
X14916Y4293*
X14959Y4244*
X14990Y4190*
X15008Y4131*
X15014Y4065*
X15012Y4024*
X15004Y3987*
X14990Y3953*
X14972Y3922*
X14948Y3893*
X14918Y3868*
X14881Y3846*
X14724Y3776*
X14894Y3708*
X14942Y3680*
X14981Y3648*
X15014Y3610*
X15040Y3567*
X15058Y3520*
X15069Y3468*
X15073Y3412*
X15066Y3333*
X15044Y3262*
X15009Y3198*
X14959Y3140*
X14897Y3091*
X14826Y3057*
X14745Y3036*
X14652Y3029*
X14560Y3036*
X14479Y3057*
X14408Y3091*
X14346Y3140*
X14296Y3199*
X14260Y3264*
X14239Y3336*
X14232Y3417*
X14236Y3476*
X14247Y3529*
X14266Y3577*
X14292Y3619*
X14325Y3656*
X14365Y3686*
X14411Y3711*
X14594Y3773*
X14418Y4076D02*
X14418Y4076D01*
X14422Y4028*
X14434Y3984*
X14455Y3945*
X14483Y3910*
X14519Y3882*
X14559Y3862*
X14603Y3850*
X14653Y3846*
X14702Y3850*
X14746Y3862*
X14785Y3882*
X14820Y3910*
X14848Y3943*
X14869Y3981*
X14881Y4022*
X14885Y4066*
X14881Y4113*
X14868Y4155*
X14847Y4194*
X14818Y4229*
X14782Y4258*
X14743Y4278*
X14699Y4291*
X14651Y4295*
X14603Y4291*
X14559Y4279*
X14520Y4259*
X14484Y4231*
X14455Y4197*
X14435Y4160*
X14422Y4120*
X14418Y4076*
X14361Y3415D02*
X14361Y3415D01*
X14364Y3378*
X14370Y3341*
X14381Y3305*
X14397Y3270*
X14417Y3236*
X14441Y3207*
X14470Y3182*
X14503Y3161*
X14539Y3144*
X14576Y3132*
X14614Y3125*
X14654Y3122*
X14715Y3127*
X14769Y3142*
X14819Y3168*
X14862Y3203*
X14898Y3246*
X14924Y3295*
X14939Y3349*
X14944Y3409*
X14939Y3470*
X14923Y3525*
X14897Y3575*
X14860Y3619*
X14815Y3656*
X14765Y3681*
X14709Y3697*
X14648Y3702*
X14589Y3697*
X14535Y3682*
X14486Y3656*
X14443Y3620*
X14407Y3577*
X14382Y3528*
X14366Y3474*
X14361Y3415*
D14*
X18927Y-4613D03*
%LNtop silkscreen component c42ff391cce3d33d*%
D11*
X-15201Y5223D02*
X-11859Y5223D01*
X-15201Y5223D02*
X-15201Y3473D01*
X-11859Y3473*
X-11859Y5223*
D12*
X-11695Y3746D02*
X-11695Y5076D01*
X-11112Y5076*
X-11024Y5073*
X-10949Y5067*
X-10888Y5055*
X-10839Y5041*
X-10799Y5021*
X-10764Y4996*
X-10732Y4964*
X-10704Y4925*
X-10682Y4881*
X-10665Y4835*
X-10655Y4787*
X-10652Y4737*
X-10658Y4672*
X-10674Y4614*
X-10700Y4562*
X-10737Y4515*
X-10785Y4474*
X-10846Y4440*
X-10921Y4414*
X-11159Y4368*
X-10994Y4284*
X-10965Y4267*
X-10942Y4252*
X-10924Y4237*
X-10886Y4200*
X-10849Y4157*
X-10812Y4109*
X-10775Y4057*
X-10577Y3746*
X-10694Y3746*
X-10869Y4020*
X-10909Y4082*
X-10946Y4136*
X-10979Y4182*
X-11009Y4222*
X-11037Y4255*
X-11064Y4284*
X-11090Y4309*
X-11117Y4328*
X-11142Y4343*
X-11167Y4356*
X-11193Y4366*
X-11220Y4374*
X-11244Y4377*
X-11270Y4380*
X-11301Y4381*
X-11336Y4382*
X-11607Y4382*
X-11607Y3746*
X-11695Y3746*
X-11556Y4495D02*
X-11556Y4495D01*
X-11149Y4495*
X-11088Y4496*
X-11033Y4502*
X-10986Y4510*
X-10946Y4522*
X-10912Y4537*
X-10882Y4557*
X-10856Y4580*
X-10835Y4608*
X-10818Y4638*
X-10806Y4669*
X-10799Y4702*
X-10797Y4736*
X-10801Y4785*
X-10815Y4829*
X-10838Y4868*
X-10870Y4903*
X-10913Y4932*
X-10965Y4952*
X-11029Y4964*
X-11103Y4968*
X-11556Y4968*
X-11556Y4495*
X-9525Y4822D02*
X-9600Y4816D01*
X-9603Y4826*
X-9620Y4872*
X-9641Y4913*
X-9667Y4948*
X-9713Y4987*
X-9764Y5016*
X-9820Y5033*
X-9880Y5039*
X-9929Y5035*
X-9975Y5025*
X-10018Y5007*
X-10058Y4982*
X-10103Y4943*
X-10143Y4897*
X-10177Y4844*
X-10206Y4783*
X-10229Y4713*
X-10246Y4631*
X-10256Y4538*
X-10266Y4271*
X-10136Y4446*
X-10104Y4480*
X-10068Y4509*
X-10030Y4532*
X-9989Y4550*
X-9947Y4563*
X-9905Y4570*
X-9862Y4573*
X-9786Y4566*
X-9719Y4544*
X-9656Y4509*
X-9599Y4459*
X-9551Y4398*
X-9517Y4328*
X-9496Y4249*
X-9489Y4159*
X-9492Y4099*
X-9502Y4041*
X-9519Y3986*
X-9542Y3932*
X-9570Y3883*
X-9603Y3841*
X-9640Y3806*
X-9682Y3776*
X-9728Y3752*
X-9778Y3735*
X-9830Y3725*
X-9886Y3722*
X-9981Y3731*
X-10065Y3758*
X-10140Y3802*
X-10205Y3865*
X-10260Y3949*
X-10300Y4059*
X-10324Y4198*
X-10333Y4365*
X-10323Y4553*
X-10296Y4710*
X-10251Y4838*
X-10190Y4937*
X-10126Y5000*
X-10052Y5045*
X-9967Y5072*
X-9869Y5082*
X-9797Y5076*
X-9733Y5061*
X-9676Y5035*
X-9627Y4999*
X-9585Y4955*
X-9552Y4902*
X-9529Y4841*
X-9525Y4822*
X-10181Y4159D02*
X-10181Y4159D01*
X-10179Y4114*
X-10172Y4070*
X-10160Y4027*
X-10143Y3985*
X-10122Y3946*
X-10097Y3912*
X-10068Y3883*
X-10035Y3859*
X-10000Y3840*
X-9964Y3826*
X-9927Y3818*
X-9889Y3815*
X-9836Y3821*
X-9786Y3838*
X-9740Y3866*
X-9698Y3905*
X-9663Y3954*
X-9638Y4011*
X-9623Y4076*
X-9618Y4149*
X-9623Y4219*
X-9638Y4282*
X-9662Y4336*
X-9697Y4383*
X-9739Y4420*
X-9786Y4447*
X-9839Y4463*
X-9896Y4468*
X-9954Y4463*
X-10006Y4447*
X-10055Y4420*
X-10098Y4383*
X-10135Y4337*
X-10161Y4284*
X-10176Y4225*
X-10181Y4159*
%LNtop silkscreen component 05a1bf65de73c0c1*%
D11*
X-22041Y-6139D02*
X-22041Y-9481D01*
X-22041Y-6139D02*
X-23791Y-6139D01*
X-23791Y-9481*
X-22041Y-9481*
D12*
X-22592Y-10688D02*
X-22569Y-10599D01*
X-22515Y-10617*
X-22426Y-10661*
X-22351Y-10715*
X-22289Y-10780*
X-22241Y-10854*
X-22206Y-10936*
X-22185Y-11027*
X-22177Y-11127*
X-22183Y-11231*
X-22200Y-11324*
X-22226Y-11405*
X-22264Y-11475*
X-22311Y-11537*
X-22368Y-11591*
X-22436Y-11638*
X-22514Y-11677*
X-22600Y-11708*
X-22689Y-11731*
X-22782Y-11744*
X-22877Y-11749*
X-22981Y-11743*
X-23076Y-11728*
X-23164Y-11703*
X-23244Y-11669*
X-23317Y-11625*
X-23379Y-11574*
X-23432Y-11514*
X-23476Y-11446*
X-23511Y-11371*
X-23536Y-11293*
X-23551Y-11210*
X-23556Y-11124*
X-23550Y-11028*
X-23531Y-10941*
X-23500Y-10863*
X-23457Y-10793*
X-23402Y-10732*
X-23338Y-10680*
X-23262Y-10639*
X-23226Y-10626*
X-23206Y-10713*
X-23240Y-10726*
X-23309Y-10763*
X-23367Y-10807*
X-23414Y-10858*
X-23450Y-10917*
X-23476Y-10981*
X-23491Y-11052*
X-23496Y-11128*
X-23490Y-11213*
X-23474Y-11293*
X-23446Y-11367*
X-23407Y-11433*
X-23359Y-11490*
X-23303Y-11539*
X-23240Y-11578*
X-23170Y-11607*
X-23099Y-11628*
X-23026Y-11643*
X-22953Y-11652*
X-22879Y-11655*
X-22786Y-11651*
X-22699Y-11641*
X-22617Y-11623*
X-22541Y-11598*
X-22471Y-11565*
X-22408Y-11522*
X-22356Y-11471*
X-22313Y-11412*
X-22280Y-11348*
X-22256Y-11282*
X-22242Y-11213*
X-22238Y-11142*
X-22244Y-11058*
X-22263Y-10979*
X-22296Y-10906*
X-22341Y-10840*
X-22400Y-10782*
X-22470Y-10736*
X-22551Y-10699*
X-22592Y-10688*
X-22269Y-9499D02*
X-22202Y-9499D01*
X-22202Y-10342*
X-22179Y-10343*
X-22205Y-10340*
X-22230Y-10334*
X-22255Y-10326*
X-22299Y-10307*
X-22343Y-10283*
X-22387Y-10254*
X-22431Y-10219*
X-22477Y-10177*
X-22528Y-10126*
X-22582Y-10065*
X-22641Y-9995*
X-22733Y-9887*
X-22815Y-9797*
X-22889Y-9725*
X-22953Y-9672*
X-23014Y-9632*
X-23074Y-9603*
X-23135Y-9586*
X-23195Y-9579*
X-23255Y-9585*
X-23311Y-9602*
X-23362Y-9631*
X-23408Y-9670*
X-23446Y-9718*
X-23473Y-9773*
X-23489Y-9834*
X-23494Y-9900*
X-23489Y-9969*
X-23472Y-10032*
X-23443Y-10090*
X-23403Y-10139*
X-23352Y-10180*
X-23294Y-10208*
X-23228Y-10225*
X-23212Y-10227*
X-23219Y-10302*
X-23257Y-10296*
X-23331Y-10270*
X-23393Y-10234*
X-23444Y-10188*
X-23484Y-10131*
X-23514Y-10063*
X-23531Y-9985*
X-23538Y-9896*
X-23531Y-9806*
X-23512Y-9729*
X-23481Y-9662*
X-23437Y-9605*
X-23384Y-9559*
X-23326Y-9527*
X-23262Y-9507*
X-23190Y-9501*
X-23153Y-9503*
X-23116Y-9508*
X-23079Y-9518*
X-23042Y-9532*
X-23004Y-9550*
X-22965Y-9574*
X-22924Y-9604*
X-22881Y-9640*
X-22833Y-9685*
X-22776Y-9745*
X-22709Y-9818*
X-22634Y-9906*
X-22573Y-9978*
X-22522Y-10036*
X-22481Y-10081*
X-22450Y-10112*
X-22425Y-10136*
X-22399Y-10157*
X-22373Y-10176*
X-22269Y-10244*
X-22269Y-9499*
%LNtop silkscreen component 4296f28cb9e6f1b4*%
X9121Y6965D02*
X9121Y7052D01*
X9897Y7052*
X9997Y7049*
X10084Y7041*
X10159Y7026*
X10222Y7007*
X10275Y6981*
X10322Y6947*
X10365Y6904*
X10403Y6852*
X10434Y6790*
X10457Y6719*
X10471Y6637*
X10476Y6543*
X10471Y6453*
X10459Y6371*
X10439Y6300*
X10412Y6239*
X10378Y6186*
X10338Y6143*
X10291Y6107*
X10237Y6079*
X10172Y6057*
X10093Y6041*
X10002Y6031*
X9897Y6028*
X9121Y6028*
X9121Y6116*
X9897Y6116*
X9986Y6118*
X10065Y6125*
X10133Y6137*
X10190Y6154*
X10239Y6178*
X10283Y6210*
X10321Y6249*
X10352Y6295*
X10376Y6347*
X10393Y6403*
X10403Y6463*
X10406Y6527*
X10400Y6631*
X10380Y6722*
X10346Y6799*
X10296Y6863*
X10225Y6910*
X10135Y6941*
X10026Y6959*
X9898Y6965*
X9121Y6965*
X10167Y7408D02*
X10157Y7486D01*
X10186Y7493*
X10251Y7519*
X10308Y7552*
X10353Y7592*
X10388Y7639*
X10413Y7690*
X10428Y7745*
X10433Y7805*
X10427Y7874*
X10408Y7938*
X10376Y7997*
X10332Y8050*
X10279Y8094*
X10219Y8125*
X10153Y8144*
X10083Y8150*
X10016Y8145*
X9954Y8127*
X9897Y8097*
X9847Y8056*
X9806Y8006*
X9777Y7949*
X9759Y7886*
X9754Y7820*
X9755Y7788*
X9759Y7755*
X9766Y7720*
X9758Y7755*
X9726Y7759*
X9721Y7718*
X9722Y7727*
X9723Y7735*
X9723Y7744*
X9719Y7805*
X9706Y7864*
X9685Y7920*
X9655Y7974*
X9614Y8022*
X9562Y8058*
X9501Y8079*
X9433Y8086*
X9377Y8081*
X9325Y8066*
X9278Y8040*
X9236Y8005*
X9202Y7962*
X9177Y7913*
X9163Y7859*
X9158Y7800*
X9163Y7743*
X9177Y7688*
X9202Y7639*
X9237Y7594*
X9280Y7557*
X9333Y7527*
X9392Y7506*
X9408Y7502*
X9395Y7429*
X9369Y7435*
X9303Y7464*
X9247Y7500*
X9201Y7546*
X9164Y7598*
X9137Y7657*
X9121Y7723*
X9115Y7797*
X9118Y7848*
X9127Y7898*
X9141Y7944*
X9160Y7989*
X9184Y8030*
X9212Y8065*
X9243Y8095*
X9278Y8120*
X9316Y8139*
X9355Y8153*
X9395Y8162*
X9437Y8165*
X9475Y8162*
X9511Y8154*
X9545Y8141*
X9577Y8123*
X9608Y8100*
X9635Y8072*
X9659Y8037*
X9739Y7887*
X9792Y8059*
X9815Y8104*
X9844Y8143*
X9879Y8175*
X9920Y8201*
X9967Y8220*
X10020Y8231*
X10078Y8235*
X10159Y8227*
X10232Y8205*
X10299Y8167*
X10360Y8114*
X10411Y8049*
X10447Y7976*
X10469Y7895*
X10476Y7803*
X10470Y7722*
X10451Y7648*
X10420Y7583*
X10377Y7525*
X10324Y7476*
X10264Y7438*
X10196Y7413*
X10167Y7408*
X10167Y8520D02*
X10157Y8598D01*
X10186Y8606*
X10251Y8631*
X10308Y8664*
X10353Y8705*
X10388Y8751*
X10413Y8802*
X10428Y8858*
X10433Y8917*
X10427Y8986*
X10408Y9050*
X10376Y9110*
X10332Y9162*
X10279Y9206*
X10219Y9238*
X10153Y9256*
X10083Y9263*
X10016Y9257*
X9954Y9239*
X9897Y9210*
X9847Y9169*
X9806Y9118*
X9777Y9061*
X9759Y8999*
X9754Y8932*
X9755Y8901*
X9759Y8868*
X9766Y8832*
X9758Y8867*
X9726Y8871*
X9721Y8831*
X9722Y8839*
X9723Y8847*
X9723Y8856*
X9719Y8917*
X9706Y8976*
X9685Y9032*
X9655Y9086*
X9614Y9135*
X9562Y9171*
X9501Y9192*
X9433Y9198*
X9377Y9193*
X9325Y9178*
X9278Y9153*
X9236Y9117*
X9202Y9074*
X9177Y9025*
X9163Y8971*
X9158Y8913*
X9163Y8855*
X9177Y8801*
X9202Y8751*
X9237Y8707*
X9280Y8669*
X9333Y8639*
X9392Y8618*
X9408Y8615*
X9395Y8541*
X9369Y8548*
X9303Y8576*
X9247Y8613*
X9201Y8658*
X9164Y8711*
X9137Y8769*
X9121Y8835*
X9115Y8909*
X9118Y8961*
X9127Y9010*
X9141Y9057*
X9160Y9102*
X9184Y9142*
X9212Y9177*
X9243Y9207*
X9278Y9232*
X9316Y9252*
X9355Y9266*
X9395Y9274*
X9437Y9277*
X9475Y9274*
X9511Y9267*
X9545Y9254*
X9577Y9236*
X9608Y9212*
X9635Y9184*
X9659Y9150*
X9739Y8999*
X9792Y9171*
X9815Y9217*
X9844Y9255*
X9879Y9287*
X9920Y9313*
X9967Y9332*
X10020Y9343*
X10078Y9347*
X10159Y9340*
X10232Y9317*
X10299Y9280*
X10360Y9226*
X10411Y9161*
X10447Y9089*
X10469Y9007*
X10476Y8916*
X10470Y8834*
X10451Y8761*
X10420Y8695*
X10377Y8637*
X10324Y8588*
X10264Y8551*
X10196Y8525*
X10167Y8520*
D15*
X14074Y5802D03*
%LNtop silkscreen component aa8b2c3a0102c054*%
D11*
X-11069Y7441D02*
X-7727Y7441D01*
X-11069Y7441D02*
X-11069Y5691D01*
X-7727Y5691*
X-7727Y7441*
D12*
X-7563Y5964D02*
X-7563Y7294D01*
X-6980Y7294*
X-6892Y7291*
X-6817Y7285*
X-6756Y7273*
X-6707Y7259*
X-6667Y7239*
X-6632Y7214*
X-6600Y7182*
X-6572Y7143*
X-6550Y7099*
X-6533Y7053*
X-6523Y7005*
X-6520Y6955*
X-6526Y6890*
X-6542Y6832*
X-6568Y6780*
X-6605Y6733*
X-6653Y6692*
X-6714Y6658*
X-6789Y6632*
X-7027Y6586*
X-6862Y6502*
X-6833Y6485*
X-6810Y6470*
X-6792Y6455*
X-6754Y6418*
X-6717Y6375*
X-6680Y6327*
X-6643Y6275*
X-6445Y5964*
X-6562Y5964*
X-6737Y6238*
X-6777Y6300*
X-6814Y6354*
X-6847Y6400*
X-6877Y6440*
X-6905Y6473*
X-6932Y6502*
X-6958Y6527*
X-6985Y6546*
X-7010Y6561*
X-7035Y6574*
X-7061Y6584*
X-7088Y6592*
X-7112Y6595*
X-7138Y6598*
X-7169Y6599*
X-7204Y6600*
X-7475Y6600*
X-7475Y5964*
X-7563Y5964*
X-7424Y6713D02*
X-7424Y6713D01*
X-7017Y6713*
X-6956Y6714*
X-6901Y6720*
X-6854Y6728*
X-6814Y6740*
X-6780Y6755*
X-6750Y6775*
X-6724Y6798*
X-6703Y6826*
X-6686Y6856*
X-6674Y6887*
X-6667Y6920*
X-6665Y6954*
X-6669Y7003*
X-6683Y7047*
X-6706Y7086*
X-6738Y7121*
X-6781Y7150*
X-6833Y7170*
X-6897Y7182*
X-6971Y7186*
X-7424Y7186*
X-7424Y6713*
X-6184Y6242D02*
X-6099Y6249D01*
X-6094Y6226*
X-6071Y6164*
X-6039Y6109*
X-5999Y6063*
X-5951Y6028*
X-5900Y6002*
X-5843Y5987*
X-5783Y5982*
X-5712Y5989*
X-5646Y6010*
X-5585Y6046*
X-5531Y6094*
X-5487Y6155*
X-5455Y6223*
X-5436Y6300*
X-5430Y6383*
X-5436Y6462*
X-5454Y6535*
X-5485Y6599*
X-5529Y6656*
X-5583Y6701*
X-5644Y6733*
X-5713Y6752*
X-5786Y6758*
X-5834Y6755*
X-5880Y6747*
X-5924Y6733*
X-5965Y6713*
X-6002Y6689*
X-6036Y6661*
X-6065Y6630*
X-6071Y6623*
X-6153Y6633*
X-6032Y7274*
X-5413Y7274*
X-5413Y7208*
X-5975Y7208*
X-6083Y6669*
X-5922Y6766*
X-5862Y6791*
X-5802Y6806*
X-5740Y6811*
X-5659Y6804*
X-5586Y6783*
X-5520Y6747*
X-5460Y6697*
X-5410Y6635*
X-5374Y6565*
X-5353Y6487*
X-5345Y6398*
X-5352Y6312*
X-5371Y6234*
X-5403Y6161*
X-5447Y6095*
X-5515Y6026*
X-5592Y5978*
X-5681Y5949*
X-5784Y5940*
X-5869Y5946*
X-5944Y5964*
X-6011Y5994*
X-6069Y6036*
X-6117Y6088*
X-6154Y6148*
X-6179Y6216*
X-6184Y6242*
%LNtop silkscreen component 06c0945df6a01aad*%
X-21881Y11293D02*
X-23211Y11293D01*
X-23211Y11381*
X-21949Y11381*
X-21949Y12086*
X-21881Y12086*
X-21881Y11293*
X-21881Y12902D02*
X-21881Y12828D01*
X-23063Y12828*
X-22959Y12711*
X-22931Y12674*
X-22902Y12632*
X-22873Y12585*
X-22846Y12536*
X-22822Y12491*
X-22802Y12448*
X-22814Y12477*
X-22877Y12477*
X-22901Y12522*
X-22943Y12592*
X-22989Y12657*
X-23039Y12717*
X-23090Y12771*
X-23142Y12817*
X-23193Y12855*
X-23217Y12869*
X-23217Y12902*
X-21881Y12902*
%LNtop silkscreen component 781711039570e6ff*%
D11*
X-16251Y16331D02*
X-12909Y16331D01*
X-16251Y16331D02*
X-16251Y14581D01*
X-12909Y14581*
X-12909Y16331*
D12*
X-16768Y15436D02*
X-16745Y15525D01*
X-16691Y15507*
X-16602Y15463*
X-16527Y15409*
X-16465Y15344*
X-16417Y15270*
X-16382Y15188*
X-16361Y15097*
X-16353Y14997*
X-16359Y14893*
X-16376Y14800*
X-16402Y14719*
X-16440Y14649*
X-16487Y14587*
X-16544Y14533*
X-16612Y14486*
X-16690Y14447*
X-16776Y14416*
X-16865Y14393*
X-16958Y14380*
X-17053Y14375*
X-17157Y14381*
X-17252Y14396*
X-17340Y14421*
X-17420Y14455*
X-17493Y14499*
X-17555Y14550*
X-17608Y14610*
X-17652Y14678*
X-17687Y14753*
X-17712Y14831*
X-17727Y14914*
X-17732Y15000*
X-17726Y15096*
X-17707Y15183*
X-17676Y15261*
X-17633Y15331*
X-17578Y15392*
X-17514Y15444*
X-17438Y15485*
X-17402Y15498*
X-17382Y15411*
X-17416Y15398*
X-17485Y15361*
X-17543Y15317*
X-17590Y15266*
X-17626Y15207*
X-17652Y15143*
X-17667Y15072*
X-17672Y14996*
X-17666Y14911*
X-17650Y14831*
X-17622Y14757*
X-17583Y14691*
X-17535Y14634*
X-17479Y14585*
X-17416Y14546*
X-17346Y14517*
X-17275Y14496*
X-17202Y14481*
X-17129Y14472*
X-17055Y14469*
X-16962Y14473*
X-16875Y14483*
X-16793Y14501*
X-16717Y14526*
X-16647Y14559*
X-16584Y14602*
X-16532Y14653*
X-16489Y14712*
X-16456Y14776*
X-16432Y14842*
X-16418Y14911*
X-16414Y14982*
X-16420Y15066*
X-16439Y15145*
X-16472Y15218*
X-16517Y15284*
X-16576Y15342*
X-16646Y15388*
X-16727Y15425*
X-16768Y15436*
X-16656Y15812D02*
X-16663Y15897D01*
X-16640Y15902*
X-16578Y15925*
X-16523Y15957*
X-16477Y15997*
X-16442Y16045*
X-16416Y16096*
X-16401Y16153*
X-16396Y16213*
X-16403Y16284*
X-16424Y16350*
X-16460Y16411*
X-16508Y16465*
X-16569Y16509*
X-16637Y16541*
X-16714Y16560*
X-16797Y16566*
X-16876Y16560*
X-16949Y16542*
X-17013Y16511*
X-17070Y16467*
X-17115Y16413*
X-17147Y16352*
X-17166Y16283*
X-17172Y16210*
X-17169Y16162*
X-17161Y16116*
X-17147Y16072*
X-17127Y16031*
X-17103Y15994*
X-17075Y15960*
X-17044Y15931*
X-17037Y15925*
X-17047Y15843*
X-17688Y15964*
X-17688Y16583*
X-17622Y16583*
X-17622Y16021*
X-17083Y15913*
X-17180Y16074*
X-17205Y16134*
X-17220Y16194*
X-17225Y16256*
X-17218Y16337*
X-17197Y16410*
X-17161Y16476*
X-17111Y16536*
X-17049Y16586*
X-16979Y16622*
X-16901Y16643*
X-16812Y16651*
X-16726Y16644*
X-16648Y16625*
X-16575Y16593*
X-16509Y16549*
X-16440Y16481*
X-16392Y16404*
X-16363Y16315*
X-16354Y16212*
X-16360Y16127*
X-16378Y16052*
X-16408Y15985*
X-16450Y15927*
X-16502Y15879*
X-16562Y15842*
X-16630Y15817*
X-16656Y15812*
%LNtop silkscreen component dd12a5884f70bee7*%
D11*
X-2459Y14383D02*
X-2459Y11041D01*
X-2459Y14383D02*
X-4209Y14383D01*
X-4209Y11041*
X-2459Y11041*
D12*
X-4276Y9526D02*
X-4276Y10856D01*
X-3834Y10856*
X-3757Y10855*
X-3691Y10851*
X-3635Y10845*
X-3590Y10837*
X-3536Y10821*
X-3487Y10801*
X-3442Y10775*
X-3402Y10745*
X-3353Y10698*
X-3312Y10646*
X-3276Y10587*
X-3247Y10521*
X-3224Y10449*
X-3207Y10371*
X-3197Y10288*
X-3194Y10198*
X-3196Y10123*
X-3203Y10052*
X-3214Y9985*
X-3230Y9924*
X-3249Y9867*
X-3271Y9816*
X-3294Y9771*
X-3320Y9731*
X-3348Y9695*
X-3377Y9663*
X-3407Y9636*
X-3438Y9613*
X-3470Y9594*
X-3507Y9576*
X-3548Y9561*
X-3592Y9549*
X-3641Y9539*
X-3693Y9532*
X-3750Y9527*
X-3811Y9526*
X-4276Y9526*
X-4137Y9644D02*
X-4137Y9644D01*
X-3832Y9644*
X-3765Y9646*
X-3705Y9651*
X-3654Y9659*
X-3609Y9670*
X-3571Y9685*
X-3537Y9702*
X-3507Y9722*
X-3481Y9745*
X-3449Y9781*
X-3421Y9824*
X-3397Y9872*
X-3376Y9926*
X-3360Y9986*
X-3348Y10052*
X-3341Y10124*
X-3338Y10202*
X-3343Y10307*
X-3357Y10400*
X-3380Y10480*
X-3412Y10547*
X-3451Y10602*
X-3494Y10647*
X-3541Y10683*
X-3591Y10708*
X-3635Y10721*
X-3691Y10730*
X-3758Y10736*
X-3837Y10738*
X-4137Y10738*
X-4137Y9644*
X-2894Y9804D02*
X-2809Y9811D01*
X-2804Y9788*
X-2781Y9726*
X-2749Y9671*
X-2709Y9625*
X-2661Y9590*
X-2610Y9564*
X-2553Y9549*
X-2493Y9544*
X-2422Y9551*
X-2356Y9572*
X-2295Y9608*
X-2241Y9656*
X-2197Y9717*
X-2165Y9785*
X-2146Y9862*
X-2140Y9945*
X-2146Y10024*
X-2164Y10097*
X-2195Y10161*
X-2239Y10218*
X-2293Y10263*
X-2354Y10295*
X-2423Y10314*
X-2496Y10320*
X-2544Y10317*
X-2590Y10309*
X-2634Y10295*
X-2675Y10275*
X-2712Y10251*
X-2746Y10223*
X-2775Y10192*
X-2781Y10185*
X-2863Y10195*
X-2742Y10836*
X-2123Y10836*
X-2123Y10770*
X-2685Y10770*
X-2793Y10231*
X-2632Y10328*
X-2572Y10353*
X-2512Y10368*
X-2450Y10373*
X-2369Y10366*
X-2296Y10345*
X-2230Y10309*
X-2170Y10259*
X-2120Y10197*
X-2084Y10127*
X-2063Y10049*
X-2055Y9960*
X-2062Y9874*
X-2081Y9796*
X-2113Y9723*
X-2157Y9657*
X-2225Y9588*
X-2302Y9540*
X-2391Y9511*
X-2494Y9502*
X-2579Y9508*
X-2654Y9526*
X-2721Y9556*
X-2779Y9598*
X-2827Y9650*
X-2864Y9710*
X-2889Y9778*
X-2894Y9804*
D16*
X-3334Y14633D03*
%LNtop silkscreen component 4b4bc9244a92f48f*%
D11*
X0081Y14383D02*
X0081Y11041D01*
X0081Y14383D02*
X-1669Y14383D01*
X-1669Y11041*
X0081Y11041*
D12*
X-1736Y9526D02*
X-1736Y10856D01*
X-1294Y10856*
X-1217Y10855*
X-1151Y10851*
X-1095Y10845*
X-1050Y10837*
X-0996Y10821*
X-0947Y10801*
X-0902Y10775*
X-0862Y10745*
X-0813Y10698*
X-0772Y10646*
X-0736Y10587*
X-0707Y10521*
X-0684Y10449*
X-0667Y10371*
X-0657Y10288*
X-0654Y10198*
X-0656Y10123*
X-0663Y10052*
X-0674Y9985*
X-0690Y9924*
X-0709Y9867*
X-0731Y9816*
X-0754Y9771*
X-0780Y9731*
X-0808Y9695*
X-0837Y9663*
X-0867Y9636*
X-0898Y9613*
X-0930Y9594*
X-0967Y9576*
X-1008Y9561*
X-1052Y9549*
X-1101Y9539*
X-1153Y9532*
X-1210Y9527*
X-1271Y9526*
X-1736Y9526*
X-1597Y9644D02*
X-1597Y9644D01*
X-1292Y9644*
X-1225Y9646*
X-1165Y9651*
X-1114Y9659*
X-1069Y9670*
X-1031Y9685*
X-0997Y9702*
X-0967Y9722*
X-0941Y9745*
X-0909Y9781*
X-0881Y9824*
X-0857Y9872*
X-0836Y9926*
X-0820Y9986*
X-0808Y10052*
X-0801Y10124*
X-0798Y10202*
X-0803Y10307*
X-0817Y10400*
X-0840Y10480*
X-0872Y10547*
X-0911Y10602*
X-0954Y10647*
X-1001Y10683*
X-1051Y10708*
X-1095Y10721*
X-1151Y10730*
X-1218Y10736*
X-1297Y10738*
X-1597Y10738*
X-1597Y9644*
X0201Y9526D02*
X0201Y9869D01*
X-0421Y9869*
X-0421Y9963*
X0208Y10856*
X0275Y10856*
X0275Y9928*
X0468Y9928*
X0468Y9869*
X0275Y9869*
X0275Y9526*
X0201Y9526*
X0201Y9928D02*
X0201Y10787D01*
X-0396Y9928*
X0201Y9928*
D16*
X-0794Y14633D03*
%LNtop silkscreen component 15618ea7413358b2*%
D12*
X6969Y-26799D02*
X6969Y-26886D01*
X6193Y-26886*
X6093Y-26883*
X6006Y-26875*
X5931Y-26860*
X5868Y-26841*
X5815Y-26815*
X5768Y-26781*
X5725Y-26738*
X5687Y-26686*
X5656Y-26624*
X5633Y-26553*
X5619Y-26471*
X5614Y-26377*
X5619Y-26287*
X5631Y-26205*
X5651Y-26134*
X5678Y-26073*
X5712Y-26020*
X5752Y-25977*
X5799Y-25941*
X5853Y-25913*
X5918Y-25891*
X5997Y-25875*
X6088Y-25865*
X6193Y-25862*
X6969Y-25862*
X6969Y-25950*
X6193Y-25950*
X6104Y-25952*
X6025Y-25959*
X5957Y-25971*
X5900Y-25988*
X5851Y-26012*
X5807Y-26044*
X5769Y-26083*
X5738Y-26129*
X5714Y-26181*
X5697Y-26237*
X5687Y-26297*
X5684Y-26361*
X5690Y-26465*
X5710Y-26556*
X5744Y-26633*
X5794Y-26697*
X5865Y-26744*
X5955Y-26775*
X6064Y-26793*
X6192Y-26799*
X6969Y-26799*
X6883Y-27244D02*
X6950Y-27244D01*
X6950Y-28069*
X6883Y-28069*
X6818Y-28012*
X6724Y-27942*
X6619Y-27873*
X6502Y-27804*
X6378Y-27740*
X6253Y-27683*
X6125Y-27634*
X5996Y-27593*
X5901Y-27568*
X5802Y-27548*
X5699Y-27533*
X5639Y-27528*
X5639Y-27447*
X5672Y-27449*
X5766Y-27462*
X5870Y-27481*
X5983Y-27509*
X6099Y-27543*
X6213Y-27584*
X6324Y-27632*
X6434Y-27687*
X6538Y-27746*
X6634Y-27806*
X6721Y-27869*
X6883Y-28002*
X6883Y-27244*
X5706Y-29167D02*
X5639Y-29167D01*
X5639Y-28323*
X5616Y-28323*
X5642Y-28326*
X5667Y-28331*
X5692Y-28339*
X5736Y-28358*
X5780Y-28382*
X5824Y-28412*
X5868Y-28446*
X5914Y-28488*
X5965Y-28540*
X6019Y-28600*
X6078Y-28670*
X6170Y-28778*
X6252Y-28868*
X6326Y-28940*
X6390Y-28994*
X6451Y-29033*
X6511Y-29062*
X6572Y-29080*
X6632Y-29086*
X6692Y-29080*
X6748Y-29063*
X6799Y-29035*
X6845Y-28995*
X6883Y-28947*
X6910Y-28892*
X6926Y-28831*
X6931Y-28765*
X6926Y-28696*
X6909Y-28633*
X6880Y-28576*
X6840Y-28526*
X6789Y-28486*
X6731Y-28457*
X6665Y-28440*
X6649Y-28439*
X6656Y-28363*
X6694Y-28370*
X6768Y-28395*
X6830Y-28431*
X6881Y-28478*
X6921Y-28535*
X6951Y-28602*
X6968Y-28680*
X6975Y-28769*
X6968Y-28859*
X6949Y-28937*
X6918Y-29004*
X6874Y-29060*
X6821Y-29106*
X6763Y-29138*
X6699Y-29158*
X6627Y-29165*
X6590Y-29163*
X6553Y-29157*
X6516Y-29147*
X6479Y-29134*
X6441Y-29115*
X6402Y-29091*
X6361Y-29061*
X6318Y-29026*
X6270Y-28980*
X6213Y-28921*
X6146Y-28847*
X6071Y-28760*
X6010Y-28688*
X5959Y-28629*
X5918Y-28584*
X5887Y-28553*
X5862Y-28530*
X5836Y-28508*
X5810Y-28489*
X5706Y-28421*
X5706Y-29167*
%LNtop silkscreen component 260b264faae608ce*%
D11*
X2621Y9523D02*
X2621Y6181D01*
X2621Y9523D02*
X0871Y9523D01*
X0871Y6181*
X2621Y6181*
D12*
X0613Y4700D02*
X0613Y6030D01*
X1196Y6030*
X1284Y6027*
X1359Y6021*
X1421Y6009*
X1469Y5995*
X1509Y5975*
X1545Y5950*
X1576Y5918*
X1604Y5879*
X1627Y5835*
X1643Y5789*
X1653Y5741*
X1656Y5691*
X1650Y5626*
X1634Y5568*
X1608Y5516*
X1571Y5469*
X1523Y5428*
X1462Y5394*
X1387Y5368*
X1149Y5322*
X1315Y5238*
X1343Y5221*
X1366Y5206*
X1384Y5191*
X1422Y5154*
X1459Y5111*
X1496Y5063*
X1533Y5011*
X1731Y4700*
X1614Y4700*
X1439Y4974*
X1399Y5036*
X1362Y5090*
X1329Y5136*
X1299Y5176*
X1272Y5209*
X1244Y5238*
X1218Y5263*
X1191Y5282*
X1166Y5297*
X1141Y5310*
X1115Y5320*
X1088Y5328*
X1065Y5331*
X1038Y5334*
X1007Y5335*
X0972Y5336*
X0701Y5336*
X0701Y4700*
X0613Y4700*
X0752Y5449D02*
X0752Y5449D01*
X1159Y5449*
X1220Y5450*
X1275Y5456*
X1322Y5464*
X1362Y5476*
X1396Y5491*
X1427Y5511*
X1452Y5534*
X1473Y5562*
X1490Y5592*
X1502Y5623*
X1509Y5656*
X1511Y5690*
X1507Y5739*
X1493Y5783*
X1470Y5822*
X1438Y5857*
X1396Y5886*
X1343Y5906*
X1279Y5918*
X1205Y5922*
X0752Y5922*
X0752Y5449*
X2544Y4700D02*
X2470Y4700D01*
X2470Y5882*
X2352Y5778*
X2315Y5750*
X2274Y5721*
X2226Y5692*
X2178Y5664*
X2132Y5641*
X2089Y5621*
X2118Y5632*
X2118Y5696*
X2163Y5719*
X2233Y5761*
X2298Y5807*
X2359Y5857*
X2413Y5909*
X2459Y5960*
X2497Y6012*
X2511Y6036*
X2544Y6036*
X2544Y4700*
X3508Y4700D02*
X3433Y4700D01*
X3433Y5882*
X3316Y5778*
X3279Y5750*
X3237Y5721*
X3190Y5692*
X3142Y5664*
X3096Y5641*
X3053Y5621*
X3082Y5632*
X3082Y5696*
X3127Y5719*
X3197Y5761*
X3262Y5807*
X3323Y5857*
X3377Y5909*
X3423Y5960*
X3461Y6012*
X3474Y6036*
X3508Y6036*
X3508Y4700*
%LNtop silkscreen component f68f485a6a4fb12e*%
D11*
X-17460Y0497D02*
X-17460Y-4477D01*
X-17460Y0497D02*
X-21260Y0497D01*
X-21260Y-4477*
X-17460Y-4477*
D12*
X-15504Y-0826D02*
X-15504Y-0914D01*
X-16280Y-0914*
X-16380Y-0911*
X-16467Y-0902*
X-16542Y-0888*
X-16605Y-0869*
X-16658Y-0843*
X-16705Y-0809*
X-16748Y-0765*
X-16786Y-0713*
X-16817Y-0652*
X-16840Y-0580*
X-16854Y-0498*
X-16859Y-0405*
X-16854Y-0314*
X-16842Y-0233*
X-16822Y-0162*
X-16795Y-0100*
X-16761Y-0048*
X-16721Y-0004*
X-16674Y0032*
X-16620Y0060*
X-16555Y0081*
X-16476Y0097*
X-16385Y0107*
X-16280Y0110*
X-15504Y0110*
X-15504Y0023*
X-16280Y0023*
X-16369Y0020*
X-16448Y0014*
X-16516Y0002*
X-16573Y-0015*
X-16622Y-0040*
X-16666Y-0072*
X-16704Y-0111*
X-16735Y-0157*
X-16759Y-0208*
X-16776Y-0264*
X-16786Y-0324*
X-16789Y-0389*
X-16783Y-0493*
X-16763Y-0583*
X-16729Y-0661*
X-16679Y-0724*
X-16608Y-0771*
X-16518Y-0802*
X-16409Y-0820*
X-16281Y-0826*
X-15504Y-0826*
X-15590Y-1271D02*
X-15523Y-1271D01*
X-15523Y-2097*
X-15590Y-2097*
X-15655Y-2040*
X-15749Y-1970*
X-15854Y-1901*
X-15971Y-1832*
X-16095Y-1767*
X-16220Y-1710*
X-16348Y-1661*
X-16477Y-1620*
X-16572Y-1595*
X-16671Y-1576*
X-16774Y-1561*
X-16834Y-1555*
X-16834Y-1475*
X-16801Y-1477*
X-16707Y-1489*
X-16603Y-1509*
X-16490Y-1536*
X-16374Y-1571*
X-16260Y-1612*
X-16149Y-1660*
X-16039Y-1714*
X-15935Y-1773*
X-15839Y-1834*
X-15752Y-1896*
X-15590Y-2029*
X-15590Y-1271*
D16*
X-17460Y-0814D03*
%LNtop silkscreen component 3bd052a5f03b9332*%
D11*
X-9252Y-12946D02*
X-6889Y-15309D01*
X-9252Y-12946D02*
X-10490Y-14184D01*
X-8127Y-16547*
X-6889Y-15309*
D12*
X-8842Y-12677D02*
X-7902Y-11736D01*
X-7489Y-12149*
X-7429Y-12212*
X-7381Y-12270*
X-7345Y-12322*
X-7321Y-12367*
X-7307Y-12409*
X-7300Y-12451*
X-7300Y-12496*
X-7308Y-12543*
X-7323Y-12590*
X-7344Y-12634*
X-7371Y-12676*
X-7404Y-12714*
X-7454Y-12756*
X-7506Y-12785*
X-7562Y-12803*
X-7621Y-12811*
X-7684Y-12806*
X-7751Y-12786*
X-7823Y-12751*
X-8023Y-12616*
X-7966Y-12792*
X-7958Y-12824*
X-7952Y-12851*
X-7950Y-12874*
X-7950Y-12928*
X-7953Y-12984*
X-7961Y-13044*
X-7972Y-13107*
X-8052Y-13467*
X-8135Y-13384*
X-8064Y-13067*
X-8049Y-12995*
X-8037Y-12931*
X-8027Y-12875*
X-8021Y-12826*
X-8017Y-12782*
X-8015Y-12742*
X-8017Y-12706*
X-8022Y-12674*
X-8029Y-12645*
X-8038Y-12619*
X-8049Y-12594*
X-8063Y-12569*
X-8077Y-12549*
X-8094Y-12529*
X-8115Y-12506*
X-8139Y-12481*
X-8331Y-12289*
X-8780Y-12739*
X-8842Y-12677*
X-8215Y-12245D02*
X-8215Y-12245D01*
X-7927Y-12533*
X-7882Y-12575*
X-7840Y-12610*
X-7801Y-12638*
X-7764Y-12658*
X-7729Y-12671*
X-7694Y-12679*
X-7659Y-12680*
X-7625Y-12676*
X-7592Y-12666*
X-7561Y-12652*
X-7533Y-12634*
X-7507Y-12612*
X-7476Y-12574*
X-7455Y-12533*
X-7443Y-12489*
X-7441Y-12442*
X-7451Y-12392*
X-7474Y-12340*
X-7510Y-12286*
X-7559Y-12231*
X-7880Y-11910*
X-8215Y-12245*
X-7477Y-14042D02*
X-7530Y-13989D01*
X-6694Y-13154*
X-6850Y-13144*
X-6896Y-13138*
X-6946Y-13129*
X-7000Y-13116*
X-7054Y-13101*
X-7103Y-13086*
X-7147Y-13069*
X-7119Y-13081*
X-7074Y-13036*
X-7025Y-13052*
X-6946Y-13072*
X-6868Y-13085*
X-6790Y-13093*
X-6715Y-13094*
X-6646Y-13091*
X-6583Y-13081*
X-6556Y-13074*
X-6533Y-13097*
X-7477Y-14042*
X-6689Y-14831D02*
X-6446Y-14588D01*
X-6885Y-14149*
X-6819Y-14082*
X-5743Y-13896*
X-5696Y-13943*
X-6352Y-14599*
X-6215Y-14735*
X-6257Y-14777*
X-6394Y-14641*
X-6636Y-14883*
X-6689Y-14831*
X-6404Y-14546D02*
X-5797Y-13939D01*
X-6826Y-14125*
X-6404Y-14546*
%LNtop silkscreen component db8f1da01d8f6e47*%
X-8790Y0305D02*
X-8275Y0999D01*
X-8727Y1635*
X-8626Y1635*
X-8382Y1289*
X-8345Y1236*
X-8314Y1190*
X-8289Y1150*
X-8227Y1045*
X-8158Y1154*
X-8131Y1194*
X-8103Y1234*
X-8071Y1275*
X-7799Y1635*
X-7719Y1635*
X-8184Y1011*
X-7678Y0305*
X-7787Y0305*
X-8132Y0794*
X-8146Y0815*
X-8162Y0838*
X-8177Y0862*
X-8236Y0956*
X-8301Y0851*
X-8320Y0822*
X-8335Y0799*
X-8346Y0782*
X-8690Y0305*
X-8790Y0305*
X-6872Y0305D02*
X-6946Y0305D01*
X-6946Y1487*
X-7063Y1383*
X-7100Y1355*
X-7142Y1326*
X-7189Y1297*
X-7238Y1269*
X-7283Y1246*
X-7326Y1226*
X-7297Y1237*
X-7297Y1301*
X-7252Y1324*
X-7182Y1366*
X-7117Y1412*
X-7057Y1462*
X-7003Y1514*
X-6957Y1565*
X-6919Y1617*
X-6905Y1641*
X-6872Y1641*
X-6872Y0305*
D17*
X-7112Y-8626D03*
D18*
X-7112Y-2530D03*
%LNtop silkscreen component 26f6fa9b4e3697ca*%
D12*
X-22770Y2410D02*
X-22780Y2482D01*
X-22755Y2485*
X-22686Y2498*
X-22627Y2520*
X-22579Y2551*
X-22545Y2591*
X-22520Y2636*
X-22506Y2687*
X-22502Y2741*
X-22504Y2782*
X-22512Y2821*
X-22524Y2858*
X-22542Y2892*
X-22565Y2922*
X-22592Y2948*
X-22623Y2969*
X-22657Y2984*
X-22696Y2994*
X-22741Y3001*
X-22794Y3005*
X-22853Y3006*
X-23789Y3006*
X-23789Y3094*
X-22865Y3094*
X-22783Y3091*
X-22713Y3084*
X-22654Y3071*
X-22606Y3055*
X-22567Y3034*
X-22533Y3008*
X-22504Y2976*
X-22480Y2939*
X-22460Y2896*
X-22446Y2849*
X-22437Y2798*
X-22434Y2743*
X-22441Y2662*
X-22458Y2594*
X-22487Y2538*
X-22527Y2491*
X-22578Y2455*
X-22642Y2429*
X-22720Y2413*
X-22770Y2410*
X-22459Y3994D02*
X-22459Y3920D01*
X-23641Y3920*
X-23537Y3803*
X-23509Y3766*
X-23480Y3724*
X-23451Y3677*
X-23423Y3629*
X-23400Y3583*
X-23380Y3540*
X-23391Y3569*
X-23455Y3569*
X-23478Y3614*
X-23520Y3684*
X-23566Y3749*
X-23616Y3809*
X-23668Y3863*
X-23719Y3909*
X-23771Y3947*
X-23795Y3961*
X-23795Y3994*
X-22459Y3994*
D19*
X-16710Y2348D02*
X-22010Y2348D01*
X-22010Y8348*
X-16710Y8348*
X-16710Y2348*
D20*
X-21646Y9158D03*
%LNtop silkscreen component 590d8cae9c605ff0*%
D11*
X0081Y9523D02*
X0081Y6181D01*
X0081Y9523D02*
X-1669Y9523D01*
X-1669Y6181*
X0081Y6181*
D12*
X-2763Y4700D02*
X-2763Y6030D01*
X-2180Y6030*
X-2092Y6027*
X-2018Y6021*
X-1956Y6009*
X-1907Y5995*
X-1867Y5975*
X-1832Y5950*
X-1800Y5918*
X-1772Y5879*
X-1750Y5835*
X-1733Y5789*
X-1724Y5741*
X-1720Y5691*
X-1726Y5626*
X-1742Y5568*
X-1768Y5516*
X-1805Y5469*
X-1853Y5428*
X-1914Y5394*
X-1990Y5368*
X-2227Y5322*
X-2062Y5238*
X-2034Y5221*
X-2011Y5206*
X-1992Y5191*
X-1955Y5154*
X-1917Y5111*
X-1880Y5063*
X-1844Y5011*
X-1645Y4700*
X-1763Y4700*
X-1937Y4974*
X-1977Y5036*
X-2014Y5090*
X-2047Y5136*
X-2077Y5176*
X-2105Y5209*
X-2132Y5238*
X-2159Y5263*
X-2185Y5282*
X-2210Y5297*
X-2235Y5310*
X-2261Y5320*
X-2288Y5328*
X-2312Y5331*
X-2338Y5334*
X-2369Y5335*
X-2404Y5336*
X-2675Y5336*
X-2675Y4700*
X-2763Y4700*
X-2625Y5449D02*
X-2625Y5449D01*
X-2217Y5449*
X-2156Y5450*
X-2102Y5456*
X-2054Y5464*
X-2014Y5476*
X-1980Y5491*
X-1950Y5511*
X-1924Y5534*
X-1903Y5562*
X-1886Y5592*
X-1874Y5623*
X-1867Y5656*
X-1865Y5690*
X-1869Y5739*
X-1883Y5783*
X-1906Y5822*
X-1938Y5857*
X-1981Y5886*
X-2034Y5906*
X-2097Y5918*
X-2171Y5922*
X-2625Y5922*
X-2625Y5449*
X-0833Y4700D02*
X-0907Y4700D01*
X-0907Y5882*
X-1024Y5778*
X-1061Y5750*
X-1103Y5721*
X-1150Y5692*
X-1198Y5664*
X-1244Y5641*
X-1287Y5621*
X-1258Y5632*
X-1258Y5696*
X-1213Y5719*
X-1143Y5761*
X-1078Y5807*
X-1017Y5857*
X-0964Y5909*
X-0918Y5960*
X-0879Y6012*
X-0866Y6036*
X-0833Y6036*
X-0833Y4700*
X0542Y4767D02*
X0542Y4700D01*
X-0302Y4700*
X-0303Y4677*
X-0300Y4703*
X-0294Y4728*
X-0286Y4753*
X-0267Y4797*
X-0243Y4841*
X-0214Y4885*
X-0179Y4929*
X-0137Y4975*
X-0086Y5026*
X-0025Y5080*
X0045Y5139*
X0153Y5231*
X0243Y5313*
X0315Y5387*
X0369Y5451*
X0408Y5512*
X0437Y5572*
X0455Y5633*
X0461Y5693*
X0455Y5753*
X0438Y5809*
X0410Y5860*
X0370Y5906*
X0322Y5944*
X0267Y5971*
X0206Y5987*
X0140Y5992*
X0071Y5987*
X0008Y5970*
X-0049Y5941*
X-0099Y5901*
X-0140Y5850*
X-0168Y5792*
X-0185Y5726*
X-0187Y5710*
X-0262Y5717*
X-0256Y5755*
X-0230Y5829*
X-0194Y5891*
X-0147Y5942*
X-0090Y5982*
X-0023Y6012*
X0055Y6029*
X0144Y6036*
X0234Y6029*
X0312Y6010*
X0378Y5979*
X0435Y5935*
X0481Y5882*
X0513Y5824*
X0533Y5760*
X0539Y5688*
X0538Y5651*
X0532Y5614*
X0522Y5577*
X0508Y5540*
X0490Y5502*
X0466Y5463*
X0436Y5422*
X0401Y5379*
X0355Y5331*
X0295Y5274*
X0222Y5207*
X0134Y5132*
X0062Y5071*
X0004Y5020*
X-0041Y4979*
X-0072Y4948*
X-0096Y4923*
X-0117Y4897*
X-0136Y4871*
X-0204Y4767*
X0542Y4767*
%LNtop silkscreen component e3f61c0a2c128970*%
D11*
X-10301Y-7497D02*
X-10301Y-10839D01*
X-10301Y-7497D02*
X-12051Y-7497D01*
X-12051Y-10839*
X-10301Y-10839*
D12*
X-12742Y-9886D02*
X-12719Y-9797D01*
X-12665Y-9815*
X-12576Y-9859*
X-12501Y-9913*
X-12439Y-9978*
X-12391Y-10052*
X-12356Y-10134*
X-12335Y-10225*
X-12327Y-10325*
X-12333Y-10429*
X-12350Y-10522*
X-12376Y-10603*
X-12414Y-10674*
X-12461Y-10735*
X-12518Y-10789*
X-12586Y-10836*
X-12664Y-10875*
X-12750Y-10906*
X-12839Y-10929*
X-12932Y-10942*
X-13027Y-10947*
X-13131Y-10942*
X-13226Y-10927*
X-13314Y-10902*
X-13394Y-10867*
X-13467Y-10823*
X-13529Y-10772*
X-13582Y-10712*
X-13626Y-10644*
X-13661Y-10570*
X-13686Y-10491*
X-13701Y-10408*
X-13706Y-10322*
X-13700Y-10226*
X-13681Y-10139*
X-13650Y-10061*
X-13607Y-9991*
X-13552Y-9930*
X-13488Y-9879*
X-13412Y-9837*
X-13376Y-9824*
X-13356Y-9911*
X-13390Y-9924*
X-13459Y-9961*
X-13517Y-10005*
X-13564Y-10057*
X-13600Y-10115*
X-13626Y-10180*
X-13641Y-10250*
X-13646Y-10326*
X-13640Y-10412*
X-13624Y-10491*
X-13596Y-10565*
X-13557Y-10631*
X-13509Y-10689*
X-13453Y-10737*
X-13390Y-10776*
X-13320Y-10805*
X-13249Y-10826*
X-13176Y-10841*
X-13103Y-10850*
X-13029Y-10853*
X-12936Y-10850*
X-12849Y-10839*
X-12767Y-10821*
X-12691Y-10796*
X-12621Y-10763*
X-12558Y-10721*
X-12506Y-10669*
X-12463Y-10610*
X-12430Y-10546*
X-12406Y-10480*
X-12392Y-10411*
X-12388Y-10340*
X-12394Y-10256*
X-12413Y-10177*
X-12446Y-10104*
X-12491Y-10038*
X-12550Y-9981*
X-12620Y-9934*
X-12701Y-9898*
X-12742Y-9886*
X-12352Y-8959D02*
X-12352Y-9033D01*
X-13534Y-9033*
X-13430Y-9150*
X-13402Y-9187*
X-13373Y-9229*
X-13344Y-9276*
X-13316Y-9324*
X-13293Y-9370*
X-13273Y-9413*
X-13284Y-9384*
X-13348Y-9384*
X-13371Y-9339*
X-13413Y-9269*
X-13459Y-9204*
X-13509Y-9143*
X-13561Y-9090*
X-13612Y-9044*
X-13664Y-9005*
X-13688Y-8992*
X-13688Y-8959*
X-12352Y-8959*
X-12419Y-7584D02*
X-12352Y-7584D01*
X-12352Y-8428*
X-12329Y-8429*
X-12355Y-8426*
X-12380Y-8420*
X-12405Y-8412*
X-12449Y-8393*
X-12493Y-8369*
X-12537Y-8340*
X-12581Y-8305*
X-12627Y-8263*
X-12678Y-8212*
X-12732Y-8151*
X-12791Y-8081*
X-12883Y-7973*
X-12965Y-7883*
X-13039Y-7811*
X-13103Y-7757*
X-13164Y-7718*
X-13224Y-7689*
X-13285Y-7671*
X-13345Y-7665*
X-13405Y-7671*
X-13461Y-7688*
X-13512Y-7716*
X-13558Y-7756*
X-13596Y-7804*
X-13623Y-7859*
X-13639Y-7920*
X-13644Y-7986*
X-13639Y-8055*
X-13622Y-8118*
X-13593Y-8175*
X-13553Y-8225*
X-13502Y-8266*
X-13444Y-8294*
X-13378Y-8311*
X-13362Y-8313*
X-13369Y-8388*
X-13407Y-8382*
X-13481Y-8356*
X-13543Y-8320*
X-13594Y-8273*
X-13634Y-8216*
X-13664Y-8149*
X-13681Y-8071*
X-13688Y-7982*
X-13681Y-7892*
X-13662Y-7814*
X-13631Y-7748*
X-13587Y-7691*
X-13534Y-7645*
X-13476Y-7613*
X-13412Y-7593*
X-13340Y-7587*
X-13303Y-7588*
X-13266Y-7594*
X-13229Y-7604*
X-13192Y-7618*
X-13154Y-7636*
X-13115Y-7660*
X-13074Y-7690*
X-13031Y-7725*
X-12983Y-7771*
X-12926Y-7831*
X-12859Y-7904*
X-12784Y-7992*
X-12723Y-8064*
X-12672Y-8122*
X-12631Y-8167*
X-12600Y-8198*
X-12575Y-8222*
X-12549Y-8243*
X-12523Y-8262*
X-12419Y-8330*
X-12419Y-7584*
%LNtop silkscreen component 79ca14763ce3abd8*%
D11*
X10978Y-22446D02*
X13341Y-20083D01*
X10978Y-22446D02*
X12216Y-23683D01*
X14578Y-21320*
X13341Y-20083*
D12*
X13502Y-24576D02*
X12562Y-23635D01*
X12974Y-23223*
X13038Y-23163*
X13096Y-23115*
X13147Y-23079*
X13192Y-23055*
X13234Y-23040*
X13277Y-23033*
X13322Y-23033*
X13369Y-23041*
X13416Y-23056*
X13460Y-23077*
X13501Y-23104*
X13539Y-23138*
X13581Y-23188*
X13611Y-23240*
X13629Y-23295*
X13636Y-23355*
X13631Y-23418*
X13612Y-23484*
X13577Y-23556*
X13442Y-23757*
X13618Y-23699*
X13649Y-23691*
X13677Y-23686*
X13700Y-23683*
X13753Y-23683*
X13810Y-23687*
X13870Y-23694*
X13933Y-23706*
X14293Y-23785*
X14210Y-23868*
X13892Y-23798*
X13821Y-23783*
X13757Y-23770*
X13700Y-23761*
X13651Y-23754*
X13608Y-23750*
X13568Y-23749*
X13532Y-23750*
X13500Y-23755*
X13471Y-23762*
X13445Y-23771*
X13419Y-23783*
X13394Y-23796*
X13375Y-23810*
X13354Y-23827*
X13332Y-23848*
X13306Y-23873*
X13115Y-24064*
X13565Y-24514*
X13502Y-24576*
X13071Y-23948D02*
X13071Y-23948D01*
X13359Y-23660*
X13401Y-23616*
X13436Y-23574*
X13463Y-23534*
X13483Y-23498*
X13497Y-23462*
X13504Y-23427*
X13506Y-23393*
X13501Y-23358*
X13492Y-23325*
X13478Y-23294*
X13460Y-23266*
X13437Y-23240*
X13400Y-23209*
X13359Y-23188*
X13315Y-23176*
X13267Y-23174*
X13217Y-23184*
X13165Y-23207*
X13112Y-23243*
X13056Y-23293*
X12736Y-23613*
X13071Y-23948*
X14868Y-23211D02*
X14815Y-23263D01*
X13979Y-22427*
X13970Y-22584*
X13964Y-22630*
X13955Y-22680*
X13942Y-22734*
X13927Y-22787*
X13911Y-22836*
X13895Y-22881*
X13907Y-22852*
X13862Y-22807*
X13878Y-22759*
X13897Y-22680*
X13911Y-22601*
X13918Y-22523*
X13920Y-22449*
X13916Y-22380*
X13907Y-22316*
X13899Y-22289*
X13923Y-22266*
X14868Y-23211*
X15067Y-22617D02*
X15122Y-22553D01*
X15142Y-22565*
X15202Y-22593*
X15264Y-22609*
X15325Y-22613*
X15383Y-22604*
X15438Y-22586*
X15488Y-22557*
X15534Y-22518*
X15580Y-22463*
X15612Y-22401*
X15630Y-22333*
X15633Y-22260*
X15622Y-22186*
X15596Y-22115*
X15555Y-22048*
X15501Y-21985*
X15441Y-21933*
X15377Y-21895*
X15309Y-21870*
X15238Y-21862*
X15168Y-21868*
X15102Y-21889*
X15040Y-21924*
X14984Y-21971*
X14952Y-22007*
X14925Y-22046*
X14905Y-22087*
X14889Y-22130*
X14880Y-22173*
X14876Y-22216*
X14877Y-22259*
X14878Y-22268*
X14813Y-22319*
X14445Y-21780*
X14883Y-21342*
X14930Y-21389*
X14532Y-21787*
X14837Y-22244*
X14882Y-22062*
X14906Y-22001*
X14939Y-21948*
X14979Y-21901*
X15041Y-21849*
X15108Y-21813*
X15180Y-21791*
X15258Y-21784*
X15337Y-21792*
X15411Y-21816*
X15482Y-21857*
X15550Y-21914*
X15606Y-21979*
X15648Y-22049*
X15677Y-22122*
X15692Y-22201*
X15693Y-22297*
X15672Y-22385*
X15630Y-22469*
X15564Y-22549*
X15500Y-22604*
X15433Y-22645*
X15365Y-22670*
X15294Y-22682*
X15223Y-22679*
X15155Y-22663*
X15089Y-22633*
X15067Y-22617*
%LNtop silkscreen component 9a7d5eb6b9bd6e32*%
D11*
X-19435Y-6139D02*
X-19435Y-9481D01*
X-19435Y-6139D02*
X-21185Y-6139D01*
X-21185Y-9481*
X-19435Y-9481*
D12*
X-19728Y-11694D02*
X-21058Y-11694D01*
X-21058Y-11252*
X-21057Y-11175*
X-21053Y-11109*
X-21047Y-11053*
X-21039Y-11008*
X-21023Y-10954*
X-21003Y-10905*
X-20977Y-10860*
X-20947Y-10820*
X-20900Y-10771*
X-20848Y-10730*
X-20789Y-10694*
X-20723Y-10665*
X-20651Y-10642*
X-20573Y-10625*
X-20490Y-10615*
X-20400Y-10612*
X-20325Y-10614*
X-20254Y-10621*
X-20187Y-10632*
X-20126Y-10648*
X-20069Y-10667*
X-20018Y-10689*
X-19973Y-10712*
X-19933Y-10738*
X-19897Y-10766*
X-19865Y-10795*
X-19838Y-10825*
X-19815Y-10856*
X-19796Y-10888*
X-19778Y-10925*
X-19763Y-10966*
X-19751Y-11010*
X-19741Y-11059*
X-19734Y-11111*
X-19729Y-11168*
X-19728Y-11229*
X-19728Y-11694*
X-19846Y-11555D02*
X-19846Y-11555D01*
X-19846Y-11250*
X-19848Y-11183*
X-19853Y-11123*
X-19861Y-11072*
X-19872Y-11027*
X-19887Y-10989*
X-19904Y-10955*
X-19924Y-10925*
X-19947Y-10899*
X-19983Y-10867*
X-20026Y-10839*
X-20074Y-10815*
X-20128Y-10794*
X-20188Y-10778*
X-20254Y-10766*
X-20326Y-10759*
X-20404Y-10756*
X-20509Y-10761*
X-20602Y-10775*
X-20682Y-10798*
X-20749Y-10830*
X-20804Y-10869*
X-20849Y-10912*
X-20885Y-10959*
X-20910Y-11009*
X-20923Y-11053*
X-20932Y-11109*
X-20938Y-11176*
X-20940Y-11255*
X-20940Y-11555*
X-19846Y-11555*
X-19728Y-9760D02*
X-19728Y-9835D01*
X-20910Y-9835*
X-20806Y-9952*
X-20778Y-9989*
X-20749Y-10031*
X-20720Y-10078*
X-20692Y-10126*
X-20669Y-10172*
X-20649Y-10215*
X-20660Y-10186*
X-20724Y-10186*
X-20747Y-10141*
X-20789Y-10071*
X-20835Y-10006*
X-20885Y-9945*
X-20937Y-9891*
X-20988Y-9845*
X-21040Y-9807*
X-21064Y-9794*
X-21064Y-9760*
X-19728Y-9760*
D16*
X-20310Y-5889D03*
%LNtop silkscreen component 6f361a60cfde0d04*%
D12*
X-6461Y27053D02*
X-6461Y27140D01*
X-5685Y27140*
X-5585Y27137*
X-5498Y27129*
X-5423Y27114*
X-5360Y27095*
X-5307Y27069*
X-5260Y27035*
X-5217Y26992*
X-5179Y26940*
X-5148Y26878*
X-5125Y26807*
X-5111Y26725*
X-5106Y26631*
X-5111Y26541*
X-5123Y26459*
X-5143Y26388*
X-5170Y26327*
X-5204Y26274*
X-5244Y26231*
X-5291Y26195*
X-5345Y26167*
X-5410Y26145*
X-5489Y26129*
X-5580Y26119*
X-5685Y26116*
X-6461Y26116*
X-6461Y26204*
X-5685Y26204*
X-5596Y26206*
X-5517Y26213*
X-5449Y26225*
X-5392Y26242*
X-5343Y26266*
X-5299Y26298*
X-5261Y26337*
X-5230Y26383*
X-5206Y26435*
X-5189Y26491*
X-5179Y26551*
X-5176Y26615*
X-5182Y26719*
X-5202Y26810*
X-5236Y26887*
X-5286Y26951*
X-5357Y26998*
X-5447Y27029*
X-5556Y27047*
X-5684Y27053*
X-6461Y27053*
X-6375Y27498D02*
X-6442Y27498D01*
X-6442Y28323*
X-6375Y28323*
X-6310Y28266*
X-6216Y28196*
X-6111Y28127*
X-5994Y28058*
X-5870Y27994*
X-5745Y27937*
X-5617Y27888*
X-5488Y27847*
X-5393Y27822*
X-5294Y27802*
X-5191Y27787*
X-5131Y27782*
X-5131Y27701*
X-5164Y27703*
X-5258Y27716*
X-5362Y27735*
X-5475Y27763*
X-5591Y27797*
X-5705Y27838*
X-5816Y27886*
X-5926Y27941*
X-6030Y28000*
X-6126Y28060*
X-6213Y28123*
X-6375Y28256*
X-6375Y27498*
X-5131Y29162D02*
X-5474Y29162D01*
X-5474Y28541*
X-5568Y28541*
X-6461Y29170*
X-6461Y29236*
X-5533Y29236*
X-5533Y29429*
X-5474Y29429*
X-5474Y29236*
X-5131Y29236*
X-5131Y29162*
X-5533Y29162D02*
X-6392Y29162D01*
X-5533Y28566*
X-5533Y29162*
%LNtop silkscreen component f4fabeeb908bd5ba*%
X26799Y6461D02*
X26886Y6461D01*
X26886Y5685*
X26883Y5585*
X26875Y5498*
X26860Y5423*
X26841Y5360*
X26815Y5307*
X26781Y5260*
X26738Y5217*
X26686Y5179*
X26624Y5148*
X26553Y5125*
X26471Y5111*
X26377Y5106*
X26287Y5111*
X26205Y5123*
X26134Y5143*
X26073Y5170*
X26020Y5204*
X25977Y5244*
X25941Y5291*
X25913Y5345*
X25891Y5410*
X25875Y5489*
X25865Y5580*
X25862Y5685*
X25862Y6461*
X25950Y6461*
X25950Y5685*
X25952Y5596*
X25959Y5517*
X25971Y5449*
X25988Y5392*
X26012Y5343*
X26044Y5299*
X26083Y5261*
X26129Y5230*
X26181Y5206*
X26237Y5189*
X26297Y5179*
X26361Y5176*
X26465Y5182*
X26556Y5202*
X26633Y5236*
X26697Y5286*
X26744Y5357*
X26775Y5447*
X26793Y5556*
X26799Y5684*
X26799Y6461*
X27244Y6375D02*
X27244Y6442D01*
X28069Y6442*
X28069Y6375*
X28012Y6310*
X27942Y6216*
X27873Y6111*
X27804Y5994*
X27740Y5870*
X27683Y5745*
X27634Y5617*
X27593Y5488*
X27568Y5393*
X27548Y5294*
X27533Y5191*
X27528Y5131*
X27447Y5131*
X27449Y5164*
X27462Y5258*
X27481Y5362*
X27509Y5475*
X27543Y5591*
X27584Y5705*
X27632Y5816*
X27687Y5926*
X27746Y6030*
X27806Y6126*
X27869Y6213*
X28002Y6375*
X27244Y6375*
X28905Y5131D02*
X28831Y5131D01*
X28831Y6313*
X28713Y6209*
X28677Y6181*
X28635Y6152*
X28588Y6123*
X28539Y6095*
X28493Y6072*
X28451Y6052*
X28479Y6063*
X28479Y6127*
X28525Y6150*
X28594Y6192*
X28660Y6238*
X28720Y6288*
X28774Y6340*
X28820Y6391*
X28858Y6443*
X28872Y6467*
X28905Y6467*
X28905Y5131*
%LNtop silkscreen component 6db7bdd78ee681d9*%
D11*
X1871Y-19667D02*
X-1871Y-19667D01*
X1871Y-25408D02*
X-1871Y-25408D01*
X-1871Y-19667D02*
X-1871Y-25408D01*
X1871Y-25408D02*
X1871Y-19667D01*
D21*
X2031Y-24538D03*
%LNtop silkscreen component e235e8971882a55e*%
D11*
X16617Y6441D02*
X19959Y6441D01*
X16617Y6441D02*
X16617Y4691D01*
X19959Y4691*
X19959Y6441*
D12*
X21126Y5354D02*
X21215Y5331D01*
X21197Y5277*
X21153Y5188*
X21099Y5113*
X21034Y5051*
X20960Y5003*
X20878Y4968*
X20787Y4947*
X20687Y4939*
X20583Y4945*
X20490Y4962*
X20409Y4988*
X20339Y5026*
X20277Y5073*
X20223Y5130*
X20176Y5198*
X20137Y5276*
X20106Y5362*
X20083Y5451*
X20070Y5544*
X20065Y5639*
X20071Y5743*
X20086Y5838*
X20111Y5926*
X20145Y6006*
X20189Y6079*
X20240Y6141*
X20300Y6194*
X20368Y6238*
X20443Y6273*
X20521Y6298*
X20604Y6313*
X20690Y6318*
X20786Y6312*
X20873Y6293*
X20951Y6262*
X21021Y6219*
X21082Y6164*
X21134Y6100*
X21175Y6024*
X21188Y5988*
X21101Y5968*
X21088Y6002*
X21051Y6071*
X21007Y6129*
X20956Y6176*
X20897Y6212*
X20833Y6238*
X20762Y6253*
X20686Y6258*
X20601Y6252*
X20521Y6236*
X20447Y6208*
X20381Y6169*
X20324Y6121*
X20275Y6065*
X20236Y6002*
X20207Y5932*
X20186Y5861*
X20171Y5788*
X20162Y5715*
X20159Y5641*
X20163Y5548*
X20173Y5461*
X20191Y5379*
X20216Y5303*
X20249Y5233*
X20292Y5170*
X20343Y5118*
X20402Y5075*
X20466Y5042*
X20532Y5018*
X20601Y5004*
X20672Y5000*
X20756Y5006*
X20835Y5025*
X20908Y5058*
X20974Y5103*
X21032Y5162*
X21078Y5232*
X21115Y5313*
X21126Y5354*
X21530Y5199D02*
X21598Y5205D01*
X21602Y5189*
X21623Y5135*
X21651Y5088*
X21685Y5049*
X21726Y5019*
X21772Y4998*
X21822Y4986*
X21875Y4982*
X21920Y4985*
X21964Y4993*
X22005Y5007*
X22043Y5027*
X22077Y5050*
X22108Y5077*
X22136Y5108*
X22160Y5142*
X22181Y5180*
X22200Y5224*
X22217Y5272*
X22232Y5325*
X22244Y5381*
X22253Y5437*
X22258Y5494*
X22260Y5551*
X22260Y5559*
X22259Y5568*
X22259Y5578*
X22253Y5736*
X22140Y5579*
X22111Y5548*
X22077Y5520*
X22039Y5495*
X21998Y5475*
X21956Y5461*
X21912Y5452*
X21867Y5449*
X21791Y5456*
X21722Y5478*
X21660Y5513*
X21602Y5562*
X21555Y5624*
X21521Y5694*
X21500Y5775*
X21493Y5867*
X21501Y5962*
X21522Y6046*
X21558Y6119*
X21608Y6182*
X21668Y6234*
X21735Y6270*
X21809Y6292*
X21893Y6300*
X21954Y6295*
X22012Y6283*
X22067Y6262*
X22120Y6233*
X22168Y6196*
X22210Y6152*
X22247Y6100*
X22277Y6041*
X22301Y5970*
X22318Y5883*
X22329Y5779*
X22333Y5658*
X22329Y5531*
X22318Y5419*
X22301Y5321*
X22276Y5239*
X22246Y5168*
X22209Y5108*
X22166Y5057*
X22117Y5015*
X22063Y4982*
X22004Y4959*
X21940Y4944*
X21871Y4940*
X21799Y4945*
X21735Y4960*
X21679Y4985*
X21630Y5020*
X21589Y5064*
X21557Y5117*
X21534Y5178*
X21530Y5199*
X22188Y5876D02*
X22188Y5876D01*
X22183Y5948*
X22168Y6012*
X22143Y6068*
X22108Y6116*
X22066Y6155*
X22019Y6183*
X21969Y6199*
X21914Y6205*
X21857Y6199*
X21804Y6181*
X21755Y6151*
X21710Y6109*
X21672Y6058*
X21645Y5999*
X21628Y5934*
X21623Y5861*
X21628Y5796*
X21644Y5737*
X21669Y5685*
X21705Y5639*
X21749Y5602*
X21798Y5575*
X21851Y5559*
X21909Y5554*
X21967Y5559*
X22020Y5575*
X22068Y5602*
X22110Y5639*
X22144Y5686*
X22169Y5741*
X22183Y5804*
X22188Y5876*
%LNtop silkscreen component 68a7e395ece5492c*%
D11*
X5161Y9523D02*
X5161Y6181D01*
X5161Y9523D02*
X3411Y9523D01*
X3411Y6181*
X5161Y6181*
D12*
X3587Y4700D02*
X3587Y6030D01*
X4170Y6030*
X4258Y6027*
X4332Y6021*
X4394Y6009*
X4443Y5995*
X4483Y5975*
X4518Y5950*
X4550Y5918*
X4578Y5879*
X4600Y5835*
X4617Y5789*
X4626Y5741*
X4630Y5691*
X4624Y5626*
X4608Y5568*
X4582Y5516*
X4545Y5469*
X4497Y5428*
X4436Y5394*
X4360Y5368*
X4123Y5322*
X4288Y5238*
X4316Y5221*
X4339Y5206*
X4358Y5191*
X4395Y5154*
X4433Y5111*
X4470Y5063*
X4506Y5011*
X4705Y4700*
X4587Y4700*
X4413Y4974*
X4373Y5036*
X4336Y5090*
X4303Y5136*
X4273Y5176*
X4245Y5209*
X4218Y5238*
X4191Y5263*
X4165Y5282*
X4140Y5297*
X4115Y5310*
X4089Y5320*
X4062Y5328*
X4038Y5331*
X4012Y5334*
X3981Y5335*
X3946Y5336*
X3675Y5336*
X3675Y4700*
X3587Y4700*
X3725Y5449D02*
X3725Y5449D01*
X4133Y5449*
X4194Y5450*
X4248Y5456*
X4296Y5464*
X4336Y5476*
X4370Y5491*
X4400Y5511*
X4426Y5534*
X4447Y5562*
X4464Y5592*
X4476Y5623*
X4483Y5656*
X4485Y5690*
X4481Y5739*
X4467Y5783*
X4444Y5822*
X4412Y5857*
X4369Y5886*
X4316Y5906*
X4253Y5918*
X4179Y5922*
X3725Y5922*
X3725Y5449*
X5517Y4700D02*
X5443Y4700D01*
X5443Y5882*
X5326Y5778*
X5289Y5750*
X5247Y5721*
X5200Y5692*
X5152Y5664*
X5106Y5641*
X5063Y5621*
X5092Y5632*
X5092Y5696*
X5137Y5719*
X5207Y5761*
X5272Y5807*
X5333Y5857*
X5386Y5909*
X5432Y5960*
X5471Y6012*
X5484Y6036*
X5517Y6036*
X5517Y4700*
X6069Y5356D02*
X6072Y5473D01*
X6082Y5578*
X6098Y5669*
X6119Y5748*
X6146Y5815*
X6178Y5873*
X6216Y5922*
X6258Y5963*
X6305Y5994*
X6358Y6017*
X6418Y6031*
X6486Y6036*
X6536Y6033*
X6582Y6025*
X6624Y6013*
X6664Y5995*
X6699Y5973*
X6732Y5946*
X6762Y5915*
X6788Y5878*
X6813Y5837*
X6835Y5790*
X6854Y5738*
X6871Y5681*
X6884Y5617*
X6893Y5541*
X6899Y5454*
X6901Y5355*
X6898Y5238*
X6889Y5134*
X6873Y5043*
X6852Y4964*
X6825Y4897*
X6793Y4839*
X6756Y4789*
X6713Y4749*
X6666Y4717*
X6613Y4694*
X6553Y4680*
X6486Y4676*
X6398Y4684*
X6322Y4708*
X6256Y4748*
X6200Y4804*
X6145Y4898*
X6103Y5020*
X6078Y5173*
X6069Y5356*
X6199Y5355D02*
X6199Y5355D01*
X6204Y5194*
X6220Y5061*
X6246Y4959*
X6282Y4886*
X6325Y4835*
X6374Y4798*
X6427Y4776*
X6485Y4769*
X6543Y4776*
X6597Y4798*
X6645Y4835*
X6689Y4886*
X6725Y4960*
X6751Y5062*
X6766Y5194*
X6771Y5355*
X6766Y5517*
X6751Y5649*
X6725Y5752*
X6689Y5825*
X6645Y5876*
X6596Y5912*
X6542Y5934*
X6483Y5941*
X6426Y5935*
X6374Y5915*
X6329Y5883*
X6290Y5838*
X6250Y5759*
X6222Y5652*
X6205Y5517*
X6199Y5355*
%LNtop silkscreen component e7051b2b2805eb37*%
D11*
X0871Y15463D02*
X0871Y18805D01*
X0871Y15463D02*
X2621Y15463D01*
X2621Y18805*
X0871Y18805*
D12*
X3736Y16924D02*
X3759Y17013D01*
X3813Y16995*
X3902Y16951*
X3977Y16897*
X4039Y16832*
X4087Y16758*
X4122Y16676*
X4143Y16585*
X4151Y16485*
X4145Y16381*
X4128Y16288*
X4102Y16207*
X4064Y16137*
X4017Y16075*
X3960Y16021*
X3892Y15974*
X3814Y15935*
X3728Y15904*
X3639Y15881*
X3546Y15868*
X3451Y15863*
X3347Y15869*
X3252Y15884*
X3164Y15909*
X3084Y15943*
X3011Y15987*
X2949Y16038*
X2896Y16098*
X2852Y16166*
X2817Y16241*
X2792Y16319*
X2777Y16402*
X2772Y16488*
X2778Y16584*
X2797Y16671*
X2828Y16749*
X2871Y16819*
X2926Y16880*
X2990Y16932*
X3066Y16973*
X3102Y16986*
X3122Y16899*
X3088Y16886*
X3019Y16849*
X2961Y16805*
X2914Y16754*
X2878Y16695*
X2852Y16631*
X2837Y16560*
X2832Y16484*
X2838Y16399*
X2854Y16319*
X2882Y16245*
X2921Y16179*
X2969Y16122*
X3025Y16073*
X3088Y16034*
X3158Y16005*
X3229Y15984*
X3302Y15969*
X3375Y15960*
X3449Y15957*
X3542Y15961*
X3629Y15971*
X3711Y15989*
X3787Y16014*
X3857Y16047*
X3920Y16090*
X3972Y16141*
X4015Y16200*
X4048Y16264*
X4072Y16330*
X4086Y16399*
X4090Y16470*
X4084Y16554*
X4065Y16633*
X4032Y16706*
X3987Y16772*
X3928Y16830*
X3858Y16876*
X3777Y16913*
X3736Y16924*
X2882Y17303D02*
X2815Y17303D01*
X2815Y18128*
X2882Y18128*
X2947Y18071*
X3041Y18001*
X3146Y17932*
X3263Y17863*
X3387Y17799*
X3512Y17742*
X3640Y17693*
X3769Y17651*
X3864Y17627*
X3963Y17607*
X4066Y17592*
X4126Y17587*
X4126Y17506*
X4093Y17508*
X3999Y17520*
X3895Y17540*
X3782Y17568*
X3666Y17602*
X3552Y17643*
X3441Y17691*
X3331Y17746*
X3227Y17805*
X3131Y17865*
X3044Y17928*
X2882Y18060*
X2882Y17303*
%LNtop silkscreen component ec5ab950653071ca*%
D11*
X-11899Y18363D02*
X-8557Y18363D01*
X-11899Y18363D02*
X-11899Y16613D01*
X-8557Y16613*
X-8557Y18363*
D12*
X-8393Y16886D02*
X-8393Y18216D01*
X-7810Y18216*
X-7722Y18213*
X-7647Y18207*
X-7586Y18195*
X-7537Y18181*
X-7497Y18161*
X-7462Y18136*
X-7430Y18104*
X-7402Y18065*
X-7380Y18021*
X-7363Y17975*
X-7353Y17927*
X-7350Y17877*
X-7356Y17812*
X-7372Y17754*
X-7398Y17702*
X-7435Y17655*
X-7483Y17614*
X-7544Y17580*
X-7619Y17554*
X-7857Y17508*
X-7692Y17424*
X-7663Y17407*
X-7640Y17392*
X-7622Y17377*
X-7584Y17340*
X-7547Y17297*
X-7510Y17249*
X-7473Y17197*
X-7275Y16886*
X-7392Y16886*
X-7567Y17160*
X-7607Y17222*
X-7644Y17276*
X-7677Y17322*
X-7707Y17362*
X-7735Y17395*
X-7762Y17424*
X-7788Y17449*
X-7815Y17468*
X-7840Y17483*
X-7865Y17496*
X-7891Y17506*
X-7918Y17514*
X-7942Y17517*
X-7968Y17520*
X-7999Y17521*
X-8034Y17522*
X-8305Y17522*
X-8305Y16886*
X-8393Y16886*
X-8254Y17635D02*
X-8254Y17635D01*
X-7847Y17635*
X-7786Y17636*
X-7731Y17642*
X-7684Y17650*
X-7644Y17662*
X-7610Y17677*
X-7580Y17697*
X-7554Y17720*
X-7533Y17748*
X-7516Y17778*
X-7504Y17809*
X-7497Y17842*
X-7495Y17876*
X-7499Y17925*
X-7513Y17969*
X-7536Y18008*
X-7568Y18043*
X-7611Y18072*
X-7663Y18092*
X-7727Y18104*
X-7801Y18108*
X-8254Y18108*
X-8254Y17635*
X-6662Y17606D02*
X-6831Y17679D01*
X-6869Y17702*
X-6900Y17727*
X-6924Y17755*
X-6943Y17787*
X-6956Y17822*
X-6964Y17860*
X-6967Y17903*
X-6961Y17968*
X-6943Y18027*
X-6913Y18080*
X-6871Y18129*
X-6818Y18169*
X-6758Y18198*
X-6687Y18216*
X-6607Y18222*
X-6526Y18215*
X-6455Y18197*
X-6394Y18168*
X-6340Y18126*
X-6297Y18077*
X-6266Y18023*
X-6248Y17964*
X-6242Y17898*
X-6245Y17857*
X-6253Y17820*
X-6266Y17786*
X-6285Y17755*
X-6309Y17726*
X-6339Y17701*
X-6376Y17679*
X-6533Y17609*
X-6362Y17541*
X-6315Y17513*
X-6275Y17481*
X-6242Y17443*
X-6217Y17400*
X-6198Y17353*
X-6187Y17301*
X-6183Y17245*
X-6191Y17166*
X-6212Y17095*
X-6247Y17031*
X-6297Y16973*
X-6359Y16924*
X-6430Y16890*
X-6512Y16869*
X-6604Y16862*
X-6696Y16869*
X-6778Y16890*
X-6849Y16924*
X-6910Y16973*
X-6961Y17032*
X-6996Y17097*
X-7017Y17169*
X-7025Y17250*
X-7021Y17309*
X-7009Y17362*
X-6990Y17410*
X-6964Y17452*
X-6931Y17489*
X-6892Y17519*
X-6845Y17544*
X-6662Y17606*
X-6838Y17909D02*
X-6838Y17909D01*
X-6834Y17861*
X-6822Y17817*
X-6802Y17778*
X-6773Y17743*
X-6738Y17715*
X-6698Y17695*
X-6653Y17683*
X-6603Y17679*
X-6554Y17683*
X-6511Y17695*
X-6471Y17715*
X-6436Y17743*
X-6408Y17776*
X-6388Y17814*
X-6376Y17855*
X-6372Y17899*
X-6376Y17946*
X-6388Y17988*
X-6409Y18027*
X-6438Y18062*
X-6474Y18091*
X-6514Y18111*
X-6557Y18124*
X-6605Y18128*
X-6653Y18124*
X-6697Y18112*
X-6737Y18092*
X-6772Y18064*
X-6801Y18030*
X-6822Y17993*
X-6834Y17953*
X-6838Y17909*
X-6895Y17248D02*
X-6895Y17248D01*
X-6893Y17211*
X-6886Y17174*
X-6875Y17138*
X-6859Y17103*
X-6839Y17069*
X-6815Y17040*
X-6786Y17015*
X-6753Y16994*
X-6718Y16977*
X-6680Y16965*
X-6642Y16958*
X-6602Y16955*
X-6542Y16960*
X-6487Y16975*
X-6438Y17001*
X-6394Y17036*
X-6358Y17079*
X-6332Y17128*
X-6317Y17182*
X-6312Y17242*
X-6317Y17303*
X-6333Y17358*
X-6359Y17408*
X-6396Y17452*
X-6441Y17489*
X-6492Y17514*
X-6547Y17530*
X-6608Y17535*
X-6667Y17530*
X-6721Y17515*
X-6770Y17489*
X-6813Y17453*
X-6849Y17410*
X-6875Y17361*
X-6890Y17307*
X-6895Y17248*
%LNtop silkscreen component 0e867a3c19666a82*%
D11*
X-15201Y2937D02*
X-11859Y2937D01*
X-15201Y2937D02*
X-15201Y1187D01*
X-11859Y1187*
X-11859Y2937*
D12*
X-11695Y1460D02*
X-11695Y2790D01*
X-11112Y2790*
X-11024Y2787*
X-10949Y2781*
X-10888Y2769*
X-10839Y2755*
X-10799Y2735*
X-10764Y2710*
X-10732Y2678*
X-10704Y2639*
X-10682Y2595*
X-10665Y2549*
X-10655Y2501*
X-10652Y2451*
X-10658Y2386*
X-10674Y2328*
X-10700Y2276*
X-10737Y2229*
X-10785Y2188*
X-10846Y2154*
X-10921Y2128*
X-11159Y2082*
X-10994Y1998*
X-10965Y1981*
X-10942Y1966*
X-10924Y1951*
X-10886Y1914*
X-10849Y1871*
X-10812Y1823*
X-10775Y1771*
X-10577Y1460*
X-10694Y1460*
X-10869Y1734*
X-10909Y1796*
X-10946Y1850*
X-10979Y1896*
X-11009Y1936*
X-11037Y1969*
X-11064Y1998*
X-11090Y2023*
X-11117Y2042*
X-11142Y2057*
X-11167Y2070*
X-11193Y2080*
X-11220Y2088*
X-11244Y2091*
X-11270Y2094*
X-11301Y2095*
X-11336Y2096*
X-11607Y2096*
X-11607Y1460*
X-11695Y1460*
X-11556Y2209D02*
X-11556Y2209D01*
X-11149Y2209*
X-11088Y2210*
X-11033Y2216*
X-10986Y2224*
X-10946Y2236*
X-10912Y2251*
X-10882Y2271*
X-10856Y2294*
X-10835Y2322*
X-10818Y2352*
X-10806Y2383*
X-10799Y2416*
X-10797Y2450*
X-10801Y2499*
X-10815Y2543*
X-10838Y2582*
X-10870Y2617*
X-10913Y2646*
X-10965Y2666*
X-11029Y2678*
X-11103Y2682*
X-11556Y2682*
X-11556Y2209*
X-9761Y1460D02*
X-9761Y1803D01*
X-10383Y1803*
X-10383Y1897*
X-9754Y2790*
X-9687Y2790*
X-9687Y1862*
X-9494Y1862*
X-9494Y1803*
X-9687Y1803*
X-9687Y1460*
X-9761Y1460*
X-9761Y1862D02*
X-9761Y2721D01*
X-10358Y1862*
X-9761Y1862*
%LNtop silkscreen component 162f7d07dea3da75*%
D11*
X15127Y8721D02*
X18469Y8721D01*
X15127Y8721D02*
X15127Y6971D01*
X18469Y6971*
X18469Y8721*
D12*
X19588Y7634D02*
X19677Y7611D01*
X19659Y7557*
X19615Y7468*
X19561Y7393*
X19496Y7331*
X19422Y7283*
X19340Y7248*
X19249Y7227*
X19149Y7219*
X19045Y7225*
X18952Y7242*
X18871Y7268*
X18800Y7306*
X18739Y7353*
X18685Y7410*
X18638Y7478*
X18599Y7556*
X18568Y7642*
X18545Y7731*
X18532Y7824*
X18527Y7919*
X18532Y8023*
X18547Y8118*
X18572Y8206*
X18607Y8286*
X18651Y8359*
X18702Y8421*
X18762Y8474*
X18830Y8518*
X18904Y8553*
X18983Y8578*
X19066Y8593*
X19152Y8598*
X19248Y8592*
X19335Y8573*
X19413Y8542*
X19483Y8499*
X19544Y8444*
X19595Y8380*
X19637Y8304*
X19650Y8268*
X19563Y8248*
X19550Y8282*
X19513Y8351*
X19469Y8409*
X19417Y8456*
X19359Y8492*
X19294Y8518*
X19224Y8533*
X19148Y8538*
X19062Y8532*
X18983Y8516*
X18909Y8488*
X18843Y8449*
X18785Y8401*
X18737Y8345*
X18698Y8282*
X18669Y8212*
X18648Y8141*
X18633Y8068*
X18624Y7995*
X18621Y7921*
X18624Y7828*
X18635Y7741*
X18653Y7659*
X18678Y7583*
X18711Y7513*
X18753Y7450*
X18805Y7398*
X18864Y7355*
X18928Y7322*
X18994Y7298*
X19063Y7284*
X19134Y7280*
X19218Y7286*
X19297Y7305*
X19370Y7338*
X19436Y7383*
X19493Y7442*
X19540Y7512*
X19576Y7593*
X19588Y7634*
X20515Y7244D02*
X20441Y7244D01*
X20441Y8426*
X20324Y8322*
X20287Y8294*
X20245Y8265*
X20198Y8236*
X20150Y8208*
X20104Y8185*
X20061Y8165*
X20090Y8176*
X20090Y8240*
X20135Y8263*
X20205Y8305*
X20270Y8351*
X20331Y8401*
X20384Y8453*
X20430Y8504*
X20469Y8556*
X20482Y8580*
X20515Y8580*
X20515Y7244*
X21067Y7900D02*
X21070Y8017D01*
X21080Y8122*
X21096Y8213*
X21117Y8292*
X21144Y8359*
X21176Y8417*
X21214Y8466*
X21256Y8507*
X21303Y8538*
X21356Y8561*
X21416Y8575*
X21484Y8580*
X21534Y8577*
X21580Y8569*
X21622Y8557*
X21662Y8539*
X21697Y8517*
X21730Y8490*
X21760Y8459*
X21786Y8422*
X21811Y8381*
X21833Y8334*
X21852Y8282*
X21869Y8225*
X21882Y8161*
X21891Y8085*
X21897Y7998*
X21899Y7899*
X21896Y7782*
X21887Y7678*
X21871Y7587*
X21850Y7508*
X21823Y7441*
X21791Y7383*
X21754Y7333*
X21711Y7293*
X21664Y7261*
X21611Y7238*
X21551Y7224*
X21484Y7220*
X21396Y7228*
X21320Y7252*
X21254Y7292*
X21198Y7348*
X21143Y7442*
X21101Y7564*
X21076Y7717*
X21067Y7900*
X21197Y7899D02*
X21197Y7899D01*
X21202Y7738*
X21218Y7605*
X21244Y7503*
X21280Y7430*
X21323Y7379*
X21372Y7342*
X21425Y7320*
X21483Y7313*
X21541Y7320*
X21595Y7342*
X21643Y7379*
X21687Y7430*
X21723Y7504*
X21749Y7606*
X21764Y7738*
X21769Y7899*
X21764Y8061*
X21749Y8193*
X21723Y8296*
X21687Y8369*
X21643Y8420*
X21594Y8456*
X21540Y8478*
X21481Y8485*
X21424Y8479*
X21372Y8459*
X21327Y8427*
X21288Y8382*
X21248Y8303*
X21220Y8196*
X21203Y8061*
X21197Y7899*
%LNtop silkscreen component 07ba0c5d4a7a4e02*%
D11*
X8321Y13045D02*
X11663Y13045D01*
X8321Y13045D02*
X8321Y11295D01*
X11663Y11295*
X11663Y13045*
D12*
X9020Y13736D02*
X9109Y13713D01*
X9091Y13659*
X9047Y13570*
X8993Y13495*
X8928Y13433*
X8854Y13385*
X8772Y13350*
X8681Y13329*
X8581Y13321*
X8477Y13327*
X8384Y13344*
X8303Y13370*
X8233Y13408*
X8171Y13455*
X8117Y13512*
X8070Y13580*
X8031Y13658*
X8000Y13744*
X7977Y13833*
X7964Y13926*
X7959Y14021*
X7965Y14125*
X7980Y14220*
X8005Y14308*
X8039Y14388*
X8083Y14461*
X8134Y14523*
X8194Y14576*
X8262Y14620*
X8337Y14655*
X8415Y14680*
X8498Y14695*
X8584Y14700*
X8680Y14694*
X8767Y14675*
X8845Y14644*
X8915Y14601*
X8976Y14546*
X9028Y14482*
X9069Y14406*
X9082Y14370*
X8995Y14350*
X8982Y14384*
X8945Y14453*
X8901Y14511*
X8850Y14558*
X8791Y14594*
X8727Y14620*
X8656Y14635*
X8580Y14640*
X8495Y14634*
X8415Y14618*
X8341Y14590*
X8275Y14551*
X8218Y14503*
X8169Y14447*
X8130Y14384*
X8101Y14314*
X8080Y14243*
X8065Y14170*
X8056Y14097*
X8053Y14023*
X8057Y13930*
X8067Y13843*
X8085Y13761*
X8110Y13685*
X8143Y13615*
X8186Y13552*
X8237Y13500*
X8296Y13457*
X8360Y13424*
X8426Y13400*
X8495Y13386*
X8566Y13382*
X8650Y13388*
X8729Y13407*
X8802Y13440*
X8868Y13485*
X8926Y13544*
X8972Y13614*
X9009Y13695*
X9020Y13736*
X9748Y14066D02*
X9579Y14139D01*
X9541Y14162*
X9510Y14187*
X9486Y14215*
X9467Y14247*
X9454Y14282*
X9446Y14320*
X9443Y14363*
X9449Y14428*
X9467Y14487*
X9497Y14540*
X9539Y14589*
X9592Y14629*
X9652Y14658*
X9723Y14676*
X9803Y14682*
X9884Y14675*
X9955Y14657*
X10016Y14628*
X10070Y14586*
X10113Y14537*
X10144Y14483*
X10162Y14424*
X10168Y14358*
X10165Y14317*
X10157Y14280*
X10144Y14246*
X10125Y14215*
X10101Y14186*
X10071Y14161*
X10034Y14139*
X9877Y14069*
X10048Y14001*
X10095Y13973*
X10135Y13941*
X10168Y13903*
X10193Y13860*
X10212Y13813*
X10223Y13761*
X10227Y13705*
X10219Y13626*
X10198Y13555*
X10163Y13491*
X10113Y13433*
X10051Y13384*
X9980Y13350*
X9898Y13329*
X9806Y13322*
X9714Y13329*
X9632Y13350*
X9561Y13384*
X9500Y13433*
X9449Y13492*
X9414Y13557*
X9393Y13629*
X9385Y13710*
X9389Y13769*
X9401Y13822*
X9420Y13870*
X9446Y13912*
X9479Y13949*
X9518Y13979*
X9565Y14004*
X9748Y14066*
X9572Y14369D02*
X9572Y14369D01*
X9576Y14321*
X9588Y14277*
X9608Y14238*
X9637Y14203*
X9672Y14175*
X9712Y14155*
X9757Y14143*
X9807Y14139*
X9856Y14143*
X9899Y14155*
X9939Y14175*
X9974Y14203*
X10002Y14236*
X10022Y14274*
X10034Y14315*
X10038Y14359*
X10034Y14406*
X10022Y14448*
X10001Y14487*
X9972Y14522*
X9936Y14551*
X9896Y14571*
X9853Y14584*
X9805Y14588*
X9757Y14584*
X9713Y14572*
X9673Y14552*
X9638Y14524*
X9609Y14490*
X9588Y14453*
X9576Y14413*
X9572Y14369*
X9515Y13708D02*
X9515Y13708D01*
X9517Y13671*
X9524Y13634*
X9535Y13598*
X9551Y13563*
X9571Y13529*
X9595Y13500*
X9624Y13475*
X9657Y13454*
X9692Y13437*
X9730Y13425*
X9768Y13418*
X9808Y13415*
X9868Y13420*
X9923Y13435*
X9972Y13461*
X10016Y13496*
X10052Y13539*
X10078Y13588*
X10093Y13642*
X10098Y13702*
X10093Y13763*
X10077Y13818*
X10051Y13868*
X10014Y13912*
X9969Y13949*
X9918Y13974*
X9863Y13990*
X9802Y13995*
X9743Y13990*
X9689Y13975*
X9640Y13949*
X9597Y13913*
X9561Y13870*
X9535Y13821*
X9520Y13767*
X9515Y13708*
%LNtop silkscreen component cc9f9b79252b0a74*%
D11*
X5161Y14383D02*
X5161Y11041D01*
X5161Y14383D02*
X3411Y14383D01*
X3411Y11041*
X5161Y11041*
D12*
X3344Y9526D02*
X3344Y10856D01*
X3786Y10856*
X3863Y10855*
X3929Y10851*
X3985Y10845*
X4030Y10837*
X4084Y10821*
X4133Y10801*
X4178Y10775*
X4218Y10745*
X4267Y10698*
X4308Y10646*
X4344Y10587*
X4373Y10521*
X4396Y10449*
X4413Y10371*
X4423Y10288*
X4426Y10198*
X4424Y10123*
X4417Y10052*
X4406Y9985*
X4390Y9924*
X4371Y9867*
X4349Y9816*
X4326Y9771*
X4300Y9731*
X4272Y9695*
X4243Y9663*
X4213Y9636*
X4182Y9613*
X4150Y9594*
X4113Y9576*
X4072Y9561*
X4028Y9549*
X3979Y9539*
X3927Y9532*
X3870Y9527*
X3809Y9526*
X3344Y9526*
X3483Y9644D02*
X3483Y9644D01*
X3788Y9644*
X3855Y9646*
X3915Y9651*
X3966Y9659*
X4011Y9670*
X4049Y9685*
X4083Y9702*
X4113Y9722*
X4139Y9745*
X4171Y9781*
X4199Y9824*
X4223Y9872*
X4244Y9926*
X4260Y9986*
X4272Y10052*
X4279Y10124*
X4282Y10202*
X4277Y10307*
X4263Y10400*
X4240Y10480*
X4208Y10547*
X4169Y10602*
X4126Y10647*
X4079Y10683*
X4029Y10708*
X3985Y10721*
X3929Y10730*
X3862Y10736*
X3783Y10738*
X3483Y10738*
X3483Y9644*
X5539Y9593D02*
X5539Y9526D01*
X4696Y9526*
X4695Y9503*
X4698Y9529*
X4704Y9554*
X4712Y9579*
X4731Y9623*
X4755Y9667*
X4784Y9711*
X4819Y9755*
X4861Y9801*
X4912Y9852*
X4973Y9906*
X5043Y9965*
X5151Y10057*
X5241Y10139*
X5313Y10213*
X5366Y10277*
X5406Y10338*
X5435Y10398*
X5452Y10459*
X5459Y10519*
X5453Y10579*
X5436Y10635*
X5407Y10686*
X5368Y10732*
X5320Y10770*
X5265Y10797*
X5204Y10813*
X5138Y10818*
X5069Y10813*
X5006Y10796*
X4948Y10767*
X4899Y10727*
X4858Y10676*
X4830Y10618*
X4813Y10552*
X4811Y10536*
X4736Y10543*
X4742Y10581*
X4768Y10655*
X4804Y10717*
X4850Y10768*
X4907Y10808*
X4975Y10838*
X5053Y10855*
X5142Y10862*
X5232Y10855*
X5309Y10836*
X5376Y10805*
X5433Y10761*
X5479Y10708*
X5511Y10650*
X5531Y10586*
X5537Y10514*
X5535Y10477*
X5530Y10440*
X5520Y10403*
X5506Y10366*
X5488Y10328*
X5464Y10289*
X5434Y10248*
X5398Y10205*
X5353Y10157*
X5293Y10100*
X5220Y10033*
X5132Y9958*
X5060Y9897*
X5002Y9846*
X4957Y9805*
X4926Y9774*
X4902Y9749*
X4881Y9723*
X4862Y9697*
X4794Y9593*
X5539Y9593*
D16*
X4286Y14633D03*
%LNtop silkscreen component e236cd287ee15b86*%
D11*
X-15201Y7441D02*
X-11859Y7441D01*
X-15201Y7441D02*
X-15201Y5691D01*
X-11859Y5691*
X-11859Y7441*
D12*
X-15752Y6580D02*
X-15729Y6669D01*
X-15675Y6651*
X-15586Y6607*
X-15511Y6553*
X-15449Y6488*
X-15401Y6414*
X-15366Y6332*
X-15345Y6241*
X-15337Y6141*
X-15343Y6037*
X-15360Y5944*
X-15386Y5863*
X-15424Y5793*
X-15471Y5731*
X-15528Y5677*
X-15596Y5630*
X-15674Y5591*
X-15760Y5560*
X-15849Y5537*
X-15942Y5524*
X-16037Y5519*
X-16141Y5525*
X-16236Y5540*
X-16324Y5565*
X-16404Y5599*
X-16477Y5643*
X-16539Y5694*
X-16592Y5754*
X-16636Y5822*
X-16671Y5897*
X-16696Y5975*
X-16711Y6058*
X-16716Y6144*
X-16710Y6240*
X-16691Y6327*
X-16660Y6405*
X-16617Y6475*
X-16562Y6536*
X-16498Y6588*
X-16422Y6629*
X-16386Y6642*
X-16366Y6555*
X-16400Y6542*
X-16469Y6505*
X-16527Y6461*
X-16574Y6410*
X-16610Y6351*
X-16636Y6287*
X-16651Y6216*
X-16656Y6140*
X-16650Y6055*
X-16634Y5975*
X-16606Y5901*
X-16567Y5835*
X-16519Y5778*
X-16463Y5729*
X-16400Y5690*
X-16330Y5661*
X-16259Y5640*
X-16186Y5625*
X-16113Y5616*
X-16039Y5613*
X-15946Y5617*
X-15859Y5627*
X-15777Y5645*
X-15701Y5670*
X-15631Y5703*
X-15568Y5746*
X-15516Y5797*
X-15473Y5856*
X-15440Y5920*
X-15416Y5986*
X-15402Y6055*
X-15398Y6126*
X-15404Y6210*
X-15423Y6289*
X-15456Y6362*
X-15501Y6428*
X-15560Y6486*
X-15630Y6532*
X-15711Y6569*
X-15752Y6580*
X-15362Y7511D02*
X-15705Y7511D01*
X-15705Y6889*
X-15799Y6889*
X-16692Y7518*
X-16692Y7585*
X-15764Y7585*
X-15764Y7778*
X-15705Y7778*
X-15705Y7585*
X-15362Y7585*
X-15362Y7511*
X-15764Y7511D02*
X-16623Y7511D01*
X-15764Y6914*
X-15764Y7511*
%LNtop silkscreen component 96f420afb51e076d*%
D11*
X-6491Y12317D02*
X-6491Y8975D01*
X-6491Y12317D02*
X-8241Y12317D01*
X-8241Y8975*
X-6491Y8975*
D12*
X-5800Y10856D02*
X-5823Y10767D01*
X-5877Y10785*
X-5966Y10829*
X-6041Y10883*
X-6103Y10948*
X-6151Y11022*
X-6186Y11104*
X-6207Y11195*
X-6215Y11295*
X-6209Y11399*
X-6192Y11492*
X-6166Y11573*
X-6128Y11643*
X-6081Y11705*
X-6024Y11759*
X-5956Y11806*
X-5878Y11845*
X-5792Y11876*
X-5703Y11899*
X-5610Y11912*
X-5515Y11917*
X-5411Y11911*
X-5316Y11896*
X-5228Y11871*
X-5148Y11837*
X-5075Y11793*
X-5013Y11742*
X-4960Y11682*
X-4916Y11614*
X-4881Y11539*
X-4856Y11461*
X-4841Y11378*
X-4836Y11292*
X-4842Y11196*
X-4861Y11109*
X-4892Y11031*
X-4935Y10961*
X-4990Y10900*
X-5054Y10848*
X-5130Y10807*
X-5166Y10794*
X-5186Y10881*
X-5152Y10894*
X-5083Y10931*
X-5025Y10975*
X-4978Y11026*
X-4942Y11085*
X-4916Y11149*
X-4901Y11220*
X-4896Y11296*
X-4902Y11381*
X-4918Y11461*
X-4946Y11535*
X-4985Y11601*
X-5033Y11658*
X-5089Y11707*
X-5152Y11746*
X-5222Y11775*
X-5293Y11796*
X-5366Y11811*
X-5439Y11820*
X-5513Y11823*
X-5606Y11819*
X-5693Y11809*
X-5775Y11791*
X-5851Y11766*
X-5921Y11733*
X-5984Y11690*
X-6036Y11639*
X-6079Y11580*
X-6112Y11516*
X-6136Y11450*
X-6150Y11381*
X-6154Y11310*
X-6148Y11226*
X-6129Y11147*
X-6096Y11074*
X-6051Y11008*
X-5992Y10950*
X-5922Y10904*
X-5841Y10867*
X-5800Y10856*
X-5114Y9689D02*
X-5120Y9764D01*
X-5110Y9767*
X-5064Y9784*
X-5023Y9805*
X-4988Y9831*
X-4949Y9877*
X-4920Y9928*
X-4903Y9984*
X-4897Y10044*
X-4901Y10093*
X-4911Y10139*
X-4929Y10182*
X-4954Y10222*
X-4993Y10267*
X-5039Y10307*
X-5092Y10341*
X-5153Y10370*
X-5223Y10393*
X-5305Y10410*
X-5398Y10420*
X-5665Y10430*
X-5490Y10300*
X-5456Y10268*
X-5427Y10232*
X-5404Y10194*
X-5386Y10153*
X-5373Y10111*
X-5366Y10069*
X-5363Y10026*
X-5370Y9950*
X-5392Y9883*
X-5427Y9820*
X-5477Y9763*
X-5538Y9715*
X-5608Y9681*
X-5687Y9660*
X-5777Y9653*
X-5837Y9656*
X-5895Y9666*
X-5950Y9683*
X-6004Y9706*
X-6053Y9734*
X-6095Y9767*
X-6130Y9804*
X-6160Y9846*
X-6184Y9892*
X-6201Y9942*
X-6211Y9994*
X-6214Y10050*
X-6205Y10145*
X-6178Y10229*
X-6134Y10304*
X-6071Y10369*
X-5987Y10424*
X-5877Y10464*
X-5738Y10488*
X-5571Y10497*
X-5383Y10487*
X-5226Y10460*
X-5098Y10415*
X-4999Y10354*
X-4936Y10290*
X-4891Y10216*
X-4864Y10131*
X-4854Y10033*
X-4860Y9961*
X-4875Y9897*
X-4901Y9840*
X-4937Y9791*
X-4981Y9749*
X-5034Y9716*
X-5095Y9693*
X-5114Y9689*
X-5777Y10345D02*
X-5777Y10345D01*
X-5822Y10343*
X-5866Y10336*
X-5909Y10324*
X-5951Y10307*
X-5990Y10286*
X-6024Y10261*
X-6053Y10232*
X-6077Y10199*
X-6096Y10164*
X-6110Y10128*
X-6118Y10091*
X-6121Y10053*
X-6115Y10000*
X-6098Y9950*
X-6070Y9904*
X-6031Y9862*
X-5982Y9827*
X-5925Y9802*
X-5860Y9787*
X-5787Y9782*
X-5717Y9787*
X-5654Y9802*
X-5600Y9826*
X-5553Y9861*
X-5516Y9903*
X-5489Y9950*
X-5473Y10003*
X-5468Y10060*
X-5473Y10118*
X-5489Y10170*
X-5516Y10219*
X-5553Y10262*
X-5599Y10299*
X-5652Y10325*
X-5711Y10340*
X-5777Y10345*
%LNtop silkscreen component 4bf2e97556516e23*%
D11*
X-4668Y19014D02*
X0306Y19014D01*
X-4668Y19014D02*
X-4668Y15254D01*
X0306Y15254*
X0306Y19014*
D12*
X-3901Y20716D02*
X-3813Y20716D01*
X-3813Y19940*
X-3816Y19840*
X-3825Y19753*
X-3839Y19678*
X-3859Y19615*
X-3884Y19562*
X-3919Y19515*
X-3962Y19472*
X-4014Y19434*
X-4075Y19403*
X-4147Y19380*
X-4229Y19366*
X-4322Y19361*
X-4413Y19366*
X-4494Y19378*
X-4565Y19398*
X-4627Y19425*
X-4679Y19459*
X-4723Y19499*
X-4759Y19546*
X-4787Y19600*
X-4808Y19665*
X-4824Y19744*
X-4834Y19835*
X-4838Y19940*
X-4838Y20716*
X-4750Y20716*
X-4750Y19940*
X-4748Y19851*
X-4741Y19772*
X-4729Y19704*
X-4712Y19647*
X-4687Y19598*
X-4656Y19554*
X-4616Y19516*
X-4570Y19485*
X-4519Y19461*
X-4463Y19444*
X-4403Y19434*
X-4338Y19431*
X-4235Y19437*
X-4144Y19457*
X-4066Y19491*
X-4003Y19541*
X-3956Y19612*
X-3925Y19702*
X-3907Y19811*
X-3901Y19939*
X-3901Y20716*
X-2645Y19453D02*
X-2645Y19386D01*
X-3489Y19386*
X-3489Y19363*
X-3486Y19389*
X-3481Y19414*
X-3473Y19439*
X-3454Y19483*
X-3430Y19527*
X-3400Y19571*
X-3366Y19615*
X-3324Y19661*
X-3272Y19712*
X-3212Y19766*
X-3142Y19825*
X-3034Y19917*
X-2944Y19999*
X-2872Y20073*
X-2818Y20137*
X-2779Y20198*
X-2750Y20258*
X-2732Y20319*
X-2726Y20379*
X-2732Y20439*
X-2749Y20495*
X-2777Y20546*
X-2817Y20592*
X-2865Y20630*
X-2920Y20657*
X-2981Y20673*
X-3047Y20678*
X-3115Y20673*
X-3179Y20656*
X-3236Y20627*
X-3286Y20587*
X-3326Y20536*
X-3355Y20478*
X-3372Y20412*
X-3373Y20396*
X-3449Y20403*
X-3442Y20441*
X-3417Y20515*
X-3381Y20577*
X-3334Y20628*
X-3277Y20668*
X-3210Y20698*
X-3132Y20715*
X-3043Y20722*
X-2953Y20715*
X-2875Y20696*
X-2808Y20665*
X-2751Y20621*
X-2706Y20568*
X-2673Y20510*
X-2654Y20446*
X-2647Y20374*
X-2649Y20337*
X-2655Y20300*
X-2665Y20263*
X-2678Y20226*
X-2697Y20188*
X-2721Y20149*
X-2750Y20108*
X-2786Y20065*
X-2832Y20017*
X-2891Y19960*
X-2965Y19893*
X-3052Y19818*
X-3124Y19757*
X-3183Y19706*
X-3228Y19665*
X-3259Y19634*
X-3282Y19609*
X-3303Y19583*
X-3323Y19557*
X-3390Y19453*
X-2645Y19453*
X-1555Y20462D02*
X-1631Y20456D01*
X-1633Y20466*
X-1650Y20512*
X-1672Y20553*
X-1698Y20588*
X-1743Y20627*
X-1795Y20656*
X-1851Y20673*
X-1910Y20679*
X-1959Y20675*
X-2005Y20665*
X-2048Y20647*
X-2088Y20622*
X-2134Y20583*
X-2173Y20537*
X-2207Y20484*
X-2236Y20423*
X-2259Y20353*
X-2276Y20271*
X-2286Y20178*
X-2296Y19911*
X-2166Y20086*
X-2134Y20120*
X-2099Y20149*
X-2060Y20172*
X-2019Y20190*
X-1978Y20203*
X-1935Y20210*
X-1892Y20213*
X-1817Y20206*
X-1749Y20184*
X-1686Y20149*
X-1629Y20099*
X-1581Y20038*
X-1547Y19968*
X-1526Y19889*
X-1519Y19799*
X-1523Y19739*
X-1533Y19681*
X-1549Y19626*
X-1572Y19572*
X-1600Y19523*
X-1633Y19481*
X-1671Y19446*
X-1713Y19416*
X-1759Y19392*
X-1808Y19375*
X-1860Y19365*
X-1916Y19362*
X-2011Y19371*
X-2095Y19398*
X-2170Y19442*
X-2236Y19505*
X-2290Y19589*
X-2330Y19699*
X-2355Y19838*
X-2363Y20005*
X-2354Y20193*
X-2326Y20350*
X-2281Y20478*
X-2220Y20577*
X-2156Y20640*
X-2082Y20685*
X-1997Y20712*
X-1900Y20722*
X-1827Y20716*
X-1763Y20701*
X-1707Y20675*
X-1657Y20639*
X-1615Y20595*
X-1583Y20542*
X-1559Y20481*
X-1555Y20462*
X-2212Y19799D02*
X-2212Y19799D01*
X-2209Y19754*
X-2202Y19710*
X-2190Y19667*
X-2173Y19625*
X-2152Y19586*
X-2127Y19552*
X-2098Y19523*
X-2065Y19499*
X-2030Y19480*
X-1994Y19466*
X-1957Y19458*
X-1920Y19455*
X-1866Y19461*
X-1816Y19478*
X-1770Y19506*
X-1728Y19545*
X-1693Y19594*
X-1668Y19651*
X-1653Y19716*
X-1648Y19789*
X-1653Y19859*
X-1668Y19922*
X-1693Y19976*
X-1727Y20023*
X-1769Y20060*
X-1817Y20087*
X-1869Y20103*
X-1926Y20108*
X-1984Y20103*
X-2037Y20087*
X-2085Y20060*
X-2129Y20023*
X-2165Y19977*
X-2191Y19924*
X-2206Y19865*
X-2212Y19799*
D22*
X-3334Y19034D03*
%LNtop silkscreen component 980529a8efc2a642*%
D11*
X-15946Y14079D02*
X-11114Y14079D01*
X-15946Y14079D02*
X-15946Y10229D01*
X-11114Y10229*
X-11114Y14079*
D12*
X-17559Y11491D02*
X-17559Y11579D01*
X-16783Y11579*
X-16683Y11576*
X-16596Y11567*
X-16521Y11553*
X-16458Y11534*
X-16405Y11508*
X-16358Y11474*
X-16315Y11431*
X-16277Y11378*
X-16246Y11317*
X-16223Y11246*
X-16209Y11163*
X-16204Y11070*
X-16209Y10979*
X-16221Y10898*
X-16241Y10827*
X-16268Y10765*
X-16302Y10713*
X-16342Y10669*
X-16389Y10634*
X-16443Y10606*
X-16508Y10584*
X-16587Y10568*
X-16678Y10558*
X-16783Y10555*
X-17559Y10555*
X-17559Y10643*
X-16783Y10643*
X-16694Y10645*
X-16615Y10652*
X-16547Y10663*
X-16490Y10681*
X-16441Y10705*
X-16397Y10737*
X-16359Y10776*
X-16328Y10822*
X-16304Y10873*
X-16287Y10929*
X-16277Y10990*
X-16274Y11054*
X-16280Y11158*
X-16300Y11248*
X-16334Y11326*
X-16384Y11389*
X-16455Y11436*
X-16545Y11468*
X-16654Y11485*
X-16782Y11491*
X-17559Y11491*
X-16229Y12485D02*
X-16229Y12411D01*
X-17411Y12411*
X-17307Y12294*
X-17279Y12257*
X-17250Y12215*
X-17221Y12168*
X-17193Y12119*
X-17170Y12074*
X-17150Y12031*
X-17161Y12060*
X-17225Y12060*
X-17248Y12105*
X-17290Y12175*
X-17336Y12240*
X-17386Y12300*
X-17438Y12354*
X-17489Y12400*
X-17541Y12438*
X-17565Y12452*
X-17565Y12485*
X-16229Y12485*
X-16513Y13047D02*
X-16523Y13125D01*
X-16494Y13132*
X-16429Y13158*
X-16372Y13191*
X-16327Y13231*
X-16292Y13278*
X-16267Y13329*
X-16252Y13384*
X-16247Y13444*
X-16253Y13513*
X-16272Y13577*
X-16304Y13636*
X-16348Y13689*
X-16401Y13733*
X-16461Y13764*
X-16527Y13783*
X-16597Y13789*
X-16664Y13784*
X-16726Y13766*
X-16783Y13736*
X-16833Y13695*
X-16874Y13645*
X-16903Y13588*
X-16921Y13525*
X-16926Y13459*
X-16925Y13427*
X-16921Y13394*
X-16914Y13359*
X-16922Y13394*
X-16954Y13398*
X-16959Y13357*
X-16958Y13366*
X-16957Y13374*
X-16957Y13383*
X-16961Y13444*
X-16974Y13503*
X-16995Y13559*
X-17025Y13613*
X-17066Y13661*
X-17118Y13697*
X-17179Y13718*
X-17247Y13725*
X-17303Y13720*
X-17355Y13705*
X-17402Y13679*
X-17444Y13644*
X-17478Y13601*
X-17503Y13552*
X-17517Y13498*
X-17522Y13439*
X-17517Y13382*
X-17503Y13327*
X-17478Y13278*
X-17443Y13233*
X-17400Y13196*
X-17347Y13166*
X-17288Y13145*
X-17272Y13141*
X-17285Y13068*
X-17311Y13074*
X-17377Y13103*
X-17433Y13139*
X-17479Y13184*
X-17516Y13237*
X-17543Y13296*
X-17559Y13362*
X-17565Y13436*
X-17562Y13487*
X-17553Y13537*
X-17539Y13583*
X-17520Y13628*
X-17496Y13669*
X-17468Y13704*
X-17437Y13734*
X-17402Y13759*
X-17364Y13778*
X-17325Y13792*
X-17285Y13801*
X-17243Y13804*
X-17205Y13801*
X-17169Y13793*
X-17135Y13780*
X-17103Y13762*
X-17072Y13739*
X-17045Y13711*
X-17021Y13676*
X-16941Y13526*
X-16888Y13698*
X-16865Y13743*
X-16836Y13782*
X-16801Y13814*
X-16760Y13840*
X-16713Y13859*
X-16660Y13870*
X-16602Y13874*
X-16521Y13866*
X-16448Y13844*
X-16381Y13806*
X-16320Y13753*
X-16269Y13688*
X-16233Y13615*
X-16211Y13534*
X-16204Y13442*
X-16210Y13360*
X-16229Y13287*
X-16260Y13222*
X-16303Y13164*
X-16356Y13115*
X-16416Y13077*
X-16484Y13052*
X-16513Y13047*
D13*
X-16121Y13154D03*
%LNtop silkscreen component e2bc7beb142f3684*%
D11*
X-16251Y18363D02*
X-12909Y18363D01*
X-16251Y18363D02*
X-16251Y16613D01*
X-12909Y16613*
X-12909Y18363*
D12*
X-14790Y19054D02*
X-14701Y19031D01*
X-14719Y18977*
X-14763Y18888*
X-14817Y18813*
X-14882Y18751*
X-14956Y18703*
X-15038Y18668*
X-15129Y18647*
X-15229Y18639*
X-15333Y18645*
X-15426Y18662*
X-15507Y18688*
X-15577Y18726*
X-15639Y18773*
X-15693Y18830*
X-15740Y18898*
X-15779Y18976*
X-15810Y19062*
X-15833Y19151*
X-15846Y19244*
X-15851Y19339*
X-15845Y19443*
X-15830Y19538*
X-15805Y19626*
X-15771Y19706*
X-15727Y19779*
X-15676Y19841*
X-15616Y19894*
X-15548Y19938*
X-15473Y19973*
X-15395Y19998*
X-15312Y20013*
X-15226Y20018*
X-15130Y20012*
X-15043Y19993*
X-14965Y19962*
X-14895Y19919*
X-14834Y19864*
X-14782Y19800*
X-14741Y19724*
X-14728Y19688*
X-14815Y19668*
X-14828Y19702*
X-14865Y19771*
X-14909Y19829*
X-14960Y19876*
X-15019Y19912*
X-15083Y19938*
X-15154Y19953*
X-15230Y19958*
X-15315Y19952*
X-15395Y19936*
X-15469Y19908*
X-15535Y19869*
X-15592Y19821*
X-15641Y19765*
X-15680Y19702*
X-15709Y19632*
X-15730Y19561*
X-15745Y19488*
X-15754Y19415*
X-15757Y19341*
X-15753Y19248*
X-15743Y19161*
X-15725Y19079*
X-15700Y19003*
X-15667Y18933*
X-15624Y18870*
X-15573Y18818*
X-15514Y18775*
X-15450Y18742*
X-15384Y18718*
X-15315Y18704*
X-15244Y18700*
X-15160Y18706*
X-15081Y18725*
X-15008Y18758*
X-14942Y18803*
X-14884Y18862*
X-14838Y18932*
X-14801Y19013*
X-14790Y19054*
X-14413Y18948D02*
X-14335Y18958D01*
X-14328Y18929*
X-14302Y18864*
X-14269Y18807*
X-14229Y18762*
X-14182Y18727*
X-14131Y18702*
X-14076Y18687*
X-14016Y18682*
X-13948Y18688*
X-13883Y18707*
X-13824Y18739*
X-13771Y18783*
X-13727Y18836*
X-13696Y18896*
X-13677Y18962*
X-13671Y19032*
X-13676Y19099*
X-13694Y19161*
X-13724Y19218*
X-13765Y19268*
X-13815Y19309*
X-13872Y19338*
X-13935Y19356*
X-14001Y19361*
X-14033Y19360*
X-14066Y19356*
X-14101Y19349*
X-14066Y19357*
X-14062Y19389*
X-14103Y19394*
X-14094Y19393*
X-14086Y19392*
X-14077Y19392*
X-14016Y19396*
X-13957Y19409*
X-13901Y19430*
X-13847Y19460*
X-13799Y19501*
X-13763Y19553*
X-13742Y19614*
X-13735Y19682*
X-13740Y19738*
X-13755Y19790*
X-13781Y19837*
X-13816Y19879*
X-13859Y19913*
X-13909Y19938*
X-13963Y19952*
X-14021Y19957*
X-14078Y19952*
X-14133Y19938*
X-14182Y19913*
X-14227Y19878*
X-14264Y19835*
X-14294Y19782*
X-14316Y19723*
X-14319Y19707*
X-14392Y19720*
X-14386Y19746*
X-14357Y19812*
X-14321Y19868*
X-14276Y19914*
X-14223Y19951*
X-14164Y19978*
X-14098Y19994*
X-14024Y20000*
X-13973Y19997*
X-13923Y19988*
X-13877Y19974*
X-13832Y19955*
X-13791Y19931*
X-13756Y19903*
X-13726Y19872*
X-13701Y19837*
X-13682Y19799*
X-13668Y19760*
X-13659Y19720*
X-13656Y19678*
X-13659Y19640*
X-13667Y19604*
X-13680Y19570*
X-13698Y19538*
X-13721Y19507*
X-13749Y19480*
X-13784Y19456*
X-13934Y19376*
X-13762Y19323*
X-13717Y19300*
X-13678Y19271*
X-13646Y19236*
X-13620Y19195*
X-13602Y19148*
X-13590Y19095*
X-13586Y19037*
X-13594Y18956*
X-13616Y18883*
X-13654Y18816*
X-13707Y18755*
X-13772Y18704*
X-13845Y18668*
X-13926Y18646*
X-14018Y18639*
X-14100Y18645*
X-14173Y18664*
X-14238Y18695*
X-14297Y18738*
X-14346Y18791*
X-14383Y18851*
X-14408Y18919*
X-14413Y18948*
%LNtop silkscreen component e41167a18c6b7d24*%
D11*
X-15883Y-9481D02*
X-15883Y-6139D01*
X-15883Y-9481D02*
X-14133Y-9481D01*
X-14133Y-6139*
X-15883Y-6139*
D12*
X-14406Y-11817D02*
X-15736Y-11817D01*
X-15736Y-11234*
X-15733Y-11146*
X-15727Y-11071*
X-15715Y-11010*
X-15701Y-10961*
X-15681Y-10921*
X-15656Y-10886*
X-15624Y-10854*
X-15585Y-10826*
X-15541Y-10804*
X-15495Y-10787*
X-15447Y-10777*
X-15397Y-10774*
X-15332Y-10780*
X-15274Y-10796*
X-15222Y-10822*
X-15175Y-10859*
X-15134Y-10907*
X-15100Y-10968*
X-15074Y-11043*
X-15028Y-11281*
X-14944Y-11116*
X-14927Y-11087*
X-14912Y-11064*
X-14897Y-11046*
X-14860Y-11008*
X-14817Y-10971*
X-14769Y-10934*
X-14717Y-10897*
X-14406Y-10699*
X-14406Y-10816*
X-14680Y-10991*
X-14742Y-11031*
X-14796Y-11068*
X-14842Y-11101*
X-14882Y-11131*
X-14915Y-11159*
X-14944Y-11186*
X-14969Y-11212*
X-14988Y-11239*
X-15003Y-11264*
X-15016Y-11289*
X-15026Y-11315*
X-15034Y-11342*
X-15037Y-11366*
X-15040Y-11392*
X-15041Y-11423*
X-15042Y-11458*
X-15042Y-11729*
X-14406Y-11729*
X-14406Y-11817*
X-15155Y-11678D02*
X-15155Y-11678D01*
X-15155Y-11271*
X-15156Y-11210*
X-15162Y-11155*
X-15170Y-11108*
X-15182Y-11068*
X-15197Y-11034*
X-15217Y-11004*
X-15240Y-10978*
X-15268Y-10957*
X-15298Y-10940*
X-15329Y-10928*
X-15362Y-10921*
X-15396Y-10919*
X-15445Y-10923*
X-15489Y-10937*
X-15528Y-10960*
X-15563Y-10992*
X-15592Y-11035*
X-15612Y-11087*
X-15624Y-11151*
X-15628Y-11225*
X-15628Y-11678*
X-15155Y-11678*
X-14473Y-9625D02*
X-14406Y-9625D01*
X-14406Y-10468*
X-14383Y-10469*
X-14409Y-10466*
X-14434Y-10460*
X-14459Y-10452*
X-14503Y-10433*
X-14547Y-10409*
X-14591Y-10380*
X-14635Y-10345*
X-14681Y-10303*
X-14732Y-10252*
X-14786Y-10191*
X-14845Y-10121*
X-14937Y-10013*
X-15019Y-9923*
X-15093Y-9851*
X-15157Y-9798*
X-15218Y-9758*
X-15278Y-9729*
X-15339Y-9712*
X-15399Y-9705*
X-15459Y-9711*
X-15515Y-9728*
X-15566Y-9757*
X-15612Y-9796*
X-15650Y-9844*
X-15677Y-9899*
X-15693Y-9960*
X-15698Y-10026*
X-15693Y-10095*
X-15676Y-10158*
X-15647Y-10216*
X-15607Y-10265*
X-15556Y-10306*
X-15498Y-10334*
X-15432Y-10351*
X-15416Y-10353*
X-15423Y-10428*
X-15461Y-10422*
X-15535Y-10396*
X-15597Y-10360*
X-15648Y-10314*
X-15688Y-10257*
X-15718Y-10189*
X-15735Y-10111*
X-15742Y-10022*
X-15735Y-9932*
X-15716Y-9855*
X-15685Y-9788*
X-15641Y-9731*
X-15588Y-9685*
X-15530Y-9653*
X-15466Y-9633*
X-15394Y-9627*
X-15357Y-9629*
X-15320Y-9634*
X-15283Y-9644*
X-15246Y-9658*
X-15208Y-9676*
X-15169Y-9700*
X-15128Y-9730*
X-15085Y-9766*
X-15037Y-9811*
X-14980Y-9871*
X-14913Y-9944*
X-14838Y-10032*
X-14777Y-10104*
X-14726Y-10162*
X-14685Y-10207*
X-14654Y-10238*
X-14629Y-10262*
X-14603Y-10283*
X-14577Y-10302*
X-14473Y-10370*
X-14473Y-9625*
%LNtop silkscreen component 613bc691a411fb2b*%
D11*
X19891Y9517D02*
X16549Y9517D01*
X19891Y9517D02*
X19891Y11267D01*
X16549Y11267*
X16549Y9517*
D12*
X16635Y11612D02*
X16635Y12942D01*
X17218Y12942*
X17306Y12939*
X17381Y12933*
X17442Y12921*
X17491Y12907*
X17531Y12887*
X17566Y12862*
X17598Y12830*
X17626Y12791*
X17648Y12747*
X17665Y12701*
X17675Y12653*
X17678Y12603*
X17672Y12538*
X17656Y12480*
X17630Y12428*
X17593Y12381*
X17545Y12340*
X17484Y12306*
X17409Y12280*
X17171Y12234*
X17336Y12150*
X17365Y12133*
X17388Y12118*
X17406Y12103*
X17444Y12066*
X17481Y12023*
X17518Y11975*
X17555Y11923*
X17753Y11612*
X17636Y11612*
X17461Y11886*
X17421Y11948*
X17384Y12002*
X17351Y12048*
X17321Y12088*
X17293Y12121*
X17266Y12150*
X17240Y12175*
X17213Y12194*
X17188Y12209*
X17163Y12222*
X17137Y12232*
X17110Y12240*
X17086Y12243*
X17060Y12246*
X17029Y12247*
X16994Y12248*
X16723Y12248*
X16723Y11612*
X16635Y11612*
X16774Y12361D02*
X16774Y12361D01*
X17181Y12361*
X17242Y12362*
X17297Y12368*
X17344Y12376*
X17384Y12388*
X17418Y12403*
X17448Y12423*
X17474Y12446*
X17495Y12474*
X17512Y12504*
X17524Y12535*
X17531Y12568*
X17533Y12602*
X17529Y12651*
X17515Y12695*
X17492Y12734*
X17460Y12769*
X17417Y12798*
X17365Y12818*
X17301Y12830*
X17227Y12834*
X16774Y12834*
X16774Y12361*
X18042Y11847D02*
X18110Y11853D01*
X18114Y11837*
X18135Y11783*
X18163Y11736*
X18197Y11697*
X18238Y11667*
X18284Y11646*
X18334Y11634*
X18387Y11630*
X18432Y11633*
X18476Y11641*
X18517Y11655*
X18555Y11675*
X18589Y11698*
X18620Y11725*
X18648Y11756*
X18672Y11790*
X18693Y11828*
X18712Y11872*
X18729Y11920*
X18744Y11973*
X18756Y12029*
X18765Y12085*
X18770Y12142*
X18772Y12199*
X18772Y12207*
X18771Y12216*
X18771Y12226*
X18765Y12384*
X18652Y12227*
X18623Y12196*
X18589Y12168*
X18551Y12143*
X18510Y12123*
X18468Y12109*
X18424Y12100*
X18379Y12097*
X18303Y12104*
X18234Y12126*
X18172Y12161*
X18114Y12210*
X18067Y12272*
X18033Y12342*
X18012Y12423*
X18005Y12515*
X18013Y12610*
X18034Y12694*
X18070Y12767*
X18120Y12830*
X18180Y12882*
X18247Y12918*
X18321Y12940*
X18405Y12948*
X18466Y12943*
X18524Y12931*
X18579Y12910*
X18632Y12881*
X18680Y12844*
X18722Y12800*
X18759Y12748*
X18789Y12689*
X18813Y12618*
X18830Y12531*
X18841Y12427*
X18845Y12306*
X18841Y12179*
X18830Y12067*
X18813Y11969*
X18788Y11887*
X18758Y11816*
X18721Y11756*
X18678Y11705*
X18629Y11663*
X18575Y11630*
X18516Y11607*
X18452Y11592*
X18383Y11588*
X18311Y11593*
X18247Y11608*
X18191Y11633*
X18142Y11668*
X18101Y11712*
X18069Y11765*
X18046Y11826*
X18042Y11847*
X18700Y12524D02*
X18700Y12524D01*
X18695Y12596*
X18680Y12660*
X18655Y12716*
X18620Y12764*
X18578Y12803*
X18531Y12831*
X18481Y12847*
X18426Y12853*
X18369Y12847*
X18316Y12829*
X18267Y12799*
X18222Y12757*
X18184Y12706*
X18157Y12647*
X18140Y12582*
X18135Y12509*
X18140Y12444*
X18156Y12385*
X18181Y12333*
X18217Y12287*
X18261Y12250*
X18310Y12223*
X18363Y12207*
X18421Y12202*
X18479Y12207*
X18532Y12223*
X18580Y12250*
X18622Y12287*
X18656Y12334*
X18681Y12389*
X18695Y12452*
X18700Y12524*
%LNtop silkscreen component ab0f4d277d178ad3*%
D11*
X4709Y-8170D02*
X4709Y-13210D01*
X-3481Y-8170D02*
X-3481Y-13210D01*
D12*
X-5543Y-12706D02*
X-5471Y-12696D01*
X-5469Y-12721*
X-5455Y-12791*
X-5433Y-12850*
X-5402Y-12897*
X-5362Y-12932*
X-5317Y-12956*
X-5267Y-12970*
X-5212Y-12975*
X-5171Y-12972*
X-5132Y-12965*
X-5096Y-12952*
X-5062Y-12934*
X-5031Y-12912*
X-5005Y-12885*
X-4985Y-12854*
X-4969Y-12819*
X-4959Y-12780*
X-4952Y-12735*
X-4948Y-12683*
X-4947Y-12624*
X-4947Y-11688*
X-4859Y-11688*
X-4859Y-12612*
X-4862Y-12694*
X-4870Y-12764*
X-4882Y-12823*
X-4899Y-12870*
X-4920Y-12909*
X-4946Y-12943*
X-4977Y-12972*
X-5014Y-12997*
X-5057Y-13016*
X-5104Y-13030*
X-5155Y-13039*
X-5210Y-13042*
X-5291Y-13036*
X-5359Y-13018*
X-5415Y-12989*
X-5462Y-12950*
X-5498Y-12899*
X-5525Y-12835*
X-5540Y-12756*
X-5543Y-12706*
X-3697Y-12950D02*
X-3697Y-13018D01*
X-4541Y-13018*
X-4541Y-13040*
X-4538Y-13015*
X-4533Y-12989*
X-4525Y-12964*
X-4506Y-12921*
X-4482Y-12877*
X-4452Y-12833*
X-4418Y-12789*
X-4375Y-12742*
X-4324Y-12692*
X-4264Y-12637*
X-4194Y-12578*
X-4086Y-12487*
X-3996Y-12404*
X-3924Y-12331*
X-3870Y-12266*
X-3831Y-12206*
X-3802Y-12145*
X-3784Y-12085*
X-3778Y-12025*
X-3783Y-11965*
X-3801Y-11908*
X-3829Y-11857*
X-3868Y-11811*
X-3917Y-11774*
X-3972Y-11747*
X-4033Y-11731*
X-4098Y-11726*
X-4167Y-11731*
X-4231Y-11748*
X-4288Y-11776*
X-4338Y-11817*
X-4378Y-11867*
X-4407Y-11926*
X-4424Y-11991*
X-4425Y-12008*
X-4500Y-12000*
X-4494Y-11962*
X-4469Y-11888*
X-4433Y-11826*
X-4386Y-11775*
X-4329Y-11735*
X-4262Y-11706*
X-4184Y-11688*
X-4095Y-11682*
X-4005Y-11688*
X-3927Y-11708*
X-3860Y-11739*
X-3803Y-11782*
X-3758Y-11835*
X-3725Y-11893*
X-3706Y-11957*
X-3699Y-12030*
X-3701Y-12066*
X-3707Y-12103*
X-3717Y-12140*
X-3730Y-12177*
X-3749Y-12215*
X-3772Y-12254*
X-3802Y-12296*
X-3838Y-12338*
X-3884Y-12387*
X-3943Y-12444*
X-4017Y-12510*
X-4104Y-12586*
X-4176Y-12647*
X-4235Y-12698*
X-4280Y-12738*
X-4311Y-12769*
X-4334Y-12795*
X-4355Y-12821*
X-4375Y-12847*
X-4442Y-12950*
X-3697Y-12950*
D16*
X3204Y-7845D03*
%LNtop silkscreen component 7d1b4828299bd936*%
D13*
X-15432Y-18039D02*
X-11755Y-14362D01*
X-8078Y-18039*
X-11755Y-21716*
X-15432Y-18039*
D12*
X-16019Y-19411D02*
X-15956Y-19463D01*
X-15961Y-19470*
X-15987Y-19516*
X-16007Y-19564*
X-16020Y-19612*
X-16026Y-19662*
X-16023Y-19713*
X-16013Y-19766*
X-15995Y-19820*
X-15970Y-19874*
X-15939Y-19926*
X-15901Y-19976*
X-15858Y-20023*
X-15816Y-20062*
X-15773Y-20095*
X-15729Y-20123*
X-15684Y-20146*
X-15639Y-20163*
X-15594Y-20174*
X-15549Y-20178*
X-15506Y-20175*
X-15466Y-20165*
X-15428Y-20150*
X-15393Y-20129*
X-15363Y-20103*
X-15336Y-20072*
X-15315Y-20038*
X-15301Y-20001*
X-15292Y-19962*
X-15291Y-19920*
X-15297Y-19876*
X-15309Y-19831*
X-15328Y-19784*
X-15347Y-19746*
X-15375Y-19694*
X-15414Y-19629*
X-15462Y-19549*
X-15509Y-19469*
X-15546Y-19401*
X-15573Y-19345*
X-15589Y-19301*
X-15601Y-19253*
X-15607Y-19207*
X-15607Y-19165*
X-15602Y-19125*
X-15590Y-19088*
X-15574Y-19053*
X-15552Y-19020*
X-15525Y-18989*
X-15490Y-18959*
X-15452Y-18934*
X-15410Y-18916*
X-15364Y-18903*
X-15316Y-18897*
X-15268Y-18899*
X-15217Y-18908*
X-15165Y-18926*
X-15112Y-18951*
X-15061Y-18983*
X-15010Y-19021*
X-14962Y-19066*
X-14912Y-19120*
X-14871Y-19174*
X-14837Y-19229*
X-14811Y-19284*
X-14792Y-19338*
X-14783Y-19391*
X-14781Y-19443*
X-14788Y-19494*
X-14802Y-19544*
X-14822Y-19591*
X-14850Y-19636*
X-14854Y-19641*
X-14918Y-19586*
X-14905Y-19566*
X-14876Y-19504*
X-14861Y-19440*
X-14860Y-19374*
X-14874Y-19308*
X-14903Y-19244*
X-14946Y-19180*
X-15002Y-19118*
X-15066Y-19060*
X-15128Y-19016*
X-15191Y-18985*
X-15253Y-18970*
X-15312Y-18969*
X-15366Y-18980*
X-15416Y-19003*
X-15459Y-19036*
X-15489Y-19073*
X-15510Y-19114*
X-15522Y-19158*
X-15524Y-19206*
X-15513Y-19262*
X-15485Y-19329*
X-15443Y-19409*
X-15387Y-19503*
X-15330Y-19595*
X-15285Y-19673*
X-15252Y-19736*
X-15232Y-19783*
X-15214Y-19840*
X-15204Y-19894*
X-15202Y-19943*
X-15207Y-19989*
X-15218Y-20032*
X-15237Y-20073*
X-15262Y-20112*
X-15294Y-20149*
X-15331Y-20181*
X-15372Y-20207*
X-15418Y-20227*
X-15467Y-20241*
X-15519Y-20248*
X-15572Y-20247*
X-15627Y-20238*
X-15683Y-20221*
X-15740Y-20196*
X-15795Y-20164*
X-15848Y-20125*
X-15900Y-20077*
X-15961Y-20012*
X-16010Y-19948*
X-16050Y-19885*
X-16079Y-19824*
X-16098Y-19765*
X-16108Y-19705*
X-16109Y-19646*
X-16101Y-19587*
X-16085Y-19529*
X-16061Y-19475*
X-16029Y-19423*
X-16019Y-19411*
X-15121Y-20822D02*
X-14430Y-19632D01*
X-14368Y-19694*
X-14856Y-20478*
X-14896Y-20541*
X-14936Y-20604*
X-14977Y-20665*
X-15156Y-20924*
X-14861Y-20743*
X-14792Y-20701*
X-14745Y-20672*
X-14719Y-20657*
X-13877Y-20185*
X-13770Y-20292*
X-14118Y-20916*
X-14186Y-21034*
X-14255Y-21145*
X-14324Y-21250*
X-14554Y-21570*
X-14266Y-21381*
X-14201Y-21340*
X-14132Y-21297*
X-14057Y-21252*
X-13282Y-20781*
X-13222Y-20840*
X-14421Y-21522*
X-14495Y-21448*
X-13956Y-20497*
X-13925Y-20441*
X-13900Y-20398*
X-13882Y-20367*
X-13758Y-20165*
X-13981Y-20304*
X-14019Y-20327*
X-14054Y-20348*
X-14087Y-20366*
X-15039Y-20904*
X-15121Y-20822*
X-13609Y-22334D02*
X-13661Y-22282D01*
X-12825Y-21446*
X-12982Y-21436*
X-13028Y-21431*
X-13078Y-21421*
X-13132Y-21409*
X-13185Y-21394*
X-13234Y-21378*
X-13279Y-21362*
X-13250Y-21374*
X-13205Y-21329*
X-13157Y-21345*
X-13078Y-21364*
X-12999Y-21378*
X-12921Y-21385*
X-12846Y-21387*
X-12778Y-21383*
X-12714Y-21373*
X-12687Y-21366*
X-12664Y-21390*
X-13609Y-22334*
%LNtop silkscreen component 108beaf41594700f*%
X-4466Y2021D02*
X-4433Y2022D01*
X-4447Y2022*
X-4459Y2022*
X-4467Y2021*
X-4514Y2023*
X-4556Y2028*
X-4594Y2036*
X-4629Y2048*
X-4653Y2058*
X-4677Y2072*
X-4703Y2088*
X-4728Y2108*
X-4750Y2127*
X-4776Y2154*
X-4808Y2188*
X-4846Y2230*
X-4885Y2273*
X-4922Y2309*
X-4955Y2337*
X-4986Y2358*
X-5017Y2374*
X-5049Y2384*
X-5082Y2391*
X-5118Y2393*
X-5177Y2387*
X-5234Y2368*
X-5286Y2338*
X-5333Y2297*
X-5373Y2247*
X-5402Y2191*
X-5420Y2130*
X-5425Y2066*
X-5420Y2003*
X-5405Y1944*
X-5378Y1891*
X-5341Y1843*
X-5293Y1802*
X-5235Y1769*
X-5168Y1745*
X-5140Y1739*
X-5150Y1659*
X-5186Y1666*
X-5261Y1693*
X-5323Y1730*
X-5374Y1777*
X-5415Y1834*
X-5444Y1900*
X-5462Y1976*
X-5468Y2062*
X-5461Y2154*
X-5442Y2235*
X-5411Y2304*
X-5367Y2363*
X-5314Y2411*
X-5257Y2445*
X-5196Y2465*
X-5127Y2471*
X-5088Y2469*
X-5051Y2462*
X-5015Y2450*
X-4980Y2434*
X-4944Y2410*
X-4901Y2376*
X-4854Y2330*
X-4800Y2272*
X-4765Y2233*
X-4733Y2200*
X-4705Y2173*
X-4681Y2153*
X-4658Y2138*
X-4634Y2125*
X-4608Y2115*
X-4581Y2106*
X-4549Y2099*
X-4511Y2095*
X-4467Y2092*
X-4466Y2091*
X-4466Y2021*
X-4114Y2012D02*
X-4212Y2012D01*
X-4212Y2110*
X-4114Y2110*
X-4114Y2012*
X-4397Y2767D02*
X-4408Y2845D01*
X-4379Y2852*
X-4313Y2878*
X-4257Y2911*
X-4211Y2951*
X-4176Y2998*
X-4152Y3049*
X-4137Y3104*
X-4132Y3163*
X-4138Y3232*
X-4157Y3297*
X-4189Y3356*
X-4233Y3409*
X-4286Y3452*
X-4346Y3484*
X-4412Y3503*
X-4482Y3509*
X-4549Y3503*
X-4611Y3486*
X-4668Y3456*
X-4718Y3415*
X-4759Y3365*
X-4788Y3308*
X-4805Y3245*
X-4811Y3179*
X-4810Y3147*
X-4805Y3114*
X-4799Y3079*
X-4807Y3113*
X-4839Y3117*
X-4843Y3077*
X-4843Y3086*
X-4842Y3094*
X-4842Y3103*
X-4846Y3163*
X-4859Y3222*
X-4880Y3279*
X-4909Y3333*
X-4950Y3381*
X-5003Y3417*
X-5064Y3438*
X-5132Y3445*
X-5188Y3440*
X-5240Y3424*
X-5287Y3399*
X-5329Y3364*
X-5363Y3320*
X-5388Y3271*
X-5402Y3217*
X-5407Y3159*
X-5402Y3101*
X-5387Y3047*
X-5363Y2997*
X-5328Y2953*
X-5284Y2915*
X-5232Y2886*
X-5172Y2864*
X-5157Y2861*
X-5170Y2787*
X-5196Y2794*
X-5262Y2822*
X-5318Y2859*
X-5364Y2904*
X-5401Y2957*
X-5428Y3016*
X-5444Y3082*
X-5449Y3156*
X-5447Y3207*
X-5438Y3256*
X-5424Y3303*
X-5405Y3348*
X-5381Y3389*
X-5353Y3424*
X-5322Y3454*
X-5286Y3478*
X-5248Y3498*
X-5209Y3512*
X-5169Y3520*
X-5128Y3523*
X-5090Y3521*
X-5054Y3513*
X-5020Y3500*
X-4987Y3482*
X-4957Y3459*
X-4930Y3430*
X-4906Y3396*
X-4826Y3246*
X-4772Y3418*
X-4750Y3463*
X-4721Y3501*
X-4686Y3534*
X-4644Y3560*
X-4598Y3578*
X-4545Y3590*
X-4486Y3594*
X-4405Y3586*
X-4333Y3563*
X-4266Y3526*
X-4205Y3473*
X-4154Y3408*
X-4118Y3335*
X-4096Y3253*
X-4088Y3162*
X-4095Y3080*
X-4113Y3007*
X-4144Y2942*
X-4188Y2883*
X-4241Y2834*
X-4301Y2797*
X-4369Y2772*
X-4397Y2767*
X-5358Y3881D02*
X-5425Y3881D01*
X-5425Y4706*
X-5358Y4706*
X-5292Y4649*
X-5199Y4579*
X-5094Y4510*
X-4977Y4441*
X-4853Y4377*
X-4727Y4320*
X-4600Y4271*
X-4471Y4230*
X-4376Y4205*
X-4277Y4185*
X-4174Y4170*
X-4114Y4165*
X-4114Y4084*
X-4147Y4086*
X-4241Y4099*
X-4345Y4118*
X-4458Y4146*
X-4574Y4180*
X-4687Y4221*
X-4799Y4269*
X-4909Y4324*
X-5013Y4383*
X-5109Y4443*
X-5195Y4506*
X-5358Y4639*
X-5358Y3881*
D11*
X-3832Y4572D02*
X7388Y4572D01*
X-3832Y-6648D02*
X7388Y-6648D01*
X-3832Y4572D02*
X-3832Y-6648D01*
X7388Y-6648D02*
X7388Y4572D01*
D13*
X-2398Y2562D03*
%LNtop silkscreen component c7f2a2bcece131e5*%
D11*
X-16707Y-6139D02*
X-16707Y-9481D01*
X-16707Y-6139D02*
X-18457Y-6139D01*
X-18457Y-9481*
X-16707Y-9481*
D12*
X-16868Y-11691D02*
X-18198Y-11691D01*
X-18198Y-11108*
X-18195Y-11020*
X-18189Y-10945*
X-18177Y-10884*
X-18163Y-10835*
X-18143Y-10795*
X-18118Y-10760*
X-18086Y-10728*
X-18047Y-10700*
X-18003Y-10678*
X-17957Y-10661*
X-17909Y-10651*
X-17859Y-10648*
X-17794Y-10654*
X-17736Y-10670*
X-17684Y-10696*
X-17637Y-10733*
X-17596Y-10781*
X-17562Y-10842*
X-17536Y-10917*
X-17490Y-11155*
X-17406Y-10990*
X-17389Y-10961*
X-17374Y-10938*
X-17359Y-10920*
X-17322Y-10882*
X-17279Y-10845*
X-17231Y-10808*
X-17179Y-10771*
X-16868Y-10573*
X-16868Y-10690*
X-17142Y-10865*
X-17204Y-10905*
X-17258Y-10942*
X-17304Y-10975*
X-17344Y-11005*
X-17377Y-11033*
X-17406Y-11060*
X-17431Y-11086*
X-17450Y-11113*
X-17465Y-11138*
X-17478Y-11163*
X-17488Y-11189*
X-17496Y-11216*
X-17499Y-11240*
X-17502Y-11266*
X-17503Y-11297*
X-17504Y-11332*
X-17504Y-11603*
X-16868Y-11603*
X-16868Y-11691*
X-17617Y-11552D02*
X-17617Y-11552D01*
X-17617Y-11145*
X-17618Y-11084*
X-17624Y-11029*
X-17632Y-10982*
X-17644Y-10942*
X-17659Y-10908*
X-17679Y-10878*
X-17702Y-10852*
X-17730Y-10831*
X-17760Y-10814*
X-17791Y-10802*
X-17824Y-10795*
X-17858Y-10793*
X-17907Y-10797*
X-17951Y-10811*
X-17990Y-10834*
X-18025Y-10866*
X-18054Y-10909*
X-18074Y-10961*
X-18086Y-11025*
X-18090Y-11099*
X-18090Y-11552*
X-17617Y-11552*
X-16868Y-9760D02*
X-16868Y-9835D01*
X-18050Y-9835*
X-17946Y-9952*
X-17918Y-9989*
X-17889Y-10031*
X-17860Y-10078*
X-17832Y-10126*
X-17809Y-10172*
X-17789Y-10215*
X-17800Y-10186*
X-17864Y-10186*
X-17887Y-10141*
X-17929Y-10071*
X-17975Y-10006*
X-18025Y-9945*
X-18077Y-9891*
X-18128Y-9845*
X-18180Y-9807*
X-18204Y-9794*
X-18204Y-9760*
X-16868Y-9760*
%LNtop silkscreen component 8132c3c0ac6c43ff*%
D11*
X-12051Y-3659D02*
X-12051Y-0317D01*
X-12051Y-3659D02*
X-10301Y-3659D01*
X-10301Y-0317*
X-12051Y-0317*
D12*
X-12742Y-2426D02*
X-12719Y-2337D01*
X-12665Y-2355*
X-12576Y-2399*
X-12501Y-2453*
X-12439Y-2518*
X-12391Y-2592*
X-12356Y-2674*
X-12335Y-2765*
X-12327Y-2865*
X-12333Y-2969*
X-12350Y-3062*
X-12376Y-3143*
X-12414Y-3213*
X-12461Y-3275*
X-12518Y-3329*
X-12586Y-3376*
X-12664Y-3415*
X-12750Y-3446*
X-12839Y-3469*
X-12932Y-3482*
X-13027Y-3486*
X-13131Y-3481*
X-13226Y-3466*
X-13314Y-3441*
X-13394Y-3407*
X-13467Y-3363*
X-13529Y-3312*
X-13582Y-3252*
X-13626Y-3184*
X-13661Y-3109*
X-13686Y-3031*
X-13701Y-2948*
X-13706Y-2862*
X-13700Y-2766*
X-13681Y-2679*
X-13650Y-2601*
X-13607Y-2531*
X-13552Y-2470*
X-13488Y-2418*
X-13412Y-2377*
X-13376Y-2364*
X-13356Y-2451*
X-13390Y-2464*
X-13459Y-2501*
X-13517Y-2545*
X-13564Y-2596*
X-13600Y-2655*
X-13626Y-2719*
X-13641Y-2790*
X-13646Y-2865*
X-13640Y-2951*
X-13624Y-3031*
X-13596Y-3105*
X-13557Y-3171*
X-13509Y-3228*
X-13453Y-3277*
X-13390Y-3316*
X-13320Y-3345*
X-13249Y-3366*
X-13176Y-3381*
X-13103Y-3390*
X-13029Y-3393*
X-12936Y-3389*
X-12849Y-3379*
X-12767Y-3361*
X-12691Y-3336*
X-12621Y-3303*
X-12558Y-3260*
X-12506Y-3209*
X-12463Y-3150*
X-12430Y-3086*
X-12406Y-3020*
X-12392Y-2951*
X-12388Y-2880*
X-12394Y-2796*
X-12413Y-2717*
X-12446Y-2644*
X-12491Y-2578*
X-12550Y-2520*
X-12620Y-2473*
X-12701Y-2437*
X-12742Y-2426*
X-12352Y-1498D02*
X-12352Y-1572D01*
X-13534Y-1572*
X-13430Y-1690*
X-13402Y-1727*
X-13373Y-1768*
X-13344Y-1816*
X-13316Y-1864*
X-13293Y-1910*
X-13273Y-1953*
X-13284Y-1924*
X-13348Y-1924*
X-13371Y-1879*
X-13413Y-1809*
X-13459Y-1744*
X-13509Y-1683*
X-13561Y-1629*
X-13612Y-1583*
X-13664Y-1545*
X-13688Y-1531*
X-13688Y-1498*
X-12352Y-1498*
X-12352Y-0534D02*
X-12352Y-0609D01*
X-13534Y-0609*
X-13430Y-0726*
X-13402Y-0763*
X-13373Y-0805*
X-13344Y-0852*
X-13316Y-0900*
X-13293Y-0946*
X-13273Y-0989*
X-13284Y-0960*
X-13348Y-0960*
X-13371Y-0915*
X-13413Y-0845*
X-13459Y-0780*
X-13509Y-0719*
X-13561Y-0665*
X-13612Y-0619*
X-13664Y-0581*
X-13688Y-0568*
X-13688Y-0534*
X-12352Y-0534*
%LNtop silkscreen component cd9a568377799ef8*%
D11*
X-15201Y9693D02*
X-11859Y9693D01*
X-15201Y9693D02*
X-15201Y7943D01*
X-11859Y7943*
X-11859Y9693*
D12*
X-11695Y8216D02*
X-11695Y9546D01*
X-11112Y9546*
X-11024Y9543*
X-10949Y9537*
X-10888Y9525*
X-10839Y9511*
X-10799Y9491*
X-10764Y9466*
X-10732Y9434*
X-10704Y9395*
X-10682Y9351*
X-10665Y9305*
X-10655Y9257*
X-10652Y9207*
X-10658Y9142*
X-10674Y9084*
X-10700Y9032*
X-10737Y8985*
X-10785Y8944*
X-10846Y8910*
X-10921Y8884*
X-11159Y8838*
X-10994Y8754*
X-10965Y8737*
X-10942Y8722*
X-10924Y8707*
X-10886Y8670*
X-10849Y8627*
X-10812Y8579*
X-10775Y8527*
X-10577Y8216*
X-10694Y8216*
X-10869Y8490*
X-10909Y8552*
X-10946Y8606*
X-10979Y8652*
X-11009Y8692*
X-11037Y8725*
X-11064Y8754*
X-11090Y8779*
X-11117Y8798*
X-11142Y8813*
X-11167Y8826*
X-11193Y8836*
X-11220Y8844*
X-11244Y8847*
X-11270Y8850*
X-11301Y8851*
X-11336Y8852*
X-11607Y8852*
X-11607Y8216*
X-11695Y8216*
X-11556Y8965D02*
X-11556Y8965D01*
X-11149Y8965*
X-11088Y8966*
X-11033Y8972*
X-10986Y8980*
X-10946Y8992*
X-10912Y9007*
X-10882Y9027*
X-10856Y9050*
X-10835Y9078*
X-10818Y9108*
X-10806Y9139*
X-10799Y9172*
X-10797Y9206*
X-10801Y9255*
X-10815Y9299*
X-10838Y9338*
X-10870Y9373*
X-10913Y9402*
X-10965Y9422*
X-11029Y9434*
X-11103Y9438*
X-11556Y9438*
X-11556Y8965*
X-10315Y8500D02*
X-10237Y8510D01*
X-10230Y8481*
X-10204Y8416*
X-10171Y8359*
X-10131Y8314*
X-10084Y8279*
X-10033Y8254*
X-9978Y8239*
X-9918Y8234*
X-9850Y8240*
X-9785Y8259*
X-9726Y8291*
X-9673Y8335*
X-9629Y8388*
X-9598Y8448*
X-9579Y8514*
X-9573Y8584*
X-9578Y8651*
X-9596Y8713*
X-9626Y8770*
X-9667Y8820*
X-9717Y8861*
X-9774Y8890*
X-9837Y8908*
X-9903Y8913*
X-9935Y8912*
X-9968Y8908*
X-10003Y8901*
X-9968Y8909*
X-9964Y8941*
X-10005Y8946*
X-9996Y8945*
X-9988Y8944*
X-9979Y8944*
X-9918Y8948*
X-9859Y8961*
X-9803Y8982*
X-9749Y9012*
X-9701Y9053*
X-9665Y9105*
X-9644Y9166*
X-9637Y9234*
X-9642Y9290*
X-9657Y9342*
X-9683Y9389*
X-9718Y9431*
X-9761Y9465*
X-9811Y9490*
X-9865Y9504*
X-9923Y9509*
X-9980Y9504*
X-10035Y9490*
X-10084Y9465*
X-10129Y9430*
X-10166Y9387*
X-10196Y9334*
X-10218Y9275*
X-10221Y9259*
X-10294Y9272*
X-10288Y9298*
X-10259Y9364*
X-10223Y9420*
X-10178Y9466*
X-10125Y9503*
X-10066Y9530*
X-10000Y9546*
X-9926Y9552*
X-9875Y9549*
X-9825Y9540*
X-9779Y9526*
X-9734Y9507*
X-9693Y9483*
X-9658Y9455*
X-9628Y9424*
X-9603Y9389*
X-9584Y9351*
X-9570Y9312*
X-9561Y9272*
X-9558Y9230*
X-9561Y9192*
X-9569Y9156*
X-9582Y9122*
X-9600Y9090*
X-9623Y9059*
X-9651Y9032*
X-9686Y9008*
X-9836Y8928*
X-9664Y8875*
X-9619Y8852*
X-9580Y8823*
X-9548Y8788*
X-9522Y8747*
X-9504Y8700*
X-9492Y8647*
X-9488Y8589*
X-9496Y8508*
X-9518Y8435*
X-9556Y8368*
X-9609Y8307*
X-9674Y8256*
X-9747Y8220*
X-9828Y8198*
X-9920Y8191*
X-10002Y8197*
X-10075Y8216*
X-10140Y8247*
X-10199Y8290*
X-10248Y8343*
X-10285Y8403*
X-10310Y8471*
X-10315Y8500*
%LNtop silkscreen component ea07bc83115d531b*%
D11*
X2621Y14383D02*
X2621Y11041D01*
X2621Y14383D02*
X0871Y14383D01*
X0871Y11041*
X2621Y11041*
D12*
X0804Y9526D02*
X0804Y10856D01*
X1246Y10856*
X1323Y10855*
X1389Y10851*
X1445Y10845*
X1490Y10837*
X1544Y10821*
X1593Y10801*
X1638Y10775*
X1678Y10745*
X1727Y10698*
X1768Y10646*
X1804Y10587*
X1833Y10521*
X1856Y10449*
X1873Y10371*
X1883Y10288*
X1886Y10198*
X1884Y10123*
X1877Y10052*
X1866Y9985*
X1850Y9924*
X1831Y9867*
X1809Y9816*
X1786Y9771*
X1760Y9731*
X1732Y9695*
X1703Y9663*
X1673Y9636*
X1642Y9613*
X1610Y9594*
X1573Y9576*
X1532Y9561*
X1488Y9549*
X1439Y9539*
X1387Y9532*
X1330Y9527*
X1269Y9526*
X0804Y9526*
X0943Y9644D02*
X0943Y9644D01*
X1248Y9644*
X1315Y9646*
X1375Y9651*
X1426Y9659*
X1471Y9670*
X1509Y9685*
X1543Y9702*
X1573Y9722*
X1599Y9745*
X1631Y9781*
X1659Y9824*
X1683Y9872*
X1704Y9926*
X1720Y9986*
X1732Y10052*
X1739Y10124*
X1742Y10202*
X1737Y10307*
X1723Y10400*
X1700Y10480*
X1668Y10547*
X1629Y10602*
X1586Y10647*
X1539Y10683*
X1489Y10708*
X1445Y10721*
X1389Y10730*
X1322Y10736*
X1243Y10738*
X0943Y10738*
X0943Y9644*
X2187Y9810D02*
X2265Y9820D01*
X2272Y9791*
X2298Y9726*
X2331Y9669*
X2371Y9624*
X2418Y9589*
X2469Y9564*
X2524Y9549*
X2584Y9544*
X2652Y9550*
X2717Y9569*
X2776Y9601*
X2829Y9645*
X2873Y9698*
X2904Y9758*
X2923Y9824*
X2929Y9894*
X2924Y9961*
X2906Y10023*
X2876Y10080*
X2835Y10130*
X2785Y10171*
X2728Y10200*
X2665Y10218*
X2599Y10223*
X2567Y10222*
X2534Y10218*
X2499Y10211*
X2534Y10219*
X2538Y10251*
X2497Y10256*
X2506Y10255*
X2514Y10254*
X2523Y10254*
X2584Y10258*
X2643Y10271*
X2699Y10292*
X2753Y10322*
X2801Y10363*
X2837Y10415*
X2858Y10476*
X2865Y10544*
X2860Y10600*
X2845Y10652*
X2819Y10699*
X2784Y10741*
X2741Y10775*
X2691Y10800*
X2637Y10814*
X2579Y10819*
X2522Y10814*
X2467Y10800*
X2418Y10775*
X2373Y10740*
X2336Y10697*
X2306Y10644*
X2284Y10585*
X2281Y10569*
X2208Y10582*
X2214Y10608*
X2243Y10674*
X2279Y10730*
X2324Y10776*
X2377Y10813*
X2436Y10840*
X2502Y10856*
X2576Y10862*
X2627Y10859*
X2677Y10850*
X2723Y10836*
X2768Y10817*
X2809Y10793*
X2844Y10765*
X2874Y10734*
X2899Y10699*
X2918Y10661*
X2932Y10622*
X2941Y10582*
X2944Y10540*
X2941Y10502*
X2933Y10466*
X2920Y10432*
X2902Y10400*
X2879Y10369*
X2851Y10342*
X2816Y10318*
X2666Y10238*
X2838Y10185*
X2883Y10162*
X2922Y10133*
X2954Y10098*
X2980Y10057*
X2998Y10010*
X3010Y9957*
X3014Y9899*
X3006Y9818*
X2984Y9745*
X2946Y9678*
X2893Y9617*
X2828Y9566*
X2755Y9530*
X2674Y9508*
X2582Y9501*
X2500Y9507*
X2427Y9526*
X2362Y9557*
X2303Y9600*
X2254Y9653*
X2217Y9713*
X2192Y9781*
X2187Y9810*
D16*
X1746Y14633D03*
%LNtop silkscreen component e6062f75892d83a3*%
D12*
X-26799Y-6461D02*
X-26886Y-6461D01*
X-26886Y-5685*
X-26883Y-5585*
X-26875Y-5498*
X-26860Y-5423*
X-26841Y-5360*
X-26815Y-5307*
X-26781Y-5260*
X-26738Y-5217*
X-26686Y-5179*
X-26624Y-5148*
X-26553Y-5125*
X-26471Y-5111*
X-26377Y-5106*
X-26287Y-5111*
X-26205Y-5123*
X-26134Y-5143*
X-26073Y-5170*
X-26020Y-5204*
X-25977Y-5244*
X-25941Y-5291*
X-25913Y-5345*
X-25891Y-5410*
X-25875Y-5489*
X-25865Y-5580*
X-25862Y-5685*
X-25862Y-6461*
X-25950Y-6461*
X-25950Y-5685*
X-25952Y-5596*
X-25959Y-5517*
X-25971Y-5449*
X-25988Y-5392*
X-26012Y-5343*
X-26044Y-5299*
X-26083Y-5261*
X-26129Y-5230*
X-26181Y-5206*
X-26237Y-5189*
X-26297Y-5179*
X-26361Y-5176*
X-26465Y-5182*
X-26556Y-5202*
X-26633Y-5236*
X-26697Y-5286*
X-26744Y-5357*
X-26775Y-5447*
X-26793Y-5556*
X-26799Y-5684*
X-26799Y-6461*
X-27244Y-6375D02*
X-27244Y-6442D01*
X-28069Y-6442*
X-28069Y-6375*
X-28012Y-6310*
X-27942Y-6216*
X-27873Y-6111*
X-27804Y-5994*
X-27740Y-5870*
X-27683Y-5745*
X-27634Y-5617*
X-27593Y-5488*
X-27568Y-5393*
X-27548Y-5294*
X-27533Y-5191*
X-27528Y-5131*
X-27447Y-5131*
X-27449Y-5164*
X-27462Y-5258*
X-27481Y-5362*
X-27509Y-5475*
X-27543Y-5591*
X-27584Y-5705*
X-27632Y-5816*
X-27687Y-5926*
X-27746Y-6030*
X-27806Y-6126*
X-27869Y-6213*
X-28002Y-6375*
X-27244Y-6375*
X-28354Y-5415D02*
X-28432Y-5425D01*
X-28440Y-5396*
X-28465Y-5331*
X-28498Y-5274*
X-28539Y-5229*
X-28585Y-5194*
X-28636Y-5169*
X-28692Y-5154*
X-28751Y-5149*
X-28820Y-5155*
X-28884Y-5174*
X-28944Y-5206*
X-28996Y-5250*
X-29040Y-5303*
X-29072Y-5363*
X-29090Y-5429*
X-29097Y-5499*
X-29091Y-5566*
X-29073Y-5628*
X-29044Y-5685*
X-29003Y-5735*
X-28952Y-5776*
X-28895Y-5805*
X-28833Y-5823*
X-28766Y-5828*
X-28735Y-5827*
X-28702Y-5823*
X-28666Y-5816*
X-28701Y-5824*
X-28705Y-5856*
X-28665Y-5861*
X-28673Y-5860*
X-28681Y-5859*
X-28690Y-5859*
X-28751Y-5863*
X-28810Y-5876*
X-28866Y-5897*
X-28920Y-5927*
X-28969Y-5968*
X-29005Y-6020*
X-29026Y-6081*
X-29032Y-6149*
X-29027Y-6205*
X-29012Y-6257*
X-28987Y-6304*
X-28951Y-6346*
X-28908Y-6380*
X-28859Y-6405*
X-28805Y-6419*
X-28747Y-6424*
X-28689Y-6419*
X-28635Y-6405*
X-28585Y-6380*
X-28541Y-6345*
X-28503Y-6302*
X-28473Y-6249*
X-28452Y-6190*
X-28449Y-6174*
X-28375Y-6187*
X-28382Y-6213*
X-28410Y-6279*
X-28447Y-6335*
X-28492Y-6381*
X-28545Y-6418*
X-28603Y-6445*
X-28669Y-6461*
X-28743Y-6467*
X-28795Y-6464*
X-28844Y-6455*
X-28891Y-6441*
X-28936Y-6422*
X-28976Y-6398*
X-29011Y-6370*
X-29041Y-6339*
X-29066Y-6304*
X-29086Y-6266*
X-29100Y-6227*
X-29108Y-6187*
X-29111Y-6145*
X-29108Y-6107*
X-29101Y-6071*
X-29088Y-6037*
X-29070Y-6005*
X-29046Y-5974*
X-29018Y-5947*
X-28984Y-5923*
X-28833Y-5843*
X-29005Y-5790*
X-29051Y-5767*
X-29089Y-5738*
X-29121Y-5703*
X-29147Y-5662*
X-29166Y-5615*
X-29177Y-5562*
X-29181Y-5504*
X-29174Y-5423*
X-29151Y-5350*
X-29114Y-5283*
X-29060Y-5222*
X-28995Y-5171*
X-28923Y-5135*
X-28841Y-5113*
X-28750Y-5106*
X-28668Y-5112*
X-28595Y-5131*
X-28529Y-5162*
X-28471Y-5205*
X-28422Y-5258*
X-28385Y-5318*
X-28359Y-5386*
X-28354Y-5415*
%LNtop silkscreen component ff1dc2f0dbcf46e9*%
D11*
X-17735Y18345D02*
X-17735Y15003D01*
X-17735Y18345D02*
X-19485Y18345D01*
X-19485Y15003*
X-17735Y15003*
D12*
X-20294Y16898D02*
X-20271Y16987D01*
X-20217Y16969*
X-20128Y16925*
X-20053Y16871*
X-19991Y16806*
X-19943Y16732*
X-19908Y16650*
X-19887Y16559*
X-19879Y16459*
X-19885Y16355*
X-19902Y16262*
X-19928Y16181*
X-19966Y16111*
X-20013Y16049*
X-20070Y15995*
X-20138Y15948*
X-20216Y15909*
X-20302Y15878*
X-20391Y15855*
X-20484Y15842*
X-20579Y15837*
X-20683Y15843*
X-20778Y15858*
X-20866Y15883*
X-20946Y15917*
X-21019Y15961*
X-21081Y16012*
X-21134Y16072*
X-21178Y16140*
X-21213Y16215*
X-21238Y16293*
X-21253Y16376*
X-21258Y16462*
X-21252Y16558*
X-21233Y16645*
X-21202Y16723*
X-21159Y16793*
X-21104Y16854*
X-21040Y16906*
X-20964Y16947*
X-20928Y16960*
X-20908Y16873*
X-20942Y16860*
X-21011Y16823*
X-21069Y16779*
X-21116Y16728*
X-21152Y16669*
X-21178Y16605*
X-21193Y16534*
X-21198Y16458*
X-21192Y16373*
X-21176Y16293*
X-21148Y16219*
X-21109Y16153*
X-21061Y16096*
X-21005Y16047*
X-20942Y16008*
X-20872Y15979*
X-20801Y15958*
X-20728Y15943*
X-20655Y15934*
X-20581Y15931*
X-20488Y15935*
X-20401Y15945*
X-20319Y15963*
X-20243Y15988*
X-20173Y16021*
X-20110Y16064*
X-20058Y16115*
X-20015Y16174*
X-19982Y16238*
X-19958Y16304*
X-19944Y16373*
X-19940Y16444*
X-19946Y16528*
X-19965Y16607*
X-19998Y16680*
X-20043Y16746*
X-20102Y16804*
X-20172Y16850*
X-20253Y16887*
X-20294Y16898*
X-19904Y17826D02*
X-19904Y17751D01*
X-21086Y17751*
X-20982Y17634*
X-20954Y17597*
X-20925Y17555*
X-20896Y17508*
X-20868Y17460*
X-20845Y17414*
X-20825Y17371*
X-20836Y17400*
X-20900Y17400*
X-20923Y17445*
X-20965Y17515*
X-21011Y17580*
X-21061Y17641*
X-21113Y17695*
X-21164Y17741*
X-21216Y17779*
X-21240Y17792*
X-21240Y17826*
X-19904Y17826*
%LNtop silkscreen component 0c1a80d3f34f5b53*%
D11*
X-2459Y9523D02*
X-2459Y6181D01*
X-2459Y9523D02*
X-4209Y9523D01*
X-4209Y6181*
X-2459Y6181*
D12*
X-5811Y4700D02*
X-5811Y6030D01*
X-5228Y6030*
X-5140Y6027*
X-5066Y6021*
X-5004Y6009*
X-4955Y5995*
X-4915Y5975*
X-4880Y5950*
X-4848Y5918*
X-4820Y5879*
X-4798Y5835*
X-4781Y5789*
X-4772Y5741*
X-4768Y5691*
X-4774Y5626*
X-4790Y5568*
X-4816Y5516*
X-4853Y5469*
X-4901Y5428*
X-4962Y5394*
X-5038Y5368*
X-5275Y5322*
X-5110Y5238*
X-5082Y5221*
X-5059Y5206*
X-5040Y5191*
X-5003Y5154*
X-4965Y5111*
X-4928Y5063*
X-4892Y5011*
X-4693Y4700*
X-4811Y4700*
X-4985Y4974*
X-5025Y5036*
X-5062Y5090*
X-5095Y5136*
X-5125Y5176*
X-5153Y5209*
X-5180Y5238*
X-5207Y5263*
X-5233Y5282*
X-5258Y5297*
X-5283Y5310*
X-5309Y5320*
X-5336Y5328*
X-5360Y5331*
X-5386Y5334*
X-5417Y5335*
X-5452Y5336*
X-5723Y5336*
X-5723Y4700*
X-5811Y4700*
X-5673Y5449D02*
X-5673Y5449D01*
X-5265Y5449*
X-5204Y5450*
X-5150Y5456*
X-5102Y5464*
X-5062Y5476*
X-5028Y5491*
X-4998Y5511*
X-4972Y5534*
X-4951Y5562*
X-4934Y5592*
X-4922Y5623*
X-4915Y5656*
X-4913Y5690*
X-4917Y5739*
X-4931Y5783*
X-4954Y5822*
X-4986Y5857*
X-5029Y5886*
X-5082Y5906*
X-5145Y5918*
X-5219Y5922*
X-5673Y5922*
X-5673Y5449*
X-3881Y4700D02*
X-3955Y4700D01*
X-3955Y5882*
X-4072Y5778*
X-4109Y5750*
X-4151Y5721*
X-4198Y5692*
X-4246Y5664*
X-4292Y5641*
X-4335Y5621*
X-4306Y5632*
X-4306Y5696*
X-4261Y5719*
X-4191Y5761*
X-4126Y5807*
X-4065Y5857*
X-4012Y5909*
X-3966Y5960*
X-3927Y6012*
X-3914Y6036*
X-3881Y6036*
X-3881Y4700*
X-3319Y4984D02*
X-3241Y4994D01*
X-3233Y4965*
X-3208Y4900*
X-3175Y4843*
X-3134Y4798*
X-3088Y4763*
X-3037Y4738*
X-2981Y4723*
X-2922Y4718*
X-2853Y4724*
X-2789Y4743*
X-2730Y4775*
X-2677Y4819*
X-2633Y4872*
X-2602Y4932*
X-2583Y4998*
X-2577Y5068*
X-2582Y5135*
X-2600Y5197*
X-2630Y5254*
X-2671Y5304*
X-2721Y5345*
X-2778Y5374*
X-2840Y5392*
X-2907Y5397*
X-2939Y5396*
X-2972Y5392*
X-3007Y5385*
X-2972Y5393*
X-2968Y5425*
X-3009Y5430*
X-3000Y5429*
X-2992Y5428*
X-2983Y5428*
X-2922Y5432*
X-2863Y5445*
X-2807Y5466*
X-2753Y5496*
X-2704Y5537*
X-2669Y5589*
X-2648Y5650*
X-2641Y5718*
X-2646Y5774*
X-2661Y5826*
X-2687Y5873*
X-2722Y5915*
X-2765Y5949*
X-2814Y5974*
X-2868Y5988*
X-2926Y5993*
X-2984Y5988*
X-3038Y5974*
X-3088Y5949*
X-3133Y5914*
X-3170Y5871*
X-3200Y5818*
X-3221Y5759*
X-3225Y5743*
X-3298Y5756*
X-3291Y5782*
X-3263Y5848*
X-3227Y5904*
X-3181Y5950*
X-3129Y5987*
X-3070Y6014*
X-3004Y6030*
X-2930Y6036*
X-2879Y6033*
X-2829Y6024*
X-2782Y6010*
X-2738Y5991*
X-2697Y5967*
X-2662Y5939*
X-2632Y5908*
X-2607Y5873*
X-2587Y5835*
X-2573Y5796*
X-2565Y5756*
X-2562Y5714*
X-2565Y5676*
X-2573Y5640*
X-2586Y5606*
X-2604Y5574*
X-2627Y5543*
X-2655Y5516*
X-2690Y5492*
X-2840Y5412*
X-2668Y5359*
X-2623Y5336*
X-2584Y5307*
X-2552Y5272*
X-2526Y5231*
X-2507Y5184*
X-2496Y5131*
X-2492Y5073*
X-2500Y4992*
X-2522Y4919*
X-2560Y4852*
X-2613Y4791*
X-2678Y4740*
X-2751Y4704*
X-2832Y4682*
X-2924Y4675*
X-3005Y4681*
X-3079Y4700*
X-3144Y4731*
X-3202Y4774*
X-3251Y4827*
X-3288Y4887*
X-3314Y4955*
X-3319Y4984*
%LNtext*%
X3626Y-8022D02*
X2818Y-8022D01*
X2818Y-7929*
X3427Y-7725*
X3469Y-7711*
X3505Y-7699*
X3536Y-7690*
X3715Y-7634*
X3534Y-7576*
X3501Y-7565*
X3461Y-7552*
X3417Y-7537*
X2818Y-7331*
X2818Y-7256*
X3626Y-7256*
X3626Y-7271*
X2615Y-7271*
X3626Y-7622*
X3626Y-7658*
X2595Y-8008*
X3626Y-8008*
X3626Y-8022*
X3626Y-6940D02*
X2818Y-6940D01*
X2818Y-6921*
X3626Y-6921*
X3626Y-6940*
X3431Y-6644D02*
X3429Y-6628D01*
X3418Y-6630*
X3453Y-6621*
X3485Y-6608*
X3515Y-6591*
X3542Y-6569*
X3566Y-6542*
X3587Y-6512*
X3604Y-6477*
X3618Y-6440*
X3627Y-6401*
X3633Y-6360*
X3635Y-6318*
X3634Y-6280*
X3629Y-6244*
X3622Y-6210*
X3611Y-6178*
X3598Y-6147*
X3581Y-6120*
X3561Y-6096*
X3538Y-6076*
X3513Y-6061*
X3486Y-6050*
X3459Y-6043*
X3430Y-6041*
X3401Y-6043*
X3374Y-6050*
X3348Y-6061*
X3324Y-6077*
X3302Y-6097*
X3283Y-6121*
X3267Y-6149*
X3254Y-6180*
X3245Y-6207*
X3234Y-6244*
X3222Y-6291*
X3208Y-6348*
X3193Y-6405*
X3180Y-6451*
X3167Y-6487*
X3155Y-6512*
X3140Y-6538*
X3124Y-6559*
X3107Y-6576*
X3088Y-6590*
X3069Y-6600*
X3048Y-6608*
X3026Y-6612*
X3003Y-6614*
X2976Y-6612*
X2951Y-6606*
X2926Y-6597*
X2902Y-6583*
X2880Y-6566*
X2861Y-6546*
X2844Y-6521*
X2830Y-6492*
X2818Y-6459*
X2810Y-6423*
X2805Y-6385*
X2803Y-6345*
X2805Y-6300*
X2810Y-6259*
X2819Y-6221*
X2831Y-6186*
X2847Y-6156*
X2864Y-6130*
X2885Y-6108*
X2909Y-6090*
X2935Y-6075*
X2963Y-6064*
X2993Y-6057*
X2977Y-6059*
X2978Y-6077*
X2978Y-6077*
X2934Y-6093*
X2895Y-6117*
X2863Y-6149*
X2837Y-6188*
X2820Y-6234*
X2810Y-6284*
X2807Y-6340*
X2810Y-6396*
X2819Y-6447*
X2834Y-6492*
X2858Y-6530*
X2886Y-6560*
X2919Y-6582*
X2955Y-6595*
X2994Y-6600*
X3028Y-6597*
X3060Y-6587*
X3088Y-6570*
X3114Y-6547*
X3136Y-6513*
X3155Y-6468*
X3172Y-6412*
X3189Y-6344*
X3205Y-6277*
X3220Y-6223*
X3233Y-6181*
X3244Y-6152*
X3261Y-6120*
X3279Y-6094*
X3299Y-6072*
X3319Y-6056*
X3341Y-6043*
X3365Y-6034*
X3391Y-6029*
X3420Y-6027*
X3448Y-6029*
X3476Y-6035*
X3502Y-6045*
X3529Y-6060*
X3553Y-6079*
X3575Y-6101*
X3594Y-6127*
X3610Y-6158*
X3624Y-6193*
X3633Y-6230*
X3639Y-6269*
X3641Y-6312*
X3639Y-6367*
X3633Y-6417*
X3623Y-6460*
X3609Y-6499*
X3592Y-6532*
X3572Y-6561*
X3548Y-6586*
X3520Y-6607*
X3489Y-6624*
X3456Y-6637*
X3421Y-6645*
X3431Y-6644*
X3234Y-5797D02*
X3135Y-5790D01*
X3049Y-5769*
X2976Y-5736*
X2915Y-5689*
X2866Y-5632*
X2831Y-5568*
X2810Y-5495*
X2802Y-5412*
X2806Y-5358*
X2816Y-5306*
X2832Y-5258*
X2855Y-5212*
X2884Y-5170*
X2918Y-5134*
X2957Y-5103*
X3002Y-5077*
X3052Y-5057*
X3105Y-5042*
X3162Y-5033*
X3223Y-5030*
X3285Y-5033*
X3343Y-5042*
X3397Y-5058*
X3448Y-5080*
X3493Y-5107*
X3531Y-5139*
X3564Y-5175*
X3592Y-5217*
X3613Y-5263*
X3629Y-5311*
X3638Y-5361*
X3641Y-5413*
X3638Y-5469*
X3628Y-5522*
X3611Y-5570*
X3587Y-5616*
X3557Y-5658*
X3523Y-5694*
X3483Y-5725*
X3438Y-5750*
X3389Y-5771*
X3339Y-5785*
X3287Y-5794*
X3234Y-5797*
X3236Y-5724D02*
X3236Y-5724D01*
X3314Y-5719*
X3383Y-5702*
X3443Y-5674*
X3495Y-5636*
X3536Y-5589*
X3566Y-5536*
X3583Y-5478*
X3589Y-5414*
X3583Y-5349*
X3565Y-5290*
X3536Y-5237*
X3494Y-5190*
X3441Y-5152*
X3378Y-5125*
X3305Y-5108*
X3223Y-5103*
X3169Y-5105*
X3119Y-5112*
X3072Y-5124*
X3029Y-5140*
X2990Y-5161*
X2955Y-5186*
X2926Y-5216*
X2901Y-5250*
X2881Y-5287*
X2866Y-5327*
X2858Y-5368*
X2855Y-5412*
X2860Y-5474*
X2877Y-5531*
X2904Y-5584*
X2943Y-5632*
X2994Y-5672*
X3060Y-5701*
X3140Y-5718*
X3236Y-5724*
X0833Y-8014D02*
X0832Y-7999D01*
X0821Y-8000*
X0856Y-7991*
X0888Y-7978*
X0918Y-7961*
X0945Y-7939*
X0969Y-7912*
X0989Y-7882*
X1007Y-7847*
X1020Y-7810*
X1030Y-7771*
X1036Y-7730*
X1038Y-7688*
X1036Y-7650*
X1032Y-7614*
X1025Y-7580*
X1014Y-7548*
X1000Y-7518*
X0984Y-7490*
X0964Y-7466*
X0940Y-7447*
X0915Y-7431*
X0889Y-7420*
X0861Y-7413*
X0833Y-7411*
X0804Y-7413*
X0776Y-7420*
X0750Y-7431*
X0726Y-7447*
X0705Y-7467*
X0686Y-7492*
X0670Y-7519*
X0657Y-7550*
X0648Y-7577*
X0637Y-7614*
X0625Y-7661*
X0611Y-7718*
X0596Y-7775*
X0582Y-7821*
X0569Y-7857*
X0558Y-7882*
X0543Y-7908*
X0527Y-7929*
X0509Y-7946*
X0491Y-7960*
X0472Y-7970*
X0451Y-7978*
X0429Y-7982*
X0405Y-7984*
X0379Y-7982*
X0353Y-7976*
X0329Y-7967*
X0305Y-7953*
X0283Y-7936*
X0264Y-7916*
X0247Y-7891*
X0233Y-7862*
X0221Y-7829*
X0212Y-7793*
X0207Y-7755*
X0206Y-7715*
X0207Y-7670*
X0213Y-7629*
X0222Y-7591*
X0234Y-7557*
X0249Y-7526*
X0267Y-7500*
X0288Y-7479*
X0311Y-7460*
X0338Y-7446*
X0366Y-7435*
X0396Y-7427*
X0380Y-7429*
X0381Y-7447*
X0381Y-7447*
X0337Y-7463*
X0298Y-7487*
X0265Y-7519*
X0240Y-7559*
X0223Y-7604*
X0213Y-7654*
X0210Y-7710*
X0213Y-7766*
X0221Y-7817*
X0237Y-7862*
X0260Y-7900*
X0289Y-7930*
X0321Y-7952*
X0358Y-7966*
X0397Y-7970*
X0431Y-7967*
X0462Y-7957*
X0491Y-7940*
X0517Y-7917*
X0539Y-7883*
X0558Y-7838*
X0575Y-7782*
X0592Y-7714*
X0608Y-7647*
X0622Y-7593*
X0636Y-7551*
X0647Y-7522*
X0664Y-7490*
X0682Y-7464*
X0701Y-7442*
X0722Y-7426*
X0744Y-7413*
X0768Y-7404*
X0794Y-7399*
X0822Y-7397*
X0851Y-7399*
X0878Y-7405*
X0905Y-7415*
X0931Y-7430*
X0956Y-7449*
X0977Y-7471*
X0996Y-7497*
X1013Y-7528*
X1026Y-7563*
X1036Y-7600*
X1042Y-7640*
X1044Y-7682*
X1042Y-7737*
X1036Y-7787*
X1026Y-7830*
X1012Y-7869*
X0995Y-7902*
X0975Y-7931*
X0951Y-7956*
X0923Y-7977*
X0892Y-7995*
X0859Y-8007*
X0824Y-8015*
X0833Y-8014*
X0822Y-6498D02*
X0827Y-6478D01*
X0841Y-6482*
X0895Y-6509*
X0940Y-6542*
X0977Y-6580*
X1006Y-6625*
X1027Y-6674*
X1040Y-6728*
X1044Y-6790*
X1041Y-6853*
X1031Y-6910*
X1014Y-6959*
X0992Y-7001*
X0964Y-7037*
X0930Y-7070*
X0889Y-7098*
X0842Y-7122*
X0789Y-7141*
X0734Y-7154*
X0677Y-7163*
X0618Y-7165*
X0554Y-7162*
X0496Y-7153*
X0442Y-7138*
X0394Y-7117*
X0350Y-7090*
X0313Y-7060*
X0281Y-7024*
X0254Y-6983*
X0233Y-6938*
X0218Y-6890*
X0209Y-6840*
X0206Y-6787*
X0210Y-6729*
X0221Y-6676*
X0239Y-6630*
X0265Y-6588*
X0297Y-6552*
X0336Y-6521*
X0381Y-6496*
X0383Y-6496*
X0388Y-6515*
X0380Y-6518*
X0334Y-6542*
X0295Y-6572*
X0262Y-6608*
X0238Y-6648*
X0220Y-6692*
X0210Y-6739*
X0207Y-6790*
X0210Y-6847*
X0221Y-6900*
X0240Y-6950*
X0266Y-6994*
X0299Y-7033*
X0337Y-7066*
X0379Y-7092*
X0426Y-7112*
X0473Y-7126*
X0521Y-7135*
X0569Y-7141*
X0617Y-7143*
X0677Y-7141*
X0734Y-7134*
X0788Y-7122*
X0839Y-7106*
X0886Y-7083*
X0928Y-7055*
X0964Y-7020*
X0993Y-6980*
X1015Y-6937*
X1030Y-6893*
X1040Y-6847*
X1043Y-6799*
X1039Y-6742*
X1026Y-6689*
X1004Y-6640*
X0973Y-6595*
X0933Y-6556*
X0886Y-6524*
X0832Y-6500*
X0822Y-6498*
X1029Y-6219D02*
X0221Y-6219D01*
X0221Y-6200*
X0744Y-6200*
X0221Y-5677*
X0221Y-5660*
X0533Y-5983*
X1029Y-5618*
X1029Y-5650*
X0541Y-5993*
X0743Y-6200*
X1029Y-6200*
X1029Y-6219*
X-1945Y-13384D02*
X-1939Y-13384D01*
X-1939Y-13668*
X-2200Y-13668*
X-2217Y-13645*
X-2243Y-13603*
X-2266Y-13560*
X-2284Y-13518*
X-2298Y-13474*
X-2309Y-13431*
X-2315Y-13387*
X-2317Y-13342*
X-2313Y-13282*
X-2304Y-13226*
X-2288Y-13173*
X-2265Y-13123*
X-2237Y-13077*
X-2204Y-13039*
X-2165Y-13006*
X-2121Y-12979*
X-2071Y-12957*
X-2018Y-12941*
X-1962Y-12932*
X-1902Y-12928*
X-1842Y-12932*
X-1785Y-12941*
X-1729Y-12957*
X-1676Y-12979*
X-1629Y-13006*
X-1589Y-13038*
X-1555Y-13075*
X-1528Y-13117*
X-1506Y-13165*
X-1491Y-13216*
X-1481Y-13272*
X-1478Y-13333*
X-1480Y-13377*
X-1485Y-13418*
X-1494Y-13456*
X-1507Y-13492*
X-1522Y-13525*
X-1539Y-13553*
X-1558Y-13576*
X-1580Y-13596*
X-1605Y-13614*
X-1635Y-13630*
X-1670Y-13644*
X-1662Y-13641*
X-1665Y-13629*
X-1676Y-13633*
X-1643Y-13619*
X-1613Y-13604*
X-1587Y-13586*
X-1562Y-13564*
X-1541Y-13539*
X-1523Y-13510*
X-1507Y-13478*
X-1495Y-13444*
X-1486Y-13409*
X-1481Y-13372*
X-1479Y-13334*
X-1481Y-13289*
X-1487Y-13248*
X-1496Y-13208*
X-1508Y-13171*
X-1524Y-13138*
X-1543Y-13108*
X-1564Y-13080*
X-1587Y-13056*
X-1612Y-13036*
X-1637Y-13018*
X-1664Y-13003*
X-1692Y-12989*
X-1740Y-12972*
X-1790Y-12960*
X-1841Y-12953*
X-1894Y-12951*
X-1957Y-12954*
X-2016Y-12962*
X-2071Y-12977*
X-2121Y-12998*
X-2166Y-13025*
X-2205Y-13059*
X-2238Y-13098*
X-2265Y-13142*
X-2285Y-13189*
X-2299Y-13236*
X-2307Y-13285*
X-2310Y-13335*
X-2308Y-13379*
X-2301Y-13422*
X-2291Y-13465*
X-2276Y-13506*
X-2259Y-13545*
X-2242Y-13578*
X-2223Y-13608*
X-2189Y-13651*
X-1945Y-13651*
X-1945Y-13384*
X-2301Y-13945D02*
X-1494Y-13945D01*
X-1494Y-13991*
X-2324Y-14546*
X-1494Y-14546*
X-1494Y-14560*
X-2301Y-14560*
X-2301Y-14515*
X-1470Y-13959*
X-2301Y-13959*
X-2301Y-13945*
X-2301Y-14864D02*
X-1494Y-14864D01*
X-1494Y-15126*
X-1494Y-15174*
X-1497Y-15215*
X-1501Y-15250*
X-1505Y-15276*
X-1515Y-15309*
X-1527Y-15338*
X-1542Y-15364*
X-1560Y-15388*
X-1588Y-15417*
X-1619Y-15442*
X-1655Y-15464*
X-1694Y-15481*
X-1738Y-15495*
X-1786Y-15506*
X-1837Y-15512*
X-1893Y-15514*
X-1940Y-15512*
X-1983Y-15508*
X-2024Y-15501*
X-2062Y-15492*
X-2096Y-15480*
X-2128Y-15467*
X-2155Y-15453*
X-2179Y-15437*
X-2200Y-15420*
X-2219Y-15403*
X-2235Y-15385*
X-2249Y-15367*
X-2260Y-15348*
X-2270Y-15326*
X-2280Y-15302*
X-2287Y-15275*
X-2293Y-15246*
X-2298Y-15213*
X-2300Y-15179*
X-2301Y-15140*
X-2301Y-14864*
X-2245Y-14933D02*
X-2245Y-14933D01*
X-2245Y-15127*
X-2244Y-15170*
X-2241Y-15208*
X-2235Y-15240*
X-2228Y-15268*
X-2219Y-15293*
X-2208Y-15314*
X-2195Y-15334*
X-2181Y-15350*
X-2158Y-15370*
X-2131Y-15388*
X-2100Y-15404*
X-2066Y-15417*
X-2028Y-15427*
X-1986Y-15435*
X-1940Y-15439*
X-1891Y-15441*
X-1823Y-15438*
X-1765Y-15429*
X-1714Y-15414*
X-1671Y-15394*
X-1636Y-15369*
X-1607Y-15342*
X-1585Y-15312*
X-1569Y-15280*
X-1561Y-15252*
X-1555Y-15217*
X-1551Y-15174*
X-1550Y-15124*
X-1550Y-14933*
X-2245Y-14933*
X22864Y22811D02*
X22864Y22817D01*
X23148Y22817*
X23148Y22556*
X23125Y22539*
X23083Y22513*
X23040Y22490*
X22998Y22472*
X22954Y22458*
X22911Y22447*
X22867Y22441*
X22822Y22439*
X22762Y22443*
X22706Y22452*
X22653Y22468*
X22603Y22491*
X22557Y22519*
X22519Y22552*
X22486Y22591*
X22459Y22635*
X22437Y22685*
X22421Y22738*
X22412Y22794*
X22408Y22854*
X22412Y22914*
X22421Y22971*
X22437Y23027*
X22459Y23080*
X22486Y23127*
X22518Y23167*
X22555Y23201*
X22597Y23228*
X22645Y23250*
X22696Y23265*
X22752Y23275*
X22813Y23278*
X22857Y23276*
X22898Y23271*
X22936Y23262*
X22972Y23249*
X23005Y23234*
X23033Y23217*
X23056Y23198*
X23076Y23176*
X23094Y23151*
X23110Y23121*
X23124Y23086*
X23121Y23094*
X23109Y23091*
X23113Y23080*
X23099Y23113*
X23084Y23143*
X23066Y23169*
X23044Y23194*
X23019Y23215*
X22990Y23233*
X22958Y23249*
X22924Y23261*
X22889Y23270*
X22852Y23275*
X22814Y23277*
X22769Y23275*
X22728Y23269*
X22688Y23260*
X22651Y23248*
X22618Y23232*
X22588Y23213*
X22560Y23192*
X22536Y23169*
X22516Y23144*
X22498Y23119*
X22483Y23092*
X22469Y23064*
X22452Y23016*
X22440Y22966*
X22433Y22915*
X22431Y22862*
X22434Y22799*
X22442Y22740*
X22457Y22685*
X22478Y22635*
X22505Y22590*
X22539Y22551*
X22578Y22518*
X22622Y22491*
X22669Y22471*
X22716Y22457*
X22765Y22449*
X22815Y22446*
X22859Y22448*
X22902Y22455*
X22945Y22465*
X22986Y22480*
X23025Y22497*
X23058Y22514*
X23088Y22533*
X23131Y22567*
X23131Y22811*
X22864Y22811*
X23425Y22455D02*
X23425Y23262D01*
X23471Y23262*
X24026Y22432*
X24026Y23262*
X24040Y23262*
X24040Y22455*
X23995Y22455*
X23439Y23286*
X23439Y22455*
X23425Y22455*
X24344Y22455D02*
X24344Y23262D01*
X24606Y23262*
X24654Y23262*
X24695Y23259*
X24730Y23255*
X24756Y23251*
X24789Y23241*
X24818Y23229*
X24844Y23214*
X24868Y23196*
X24897Y23168*
X24922Y23137*
X24944Y23101*
X24961Y23062*
X24975Y23018*
X24986Y22970*
X24992Y22919*
X24994Y22863*
X24992Y22816*
X24988Y22773*
X24981Y22732*
X24972Y22694*
X24960Y22660*
X24947Y22628*
X24933Y22601*
X24917Y22577*
X24900Y22556*
X24883Y22537*
X24865Y22521*
X24847Y22507*
X24828Y22496*
X24806Y22486*
X24782Y22476*
X24755Y22469*
X24726Y22463*
X24693Y22458*
X24659Y22456*
X24620Y22455*
X24344Y22455*
X24413Y22511D02*
X24413Y22511D01*
X24607Y22511*
X24650Y22512*
X24688Y22515*
X24720Y22521*
X24748Y22528*
X24773Y22537*
X24794Y22548*
X24814Y22561*
X24830Y22575*
X24850Y22598*
X24868Y22625*
X24884Y22656*
X24897Y22690*
X24907Y22728*
X24915Y22770*
X24919Y22816*
X24921Y22865*
X24918Y22933*
X24909Y22991*
X24894Y23042*
X24874Y23085*
X24849Y23120*
X24822Y23149*
X24792Y23171*
X24760Y23187*
X24732Y23195*
X24697Y23201*
X24654Y23205*
X24604Y23206*
X24413Y23206*
X24413Y22511*
X-22946Y-22861D02*
X-22946Y-22867D01*
X-23230Y-22867*
X-23230Y-22606*
X-23207Y-22589*
X-23165Y-22563*
X-23122Y-22540*
X-23080Y-22522*
X-23036Y-22508*
X-22993Y-22497*
X-22949Y-22491*
X-22904Y-22489*
X-22844Y-22493*
X-22788Y-22502*
X-22735Y-22518*
X-22685Y-22541*
X-22639Y-22569*
X-22601Y-22602*
X-22568Y-22641*
X-22541Y-22685*
X-22519Y-22735*
X-22503Y-22788*
X-22494Y-22844*
X-22490Y-22904*
X-22494Y-22964*
X-22503Y-23021*
X-22519Y-23077*
X-22541Y-23130*
X-22568Y-23177*
X-22600Y-23217*
X-22637Y-23251*
X-22679Y-23278*
X-22727Y-23300*
X-22778Y-23315*
X-22834Y-23325*
X-22895Y-23328*
X-22939Y-23326*
X-22980Y-23321*
X-23018Y-23312*
X-23054Y-23299*
X-23087Y-23284*
X-23115Y-23267*
X-23138Y-23248*
X-23158Y-23226*
X-23176Y-23201*
X-23192Y-23171*
X-23206Y-23136*
X-23203Y-23144*
X-23191Y-23141*
X-23195Y-23130*
X-23181Y-23163*
X-23166Y-23193*
X-23148Y-23219*
X-23126Y-23244*
X-23101Y-23265*
X-23072Y-23283*
X-23040Y-23299*
X-23006Y-23311*
X-22971Y-23320*
X-22934Y-23325*
X-22896Y-23327*
X-22851Y-23325*
X-22810Y-23319*
X-22770Y-23310*
X-22733Y-23298*
X-22700Y-23282*
X-22670Y-23263*
X-22642Y-23242*
X-22618Y-23219*
X-22598Y-23194*
X-22580Y-23169*
X-22565Y-23142*
X-22551Y-23114*
X-22534Y-23066*
X-22522Y-23016*
X-22515Y-22965*
X-22513Y-22912*
X-22516Y-22849*
X-22524Y-22790*
X-22539Y-22735*
X-22560Y-22685*
X-22587Y-22640*
X-22621Y-22601*
X-22660Y-22568*
X-22704Y-22541*
X-22751Y-22521*
X-22798Y-22507*
X-22847Y-22499*
X-22897Y-22496*
X-22941Y-22498*
X-22984Y-22505*
X-23027Y-22515*
X-23068Y-22530*
X-23107Y-22547*
X-23140Y-22564*
X-23170Y-22583*
X-23213Y-22617*
X-23213Y-22861*
X-22946Y-22861*
X-23507Y-22505D02*
X-23507Y-23312D01*
X-23553Y-23312*
X-24108Y-22482*
X-24108Y-23312*
X-24122Y-23312*
X-24122Y-22505*
X-24077Y-22505*
X-23521Y-23336*
X-23521Y-22505*
X-23507Y-22505*
X-24426Y-22505D02*
X-24426Y-23312D01*
X-24688Y-23312*
X-24736Y-23312*
X-24777Y-23309*
X-24812Y-23305*
X-24838Y-23301*
X-24871Y-23291*
X-24900Y-23279*
X-24926Y-23264*
X-24950Y-23246*
X-24979Y-23218*
X-25004Y-23187*
X-25026Y-23151*
X-25043Y-23112*
X-25057Y-23068*
X-25068Y-23020*
X-25074Y-22969*
X-25076Y-22913*
X-25074Y-22866*
X-25070Y-22823*
X-25063Y-22782*
X-25054Y-22744*
X-25042Y-22710*
X-25029Y-22678*
X-25015Y-22651*
X-24999Y-22627*
X-24982Y-22606*
X-24965Y-22587*
X-24947Y-22571*
X-24929Y-22557*
X-24910Y-22546*
X-24888Y-22536*
X-24864Y-22526*
X-24837Y-22519*
X-24808Y-22513*
X-24775Y-22508*
X-24741Y-22506*
X-24702Y-22505*
X-24426Y-22505*
X-24495Y-22561D02*
X-24495Y-22561D01*
X-24689Y-22561*
X-24732Y-22562*
X-24770Y-22565*
X-24802Y-22571*
X-24830Y-22578*
X-24855Y-22587*
X-24876Y-22598*
X-24896Y-22611*
X-24912Y-22625*
X-24932Y-22648*
X-24950Y-22675*
X-24966Y-22706*
X-24979Y-22740*
X-24989Y-22778*
X-24997Y-22820*
X-25001Y-22866*
X-25003Y-22915*
X-25000Y-22983*
X-24991Y-23041*
X-24976Y-23092*
X-24956Y-23135*
X-24931Y-23170*
X-24904Y-23199*
X-24874Y-23221*
X-24842Y-23237*
X-24814Y-23245*
X-24779Y-23251*
X-24736Y-23255*
X-24686Y-23256*
X-24495Y-23256*
X-24495Y-22561*
X-20547Y25855D02*
X-21354Y25855D01*
X-21354Y26117*
X-21354Y26165*
X-21351Y26206*
X-21347Y26241*
X-21343Y26267*
X-21333Y26300*
X-21321Y26329*
X-21306Y26355*
X-21288Y26379*
X-21260Y26408*
X-21229Y26433*
X-21193Y26455*
X-21154Y26472*
X-21110Y26486*
X-21062Y26496*
X-21011Y26503*
X-20955Y26505*
X-20908Y26503*
X-20865Y26499*
X-20824Y26492*
X-20786Y26483*
X-20752Y26471*
X-20720Y26458*
X-20693Y26443*
X-20669Y26428*
X-20648Y26411*
X-20629Y26394*
X-20613Y26376*
X-20599Y26358*
X-20588Y26339*
X-20578Y26317*
X-20568Y26293*
X-20561Y26266*
X-20555Y26237*
X-20550Y26204*
X-20548Y26170*
X-20547Y26131*
X-20547Y25855*
X-20603Y25924D02*
X-20603Y25924D01*
X-20603Y26118*
X-20604Y26161*
X-20607Y26199*
X-20613Y26231*
X-20620Y26259*
X-20629Y26284*
X-20640Y26305*
X-20653Y26325*
X-20667Y26341*
X-20690Y26361*
X-20717Y26379*
X-20748Y26395*
X-20782Y26408*
X-20820Y26418*
X-20862Y26426*
X-20908Y26430*
X-20957Y26432*
X-21025Y26429*
X-21083Y26420*
X-21134Y26405*
X-21177Y26385*
X-21212Y26360*
X-21241Y26333*
X-21263Y26303*
X-21279Y26271*
X-21287Y26243*
X-21293Y26208*
X-21297Y26165*
X-21298Y26115*
X-21298Y25924*
X-20603Y25924*
X-20547Y26792D02*
X-21354Y26792D01*
X-21354Y26811*
X-20547Y26811*
X-20547Y26792*
X25503Y20647D02*
X25503Y21454D01*
X25765Y21454*
X25813Y21454*
X25854Y21451*
X25889Y21447*
X25915Y21443*
X25948Y21433*
X25977Y21421*
X26003Y21406*
X26027Y21388*
X26056Y21360*
X26081Y21329*
X26103Y21293*
X26120Y21254*
X26134Y21210*
X26144Y21162*
X26151Y21111*
X26153Y21055*
X26151Y21008*
X26147Y20965*
X26140Y20924*
X26131Y20886*
X26119Y20852*
X26106Y20820*
X26091Y20793*
X26076Y20769*
X26059Y20748*
X26042Y20729*
X26024Y20713*
X26006Y20699*
X25987Y20688*
X25965Y20678*
X25941Y20668*
X25914Y20661*
X25885Y20655*
X25852Y20650*
X25818Y20648*
X25779Y20647*
X25503Y20647*
X25572Y20703D02*
X25572Y20703D01*
X25766Y20703*
X25809Y20704*
X25847Y20707*
X25879Y20713*
X25907Y20720*
X25932Y20729*
X25953Y20740*
X25973Y20753*
X25989Y20767*
X26009Y20790*
X26027Y20817*
X26043Y20848*
X26056Y20882*
X26066Y20920*
X26074Y20962*
X26078Y21008*
X26080Y21057*
X26077Y21125*
X26068Y21183*
X26053Y21234*
X26033Y21277*
X26008Y21312*
X25981Y21341*
X25951Y21363*
X25919Y21379*
X25891Y21387*
X25856Y21393*
X25813Y21397*
X25763Y21398*
X25572Y21398*
X25572Y20703*
X26440Y20647D02*
X26440Y21454D01*
X26459Y21454*
X26459Y20647*
X26440Y20647*
X-22675Y23054D02*
X-22681Y23054D01*
X-22681Y23338*
X-22420Y23338*
X-22403Y23315*
X-22377Y23273*
X-22354Y23230*
X-22336Y23188*
X-22322Y23144*
X-22311Y23101*
X-22305Y23057*
X-22303Y23012*
X-22307Y22952*
X-22316Y22896*
X-22332Y22843*
X-22355Y22793*
X-22383Y22747*
X-22416Y22709*
X-22455Y22676*
X-22499Y22649*
X-22549Y22627*
X-22602Y22611*
X-22658Y22602*
X-22718Y22598*
X-22778Y22602*
X-22835Y22611*
X-22891Y22627*
X-22944Y22649*
X-22991Y22676*
X-23031Y22708*
X-23065Y22745*
X-23092Y22787*
X-23114Y22835*
X-23129Y22886*
X-23139Y22942*
X-23142Y23003*
X-23140Y23047*
X-23135Y23088*
X-23126Y23126*
X-23113Y23162*
X-23098Y23195*
X-23081Y23223*
X-23062Y23246*
X-23040Y23266*
X-23015Y23284*
X-22985Y23300*
X-22950Y23314*
X-22958Y23311*
X-22955Y23299*
X-22944Y23303*
X-22977Y23289*
X-23007Y23274*
X-23033Y23256*
X-23058Y23234*
X-23079Y23209*
X-23097Y23180*
X-23113Y23148*
X-23125Y23114*
X-23134Y23079*
X-23139Y23042*
X-23141Y23004*
X-23139Y22959*
X-23133Y22918*
X-23124Y22878*
X-23112Y22841*
X-23096Y22808*
X-23077Y22778*
X-23056Y22750*
X-23033Y22726*
X-23008Y22706*
X-22983Y22688*
X-22956Y22673*
X-22928Y22659*
X-22880Y22642*
X-22830Y22630*
X-22779Y22623*
X-22726Y22621*
X-22663Y22624*
X-22604Y22632*
X-22549Y22647*
X-22499Y22668*
X-22454Y22695*
X-22415Y22729*
X-22382Y22768*
X-22355Y22812*
X-22335Y22859*
X-22321Y22906*
X-22313Y22955*
X-22310Y23005*
X-22312Y23049*
X-22319Y23092*
X-22329Y23135*
X-22344Y23176*
X-22361Y23215*
X-22378Y23248*
X-22397Y23278*
X-22431Y23321*
X-22675Y23321*
X-22675Y23054*
X-22319Y23615D02*
X-23126Y23615D01*
X-23126Y23661*
X-22296Y24216*
X-23126Y24216*
X-23126Y24230*
X-22319Y24230*
X-22319Y24185*
X-23150Y23629*
X-22319Y23629*
X-22319Y23615*
X-22319Y24534D02*
X-23126Y24534D01*
X-23126Y24796*
X-23126Y24844*
X-23123Y24885*
X-23119Y24920*
X-23115Y24946*
X-23105Y24979*
X-23093Y25008*
X-23078Y25034*
X-23060Y25058*
X-23032Y25087*
X-23001Y25112*
X-22965Y25134*
X-22926Y25151*
X-22882Y25165*
X-22834Y25176*
X-22783Y25182*
X-22727Y25184*
X-22680Y25182*
X-22637Y25178*
X-22596Y25171*
X-22558Y25162*
X-22524Y25150*
X-22492Y25137*
X-22465Y25123*
X-22441Y25107*
X-22420Y25090*
X-22401Y25073*
X-22385Y25055*
X-22371Y25037*
X-22360Y25018*
X-22350Y24996*
X-22340Y24972*
X-22333Y24945*
X-22327Y24916*
X-22322Y24883*
X-22320Y24849*
X-22319Y24810*
X-22319Y24534*
X-22375Y24603D02*
X-22375Y24603D01*
X-22375Y24797*
X-22376Y24840*
X-22379Y24878*
X-22385Y24910*
X-22392Y24938*
X-22401Y24963*
X-22412Y24984*
X-22425Y25004*
X-22439Y25020*
X-22462Y25040*
X-22489Y25058*
X-22520Y25074*
X-22554Y25087*
X-22592Y25097*
X-22634Y25105*
X-22680Y25109*
X-22729Y25111*
X-22797Y25108*
X-22855Y25099*
X-22906Y25084*
X-22949Y25064*
X-22984Y25039*
X-23013Y25012*
X-23035Y24982*
X-23051Y24950*
X-23059Y24922*
X-23065Y24887*
X-23069Y24844*
X-23070Y24794*
X-23070Y24603*
X-22375Y24603*
X-19139Y-26817D02*
X-19139Y-27624D01*
X-19401Y-27624*
X-19449Y-27624*
X-19490Y-27621*
X-19525Y-27617*
X-19551Y-27613*
X-19584Y-27603*
X-19613Y-27591*
X-19639Y-27576*
X-19663Y-27558*
X-19692Y-27530*
X-19717Y-27499*
X-19739Y-27463*
X-19756Y-27424*
X-19770Y-27380*
X-19780Y-27332*
X-19787Y-27281*
X-19789Y-27225*
X-19787Y-27178*
X-19783Y-27135*
X-19776Y-27094*
X-19767Y-27056*
X-19755Y-27022*
X-19742Y-26990*
X-19727Y-26963*
X-19712Y-26939*
X-19695Y-26918*
X-19678Y-26899*
X-19660Y-26883*
X-19642Y-26869*
X-19623Y-26858*
X-19601Y-26848*
X-19577Y-26838*
X-19550Y-26831*
X-19521Y-26825*
X-19488Y-26820*
X-19454Y-26818*
X-19415Y-26817*
X-19139Y-26817*
X-19208Y-26873D02*
X-19208Y-26873D01*
X-19402Y-26873*
X-19445Y-26874*
X-19483Y-26877*
X-19515Y-26883*
X-19543Y-26890*
X-19568Y-26899*
X-19589Y-26910*
X-19609Y-26923*
X-19625Y-26937*
X-19645Y-26960*
X-19663Y-26987*
X-19679Y-27018*
X-19692Y-27052*
X-19702Y-27090*
X-19710Y-27132*
X-19714Y-27178*
X-19716Y-27227*
X-19713Y-27295*
X-19704Y-27353*
X-19689Y-27404*
X-19669Y-27447*
X-19644Y-27482*
X-19617Y-27511*
X-19587Y-27533*
X-19555Y-27549*
X-19527Y-27557*
X-19492Y-27563*
X-19449Y-27567*
X-19399Y-27568*
X-19208Y-27568*
X-19208Y-26873*
X-20019Y-27208D02*
X-20027Y-27308D01*
X-20047Y-27394*
X-20081Y-27467*
X-20127Y-27528*
X-20184Y-27577*
X-20249Y-27612*
X-20322Y-27633*
X-20405Y-27640*
X-20459Y-27637*
X-20510Y-27627*
X-20559Y-27610*
X-20605Y-27587*
X-20646Y-27558*
X-20682Y-27525*
X-20713Y-27485*
X-20739Y-27441*
X-20760Y-27391*
X-20775Y-27338*
X-20784Y-27280*
X-20787Y-27219*
X-20784Y-27157*
X-20774Y-27100*
X-20759Y-27046*
X-20737Y-26995*
X-20710Y-26950*
X-20678Y-26911*
X-20641Y-26878*
X-20599Y-26851*
X-20553Y-26829*
X-20505Y-26814*
X-20455Y-26805*
X-20403Y-26801*
X-20347Y-26805*
X-20295Y-26815*
X-20246Y-26832*
X-20200Y-26856*
X-20159Y-26886*
X-20123Y-26920*
X-20092Y-26959*
X-20066Y-27004*
X-20046Y-27053*
X-20031Y-27104*
X-20022Y-27155*
X-20019Y-27208*
X-20093Y-27207D02*
X-20093Y-27207D01*
X-20098Y-27129*
X-20115Y-27060*
X-20142Y-27000*
X-20181Y-26948*
X-20228Y-26907*
X-20281Y-26877*
X-20339Y-26859*
X-20403Y-26853*
X-20468Y-26859*
X-20526Y-26877*
X-20579Y-26907*
X-20626Y-26949*
X-20665Y-27002*
X-20692Y-27064*
X-20708Y-27137*
X-20714Y-27220*
X-20712Y-27274*
X-20705Y-27324*
X-20693Y-27371*
X-20676Y-27414*
X-20655Y-27453*
X-20630Y-27487*
X-20601Y-27517*
X-20567Y-27542*
X-20529Y-27562*
X-20490Y-27576*
X-20448Y-27585*
X-20404Y-27588*
X-20343Y-27582*
X-20286Y-27566*
X-20233Y-27538*
X-20185Y-27500*
X-20144Y-27449*
X-20116Y-27383*
X-20098Y-27302*
X-20093Y-27207*
X20833Y-25690D02*
X21640Y-25690D01*
X21640Y-25952*
X21639Y-26000*
X21637Y-26042*
X21633Y-26076*
X21628Y-26103*
X21619Y-26135*
X21607Y-26164*
X21592Y-26191*
X21574Y-26214*
X21546Y-26243*
X21514Y-26268*
X21479Y-26290*
X21439Y-26307*
X21395Y-26321*
X21348Y-26332*
X21296Y-26338*
X21241Y-26340*
X21194Y-26338*
X21150Y-26334*
X21110Y-26327*
X21072Y-26318*
X21037Y-26306*
X21006Y-26293*
X20979Y-26279*
X20955Y-26263*
X20933Y-26246*
X20915Y-26229*
X20898Y-26211*
X20885Y-26193*
X20874Y-26174*
X20863Y-26152*
X20854Y-26128*
X20847Y-26101*
X20841Y-26072*
X20836Y-26040*
X20833Y-26005*
X20833Y-25967*
X20833Y-25690*
X20889Y-25759D02*
X20889Y-25759D01*
X20889Y-25954*
X20890Y-25996*
X20893Y-26034*
X20898Y-26067*
X20906Y-26095*
X20915Y-26119*
X20926Y-26141*
X20939Y-26160*
X20953Y-26176*
X20976Y-26196*
X21003Y-26214*
X21034Y-26230*
X21068Y-26243*
X21106Y-26253*
X21148Y-26261*
X21194Y-26265*
X21243Y-26267*
X21310Y-26264*
X21369Y-26255*
X21420Y-26240*
X21462Y-26220*
X21497Y-26195*
X21526Y-26168*
X21549Y-26138*
X21565Y-26106*
X21573Y-26078*
X21579Y-26043*
X21582Y-26000*
X21584Y-25950*
X21584Y-25759*
X20889Y-25759*
X20833Y-26628D02*
X21640Y-26628D01*
X21640Y-26646*
X20833Y-26646*
X20833Y-26628*
X22878Y-22968D02*
X22883Y-22968D01*
X22884Y-23252*
X22623Y-23252*
X22606Y-23229*
X22579Y-23187*
X22557Y-23144*
X22538Y-23102*
X22524Y-23058*
X22514Y-23015*
X22508Y-22971*
X22506Y-22926*
X22509Y-22866*
X22519Y-22810*
X22535Y-22757*
X22557Y-22707*
X22585Y-22661*
X22619Y-22623*
X22657Y-22590*
X22702Y-22563*
X22752Y-22541*
X22805Y-22525*
X22861Y-22516*
X22921Y-22512*
X22981Y-22516*
X23038Y-22525*
X23093Y-22541*
X23146Y-22563*
X23194Y-22590*
X23234Y-22622*
X23267Y-22659*
X23295Y-22701*
X23316Y-22749*
X23332Y-22800*
X23341Y-22856*
X23344Y-22917*
X23343Y-22961*
X23337Y-23002*
X23328Y-23040*
X23316Y-23076*
X23301Y-23109*
X23284Y-23137*
X23264Y-23160*
X23242Y-23180*
X23217Y-23198*
X23187Y-23214*
X23152Y-23228*
X23161Y-23225*
X23157Y-23213*
X23146Y-23217*
X23179Y-23203*
X23209Y-23188*
X23236Y-23170*
X23260Y-23148*
X23282Y-23123*
X23300Y-23094*
X23315Y-23062*
X23328Y-23028*
X23336Y-22993*
X23341Y-22956*
X23343Y-22918*
X23341Y-22873*
X23336Y-22832*
X23327Y-22792*
X23314Y-22755*
X23298Y-22722*
X23280Y-22692*
X23259Y-22664*
X23236Y-22640*
X23211Y-22620*
X23185Y-22602*
X23159Y-22587*
X23130Y-22573*
X23083Y-22556*
X23033Y-22544*
X22981Y-22537*
X22928Y-22535*
X22865Y-22538*
X22806Y-22546*
X22752Y-22561*
X22702Y-22582*
X22657Y-22609*
X22617Y-22643*
X22584Y-22682*
X22558Y-22726*
X22538Y-22773*
X22524Y-22820*
X22516Y-22869*
X22513Y-22919*
X22515Y-22963*
X22521Y-23006*
X22532Y-23049*
X22546Y-23090*
X22563Y-23129*
X22581Y-23162*
X22599Y-23192*
X22633Y-23235*
X22878Y-23235*
X22878Y-22968*
X22521Y-23529D02*
X23329Y-23529D01*
X23329Y-23575*
X22499Y-24130*
X23329Y-24130*
X23329Y-24144*
X22521Y-24144*
X22521Y-24099*
X23352Y-23543*
X22521Y-23543*
X22521Y-23529*
X22521Y-24448D02*
X23329Y-24448D01*
X23329Y-24710*
X23328Y-24758*
X23326Y-24799*
X23322Y-24834*
X23317Y-24860*
X23308Y-24893*
X23296Y-24922*
X23281Y-24948*
X23263Y-24972*
X23235Y-25001*
X23203Y-25026*
X23168Y-25048*
X23128Y-25065*
X23084Y-25079*
X23037Y-25090*
X22985Y-25096*
X22930Y-25098*
X22883Y-25096*
X22839Y-25092*
X22799Y-25085*
X22761Y-25076*
X22726Y-25064*
X22695Y-25051*
X22668Y-25037*
X22644Y-25021*
X22622Y-25004*
X22603Y-24987*
X22587Y-24969*
X22574Y-24951*
X22562Y-24932*
X22552Y-24910*
X22543Y-24886*
X22535Y-24859*
X22529Y-24830*
X22525Y-24797*
X22522Y-24763*
X22521Y-24724*
X22521Y-24448*
X22578Y-24517D02*
X22578Y-24517D01*
X22578Y-24711*
X22579Y-24754*
X22582Y-24792*
X22587Y-24824*
X22595Y-24852*
X22604Y-24877*
X22615Y-24898*
X22627Y-24918*
X22642Y-24934*
X22665Y-24954*
X22692Y-24972*
X22722Y-24988*
X22757Y-25001*
X22795Y-25011*
X22837Y-25019*
X22882Y-25023*
X22932Y-25025*
X22999Y-25022*
X23058Y-25013*
X23109Y-24998*
X23151Y-24978*
X23186Y-24953*
X23215Y-24926*
X23238Y-24896*
X23254Y-24864*
X23262Y-24836*
X23268Y-24801*
X23271Y-24758*
X23272Y-24708*
X23272Y-24517*
X22578Y-24517*
X11629Y18445D02*
X11629Y19252D01*
X11921Y19252*
X11962Y19252*
X11997Y19250*
X12027Y19248*
X12050Y19244*
X12078Y19238*
X12103Y19231*
X12124Y19221*
X12142Y19210*
X12159Y19197*
X12173Y19182*
X12187Y19163*
X12199Y19142*
X12208Y19118*
X12215Y19094*
X12220Y19068*
X12221Y19041*
X12217Y18993*
X12206Y18951*
X12187Y18913*
X12162Y18880*
X12128Y18853*
X12079Y18832*
X12014Y18819*
X11930Y18814*
X11647Y18814*
X11647Y18445*
X11629Y18445*
X11698Y18871D02*
X11698Y18871D01*
X11933Y18871*
X11987Y18874*
X12033Y18882*
X12070Y18895*
X12099Y18914*
X12120Y18938*
X12136Y18967*
X12145Y18999*
X12148Y19036*
X12146Y19064*
X12141Y19089*
X12132Y19113*
X12119Y19134*
X12103Y19153*
X12086Y19168*
X12065Y19180*
X12043Y19188*
X12025Y19191*
X12000Y19194*
X11969Y19195*
X11931Y19196*
X11698Y19196*
X11698Y18871*
X12439Y18836D02*
X12446Y18936D01*
X12467Y19022*
X12501Y19095*
X12547Y19156*
X12604Y19205*
X12669Y19240*
X12741Y19261*
X12824Y19268*
X12879Y19265*
X12930Y19255*
X12979Y19238*
X13025Y19215*
X13066Y19186*
X13102Y19153*
X13133Y19113*
X13159Y19069*
X13180Y19019*
X13195Y18966*
X13204Y18908*
X13207Y18847*
X13204Y18785*
X13194Y18728*
X13179Y18674*
X13157Y18623*
X13130Y18578*
X13098Y18539*
X13061Y18506*
X13019Y18479*
X12973Y18457*
X12925Y18442*
X12875Y18433*
X12823Y18429*
X12767Y18433*
X12715Y18443*
X12666Y18460*
X12620Y18484*
X12579Y18514*
X12543Y18548*
X12512Y18587*
X12486Y18632*
X12466Y18681*
X12451Y18732*
X12442Y18783*
X12439Y18836*
X12513Y18835D02*
X12513Y18835D01*
X12518Y18757*
X12535Y18688*
X12562Y18628*
X12601Y18576*
X12648Y18535*
X12700Y18505*
X12759Y18487*
X12823Y18481*
X12887Y18487*
X12946Y18505*
X12999Y18535*
X13046Y18577*
X13085Y18630*
X13112Y18692*
X13128Y18765*
X13134Y18848*
X13132Y18902*
X13124Y18952*
X13113Y18999*
X13096Y19042*
X13075Y19081*
X13050Y19115*
X13021Y19145*
X12987Y19170*
X12949Y19190*
X12910Y19204*
X12868Y19213*
X12824Y19216*
X12763Y19210*
X12706Y19194*
X12653Y19166*
X12605Y19128*
X12564Y19077*
X12536Y19011*
X12518Y18930*
X12513Y18835*
X13708Y18445D02*
X13395Y19252D01*
X13415Y19252*
X13639Y18626*
X13653Y18587*
X13665Y18550*
X13676Y18515*
X13734Y18312*
X13794Y18516*
X13806Y18552*
X13818Y18589*
X13831Y18625*
X14065Y19252*
X14078Y19252*
X13762Y18445*
X13708Y18445*
X14664Y18445D02*
X14664Y19252D01*
X14926Y19252*
X14974Y19252*
X15015Y19249*
X15050Y19245*
X15076Y19241*
X15109Y19231*
X15138Y19219*
X15164Y19204*
X15188Y19186*
X15217Y19158*
X15242Y19127*
X15264Y19091*
X15281Y19052*
X15295Y19008*
X15305Y18960*
X15312Y18909*
X15314Y18853*
X15312Y18806*
X15308Y18763*
X15301Y18722*
X15292Y18684*
X15280Y18650*
X15267Y18618*
X15252Y18591*
X15237Y18567*
X15220Y18546*
X15203Y18527*
X15185Y18511*
X15167Y18497*
X15148Y18486*
X15126Y18476*
X15102Y18466*
X15075Y18459*
X15045Y18453*
X15013Y18448*
X14978Y18446*
X14940Y18445*
X14664Y18445*
X14733Y18501D02*
X14733Y18501D01*
X14927Y18501*
X14970Y18502*
X15008Y18505*
X15040Y18511*
X15068Y18518*
X15093Y18527*
X15114Y18538*
X15133Y18551*
X15150Y18565*
X15170Y18588*
X15188Y18615*
X15203Y18646*
X15217Y18680*
X15227Y18718*
X15234Y18760*
X15239Y18806*
X15240Y18855*
X15238Y18923*
X15229Y18981*
X15214Y19032*
X15194Y19075*
X15169Y19110*
X15142Y19139*
X15112Y19161*
X15080Y19177*
X15052Y19185*
X15017Y19191*
X14974Y19195*
X14924Y19196*
X14733Y19196*
X14733Y18501*
X15567Y19226D02*
X15567Y19252D01*
X15577Y19252*
X15577Y19226*
X15567Y19226*
X15567Y18445D02*
X15567Y19002D01*
X15577Y19002*
X15577Y18445*
X15567Y18445*
X15816Y18549D02*
X15824Y18550D01*
X15822Y18562*
X15836Y18526*
X15856Y18494*
X15883Y18467*
X15915Y18446*
X15952Y18431*
X15991Y18423*
X16034Y18420*
X16076Y18422*
X16115Y18430*
X16150Y18443*
X16180Y18463*
X16204Y18486*
X16222Y18513*
X16233Y18544*
X16237Y18576*
X16233Y18606*
X16222Y18634*
X16204Y18659*
X16181Y18678*
X16157Y18690*
X16129Y18700*
X16094Y18711*
X16052Y18722*
X15996Y18737*
X15950Y18750*
X15915Y18762*
X15890Y18772*
X15874Y18782*
X15860Y18792*
X15849Y18803*
X15840Y18816*
X15832Y18830*
X15827Y18845*
X15824Y18861*
X15823Y18878*
X15824Y18893*
X15826Y18908*
X15831Y18922*
X15837Y18935*
X15845Y18948*
X15854Y18960*
X15865Y18971*
X15877Y18980*
X15887Y18987*
X15899Y18993*
X15914Y18999*
X15932Y19005*
X15951Y19010*
X15971Y19014*
X15992Y19016*
X16014Y19017*
X16048Y19015*
X16079Y19012*
X16107Y19006*
X16132Y18998*
X16154Y18988*
X16172Y18977*
X16186Y18966*
X16196Y18954*
X16205Y18940*
X16213Y18922*
X16220Y18900*
X16214Y18926*
X16205Y18924*
X16209Y18907*
X16197Y18937*
X16178Y18964*
X16155Y18987*
X16126Y19005*
X16094Y19018*
X16060Y19024*
X16023Y19027*
X15982Y19025*
X15945Y19019*
X15911Y19008*
X15882Y18991*
X15860Y18971*
X15843Y18947*
X15832Y18920*
X15829Y18892*
X15830Y18872*
X15835Y18853*
X15843Y18836*
X15853Y18820*
X15866Y18806*
X15882Y18794*
X15899Y18783*
X15918Y18775*
X15933Y18769*
X15955Y18763*
X15984Y18755*
X16021Y18744*
X16076Y18729*
X16120Y18716*
X16155Y18705*
X16179Y18695*
X16196Y18687*
X16210Y18677*
X16222Y18666*
X16231Y18654*
X16239Y18641*
X16244Y18626*
X16248Y18608*
X16249Y18588*
X16248Y18568*
X16243Y18548*
X16236Y18529*
X16225Y18511*
X16212Y18493*
X16196Y18478*
X16176Y18465*
X16153Y18453*
X16127Y18443*
X16099Y18436*
X16068Y18431*
X16035Y18430*
X15981Y18433*
X15935Y18442*
X15899Y18455*
X15871Y18473*
X15848Y18495*
X15829Y18523*
X15814Y18558*
X15816Y18549*
X16903Y18579D02*
X16910Y18578D01*
X16911Y18583*
X16895Y18543*
X16874Y18510*
X16847Y18482*
X16816Y18459*
X16781Y18443*
X16742Y18433*
X16699Y18430*
X16643Y18435*
X16596Y18449*
X16555Y18471*
X16519Y18502*
X16489Y18542*
X16468Y18591*
X16454Y18650*
X16450Y18721*
X16452Y18768*
X16458Y18811*
X16467Y18851*
X16481Y18887*
X16497Y18918*
X16517Y18943*
X16540Y18965*
X16567Y18983*
X16597Y18998*
X16630Y19008*
X16664Y19014*
X16699Y19017*
X16743Y19014*
X16781Y19005*
X16814Y18992*
X16843Y18973*
X16867Y18950*
X16886Y18922*
X16901Y18889*
X16898Y18901*
X16889Y18899*
X16892Y18891*
X16877Y18925*
X16856Y18955*
X16832Y18981*
X16803Y19001*
X16772Y19015*
X16738Y19024*
X16703Y19027*
X16653Y19022*
X16606Y19007*
X16564Y18983*
X16527Y18948*
X16498Y18904*
X16478Y18851*
X16466Y18791*
X16463Y18724*
X16466Y18656*
X16477Y18596*
X16496Y18543*
X16525Y18499*
X16561Y18464*
X16602Y18439*
X16648Y18425*
X16697Y18420*
X16737Y18423*
X16775Y18433*
X16810Y18450*
X16842Y18474*
X16869Y18505*
X16889Y18541*
X16904Y18583*
X16903Y18579*
X17639Y18445D02*
X17427Y19002D01*
X17435Y19002*
X17565Y18641*
X17576Y18610*
X17586Y18578*
X17596Y18545*
X17654Y18345*
X17711Y18538*
X17721Y18567*
X17732Y18599*
X17744Y18633*
X17878Y19002*
X17884Y19002*
X17673Y18445*
X17639Y18445*
X18395Y18445D02*
X18384Y18445D01*
X18384Y19218*
X18280Y19125*
X18257Y19108*
X18231Y19090*
X18202Y19072*
X18172Y19055*
X18144Y19040*
X18117Y19028*
X18161Y19046*
X18161Y19048*
X18180Y19057*
X18226Y19085*
X18268Y19115*
X18308Y19147*
X18343Y19181*
X18373Y19215*
X18399Y19249*
X18403Y19256*
X18395Y19256*
X18395Y18445*
X11705Y16981D02*
X11705Y17788D01*
X11799Y17788*
X12002Y17179*
X12016Y17137*
X12028Y17101*
X12038Y17071*
X12093Y16892*
X12151Y17073*
X12162Y17106*
X12175Y17145*
X12190Y17190*
X12396Y17788*
X12471Y17788*
X12471Y16981*
X12457Y16981*
X12457Y17992*
X12106Y16981*
X12070Y16981*
X11719Y18011*
X11719Y16981*
X11705Y16981*
X13169Y17106D02*
X13071Y17028D01*
X13044Y17009*
X13018Y16995*
X12994Y16984*
X12969Y16976*
X12944Y16971*
X12917Y16967*
X12890Y16966*
X12845Y16969*
X12809Y16977*
X12780Y16989*
X12756Y17006*
X12738Y17026*
X12725Y17049*
X12718Y17074*
X12715Y17105*
X12716Y17121*
X12719Y17138*
X12724Y17153*
X12731Y17168*
X12739Y17182*
X12749Y17194*
X12760Y17205*
X12772Y17214*
X12787Y17223*
X12803Y17231*
X12819Y17238*
X12837Y17244*
X12853Y17247*
X12874Y17251*
X12899Y17255*
X12930Y17259*
X12994Y17268*
X13050Y17277*
X13098Y17288*
X13172Y17310*
X13173Y17357*
X13173Y17366*
X13173Y17372*
X13174Y17378*
X13171Y17416*
X13163Y17452*
X13148Y17484*
X13126Y17511*
X13091Y17535*
X13053Y17550*
X13010Y17559*
X12964Y17562*
X12922Y17560*
X12883Y17554*
X12848Y17542*
X12817Y17525*
X12791Y17500*
X12771Y17471*
X12755Y17437*
X12757Y17442*
X12747Y17443*
X12740Y17419*
X12749Y17444*
X12760Y17465*
X12772Y17482*
X12785Y17497*
X12802Y17510*
X12823Y17522*
X12848Y17532*
X12877Y17541*
X12908Y17547*
X12943Y17551*
X12980Y17553*
X13017Y17551*
X13049Y17548*
X13077Y17543*
X13100Y17536*
X13119Y17527*
X13135Y17518*
X13147Y17510*
X13156Y17501*
X13163Y17491*
X13169Y17478*
X13175Y17464*
X13180Y17448*
X13181Y17435*
X13183Y17415*
X13184Y17388*
X13184Y17355*
X13184Y17206*
X13185Y17135*
X13186Y17077*
X13188Y17033*
X13192Y17001*
X13197Y16976*
X13205Y16952*
X13214Y16928*
X13188Y16981*
X13187Y16981*
X13193Y16966*
X13188Y16981*
X13185Y16998*
X13169Y17106*
X13122Y17261D02*
X13122Y17261D01*
X13088Y17249*
X13046Y17238*
X12997Y17228*
X12940Y17218*
X12908Y17213*
X12881Y17208*
X12859Y17202*
X12842Y17196*
X12829Y17189*
X12817Y17181*
X12807Y17171*
X12798Y17160*
X12792Y17147*
X12787Y17135*
X12784Y17121*
X12783Y17107*
X12785Y17085*
X12791Y17066*
X12802Y17048*
X12817Y17032*
X12836Y17019*
X12858Y17010*
X12885Y17004*
X12916Y17003*
X12947Y17004*
X12977Y17010*
X13004Y17018*
X13030Y17031*
X13054Y17046*
X13074Y17064*
X13091Y17085*
X13104Y17108*
X13112Y17129*
X13118Y17155*
X13121Y17185*
X13122Y17220*
X13122Y17261*
X13458Y16981D02*
X13458Y17538D01*
X13456Y17538*
X13456Y17302*
X13569Y17493*
X13584Y17516*
X13597Y17531*
X13608Y17540*
X13617Y17545*
X13628Y17549*
X13638Y17552*
X13650Y17552*
X13670Y17551*
X13692Y17546*
X13714Y17537*
X13702Y17544*
X13698Y17535*
X13726Y17521*
X13700Y17531*
X13672Y17537*
X13644Y17539*
X13618Y17537*
X13593Y17531*
X13570Y17521*
X13548Y17507*
X13528Y17489*
X13511Y17469*
X13498Y17445*
X13489Y17421*
X13479Y17386*
X13473Y17350*
X13469Y17313*
X13468Y17276*
X13468Y16981*
X13458Y16981*
X13882Y16981D02*
X13882Y17788D01*
X13892Y17788*
X13892Y17197*
X14229Y17538*
X14226Y17538*
X14034Y17351*
X14282Y16981*
X14267Y16981*
X14031Y17346*
X13892Y17213*
X13892Y16981*
X13882Y16981*
X14879Y16981D02*
X14879Y17788D01*
X15168Y17788*
X15215Y17787*
X15255Y17782*
X15288Y17775*
X15316Y17765*
X15339Y17753*
X15359Y17738*
X15377Y17720*
X15392Y17699*
X15404Y17676*
X15413Y17653*
X15418Y17630*
X15420Y17606*
X15418Y17585*
X15414Y17564*
X15406Y17544*
X15396Y17524*
X15382Y17505*
X15366Y17489*
X15345Y17473*
X15223Y17404*
X15361Y17353*
X15388Y17338*
X15411Y17321*
X15430Y17300*
X15444Y17277*
X15455Y17252*
X15461Y17224*
X15464Y17193*
X15462Y17168*
X15458Y17143*
X15451Y17120*
X15442Y17097*
X15430Y17076*
X15417Y17058*
X15404Y17043*
X15390Y17031*
X15374Y17020*
X15355Y17010*
X15333Y17002*
X15309Y16994*
X15281Y16989*
X15249Y16984*
X15214Y16982*
X15174Y16981*
X14879Y16981*
X14948Y17457D02*
X14948Y17457D01*
X15145Y17457*
X15182Y17458*
X15214Y17460*
X15239Y17463*
X15260Y17468*
X15281Y17476*
X15300Y17486*
X15316Y17498*
X15329Y17513*
X15339Y17530*
X15346Y17549*
X15351Y17569*
X15352Y17592*
X15351Y17614*
X15347Y17635*
X15340Y17654*
X15330Y17672*
X15318Y17688*
X15304Y17701*
X15287Y17711*
X15268Y17719*
X15245Y17725*
X15214Y17729*
X15175Y17731*
X15130Y17732*
X14948Y17732*
X14948Y17457*
X14948Y17037D02*
X14948Y17037D01*
X15175Y17037*
X15202Y17038*
X15224Y17038*
X15243Y17040*
X15257Y17042*
X15276Y17046*
X15295Y17052*
X15311Y17058*
X15326Y17066*
X15339Y17076*
X15351Y17088*
X15362Y17101*
X15372Y17117*
X15380Y17134*
X15385Y17153*
X15389Y17172*
X15390Y17194*
X15388Y17218*
X15383Y17241*
X15375Y17262*
X15364Y17282*
X15350Y17299*
X15333Y17314*
X15313Y17326*
X15292Y17335*
X15266Y17341*
X15235Y17346*
X15199Y17349*
X15159Y17350*
X14948Y17350*
X14948Y17037*
X15715Y16981D02*
X15715Y17538D01*
X15714Y17538*
X15714Y17302*
X15827Y17493*
X15842Y17516*
X15855Y17531*
X15866Y17540*
X15875Y17545*
X15885Y17549*
X15896Y17552*
X15908Y17552*
X15928Y17551*
X15949Y17546*
X15972Y17537*
X15959Y17544*
X15956Y17535*
X15984Y17521*
X15957Y17531*
X15930Y17537*
X15902Y17539*
X15876Y17537*
X15851Y17531*
X15828Y17521*
X15806Y17507*
X15786Y17489*
X15769Y17469*
X15756Y17445*
X15747Y17421*
X15737Y17386*
X15731Y17350*
X15727Y17313*
X15725Y17276*
X15725Y16981*
X15715Y16981*
X16556Y17106D02*
X16458Y17028D01*
X16431Y17009*
X16405Y16995*
X16381Y16984*
X16356Y16976*
X16331Y16971*
X16304Y16967*
X16277Y16966*
X16232Y16969*
X16196Y16977*
X16167Y16989*
X16143Y17006*
X16125Y17026*
X16112Y17049*
X16105Y17074*
X16102Y17105*
X16103Y17121*
X16106Y17138*
X16111Y17153*
X16118Y17168*
X16126Y17182*
X16136Y17194*
X16147Y17205*
X16160Y17214*
X16174Y17223*
X16190Y17231*
X16206Y17238*
X16224Y17244*
X16240Y17247*
X16261Y17251*
X16286Y17255*
X16317Y17259*
X16381Y17268*
X16437Y17277*
X16486Y17288*
X16559Y17310*
X16560Y17357*
X16560Y17366*
X16561Y17372*
X16561Y17378*
X16558Y17416*
X16550Y17452*
X16535Y17484*
X16513Y17511*
X16478Y17535*
X16440Y17550*
X16397Y17559*
X16351Y17562*
X16309Y17560*
X16271Y17554*
X16236Y17542*
X16204Y17525*
X16179Y17500*
X16158Y17471*
X16142Y17437*
X16144Y17442*
X16134Y17443*
X16127Y17419*
X16136Y17444*
X16147Y17465*
X16159Y17482*
X16173Y17497*
X16189Y17510*
X16210Y17522*
X16235Y17532*
X16264Y17541*
X16295Y17547*
X16330Y17551*
X16367Y17553*
X16404Y17551*
X16436Y17548*
X16464Y17543*
X16487Y17536*
X16506Y17527*
X16522Y17518*
X16534Y17510*
X16543Y17501*
X16550Y17491*
X16557Y17478*
X16562Y17464*
X16567Y17448*
X16568Y17435*
X16570Y17415*
X16571Y17388*
X16571Y17355*
X16571Y17206*
X16572Y17135*
X16573Y17077*
X16575Y17033*
X16579Y17001*
X16584Y16976*
X16592Y16952*
X16601Y16928*
X16575Y16981*
X16574Y16981*
X16580Y16966*
X16576Y16981*
X16572Y16998*
X16556Y17106*
X16509Y17261D02*
X16509Y17261D01*
X16475Y17249*
X16433Y17238*
X16384Y17228*
X16327Y17218*
X16295Y17213*
X16268Y17208*
X16246Y17202*
X16230Y17196*
X16216Y17189*
X16204Y17181*
X16194Y17171*
X16185Y17160*
X16179Y17147*
X16174Y17135*
X16171Y17121*
X16170Y17107*
X16172Y17085*
X16178Y17066*
X16189Y17048*
X16204Y17032*
X16223Y17019*
X16245Y17010*
X16272Y17004*
X16303Y17003*
X16334Y17004*
X16364Y17010*
X16391Y17018*
X16417Y17031*
X16441Y17046*
X16461Y17064*
X16478Y17085*
X16491Y17108*
X16499Y17129*
X16505Y17155*
X16508Y17185*
X16509Y17220*
X16509Y17261*
X17273Y16981D02*
X17273Y17156D01*
X17152Y17008*
X17121Y16985*
X17084Y16971*
X17037Y16966*
X17007Y16968*
X16977Y16975*
X16949Y16986*
X16921Y17001*
X16896Y17020*
X16874Y17043*
X16854Y17070*
X16837Y17101*
X16824Y17136*
X16814Y17174*
X16808Y17214*
X16806Y17259*
X16807Y17302*
X16813Y17343*
X16822Y17382*
X16835Y17418*
X16850Y17450*
X16868Y17477*
X16890Y17499*
X16914Y17518*
X16941Y17533*
X16970Y17544*
X17001Y17550*
X17034Y17553*
X17056Y17551*
X17078Y17548*
X17097Y17542*
X17115Y17533*
X17133Y17523*
X17148Y17511*
X17162Y17498*
X17266Y17370*
X17266Y17788*
X17275Y17788*
X17275Y16981*
X17273Y16981*
X16869Y17259D02*
X16869Y17259D01*
X16873Y17199*
X16883Y17148*
X16899Y17105*
X16923Y17070*
X16951Y17042*
X16981Y17023*
X17014Y17011*
X17049Y17007*
X17084Y17011*
X17116Y17022*
X17146Y17041*
X17173Y17067*
X17195Y17101*
X17211Y17142*
X17221Y17192*
X17224Y17249*
X17221Y17312*
X17211Y17367*
X17195Y17412*
X17172Y17448*
X17145Y17475*
X17114Y17495*
X17080Y17507*
X17044Y17511*
X17008Y17507*
X16975Y17496*
X16946Y17477*
X16919Y17450*
X16898Y17416*
X16882Y17372*
X16873Y17320*
X16869Y17259*
X17550Y16981D02*
X17550Y17788D01*
X17560Y17788*
X17560Y16981*
X17550Y16981*
X18266Y17087D02*
X18281Y17085D01*
X18286Y17100*
X18268Y17066*
X18245Y17036*
X18218Y17012*
X18186Y16992*
X18150Y16978*
X18108Y16969*
X18061Y16966*
X18000Y16971*
X17949Y16985*
X17905Y17008*
X17868Y17039*
X17838Y17079*
X17816Y17128*
X17802Y17186*
X17797Y17254*
X17802Y17325*
X17816Y17385*
X17839Y17435*
X17869Y17477*
X17907Y17510*
X17950Y17533*
X17998Y17548*
X18054Y17552*
X18107Y17548*
X18154Y17534*
X18195Y17511*
X18232Y17479*
X18262Y17438*
X18284Y17389*
X18298Y17330*
X18303Y17259*
X18303Y17256*
X18302Y17249*
X18302Y17241*
X18303Y17282*
X17804Y17282*
X17818Y17170*
X17832Y17117*
X17855Y17070*
X17886Y17029*
X17923Y16997*
X17965Y16974*
X18011Y16960*
X18060Y16956*
X18098Y16958*
X18133Y16966*
X18166Y16980*
X18196Y16998*
X18223Y17023*
X18247Y17053*
X18266Y17087*
X18266Y17087*
X17868Y17323D02*
X17868Y17323D01*
X18236Y17323*
X18230Y17361*
X18221Y17395*
X18209Y17424*
X18193Y17447*
X18165Y17475*
X18132Y17496*
X18096Y17508*
X18055Y17512*
X18018Y17508*
X17984Y17499*
X17954Y17483*
X17926Y17460*
X17903Y17432*
X17885Y17400*
X17874Y17363*
X17868Y17323*
X18531Y16715D02*
X18532Y16714D01*
X18479Y16727*
X18499Y16723*
X18518Y16721*
X18536Y16720*
X18559Y16721*
X18580Y16725*
X18601Y16730*
X18620Y16739*
X18637Y16749*
X18651Y16762*
X18664Y16776*
X18676Y16791*
X18684Y16808*
X18693Y16828*
X18703Y16853*
X18714Y16885*
X18716Y16890*
X18718Y16896*
X18721Y16903*
X18731Y16929*
X18500Y17538*
X18511Y17538*
X18636Y17190*
X18649Y17154*
X18661Y17118*
X18672Y17080*
X18733Y16859*
X18791Y17079*
X18801Y17116*
X18813Y17152*
X18825Y17188*
X18954Y17538*
X18957Y17538*
X18732Y16937*
X18713Y16887*
X18697Y16847*
X18683Y16816*
X18672Y16794*
X18659Y16772*
X18646Y16754*
X18633Y16741*
X18620Y16731*
X18607Y16724*
X18593Y16718*
X18576Y16715*
X18557Y16714*
X18545Y16714*
X18532Y16716*
X18517Y16719*
X18531Y16715*
X-24495Y20855D02*
X-25302Y20542D01*
X-25302Y20562*
X-24676Y20786*
X-24637Y20800*
X-24600Y20812*
X-24565Y20823*
X-24362Y20881*
X-24566Y20941*
X-24602Y20953*
X-24639Y20965*
X-24675Y20978*
X-25302Y21212*
X-25302Y21225*
X-24495Y20909*
X-24495Y20855*
X-24701Y22091D02*
X-24696Y22111D01*
X-24682Y22106*
X-24628Y22079*
X-24583Y22047*
X-24546Y22008*
X-24517Y21964*
X-24496Y21915*
X-24484Y21860*
X-24479Y21799*
X-24483Y21735*
X-24493Y21679*
X-24509Y21630*
X-24531Y21588*
X-24559Y21551*
X-24594Y21519*
X-24634Y21491*
X-24682Y21467*
X-24734Y21448*
X-24789Y21434*
X-24846Y21426*
X-24905Y21423*
X-24969Y21426*
X-25027Y21436*
X-25081Y21451*
X-25130Y21472*
X-25173Y21498*
X-25211Y21529*
X-25243Y21565*
X-25269Y21606*
X-25290Y21651*
X-25305Y21699*
X-25315Y21749*
X-25318Y21801*
X-25314Y21860*
X-25302Y21912*
X-25284Y21959*
X-25258Y22000*
X-25226Y22037*
X-25187Y22067*
X-25142Y22092*
X-25140Y22093*
X-25136Y22074*
X-25143Y22071*
X-25189Y22046*
X-25229Y22016*
X-25261Y21981*
X-25286Y21941*
X-25303Y21897*
X-25313Y21850*
X-25317Y21799*
X-25313Y21742*
X-25302Y21689*
X-25283Y21639*
X-25257Y21594*
X-25225Y21556*
X-25187Y21523*
X-25144Y21496*
X-25098Y21477*
X-25050Y21463*
X-25003Y21453*
X-24955Y21447*
X-24906Y21446*
X-24846Y21448*
X-24789Y21455*
X-24735Y21466*
X-24685Y21483*
X-24638Y21505*
X-24596Y21534*
X-24560Y21569*
X-24531Y21609*
X-24509Y21652*
X-24493Y21696*
X-24484Y21742*
X-24481Y21790*
X-24485Y21846*
X-24498Y21900*
X-24520Y21949*
X-24551Y21994*
X-24590Y22033*
X-24637Y22064*
X-24692Y22088*
X-24701Y22091*
X-24701Y23008D02*
X-24696Y23028D01*
X-24682Y23023*
X-24628Y22997*
X-24583Y22964*
X-24546Y22925*
X-24517Y22881*
X-24496Y22832*
X-24484Y22777*
X-24479Y22716*
X-24483Y22653*
X-24493Y22596*
X-24509Y22547*
X-24531Y22505*
X-24559Y22469*
X-24594Y22436*
X-24634Y22408*
X-24682Y22384*
X-24734Y22365*
X-24789Y22351*
X-24846Y22343*
X-24905Y22340*
X-24969Y22344*
X-25027Y22353*
X-25081Y22368*
X-25130Y22389*
X-25173Y22415*
X-25211Y22446*
X-25243Y22482*
X-25269Y22523*
X-25290Y22568*
X-25305Y22616*
X-25315Y22666*
X-25318Y22718*
X-25314Y22777*
X-25302Y22829*
X-25284Y22876*
X-25258Y22918*
X-25226Y22954*
X-25187Y22985*
X-25142Y23010*
X-25140Y23010*
X-25136Y22991*
X-25143Y22988*
X-25189Y22963*
X-25229Y22934*
X-25261Y22898*
X-25286Y22858*
X-25303Y22814*
X-25313Y22767*
X-25317Y22716*
X-25313Y22659*
X-25302Y22606*
X-25283Y22556*
X-25257Y22512*
X-25225Y22473*
X-25187Y22440*
X-25144Y22414*
X-25098Y22394*
X-25050Y22380*
X-25003Y22370*
X-24955Y22365*
X-24906Y22363*
X-24846Y22365*
X-24789Y22372*
X-24735Y22383*
X-24685Y22400*
X-24638Y22422*
X-24596Y22451*
X-24560Y22486*
X-24531Y22526*
X-24509Y22569*
X-24493Y22613*
X-24484Y22659*
X-24481Y22707*
X-24485Y22763*
X-24498Y22817*
X-24520Y22866*
X-24551Y22911*
X-24590Y22950*
X-24637Y22981*
X-24692Y23006*
X-24701Y23008*
X26892Y-19286D02*
X27700Y-19286D01*
X27700Y-19548*
X27699Y-19597*
X27697Y-19638*
X27693Y-19672*
X27688Y-19699*
X27679Y-19731*
X27667Y-19760*
X27652Y-19787*
X27634Y-19811*
X27606Y-19840*
X27574Y-19865*
X27539Y-19886*
X27499Y-19904*
X27455Y-19918*
X27407Y-19928*
X27356Y-19934*
X27301Y-19936*
X27254Y-19935*
X27210Y-19931*
X27169Y-19924*
X27132Y-19914*
X27097Y-19902*
X27066Y-19889*
X27039Y-19875*
X27014Y-19859*
X26993Y-19843*
X26974Y-19825*
X26958Y-19808*
X26945Y-19790*
X26933Y-19770*
X26923Y-19749*
X26914Y-19724*
X26906Y-19697*
X26900Y-19668*
X26896Y-19636*
X26893Y-19601*
X26892Y-19563*
X26892Y-19286*
X26949Y-19356D02*
X26949Y-19356D01*
X26949Y-19550*
X26950Y-19592*
X26953Y-19630*
X26958Y-19663*
X26965Y-19691*
X26975Y-19715*
X26986Y-19737*
X26998Y-19756*
X27013Y-19772*
X27036Y-19793*
X27063Y-19810*
X27093Y-19826*
X27128Y-19839*
X27166Y-19850*
X27208Y-19857*
X27253Y-19861*
X27303Y-19863*
X27370Y-19860*
X27429Y-19851*
X27480Y-19837*
X27522Y-19816*
X27557Y-19791*
X27586Y-19764*
X27608Y-19735*
X27625Y-19702*
X27633Y-19674*
X27639Y-19639*
X27642Y-19597*
X27643Y-19547*
X27643Y-19356*
X26949Y-19356*
X27284Y-20167D02*
X27383Y-20174D01*
X27469Y-20195*
X27542Y-20228*
X27604Y-20275*
X27653Y-20332*
X27687Y-20396*
X27708Y-20469*
X27716Y-20552*
X27712Y-20606*
X27702Y-20658*
X27686Y-20706*
X27663Y-20752*
X27634Y-20794*
X27600Y-20830*
X27561Y-20861*
X27516Y-20887*
X27466Y-20907*
X27413Y-20922*
X27356Y-20931*
X27295Y-20935*
X27233Y-20931*
X27175Y-20922*
X27121Y-20906*
X27071Y-20884*
X27025Y-20857*
X26987Y-20825*
X26954Y-20789*
X26927Y-20747*
X26905Y-20701*
X26889Y-20653*
X26880Y-20603*
X26877Y-20551*
X26880Y-20495*
X26891Y-20442*
X26908Y-20394*
X26931Y-20348*
X26961Y-20306*
X26995Y-20270*
X27035Y-20239*
X27080Y-20214*
X27129Y-20193*
X27179Y-20179*
X27231Y-20170*
X27284Y-20167*
X27282Y-20240D02*
X27282Y-20240D01*
X27205Y-20246*
X27135Y-20262*
X27075Y-20290*
X27023Y-20328*
X26982Y-20375*
X26953Y-20428*
X26935Y-20486*
X26929Y-20550*
X26935Y-20615*
X26953Y-20674*
X26983Y-20727*
X27024Y-20774*
X27077Y-20812*
X27140Y-20839*
X27213Y-20856*
X27295Y-20861*
X27349Y-20859*
X27399Y-20852*
X27446Y-20840*
X27489Y-20824*
X27528Y-20803*
X27563Y-20778*
X27592Y-20748*
X27618Y-20714*
X27637Y-20677*
X27652Y-20637*
X27660Y-20596*
X27663Y-20552*
X27658Y-20490*
X27641Y-20433*
X27614Y-20380*
X27575Y-20332*
X27524Y-20292*
X27458Y-20263*
X27378Y-20246*
X27282Y-20240*
X-27005Y19219D02*
X-27812Y19219D01*
X-27812Y19481*
X-27812Y19529*
X-27809Y19570*
X-27805Y19605*
X-27801Y19631*
X-27791Y19664*
X-27779Y19693*
X-27764Y19719*
X-27746Y19743*
X-27718Y19772*
X-27687Y19797*
X-27651Y19819*
X-27612Y19836*
X-27568Y19850*
X-27520Y19860*
X-27469Y19867*
X-27413Y19869*
X-27366Y19867*
X-27323Y19863*
X-27282Y19856*
X-27244Y19847*
X-27210Y19835*
X-27178Y19822*
X-27151Y19807*
X-27127Y19792*
X-27106Y19775*
X-27087Y19758*
X-27071Y19740*
X-27057Y19722*
X-27046Y19703*
X-27036Y19681*
X-27026Y19657*
X-27019Y19630*
X-27013Y19601*
X-27008Y19568*
X-27006Y19534*
X-27005Y19495*
X-27005Y19219*
X-27061Y19288D02*
X-27061Y19288D01*
X-27061Y19482*
X-27062Y19525*
X-27065Y19563*
X-27071Y19595*
X-27078Y19623*
X-27087Y19648*
X-27098Y19669*
X-27111Y19689*
X-27125Y19705*
X-27148Y19725*
X-27175Y19743*
X-27206Y19759*
X-27240Y19772*
X-27278Y19782*
X-27320Y19790*
X-27366Y19794*
X-27415Y19796*
X-27483Y19793*
X-27541Y19784*
X-27592Y19769*
X-27635Y19749*
X-27670Y19724*
X-27699Y19697*
X-27721Y19667*
X-27737Y19635*
X-27745Y19607*
X-27751Y19572*
X-27755Y19529*
X-27756Y19479*
X-27756Y19288*
X-27061Y19288*
X-27396Y20099D02*
X-27496Y20107D01*
X-27582Y20127*
X-27655Y20161*
X-27716Y20207*
X-27765Y20264*
X-27800Y20329*
X-27821Y20402*
X-27828Y20485*
X-27825Y20539*
X-27815Y20590*
X-27798Y20639*
X-27775Y20685*
X-27746Y20726*
X-27713Y20762*
X-27673Y20793*
X-27629Y20819*
X-27579Y20840*
X-27526Y20855*
X-27468Y20864*
X-27407Y20867*
X-27345Y20864*
X-27288Y20854*
X-27234Y20839*
X-27183Y20817*
X-27138Y20790*
X-27099Y20758*
X-27066Y20721*
X-27039Y20679*
X-27017Y20633*
X-27002Y20585*
X-26993Y20535*
X-26989Y20483*
X-26993Y20427*
X-27003Y20375*
X-27020Y20326*
X-27044Y20280*
X-27074Y20239*
X-27108Y20203*
X-27147Y20172*
X-27192Y20146*
X-27241Y20126*
X-27292Y20111*
X-27343Y20102*
X-27396Y20099*
X-27395Y20173D02*
X-27395Y20173D01*
X-27317Y20178*
X-27248Y20195*
X-27188Y20222*
X-27136Y20261*
X-27095Y20308*
X-27065Y20361*
X-27047Y20419*
X-27041Y20483*
X-27047Y20548*
X-27065Y20606*
X-27095Y20659*
X-27137Y20706*
X-27190Y20745*
X-27252Y20772*
X-27325Y20788*
X-27408Y20794*
X-27462Y20792*
X-27512Y20785*
X-27559Y20773*
X-27602Y20756*
X-27641Y20735*
X-27675Y20710*
X-27705Y20681*
X-27730Y20647*
X-27750Y20609*
X-27764Y20570*
X-27773Y20528*
X-27776Y20484*
X-27770Y20423*
X-27754Y20366*
X-27726Y20313*
X-27688Y20265*
X-27637Y20224*
X-27571Y20196*
X-27490Y20178*
X-27395Y20173*
X24561Y-20853D02*
X25368Y-20541D01*
X25368Y-20561*
X24742Y-20785*
X24703Y-20799*
X24666Y-20811*
X24631Y-20822*
X24428Y-20880*
X24632Y-20940*
X24668Y-20952*
X24705Y-20964*
X24741Y-20977*
X25368Y-21211*
X25368Y-21224*
X24561Y-20907*
X24561Y-20853*
X24767Y-22090D02*
X24762Y-22110D01*
X24748Y-22105*
X24694Y-22078*
X24649Y-22046*
X24612Y-22007*
X24583Y-21963*
X24562Y-21914*
X24550Y-21859*
X24545Y-21798*
X24549Y-21734*
X24559Y-21678*
X24575Y-21629*
X24597Y-21587*
X24625Y-21550*
X24660Y-21518*
X24700Y-21490*
X24748Y-21466*
X24800Y-21447*
X24855Y-21433*
X24912Y-21425*
X24971Y-21422*
X25035Y-21425*
X25093Y-21434*
X25147Y-21450*
X25196Y-21471*
X25239Y-21497*
X25277Y-21528*
X25309Y-21564*
X25335Y-21605*
X25356Y-21650*
X25371Y-21697*
X25381Y-21747*
X25384Y-21800*
X25380Y-21859*
X25368Y-21911*
X25350Y-21958*
X25324Y-21999*
X25292Y-22036*
X25253Y-22066*
X25208Y-22091*
X25206Y-22092*
X25202Y-22073*
X25209Y-22070*
X25255Y-22045*
X25295Y-22015*
X25327Y-21980*
X25352Y-21940*
X25369Y-21896*
X25379Y-21848*
X25383Y-21798*
X25379Y-21741*
X25368Y-21688*
X25349Y-21638*
X25323Y-21593*
X25291Y-21554*
X25253Y-21522*
X25210Y-21495*
X25164Y-21476*
X25116Y-21462*
X25069Y-21452*
X25021Y-21446*
X24972Y-21444*
X24912Y-21447*
X24855Y-21454*
X24801Y-21465*
X24751Y-21482*
X24704Y-21504*
X24662Y-21533*
X24626Y-21567*
X24597Y-21607*
X24575Y-21650*
X24559Y-21695*
X24550Y-21741*
X24547Y-21789*
X24551Y-21845*
X24564Y-21898*
X24586Y-21948*
X24617Y-21993*
X24656Y-22031*
X24703Y-22063*
X24758Y-22087*
X24767Y-22090*
X24767Y-23007D02*
X24762Y-23027D01*
X24748Y-23022*
X24694Y-22995*
X24649Y-22963*
X24612Y-22924*
X24583Y-22880*
X24562Y-22831*
X24550Y-22776*
X24545Y-22715*
X24549Y-22651*
X24559Y-22595*
X24575Y-22546*
X24597Y-22504*
X24625Y-22467*
X24660Y-22435*
X24700Y-22407*
X24748Y-22383*
X24800Y-22364*
X24855Y-22350*
X24912Y-22342*
X24971Y-22339*
X25035Y-22342*
X25093Y-22352*
X25147Y-22367*
X25196Y-22388*
X25239Y-22414*
X25277Y-22445*
X25309Y-22481*
X25335Y-22522*
X25356Y-22567*
X25371Y-22615*
X25381Y-22665*
X25384Y-22717*
X25380Y-22776*
X25368Y-22828*
X25350Y-22875*
X25324Y-22916*
X25292Y-22953*
X25253Y-22983*
X25208Y-23008*
X25206Y-23009*
X25202Y-22990*
X25209Y-22987*
X25255Y-22962*
X25295Y-22932*
X25327Y-22897*
X25352Y-22857*
X25369Y-22813*
X25379Y-22766*
X25383Y-22715*
X25379Y-22658*
X25368Y-22605*
X25349Y-22555*
X25323Y-22510*
X25291Y-22472*
X25253Y-22439*
X25210Y-22412*
X25164Y-22393*
X25116Y-22379*
X25069Y-22369*
X25021Y-22364*
X24972Y-22362*
X24912Y-22364*
X24855Y-22371*
X24801Y-22382*
X24751Y-22399*
X24704Y-22421*
X24662Y-22450*
X24626Y-22485*
X24597Y-22525*
X24575Y-22568*
X24559Y-22612*
X24550Y-22658*
X24547Y-22706*
X24551Y-22762*
X24564Y-22816*
X24586Y-22865*
X24617Y-22910*
X24656Y-22949*
X24703Y-22980*
X24758Y-23004*
X24767Y-23007*
X19147Y26963D02*
X19147Y27770D01*
X19409Y27770*
X19457Y27770*
X19498Y27767*
X19533Y27763*
X19559Y27759*
X19592Y27749*
X19621Y27737*
X19647Y27722*
X19671Y27704*
X19700Y27676*
X19725Y27645*
X19747Y27609*
X19764Y27570*
X19778Y27526*
X19788Y27478*
X19795Y27427*
X19797Y27371*
X19795Y27324*
X19791Y27281*
X19784Y27240*
X19775Y27202*
X19763Y27168*
X19750Y27136*
X19735Y27109*
X19720Y27085*
X19703Y27064*
X19686Y27045*
X19668Y27029*
X19650Y27015*
X19631Y27004*
X19609Y26994*
X19585Y26984*
X19558Y26977*
X19529Y26971*
X19496Y26966*
X19462Y26964*
X19423Y26963*
X19147Y26963*
X19216Y27019D02*
X19216Y27019D01*
X19410Y27019*
X19453Y27020*
X19491Y27023*
X19523Y27029*
X19551Y27036*
X19576Y27045*
X19597Y27056*
X19617Y27069*
X19633Y27083*
X19653Y27106*
X19671Y27133*
X19687Y27164*
X19700Y27198*
X19710Y27236*
X19718Y27278*
X19722Y27324*
X19724Y27373*
X19721Y27441*
X19712Y27499*
X19697Y27550*
X19677Y27593*
X19652Y27628*
X19625Y27657*
X19595Y27679*
X19563Y27695*
X19535Y27703*
X19500Y27709*
X19457Y27713*
X19407Y27714*
X19216Y27714*
X19216Y27019*
X20027Y27354D02*
X20035Y27454D01*
X20055Y27540*
X20089Y27613*
X20135Y27674*
X20192Y27723*
X20257Y27758*
X20330Y27779*
X20413Y27786*
X20467Y27783*
X20518Y27773*
X20567Y27756*
X20613Y27733*
X20654Y27704*
X20690Y27671*
X20721Y27631*
X20747Y27587*
X20768Y27537*
X20783Y27484*
X20792Y27426*
X20795Y27365*
X20792Y27303*
X20782Y27246*
X20767Y27192*
X20745Y27141*
X20718Y27096*
X20686Y27057*
X20649Y27024*
X20607Y26997*
X20561Y26975*
X20513Y26960*
X20463Y26951*
X20411Y26947*
X20355Y26951*
X20303Y26961*
X20254Y26978*
X20208Y27002*
X20167Y27032*
X20131Y27066*
X20100Y27105*
X20074Y27150*
X20054Y27199*
X20039Y27250*
X20030Y27301*
X20027Y27354*
X20101Y27353D02*
X20101Y27353D01*
X20106Y27275*
X20123Y27206*
X20150Y27146*
X20189Y27094*
X20236Y27053*
X20289Y27023*
X20347Y27005*
X20411Y26999*
X20476Y27005*
X20534Y27023*
X20587Y27053*
X20634Y27095*
X20673Y27148*
X20700Y27210*
X20716Y27283*
X20722Y27366*
X20720Y27420*
X20713Y27470*
X20701Y27517*
X20684Y27560*
X20663Y27599*
X20638Y27633*
X20609Y27663*
X20575Y27688*
X20537Y27708*
X20498Y27722*
X20456Y27731*
X20412Y27734*
X20351Y27728*
X20294Y27712*
X20241Y27684*
X20193Y27646*
X20152Y27595*
X20124Y27529*
X20106Y27448*
X20101Y27353*
X-1387Y-8025D02*
X-2194Y-8025D01*
X-2194Y-7674*
X-2193Y-7619*
X-2189Y-7573*
X-2182Y-7535*
X-2173Y-7507*
X-2162Y-7484*
X-2148Y-7465*
X-2130Y-7447*
X-2107Y-7431*
X-2082Y-7417*
X-2055Y-7408*
X-2027Y-7402*
X-1998Y-7400*
X-1960Y-7404*
X-1926Y-7413*
X-1896Y-7428*
X-1869Y-7449*
X-1846Y-7476*
X-1826Y-7512*
X-1811Y-7558*
X-1771Y-7760*
X-1694Y-7607*
X-1684Y-7590*
X-1675Y-7577*
X-1666Y-7567*
X-1644Y-7544*
X-1618Y-7521*
X-1588Y-7498*
X-1555Y-7475*
X-1387Y-7368*
X-1387Y-7398*
X-1553Y-7504*
X-1592Y-7529*
X-1626Y-7553*
X-1656Y-7574*
X-1682Y-7594*
X-1704Y-7612*
X-1723Y-7630*
X-1740Y-7648*
X-1754Y-7666*
X-1764Y-7684*
X-1772Y-7701*
X-1779Y-7719*
X-1785Y-7738*
X-1788Y-7755*
X-1789Y-7773*
X-1790Y-7793*
X-1790Y-7816*
X-1790Y-8007*
X-1387Y-8007*
X-1387Y-8025*
X-1844Y-7956D02*
X-1844Y-7956D01*
X-1844Y-7697*
X-1845Y-7658*
X-1848Y-7624*
X-1853Y-7594*
X-1861Y-7568*
X-1871Y-7546*
X-1883Y-7527*
X-1898Y-7511*
X-1915Y-7498*
X-1935Y-7487*
X-1955Y-7479*
X-1975Y-7475*
X-1997Y-7473*
X-2028Y-7476*
X-2056Y-7485*
X-2081Y-7500*
X-2103Y-7520*
X-2121Y-7547*
X-2134Y-7581*
X-2142Y-7621*
X-2145Y-7668*
X-2145Y-7956*
X-1844Y-7956*
X-1582Y-7147D02*
X-1583Y-7131D01*
X-1595Y-7133*
X-1560Y-7123*
X-1527Y-7110*
X-1497Y-7093*
X-1470Y-7071*
X-1446Y-7044*
X-1426Y-7014*
X-1409Y-6980*
X-1395Y-6942*
X-1385Y-6903*
X-1379Y-6862*
X-1378Y-6820*
X-1379Y-6782*
X-1383Y-6746*
X-1391Y-6712*
X-1401Y-6680*
X-1415Y-6650*
X-1432Y-6623*
X-1452Y-6599*
X-1475Y-6579*
X-1500Y-6563*
X-1526Y-6552*
X-1554Y-6545*
X-1583Y-6543*
X-1611Y-6545*
X-1639Y-6552*
X-1665Y-6563*
X-1689Y-6579*
X-1711Y-6599*
X-1729Y-6624*
X-1745Y-6652*
X-1759Y-6682*
X-1768Y-6709*
X-1778Y-6746*
X-1791Y-6793*
X-1805Y-6850*
X-1819Y-6907*
X-1833Y-6953*
X-1846Y-6989*
X-1857Y-7015*
X-1873Y-7040*
X-1889Y-7061*
X-1906Y-7079*
X-1924Y-7092*
X-1944Y-7103*
X-1964Y-7110*
X-1986Y-7115*
X-2010Y-7116*
X-2037Y-7114*
X-2062Y-7109*
X-2087Y-7099*
X-2111Y-7086*
X-2133Y-7069*
X-2152Y-7048*
X-2168Y-7024*
X-2183Y-6994*
X-2194Y-6961*
X-2203Y-6925*
X-2208Y-6887*
X-2210Y-6847*
X-2208Y-6802*
X-2202Y-6761*
X-2193Y-6723*
X-2181Y-6689*
X-2166Y-6658*
X-2148Y-6633*
X-2128Y-6611*
X-2104Y-6592*
X-2078Y-6578*
X-2050Y-6567*
X-2019Y-6560*
X-2036Y-6561*
X-2034Y-6579*
X-2034Y-6579*
X-2078Y-6595*
X-2117Y-6619*
X-2150Y-6651*
X-2175Y-6691*
X-2193Y-6736*
X-2202Y-6787*
X-2205Y-6842*
X-2203Y-6899*
X-2194Y-6949*
X-2178Y-6994*
X-2155Y-7032*
X-2126Y-7062*
X-2094Y-7084*
X-2057Y-7098*
X-2019Y-7102*
X-1985Y-7099*
X-1953Y-7089*
X-1924Y-7072*
X-1898Y-7049*
X-1877Y-7015*
X-1858Y-6970*
X-1840Y-6914*
X-1823Y-6846*
X-1807Y-6779*
X-1793Y-6725*
X-1780Y-6683*
X-1768Y-6654*
X-1752Y-6622*
X-1733Y-6596*
X-1714Y-6575*
X-1693Y-6558*
X-1671Y-6546*
X-1647Y-6536*
X-1621Y-6531*
X-1593Y-6529*
X-1564Y-6531*
X-1537Y-6537*
X-1510Y-6548*
X-1484Y-6562*
X-1459Y-6581*
X-1438Y-6603*
X-1419Y-6629*
X-1402Y-6660*
X-1389Y-6695*
X-1379Y-6732*
X-1373Y-6772*
X-1371Y-6814*
X-1373Y-6869*
X-1380Y-6919*
X-1390Y-6963*
X-1403Y-7001*
X-1420Y-7034*
X-1441Y-7063*
X-1465Y-7088*
X-1493Y-7109*
X-1524Y-7127*
X-1557Y-7139*
X-1592Y-7147*
X-1582Y-7147*
X-1387Y-6032D02*
X-2189Y-6032D01*
X-2189Y-6331*
X-2194Y-6331*
X-2194Y-5712*
X-2189Y-5712*
X-2189Y-6013*
X-1387Y-6013*
X-1387Y-6032*
X2671Y-13273D02*
X3478Y-12960D01*
X3478Y-12981*
X2852Y-13205*
X2813Y-13218*
X2776Y-13231*
X2741Y-13242*
X2538Y-13300*
X2742Y-13360*
X2778Y-13372*
X2815Y-13384*
X2851Y-13397*
X3478Y-13630*
X3478Y-13643*
X2671Y-13327*
X2671Y-13273*
X2877Y-14510D02*
X2872Y-14530D01*
X2858Y-14525*
X2804Y-14498*
X2759Y-14466*
X2722Y-14427*
X2693Y-14383*
X2672Y-14334*
X2660Y-14279*
X2655Y-14218*
X2659Y-14154*
X2669Y-14098*
X2685Y-14049*
X2707Y-14007*
X2735Y-13970*
X2770Y-13938*
X2810Y-13910*
X2858Y-13886*
X2910Y-13867*
X2965Y-13853*
X3022Y-13845*
X3081Y-13842*
X3145Y-13845*
X3203Y-13854*
X3257Y-13870*
X3306Y-13891*
X3349Y-13917*
X3387Y-13948*
X3419Y-13983*
X3445Y-14024*
X3466Y-14070*
X3481Y-14117*
X3491Y-14167*
X3494Y-14220*
X3490Y-14279*
X3478Y-14331*
X3460Y-14377*
X3434Y-14419*
X3402Y-14455*
X3363Y-14486*
X3318Y-14511*
X3316Y-14512*
X3312Y-14492*
X3319Y-14489*
X3365Y-14465*
X3405Y-14435*
X3437Y-14400*
X3462Y-14360*
X3479Y-14316*
X3489Y-14268*
X3493Y-14218*
X3489Y-14161*
X3478Y-14107*
X3459Y-14058*
X3433Y-14013*
X3401Y-13974*
X3363Y-13941*
X3320Y-13915*
X3274Y-13896*
X3226Y-13882*
X3179Y-13872*
X3131Y-13866*
X3082Y-13864*
X3022Y-13866*
X2965Y-13873*
X2911Y-13885*
X2861Y-13902*
X2814Y-13924*
X2772Y-13952*
X2736Y-13987*
X2707Y-14027*
X2685Y-14070*
X2669Y-14115*
X2660Y-14161*
X2657Y-14209*
X2661Y-14265*
X2674Y-14318*
X2696Y-14368*
X2727Y-14412*
X2766Y-14451*
X2813Y-14483*
X2868Y-14507*
X2877Y-14510*
X2877Y-15427D02*
X2872Y-15447D01*
X2858Y-15442*
X2804Y-15415*
X2759Y-15383*
X2722Y-15344*
X2693Y-15300*
X2672Y-15251*
X2660Y-15196*
X2655Y-15135*
X2659Y-15071*
X2669Y-15015*
X2685Y-14966*
X2707Y-14924*
X2735Y-14887*
X2770Y-14855*
X2810Y-14827*
X2858Y-14803*
X2910Y-14784*
X2965Y-14770*
X3022Y-14762*
X3081Y-14759*
X3145Y-14762*
X3203Y-14771*
X3257Y-14787*
X3306Y-14808*
X3349Y-14834*
X3387Y-14865*
X3419Y-14901*
X3445Y-14942*
X3466Y-14987*
X3481Y-15034*
X3491Y-15084*
X3494Y-15137*
X3490Y-15196*
X3478Y-15248*
X3460Y-15295*
X3434Y-15336*
X3402Y-15373*
X3363Y-15403*
X3318Y-15428*
X3316Y-15429*
X3312Y-15410*
X3319Y-15407*
X3365Y-15382*
X3405Y-15352*
X3437Y-15317*
X3462Y-15277*
X3479Y-15233*
X3489Y-15185*
X3493Y-15135*
X3489Y-15078*
X3478Y-15024*
X3459Y-14975*
X3433Y-14930*
X3401Y-14891*
X3363Y-14859*
X3320Y-14832*
X3274Y-14813*
X3226Y-14799*
X3179Y-14789*
X3131Y-14783*
X3082Y-14781*
X3022Y-14784*
X2965Y-14791*
X2911Y-14802*
X2861Y-14819*
X2814Y-14841*
X2772Y-14870*
X2736Y-14904*
X2707Y-14944*
X2685Y-14987*
X2669Y-15032*
X2660Y-15078*
X2657Y-15126*
X2661Y-15182*
X2674Y-15235*
X2696Y-15285*
X2727Y-15329*
X2766Y-15368*
X2813Y-15400*
X2868Y-15424*
X2877Y-15427*
X20867Y24285D02*
X20554Y25092D01*
X20574Y25092*
X20798Y24466*
X20812Y24427*
X20824Y24390*
X20835Y24355*
X20893Y24152*
X20953Y24356*
X20965Y24392*
X20977Y24429*
X20990Y24465*
X21224Y25092*
X21237Y25092*
X20921Y24285*
X20867Y24285*
X22103Y24491D02*
X22123Y24486D01*
X22118Y24472*
X22091Y24418*
X22059Y24373*
X22020Y24336*
X21976Y24307*
X21927Y24286*
X21872Y24274*
X21811Y24269*
X21747Y24273*
X21691Y24283*
X21642Y24299*
X21600Y24321*
X21563Y24349*
X21531Y24384*
X21503Y24424*
X21479Y24472*
X21460Y24524*
X21446Y24579*
X21438Y24636*
X21435Y24695*
X21438Y24759*
X21448Y24817*
X21463Y24871*
X21484Y24920*
X21510Y24963*
X21541Y25001*
X21577Y25033*
X21618Y25059*
X21663Y25080*
X21711Y25095*
X21761Y25105*
X21813Y25108*
X21872Y25104*
X21924Y25092*
X21971Y25074*
X22012Y25048*
X22049Y25016*
X22079Y24977*
X22104Y24932*
X22105Y24930*
X22086Y24926*
X22083Y24933*
X22058Y24979*
X22028Y25019*
X21993Y25051*
X21953Y25076*
X21909Y25093*
X21862Y25103*
X21811Y25107*
X21754Y25103*
X21701Y25092*
X21651Y25073*
X21606Y25047*
X21568Y25015*
X21535Y24977*
X21508Y24934*
X21489Y24888*
X21475Y24840*
X21465Y24793*
X21459Y24745*
X21458Y24696*
X21460Y24636*
X21467Y24579*
X21478Y24525*
X21495Y24475*
X21517Y24428*
X21546Y24386*
X21581Y24350*
X21621Y24321*
X21664Y24299*
X21708Y24283*
X21754Y24274*
X21802Y24271*
X21858Y24275*
X21912Y24288*
X21961Y24310*
X22006Y24341*
X22045Y24380*
X22076Y24427*
X22100Y24482*
X22103Y24491*
X23020Y24491D02*
X23040Y24486D01*
X23035Y24472*
X23009Y24418*
X22976Y24373*
X22937Y24336*
X22893Y24307*
X22844Y24286*
X22789Y24274*
X22728Y24269*
X22665Y24273*
X22608Y24283*
X22559Y24299*
X22517Y24321*
X22481Y24349*
X22448Y24384*
X22420Y24424*
X22396Y24472*
X22377Y24524*
X22363Y24579*
X22355Y24636*
X22352Y24695*
X22356Y24759*
X22365Y24817*
X22380Y24871*
X22401Y24920*
X22427Y24963*
X22458Y25001*
X22494Y25033*
X22535Y25059*
X22580Y25080*
X22628Y25095*
X22678Y25105*
X22730Y25108*
X22789Y25104*
X22841Y25092*
X22888Y25074*
X22930Y25048*
X22966Y25016*
X22997Y24977*
X23022Y24932*
X23022Y24930*
X23003Y24926*
X23000Y24933*
X22975Y24979*
X22946Y25019*
X22910Y25051*
X22870Y25076*
X22826Y25093*
X22779Y25103*
X22728Y25107*
X22671Y25103*
X22618Y25092*
X22568Y25073*
X22524Y25047*
X22485Y25015*
X22452Y24977*
X22426Y24934*
X22406Y24888*
X22392Y24840*
X22382Y24793*
X22377Y24745*
X22375Y24696*
X22377Y24636*
X22384Y24579*
X22395Y24525*
X22412Y24475*
X22434Y24428*
X22463Y24386*
X22498Y24350*
X22538Y24321*
X22581Y24299*
X22625Y24283*
X22671Y24274*
X22719Y24271*
X22775Y24275*
X22829Y24288*
X22878Y24310*
X22923Y24341*
X22962Y24380*
X22993Y24427*
X23018Y24482*
X23020Y24491*
X-25847Y-20647D02*
X-25847Y-21454D01*
X-26109Y-21454*
X-26157Y-21454*
X-26198Y-21451*
X-26233Y-21447*
X-26259Y-21443*
X-26292Y-21433*
X-26321Y-21421*
X-26347Y-21406*
X-26371Y-21388*
X-26400Y-21360*
X-26425Y-21329*
X-26447Y-21293*
X-26464Y-21254*
X-26478Y-21210*
X-26488Y-21162*
X-26495Y-21111*
X-26497Y-21055*
X-26495Y-21008*
X-26491Y-20965*
X-26484Y-20924*
X-26475Y-20886*
X-26463Y-20852*
X-26450Y-20820*
X-26435Y-20793*
X-26420Y-20769*
X-26403Y-20748*
X-26386Y-20729*
X-26368Y-20713*
X-26350Y-20699*
X-26331Y-20688*
X-26309Y-20678*
X-26285Y-20668*
X-26258Y-20661*
X-26229Y-20655*
X-26196Y-20650*
X-26162Y-20648*
X-26123Y-20647*
X-25847Y-20647*
X-25916Y-20703D02*
X-25916Y-20703D01*
X-26110Y-20703*
X-26153Y-20704*
X-26191Y-20707*
X-26223Y-20713*
X-26251Y-20720*
X-26276Y-20729*
X-26297Y-20740*
X-26317Y-20753*
X-26333Y-20767*
X-26353Y-20790*
X-26371Y-20817*
X-26387Y-20848*
X-26400Y-20882*
X-26410Y-20920*
X-26418Y-20962*
X-26422Y-21008*
X-26424Y-21057*
X-26421Y-21125*
X-26412Y-21183*
X-26397Y-21234*
X-26377Y-21277*
X-26352Y-21312*
X-26325Y-21341*
X-26295Y-21363*
X-26263Y-21379*
X-26235Y-21387*
X-26200Y-21393*
X-26157Y-21397*
X-26107Y-21398*
X-25916Y-21398*
X-25916Y-20703*
X-26784Y-20647D02*
X-26784Y-21454D01*
X-26803Y-21454*
X-26803Y-20647*
X-26784Y-20647*
X-20919Y-24397D02*
X-20606Y-25204D01*
X-20626Y-25204*
X-20850Y-24578*
X-20864Y-24539*
X-20876Y-24502*
X-20887Y-24467*
X-20945Y-24264*
X-21005Y-24468*
X-21017Y-24504*
X-21029Y-24541*
X-21042Y-24577*
X-21276Y-25204*
X-21289Y-25204*
X-20973Y-24397*
X-20919Y-24397*
X-22155Y-24603D02*
X-22175Y-24598D01*
X-22170Y-24584*
X-22143Y-24530*
X-22111Y-24485*
X-22072Y-24448*
X-22028Y-24419*
X-21979Y-24398*
X-21924Y-24386*
X-21863Y-24381*
X-21799Y-24385*
X-21743Y-24395*
X-21694Y-24411*
X-21652Y-24433*
X-21615Y-24461*
X-21583Y-24496*
X-21555Y-24536*
X-21531Y-24584*
X-21512Y-24636*
X-21498Y-24691*
X-21490Y-24748*
X-21487Y-24807*
X-21490Y-24871*
X-21500Y-24929*
X-21515Y-24983*
X-21536Y-25032*
X-21562Y-25075*
X-21593Y-25113*
X-21629Y-25145*
X-21670Y-25171*
X-21715Y-25192*
X-21763Y-25207*
X-21813Y-25217*
X-21865Y-25220*
X-21924Y-25216*
X-21976Y-25204*
X-22023Y-25186*
X-22064Y-25160*
X-22101Y-25128*
X-22131Y-25089*
X-22156Y-25044*
X-22157Y-25042*
X-22138Y-25038*
X-22135Y-25045*
X-22110Y-25091*
X-22080Y-25131*
X-22045Y-25163*
X-22005Y-25188*
X-21961Y-25205*
X-21914Y-25215*
X-21863Y-25219*
X-21806Y-25215*
X-21753Y-25204*
X-21703Y-25185*
X-21658Y-25159*
X-21620Y-25127*
X-21587Y-25089*
X-21560Y-25046*
X-21541Y-25000*
X-21527Y-24952*
X-21517Y-24905*
X-21511Y-24857*
X-21510Y-24808*
X-21512Y-24748*
X-21519Y-24691*
X-21530Y-24637*
X-21547Y-24587*
X-21569Y-24540*
X-21598Y-24498*
X-21633Y-24462*
X-21673Y-24433*
X-21716Y-24411*
X-21760Y-24395*
X-21806Y-24386*
X-21854Y-24383*
X-21910Y-24387*
X-21964Y-24400*
X-22013Y-24422*
X-22058Y-24453*
X-22097Y-24492*
X-22128Y-24539*
X-22152Y-24594*
X-22155Y-24603*
X-23072Y-24603D02*
X-23092Y-24598D01*
X-23087Y-24584*
X-23061Y-24530*
X-23028Y-24485*
X-22989Y-24448*
X-22945Y-24419*
X-22896Y-24398*
X-22841Y-24386*
X-22780Y-24381*
X-22717Y-24385*
X-22660Y-24395*
X-22611Y-24411*
X-22569Y-24433*
X-22533Y-24461*
X-22500Y-24496*
X-22472Y-24536*
X-22448Y-24584*
X-22429Y-24636*
X-22415Y-24691*
X-22407Y-24748*
X-22404Y-24807*
X-22408Y-24871*
X-22417Y-24929*
X-22432Y-24983*
X-22453Y-25032*
X-22479Y-25075*
X-22510Y-25113*
X-22546Y-25145*
X-22587Y-25171*
X-22632Y-25192*
X-22680Y-25207*
X-22730Y-25217*
X-22782Y-25220*
X-22841Y-25216*
X-22893Y-25204*
X-22940Y-25186*
X-22982Y-25160*
X-23018Y-25128*
X-23049Y-25089*
X-23074Y-25044*
X-23074Y-25042*
X-23055Y-25038*
X-23052Y-25045*
X-23027Y-25091*
X-22998Y-25131*
X-22962Y-25163*
X-22922Y-25188*
X-22878Y-25205*
X-22831Y-25215*
X-22780Y-25219*
X-22723Y-25215*
X-22670Y-25204*
X-22620Y-25185*
X-22576Y-25159*
X-22537Y-25127*
X-22504Y-25089*
X-22478Y-25046*
X-22458Y-25000*
X-22444Y-24952*
X-22434Y-24905*
X-22429Y-24857*
X-22427Y-24808*
X-22429Y-24748*
X-22436Y-24691*
X-22447Y-24637*
X-22464Y-24587*
X-22486Y-24540*
X-22515Y-24498*
X-22550Y-24462*
X-22590Y-24433*
X-22633Y-24411*
X-22677Y-24395*
X-22723Y-24386*
X-22771Y-24383*
X-22827Y-24387*
X-22881Y-24400*
X-22930Y-24422*
X-22975Y-24453*
X-23014Y-24492*
X-23045Y-24539*
X-23070Y-24594*
X-23072Y-24603*
X0303Y-12996D02*
X1111Y-12996D01*
X1111Y-13090*
X0502Y-13294*
X0460Y-13307*
X0424Y-13319*
X0393Y-13329*
X0214Y-13385*
X0396Y-13442*
X0429Y-13453*
X0468Y-13466*
X0513Y-13482*
X1111Y-13688*
X1111Y-13762*
X0303Y-13762*
X0303Y-13748*
X1315Y-13748*
X0303Y-13397*
X0303Y-13361*
X1334Y-13011*
X0303Y-13011*
X0303Y-12996*
X0695Y-14022D02*
X0795Y-14029D01*
X0880Y-14049*
X0953Y-14083*
X1015Y-14129*
X1064Y-14186*
X1099Y-14251*
X1120Y-14324*
X1127Y-14407*
X1124Y-14461*
X1114Y-14513*
X1097Y-14561*
X1074Y-14607*
X1045Y-14648*
X1011Y-14685*
X0972Y-14715*
X0927Y-14741*
X0878Y-14762*
X0824Y-14777*
X0767Y-14786*
X0706Y-14789*
X0644Y-14786*
X0586Y-14776*
X0532Y-14761*
X0482Y-14739*
X0437Y-14712*
X0398Y-14680*
X0365Y-14643*
X0338Y-14601*
X0316Y-14555*
X0301Y-14507*
X0291Y-14457*
X0288Y-14405*
X0292Y-14349*
X0302Y-14297*
X0319Y-14248*
X0343Y-14203*
X0372Y-14161*
X0407Y-14125*
X0446Y-14094*
X0491Y-14068*
X0540Y-14048*
X0590Y-14033*
X0642Y-14024*
X0695Y-14022*
X0694Y-14095D02*
X0694Y-14095D01*
X0616Y-14100*
X0547Y-14117*
X0486Y-14144*
X0435Y-14183*
X0393Y-14230*
X0364Y-14283*
X0346Y-14341*
X0340Y-14405*
X0346Y-14470*
X0364Y-14529*
X0394Y-14581*
X0436Y-14628*
X0488Y-14667*
X0551Y-14694*
X0624Y-14711*
X0707Y-14716*
X0760Y-14714*
X0811Y-14707*
X0857Y-14695*
X0900Y-14679*
X0939Y-14658*
X0974Y-14632*
X1004Y-14603*
X1029Y-14569*
X1049Y-14532*
X1063Y-14492*
X1071Y-14450*
X1074Y-14407*
X1069Y-14345*
X1052Y-14288*
X1025Y-14235*
X0987Y-14187*
X0935Y-14146*
X0869Y-14118*
X0789Y-14100*
X0694Y-14095*
X0499Y-15009D02*
X0500Y-15025D01*
X0511Y-15023*
X0476Y-15033*
X0444Y-15046*
X0414Y-15063*
X0387Y-15085*
X0363Y-15112*
X0343Y-15142*
X0325Y-15176*
X0312Y-15214*
X0302Y-15253*
X0296Y-15294*
X0294Y-15336*
X0296Y-15374*
X0300Y-15409*
X0307Y-15444*
X0318Y-15476*
X0332Y-15506*
X0348Y-15533*
X0368Y-15557*
X0392Y-15577*
X0417Y-15593*
X0443Y-15604*
X0471Y-15611*
X0499Y-15613*
X0528Y-15611*
X0556Y-15604*
X0582Y-15593*
X0606Y-15577*
X0627Y-15557*
X0646Y-15532*
X0662Y-15504*
X0675Y-15474*
X0684Y-15447*
X0695Y-15410*
X0707Y-15363*
X0721Y-15306*
X0736Y-15249*
X0750Y-15203*
X0763Y-15167*
X0774Y-15141*
X0789Y-15116*
X0805Y-15095*
X0823Y-15077*
X0841Y-15064*
X0860Y-15053*
X0881Y-15046*
X0903Y-15041*
X0927Y-15040*
X0953Y-15042*
X0979Y-15047*
X1003Y-15057*
X1027Y-15070*
X1049Y-15087*
X1068Y-15108*
X1085Y-15132*
X1099Y-15162*
X1111Y-15195*
X1120Y-15231*
X1125Y-15269*
X1126Y-15309*
X1125Y-15354*
X1119Y-15395*
X1110Y-15433*
X1098Y-15467*
X1083Y-15498*
X1065Y-15523*
X1044Y-15545*
X1021Y-15563*
X0994Y-15578*
X0966Y-15589*
X0936Y-15596*
X0952Y-15595*
X0951Y-15577*
X0951Y-15577*
X0995Y-15561*
X1034Y-15537*
X1067Y-15505*
X1092Y-15465*
X1109Y-15420*
X1119Y-15369*
X1122Y-15314*
X1119Y-15257*
X1111Y-15207*
X1095Y-15162*
X1072Y-15124*
X1043Y-15094*
X1011Y-15072*
X0974Y-15058*
X0935Y-15054*
X0901Y-15057*
X0870Y-15067*
X0841Y-15084*
X0815Y-15107*
X0793Y-15141*
X0774Y-15186*
X0757Y-15242*
X0740Y-15310*
X0724Y-15377*
X0710Y-15431*
X0696Y-15473*
X0685Y-15502*
X0668Y-15534*
X0650Y-15560*
X0631Y-15581*
X0610Y-15598*
X0588Y-15610*
X0564Y-15620*
X0538Y-15625*
X0510Y-15627*
X0481Y-15625*
X0454Y-15619*
X0427Y-15608*
X0401Y-15594*
X0376Y-15575*
X0355Y-15553*
X0336Y-15527*
X0319Y-15496*
X0306Y-15461*
X0296Y-15424*
X0290Y-15384*
X0288Y-15342*
X0290Y-15287*
X0296Y-15237*
X0306Y-15193*
X0320Y-15155*
X0337Y-15122*
X0357Y-15093*
X0381Y-15068*
X0409Y-15047*
X0440Y-15029*
X0473Y-15017*
X0508Y-15009*
X0499Y-15009*
X0303Y-15913D02*
X1111Y-15913D01*
X1111Y-15932*
X0303Y-15932*
X0303Y-15913*
M02*