%FSLAX33Y33*%
%MOMM*%
%AMRect-W741421-H1391421-RO1.000*
21,1,0.741421,1.391421,0.,0.,180*%
%AMRect-W1800000-H1100000-RO1.750*
21,1,1.8,1.1,0.,0.,45*%
%AMRect-W1971339-H469164-RO1.000*
21,1,1.971339,0.469164,0.,0.,180*%
%AMRR-H469164-W1971339-R234582-RO1.000*
21,1,1.502175,0.469164,0.,0.,180*
21,1,1.971339,0.,0.,0.,180*
1,1,0.469164,0.7510875,-0.*
1,1,0.469164,-0.7510875,-0.*
1,1,0.469164,-0.7510875,0.*
1,1,0.469164,0.7510875,0.*%
%AMRect-W741421-H1391421-RO0.500*
21,1,0.741421,1.391421,0.,0.,270*%
%AMRect-W700000-H600000-RO1.500*
21,1,0.7,0.6,0.,0.,90*%
%AMRect-W2700000-H1250000-RO0.500*
21,1,2.7,1.25,0.,0.,270*%
%AMRect-W1905000-H1270000-RO1.250*
21,1,1.905,1.27,0.,0.,135*%
%AMRect-W1905000-H1270000-RO0.500*
21,1,1.905,1.27,0.,0.,270*%
%AMRect-W1772134-H640734-RO0.500*
21,1,1.772134,0.640734,0.,0.,270*%
%AMRR-H640734-W1772134-R320367-RO0.500*
21,1,1.1314,0.640734,0.,0.,270*
21,1,1.772134,0.,0.,0.,270*
1,1,0.640734,0.,0.5657*
1,1,0.640734,0.,-0.5657*
1,1,0.640734,-0.,-0.5657*
1,1,0.640734,-0.,0.5657*%
%AMRect-W741421-H1391421-RO0.250*
21,1,0.741421,1.391421,0.,0.,315*%
%AMRect-W1905000-H1270000-RO0.250*
21,1,1.905,1.27,0.,0.,315*%
%AMRect-W741421-H1391421-RO1.750*
21,1,0.741421,1.391421,0.,0.,45*%
%AMRect-W1905000-H1270000-RO1.500*
21,1,1.905,1.27,0.,0.,90*%
%AMRect-W561421-H1171421-RO1.000*
21,1,0.561421,1.171421,0.,0.,180*%
%AMRect-W1171421-H561421-RO1.000*
21,1,1.171421,0.561421,0.,0.,180*%
%AMRect-W741421-H1391421-RO1.500*
21,1,0.741421,1.391421,0.,0.,90*%
%AMRect-W2100000-H1500000-RO1.750*
21,1,2.1,1.5,0.,0.,45*%
%AMRect-W1900000-H2375000-RO1.750*
21,1,1.9,2.375,0.,0.,45*%
%AMRect-W1900000-H1175000-RO1.750*
21,1,1.9,1.175,0.,0.,45*%
%AMRect-W1380000-H450000-RO1.750*
21,1,1.38,0.45,0.,0.,45*%
%AMRect-W1905000-H1270000-RO1.750*
21,1,1.905,1.27,0.,0.,45*%
%AMRR-H656155-W1818240-R328077-RO0.000*
21,1,1.162086,0.656155,0.,0.,360*
21,1,1.81824,0.000001,0.,0.,360*
1,1,0.656154,-0.581043,0.0000005*
1,1,0.656154,0.581043,0.0000005*
1,1,0.656154,0.581043,-0.0000005*
1,1,0.656154,-0.581043,-0.0000005*%
%AMRect-W1905000-H1270000-RO0.750*
21,1,1.905,1.27,0.,0.,225*%
%AMRR-H285472-W1077620-R142736-RO0.000*
21,1,0.792148,0.285472,0.,0.,360*
21,1,1.07762,0.,0.,0.,360*
1,1,0.285472,-0.396074,0.*
1,1,0.285472,0.396074,0.*
1,1,0.285472,0.396074,-0.*
1,1,0.285472,-0.396074,0.*%
%AMRect-W1800000-H1100000-RO0.250*
21,1,1.8,1.1,0.,0.,315*%
%AMRR-H606155-W2017345-R303077-RO0.000*
21,1,1.411191,0.606155,0.,0.,360*
21,1,2.017345,0.000001,0.,0.,360*
1,1,0.606154,-0.7055955,0.0000005*
1,1,0.606154,0.7055955,0.0000005*
1,1,0.606154,0.7055955,-0.0000005*
1,1,0.606154,-0.7055955,-0.0000005*%
%AMRR-H2017345-W606155-R303077-RO0.000*
21,1,0.000001,2.017345,0.,0.,360*
21,1,0.606155,1.411191,0.,0.,360*
1,1,0.606154,-0.0000005,0.7055955*
1,1,0.606154,0.0000005,0.7055955*
1,1,0.606154,0.0000005,-0.7055955*
1,1,0.606154,-0.0000005,-0.7055955*%
%AMRect-W1905000-H1270000-RO1.000*
21,1,1.905,1.27,0.,0.,180*%
%ADD10C,1.0668*%
%ADD11Rect-W741421-H1391421-RO1.000*%
%ADD12Rect-W1800000-H1100000-RO1.750*%
%ADD13Rect-W1971339-H469164-RO1.000*%
%ADD14RR-H469164-W1971339-R234582-RO1.000*%
%ADD15R,0.741421X1.391421*%
%ADD16Rect-W741421-H1391421-RO0.500*%
%ADD17Rect-W700000-H600000-RO1.500*%
%ADD18Rect-W2700000-H1250000-RO0.500*%
%ADD19Rect-W1905000-H1270000-RO1.250*%
%ADD20Rect-W1905000-H1270000-RO0.500*%
%ADD21Rect-W1772134-H640734-RO0.500*%
%ADD22RR-H640734-W1772134-R320367-RO0.500*%
%ADD23Rect-W741421-H1391421-RO0.250*%
%ADD24C,1.4224*%
%ADD25C,1.25*%
%ADD26Rect-W1905000-H1270000-RO0.250*%
%ADD27Rect-W741421-H1391421-RO1.750*%
%ADD28Rect-W1905000-H1270000-RO1.500*%
%ADD29R,1.905X1.27*%
%ADD30Rect-W561421-H1171421-RO1.000*%
%ADD31Rect-W1171421-H561421-RO1.000*%
%ADD32Rect-W741421-H1391421-RO1.500*%
%ADD33Rect-W2100000-H1500000-RO1.750*%
%ADD34Rect-W1900000-H2375000-RO1.750*%
%ADD35Rect-W1900000-H1175000-RO1.750*%
%ADD36Rect-W1380000-H450000-RO1.750*%
%ADD37Rect-W1905000-H1270000-RO1.750*%
%ADD38R,1.81824X0.656155*%
%ADD39RR-H656155-W1818240-R328077-RO0.000*%
%ADD40Rect-W1905000-H1270000-RO0.750*%
%ADD41R,1.07762X0.285472*%
%ADD42R,1.75X2.5*%
%ADD43RR-H285472-W1077620-R142736-RO0.000*%
%ADD44C,1.65*%
%ADD45Rect-W1800000-H1100000-RO0.250*%
%ADD46R,2.017345X0.606155*%
%ADD47RR-H606155-W2017345-R303077-RO0.000*%
%ADD48RR-H2017345-W606155-R303077-RO0.000*%
%ADD49Rect-W1905000-H1270000-RO1.000*%
D10*
%LNtop solder mask_traces*%
G01*
X6350Y3060D03*
X24752Y-0399D03*
X5954Y12712D03*
X0664Y-7388D03*
X8079Y-0063D03*
X4070Y0454D03*
X9144Y-24384D03*
X-24384Y-13208D03*
X-0768Y1470D03*
X-8348Y13556D03*
X8128Y-8404D03*
X23876Y-23876D03*
X-23901Y23901D03*
X8079Y-2308D03*
X23876Y-1505D03*
X-25908Y1270D03*
X28702Y-21082D03*
X2540Y-22138D03*
X12074Y4677D03*
X0762Y-3302D03*
X-21107Y-28473D03*
X4248Y-1324D03*
X-21107Y-26187D03*
X14478Y9902D03*
X25146Y25146D03*
X22606Y1887D03*
X-26187Y21107D03*
X21196Y-4086D03*
X11138Y1237D03*
X-24130Y-24130D03*
X25146Y-25146D03*
X5842Y-10690D03*
X6350Y-19304D03*
X-22916Y-10438D03*
X-20552Y14948D03*
X0Y-19050D03*
X-28727Y21107D03*
X3556Y17134D03*
X23876Y23876D03*
X8382Y-14478D03*
X26162Y-21082D03*
X14224Y-13970D03*
X14190Y-6574D03*
X22606Y0333D03*
X14986Y0486D03*
X1086Y0232D03*
X14732Y-20320D03*
X4572Y21590D03*
X0Y-14194D03*
X-10228Y13556D03*
X-18796Y-13208D03*
X-2398Y-5214D03*
X11006Y-7549D03*
X21082Y28702D03*
X-17131Y12900D03*
X5080Y-22098D03*
X-24892Y-3810D03*
X-0768Y-1140D03*
X9652Y-8404D03*
X21082Y26162D03*
X21196Y2010D03*
X10905Y2524D03*
X7620Y21590D03*
X-2398Y3138D03*
X-2540Y-27686D03*
X20434Y-9114D03*
X-5588Y17134D03*
X-10228Y19520D03*
X-25146Y-25146D03*
X14986Y-1038D03*
X-25171Y25171D03*
X5702Y-24384D03*
X5954Y18662D03*
X8079Y3138D03*
X8955Y9902D03*
X-20310Y-13208D03*
X-17582Y-10438D03*
X-3556Y-14224D03*
X2286Y-3302D03*
X1270Y26050D03*
X-11176Y-5356D03*
X7592Y-10690D03*
X9605Y3138D03*
%LNtop solder mask component beb80eaad782ebe9*%
D11*
X-9178Y15456D03*
X-11278Y15456D03*
%LNtop solder mask component f220e2559b024aca*%
D12*
X15255Y-17155D03*
X10871Y-21539D03*
X12639Y-14539D03*
X8255Y-18923D03*
%LNtop solder mask component 716399b5ec3ff10e*%
D13*
X18927Y-3963D03*
D14*
X18927Y-3313D03*
X18927Y-2663D03*
X18927Y-2013D03*
X18927Y-1363D03*
X18927Y-0713D03*
X18927Y-0063D03*
X18927Y0587D03*
X18927Y1237D03*
X18927Y1887D03*
X13174Y1887D03*
X13174Y1237D03*
X13174Y0587D03*
X13174Y-0063D03*
X13174Y-0713D03*
X13174Y-1363D03*
X13174Y-2013D03*
X13174Y-2663D03*
X13174Y-3313D03*
X13174Y-3963D03*
%LNtop solder mask component c42ff391cce3d33d*%
D15*
X-14580Y4348D03*
X-12480Y4348D03*
%LNtop solder mask component 05a1bf65de73c0c1*%
D16*
X-22916Y-6760D03*
X-22916Y-8860D03*
%LNtop solder mask component 4296f28cb9e6f1b4*%
D17*
X12074Y5802D03*
X10974Y5802D03*
X10974Y7217D03*
X10974Y8487D03*
X10974Y9902D03*
X12074Y9902D03*
X13174Y9902D03*
X13174Y8487D03*
X13174Y7217D03*
X13174Y5802D03*
%LNtop solder mask component aa8b2c3a0102c054*%
D15*
X-10448Y6566D03*
X-8348Y6566D03*
%LNtop solder mask component 06c0945df6a01aad*%
D18*
X-18610Y12154D03*
X-21060Y12154D03*
%LNtop solder mask component 9cbfcdd4f20fc654*%
D19*
X-22223Y27611D03*
X-24019Y25815D03*
X-25815Y24019D03*
X-27611Y22223D03*
%LNtop solder mask component 781711039570e6ff*%
D15*
X-15630Y15456D03*
X-13530Y15456D03*
%LNtop solder mask component dd12a5884f70bee7*%
D16*
X-3334Y13762D03*
X-3334Y11662D03*
%LNtop solder mask component 4b4bc9244a92f48f*%
X-0794Y13762D03*
X-0794Y11662D03*
%LNtop solder mask component 15618ea7413358b2*%
D20*
X-3810Y-28194D03*
X-1270Y-28194D03*
X1270Y-28194D03*
X3810Y-28194D03*
%LNtop solder mask component 260b264faae608ce*%
D16*
X1746Y8902D03*
X1746Y6802D03*
%LNtop solder mask component f68f485a6a4fb12e*%
D21*
X-18410Y-0814D03*
D22*
X-19360Y-0814D03*
X-20310Y-0814D03*
X-20310Y-3166D03*
X-18410Y-3166D03*
%LNtop solder mask component 3bd052a5f03b9332*%
D23*
X-9432Y-14004D03*
X-7947Y-15489D03*
%LNtop solder mask component db8f1da01d8f6e47*%
D24*
X-7112Y-8118D03*
X-7112Y-3038D03*
%LNtop solder mask component 26f6fa9b4e3697ca*%
D25*
X-19360Y6348D03*
X-19360Y4348D03*
%LNtop solder mask component 2987aaf8abc72a42*%
D26*
X22223Y-27611D03*
X24019Y-25815D03*
X25815Y-24019D03*
X27611Y-22223D03*
%LNtop solder mask component 590d8cae9c605ff0*%
D16*
X-0794Y8902D03*
X-0794Y6802D03*
%LNtop solder mask component e3f61c0a2c128970*%
X-11176Y-8118D03*
X-11176Y-10218D03*
%LNtop solder mask component 79ca14763ce3abd8*%
D27*
X12036Y-22626D03*
X13521Y-21141D03*
%LNtop solder mask component 9a7d5eb6b9bd6e32*%
D16*
X-20310Y-6760D03*
X-20310Y-8860D03*
%LNtop solder mask component 6f361a60cfde0d04*%
D28*
X3810Y28194D03*
X1270Y28194D03*
X-1270Y28194D03*
X-3810Y28194D03*
%LNtop solder mask component f4fabeeb908bd5ba*%
D29*
X28194Y-3810D03*
X28194Y-1270D03*
X28194Y1270D03*
X28194Y3810D03*
%LNtop solder mask component 6db7bdd78ee681d9*%
D30*
X0Y-24723D03*
D31*
X-1185Y-21338D03*
X1185Y-22938D03*
X1185Y-20538D03*
X1185Y-24538D03*
X-1185Y-23738D03*
X-1185Y-22938D03*
X-1185Y-24538D03*
X1185Y-22138D03*
X-1185Y-22138D03*
X1185Y-21338D03*
X-1185Y-20538D03*
X1185Y-23738D03*
D30*
X0Y-20353D03*
%LNtop solder mask component e235e8971882a55e*%
D15*
X17238Y5566D03*
X19338Y5566D03*
%LNtop solder mask component 68a7e395ece5492c*%
D16*
X4286Y8902D03*
X4286Y6802D03*
%LNtop solder mask component e7051b2b2805eb37*%
D32*
X1746Y16084D03*
X1746Y18184D03*
%LNtop solder mask component ec5ab950653071ca*%
D15*
X-11278Y17488D03*
X-9178Y17488D03*
%LNtop solder mask component 0e867a3c19666a82*%
X-14580Y2062D03*
X-12480Y2062D03*
%LNtop solder mask component 162f7d07dea3da75*%
X15748Y7846D03*
X17848Y7846D03*
%LNtop solder mask component 07ba0c5d4a7a4e02*%
X8942Y12170D03*
X11042Y12170D03*
%LNtop solder mask component 14f1055c4d1089ed*%
D33*
X-17425Y-20943D03*
D34*
X-18724Y-22914D03*
D35*
X-20218Y-21420D03*
D33*
X-20952Y-17452D03*
D35*
X-21385Y-20236D03*
D36*
X-18944Y-18944D03*
X-19863Y-18024D03*
X-18484Y-19403D03*
X-19403Y-18484D03*
X-18024Y-19863D03*
D34*
X-22887Y-18769D03*
%LNtop solder mask component cc9f9b79252b0a74*%
D16*
X4286Y13762D03*
X4286Y11662D03*
%LNtop solder mask component 63ff0f5540c8ca29*%
D37*
X27611Y22223D03*
X25815Y24019D03*
X24019Y25815D03*
X22223Y27611D03*
%LNtop solder mask component e236cd287ee15b86*%
D15*
X-14580Y6566D03*
X-12480Y6566D03*
%LNtop solder mask component 96f420afb51e076d*%
D16*
X-7366Y11696D03*
X-7366Y9596D03*
%LNtop solder mask component 4bf2e97556516e23*%
D38*
X-3334Y18084D03*
D39*
X-3334Y17134D03*
X-3334Y16184D03*
X-1028Y16184D03*
X-1028Y18084D03*
%LNtop solder mask component ba02c652f2eddfd1*%
D40*
X-27611Y-22223D03*
X-25815Y-24019D03*
X-24019Y-25815D03*
X-22223Y-27611D03*
%LNtop solder mask component 980529a8efc2a642*%
D41*
X-14982Y13154D03*
D42*
X-13530Y12154D03*
D43*
X-14982Y12654D03*
X-14982Y12154D03*
X-14982Y11654D03*
X-14982Y11154D03*
X-12078Y11154D03*
X-12078Y11654D03*
X-12078Y12154D03*
X-12078Y12654D03*
X-12078Y13154D03*
%LNtop solder mask component e2bc7beb142f3684*%
D15*
X-15630Y17488D03*
X-13530Y17488D03*
%LNtop solder mask component e41167a18c6b7d24*%
D32*
X-15008Y-8860D03*
X-15008Y-6760D03*
%LNtop solder mask component 613bc691a411fb2b*%
D11*
X19270Y10392D03*
X17170Y10392D03*
%LNtop solder mask component ab0f4d277d178ad3*%
D44*
X3204Y-9420D03*
X0664Y-9420D03*
X-1876Y-9420D03*
X3204Y-11960D03*
X0664Y-11960D03*
X-1876Y-11960D03*
%LNtop solder mask component 7d1b4828299bd936*%
D45*
X-10871Y-21539D03*
X-15255Y-17155D03*
X-8255Y-18923D03*
X-12639Y-14539D03*
%LNtop solder mask component 108beaf41594700f*%
D46*
X-2398Y1762D03*
D47*
X-2398Y-3038D03*
D48*
X3778Y-5214D03*
X2178Y3138D03*
X2978Y-5214D03*
D47*
X5954Y-0638D03*
D48*
X2978Y3138D03*
D47*
X5954Y0162D03*
X5954Y-3038D03*
D48*
X3778Y3138D03*
D47*
X5954Y0962D03*
X-2398Y-0638D03*
X-2398Y0962D03*
D48*
X-0222Y-5214D03*
D47*
X5954Y-2238D03*
D48*
X0578Y3138D03*
D47*
X5954Y-1438D03*
D48*
X1378Y-5214D03*
X4578Y3138D03*
X-1022Y3138D03*
D47*
X-2398Y-2238D03*
D48*
X1378Y3138D03*
D47*
X-2398Y0162D03*
X-2398Y-1438D03*
D48*
X4578Y-5214D03*
X2178Y-5214D03*
X-1022Y-5214D03*
X-0222Y3138D03*
D47*
X5954Y1762D03*
X-2398Y-3838D03*
X5954Y-3838D03*
D48*
X0578Y-5214D03*
%LNtop solder mask component c7f2a2bcece131e5*%
D16*
X-17582Y-6760D03*
X-17582Y-8860D03*
%LNtop solder mask component 8132c3c0ac6c43ff*%
D32*
X-11176Y-3038D03*
X-11176Y-0938D03*
%LNtop solder mask component cd9a568377799ef8*%
D15*
X-14580Y8818D03*
X-12480Y8818D03*
%LNtop solder mask component ea07bc83115d531b*%
D16*
X1746Y13762D03*
X1746Y11662D03*
%LNtop solder mask component e6062f75892d83a3*%
D49*
X-28194Y3810D03*
X-28194Y1270D03*
X-28194Y-1270D03*
X-28194Y-3810D03*
%LNtop solder mask component ff1dc2f0dbcf46e9*%
D16*
X-18610Y17724D03*
X-18610Y15624D03*
%LNtop solder mask component 0c1a80d3f34f5b53*%
X-3334Y8902D03*
X-3334Y6802D03*
M02*