%FSLAX33Y33*%
%MOMM*%
%ADD10C,0.635*%
%ADD11C,0.762*%
%ADD12C,1.1*%
%ADD13C,0.7*%
%ADD14C,1.1*%
D10*
%LNhole_traces*%
G01*
X6350Y3060D03*
X24752Y-0399D03*
X5954Y12712D03*
X0664Y-7388D03*
X8079Y-0063D03*
X4070Y0454D03*
X9144Y-24384D03*
X-24384Y-13208D03*
X-0768Y1470D03*
X-8348Y13556D03*
X8128Y-8404D03*
X23876Y-23876D03*
X-23901Y23901D03*
X8079Y-2308D03*
X23876Y-1505D03*
X-25908Y1270D03*
X28702Y-21082D03*
X2540Y-22138D03*
X12074Y4677D03*
X0762Y-3302D03*
X-21107Y-28473D03*
X4248Y-1324D03*
X-21107Y-26187D03*
X14478Y9902D03*
X25146Y25146D03*
X22606Y1887D03*
X-26187Y21107D03*
X21196Y-4086D03*
X11138Y1237D03*
X-24130Y-24130D03*
X25146Y-25146D03*
X5842Y-10690D03*
X6350Y-19304D03*
X-22916Y-10438D03*
X-20552Y14948D03*
X0Y-19050D03*
X-28727Y21107D03*
X3556Y17134D03*
X23876Y23876D03*
X8382Y-14478D03*
X26162Y-21082D03*
X14224Y-13970D03*
X14190Y-6574D03*
X22606Y0333D03*
X14986Y0486D03*
X1086Y0232D03*
X14732Y-20320D03*
X4572Y21590D03*
X0Y-14194D03*
X-10228Y13556D03*
X-18796Y-13208D03*
X-2398Y-5214D03*
X11006Y-7549D03*
X21082Y28702D03*
X-17131Y12900D03*
X5080Y-22098D03*
X-24892Y-3810D03*
X-0768Y-1140D03*
X9652Y-8404D03*
X21082Y26162D03*
X21196Y2010D03*
X10905Y2524D03*
X7620Y21590D03*
X-2398Y3138D03*
X-2540Y-27686D03*
X20434Y-9114D03*
X-5588Y17134D03*
X-10228Y19520D03*
X-25146Y-25146D03*
X14986Y-1038D03*
X-25171Y25171D03*
X5702Y-24384D03*
X5954Y18662D03*
X8079Y3138D03*
X8955Y9902D03*
X-20310Y-13208D03*
X-17582Y-10438D03*
X-3556Y-14224D03*
X2286Y-3302D03*
X1270Y26050D03*
X-11176Y-5356D03*
X7592Y-10690D03*
X9605Y3138D03*
%LNhole component db8f1da01d8f6e47*%
D11*
X-7112Y-8118D03*
X-7112Y-3038D03*
%LNhole component 26f6fa9b4e3697ca*%
D12*
X-21060Y7848D03*
D13*
X-19360Y6348D03*
X-19360Y4348D03*
%LNhole component ab0f4d277d178ad3*%
D14*
X3204Y-9420D03*
X0664Y-9420D03*
X-1876Y-9420D03*
X3204Y-11960D03*
X0664Y-11960D03*
X-1876Y-11960D03*
M02*