%FSLAX33Y33*%
%MOMM*%
%AMRect-W2311400-H1676400-RO1.750*
21,1,2.3114,1.6764,0.,0.,45*%
%AMRect-W2311400-H1676400-RO1.500*
21,1,2.3114,1.6764,0.,0.,90*%
%AMRect-W2311400-H1676400-RO1.250*
21,1,2.3114,1.6764,0.,0.,135*%
%AMRect-W1147821-H1797821-RO0.500*
21,1,1.147821,1.797821,0.,0.,270*%
%AMRect-W1147821-H1797821-RO1.500*
21,1,1.147821,1.797821,0.,0.,90*%
%AMRR-H1062555-W2224640-R328077-RO0.000*
21,1,1.568486,1.062555,0.,0.,360*
21,1,2.22464,0.406401,0.,0.,360*
1,1,0.656154,-0.784243,0.2032005*
1,1,0.656154,0.784243,0.2032005*
1,1,0.656154,0.784243,-0.2032005*
1,1,0.656154,-0.784243,-0.2032005*%
%AMRR-H691872-W1484020-R142736-RO0.000*
21,1,1.198548,0.691872,0.,0.,360*
21,1,1.48402,0.4064,0.,0.,360*
1,1,0.285472,-0.599274,0.2032*
1,1,0.285472,0.599274,0.2032*
1,1,0.285472,0.599274,-0.2032*
1,1,0.285472,-0.599274,-0.2032*%
%AMRect-W1147821-H1797821-RO1.000*
21,1,1.147821,1.797821,0.,0.,180*%
%AMRect-W3106400-H1656400-RO0.500*
21,1,3.1064,1.6564,0.,0.,270*%
%AMRect-W1106400-H1006400-RO1.500*
21,1,1.1064,1.0064,0.,0.,90*%
%AMRR-H875564-W2377739-R234582-RO1.000*
21,1,1.908575,0.875564,0.,0.,180*
21,1,2.377739,0.4064,0.,0.,180*
1,1,0.469164,0.9542875,-0.2032*
1,1,0.469164,-0.9542875,-0.2032*
1,1,0.469164,-0.9542875,0.2032*
1,1,0.469164,0.9542875,0.2032*%
%AMRR-H2423745-W1012555-R303077-RO0.000*
21,1,0.406401,2.423745,0.,0.,360*
21,1,1.012555,1.817591,0.,0.,360*
1,1,0.606154,-0.2032005,0.9087955*
1,1,0.606154,0.2032005,0.9087955*
1,1,0.606154,0.2032005,-0.9087955*
1,1,0.606154,-0.2032005,-0.9087955*%
%AMRR-H1012555-W2423745-R303077-RO0.000*
21,1,1.817591,1.012555,0.,0.,360*
21,1,2.423745,0.406401,0.,0.,360*
1,1,0.606154,-0.9087955,0.2032005*
1,1,0.606154,0.9087955,0.2032005*
1,1,0.606154,0.9087955,-0.2032005*
1,1,0.606154,-0.9087955,-0.2032005*%
%AMRect-W2178534-H1047134-RO0.500*
21,1,2.178534,1.047134,0.,0.,270*%
%AMRR-H1047134-W2178534-R320367-RO0.500*
21,1,1.5378,1.047134,0.,0.,270*
21,1,2.178534,0.4064,0.,0.,270*
1,1,0.640734,0.2032,0.7689*
1,1,0.640734,0.2032,-0.7689*
1,1,0.640734,-0.2032,-0.7689*
1,1,0.640734,-0.2032,0.7689*%
%AMRect-W2311400-H1676400-RO1.000*
21,1,2.3114,1.6764,0.,0.,180*%
%AMRect-W2377739-H875564-RO1.000*
21,1,2.377739,0.875564,0.,0.,180*%
%AMRect-W2311400-H1676400-RO0.250*
21,1,2.3114,1.6764,0.,0.,315*%
%AMRect-W1147821-H1797821-RO1.750*
21,1,1.147821,1.797821,0.,0.,45*%
%AMRect-W2206400-H1506400-RO1.750*
21,1,2.2064,1.5064,0.,0.,45*%
%AMRect-W1577821-H967821-RO1.000*
21,1,1.577821,0.967821,0.,0.,180*%
%AMRect-W967821-H1577821-RO1.000*
21,1,0.967821,1.577821,0.,0.,180*%
%AMRect-W1147821-H1797821-RO0.250*
21,1,1.147821,1.797821,0.,0.,315*%
%AMRect-W2206400-H1506400-RO0.250*
21,1,2.2064,1.5064,0.,0.,315*%
%AMRect-W406401-H406401-RO1.750*
21,1,0.406401,0.406401,0.,0.,45*%
%AMRect-W2306400-H2781400-RO1.750*
21,1,2.3064,2.7814,0.,0.,45*%
%AMRect-W2306400-H1581400-RO1.750*
21,1,2.3064,1.5814,0.,0.,45*%
%AMRect-W2506400-H1906400-RO1.750*
21,1,2.5064,1.9064,0.,0.,45*%
%AMRect-W1786400-H856400-RO1.750*
21,1,1.7864,0.8564,0.,0.,45*%
%AMRect-W2311400-H1676400-RO0.750*
21,1,2.3114,1.6764,0.,0.,225*%
%AMRect-W2311400-H1676400-RO0.500*
21,1,2.3114,1.6764,0.,0.,270*%
%AMRect-W203200-H939800-RO1.500*
21,1,0.2032,0.9398,0.,0.,90*%
%AMRect-W1257300-H203200-RO1.500*
21,1,1.2573,0.2032,0.,0.,90*%
%AMRect-W203200-H939800-RO1.250*
21,1,0.2032,0.9398,0.,0.,135*%
%AMRect-W1257300-H203200-RO1.250*
21,1,1.2573,0.2032,0.,0.,135*%
%AMRect-W203200-H939800-RO1.750*
21,1,0.2032,0.9398,0.,0.,45*%
%AMRect-W1257300-H203200-RO1.750*
21,1,1.2573,0.2032,0.,0.,45*%
%AMRect-W203200-H1000510-RO1.500*
21,1,0.2032,1.00051,0.,0.,90*%
%AMRect-W675510-H203200-RO1.500*
21,1,0.67551,0.2032,0.,0.,90*%
%AMRect-W203200-H1000510-RO0.500*
21,1,0.2032,1.00051,0.,0.,270*%
%AMRect-W675510-H203200-RO0.500*
21,1,0.67551,0.2032,0.,0.,270*%
%AMRect-W203200-H604800-RO1.500*
21,1,0.2032,0.6048,0.,0.,90*%
%AMRect-W654800-H203200-RO1.500*
21,1,0.6548,0.2032,0.,0.,90*%
%AMRect-W203200-H1000510-RO1.000*
21,1,0.2032,1.00051,0.,0.,180*%
%AMRect-W675510-H203200-RO1.000*
21,1,0.67551,0.2032,0.,0.,180*%
%AMRect-W203200-H539382-RO1.000*
21,1,0.2032,0.539382,0.,0.,180*%
%AMRect-W1290469-H203200-RO1.000*
21,1,1.290469,0.2032,0.,0.,180*%
%AMRect-W203200-H929800-RO1.500*
21,1,0.2032,0.9298,0.,0.,90*%
%AMRect-W929800-H203200-RO1.500*
21,1,0.9298,0.2032,0.,0.,90*%
%AMRect-W1190867-H203200-RO0.500*
21,1,1.190867,0.2032,0.,0.,270*%
%AMRect-W203200-H939800-RO1.000*
21,1,0.2032,0.9398,0.,0.,180*%
%AMRect-W1257300-H203200-RO1.000*
21,1,1.2573,0.2032,0.,0.,180*%
%AMRect-W400000-H1129800-RO0.500*
21,1,0.4,1.1298,0.,0.,270*%
%AMRect-W1129800-H400000-RO0.500*
21,1,1.1298,0.4,0.,0.,270*%
%AMRect-W203200-H939800-RO0.250*
21,1,0.2032,0.9398,0.,0.,315*%
%AMRect-W1257300-H203200-RO0.250*
21,1,1.2573,0.2032,0.,0.,315*%
%AMRect-W203200-H854800-RO1.750*
21,1,0.2032,0.8548,0.,0.,45*%
%AMRect-W1204800-H203200-RO1.750*
21,1,1.2048,0.2032,0.,0.,45*%
%AMRect-W890510-H203200-RO1.000*
21,1,0.89051,0.2032,0.,0.,180*%
%AMRect-W203200-H854800-RO0.250*
21,1,0.2032,0.8548,0.,0.,315*%
%AMRect-W1204800-H203200-RO0.250*
21,1,1.2048,0.2032,0.,0.,315*%
%AMRect-W994800-H203200-RO1.750*
21,1,0.9948,0.2032,0.,0.,45*%
%AMRect-W203200-H939800-RO0.750*
21,1,0.2032,0.9398,0.,0.,225*%
%AMRect-W1257300-H203200-RO0.750*
21,1,1.2573,0.2032,0.,0.,225*%
%AMRect-W203200-H939800-RO0.500*
21,1,0.2032,0.9398,0.,0.,270*%
%AMRect-W1257300-H203200-RO0.500*
21,1,1.2573,0.2032,0.,0.,270*%
%AMRect-W741421-H1391421-RO1.000*
21,1,0.741421,1.391421,0.,0.,180*%
%AMRect-W1800000-H1100000-RO1.750*
21,1,1.8,1.1,0.,0.,45*%
%AMRect-W1971339-H469164-RO1.000*
21,1,1.971339,0.469164,0.,0.,180*%
%AMRR-H469164-W1971339-R234582-RO1.000*
21,1,1.502175,0.469164,0.,0.,180*
21,1,1.971339,0.,0.,0.,180*
1,1,0.469164,0.7510875,-0.*
1,1,0.469164,-0.7510875,-0.*
1,1,0.469164,-0.7510875,0.*
1,1,0.469164,0.7510875,0.*%
%AMRect-W741421-H1391421-RO0.500*
21,1,0.741421,1.391421,0.,0.,270*%
%AMRect-W700000-H600000-RO1.500*
21,1,0.7,0.6,0.,0.,90*%
%AMRect-W2700000-H1250000-RO0.500*
21,1,2.7,1.25,0.,0.,270*%
%AMRect-W1905000-H1270000-RO1.250*
21,1,1.905,1.27,0.,0.,135*%
%AMRect-W1905000-H1270000-RO0.500*
21,1,1.905,1.27,0.,0.,270*%
%AMRect-W1772134-H640734-RO0.500*
21,1,1.772134,0.640734,0.,0.,270*%
%AMRR-H640734-W1772134-R320367-RO0.500*
21,1,1.1314,0.640734,0.,0.,270*
21,1,1.772134,0.,0.,0.,270*
1,1,0.640734,0.,0.5657*
1,1,0.640734,0.,-0.5657*
1,1,0.640734,-0.,-0.5657*
1,1,0.640734,-0.,0.5657*%
%AMRect-W741421-H1391421-RO0.250*
21,1,0.741421,1.391421,0.,0.,315*%
%AMRect-W1905000-H1270000-RO0.250*
21,1,1.905,1.27,0.,0.,315*%
%AMRect-W741421-H1391421-RO1.750*
21,1,0.741421,1.391421,0.,0.,45*%
%AMRect-W1905000-H1270000-RO1.500*
21,1,1.905,1.27,0.,0.,90*%
%AMRect-W561421-H1171421-RO1.000*
21,1,0.561421,1.171421,0.,0.,180*%
%AMRect-W1171421-H561421-RO1.000*
21,1,1.171421,0.561421,0.,0.,180*%
%AMRect-W741421-H1391421-RO1.500*
21,1,0.741421,1.391421,0.,0.,90*%
%AMRect-W1-H1-RO1.750*
21,1,0.000001,0.000001,0.,0.,45*%
%AMRect-W1900000-H1175000-RO1.750*
21,1,1.9,1.175,0.,0.,45*%
%AMRect-W2100000-H1500000-RO1.750*
21,1,2.1,1.5,0.,0.,45*%
%AMRect-W1900000-H2375000-RO1.750*
21,1,1.9,2.375,0.,0.,45*%
%AMRect-W1380000-H450000-RO1.750*
21,1,1.38,0.45,0.,0.,45*%
%AMRect-W1905000-H1270000-RO1.750*
21,1,1.905,1.27,0.,0.,45*%
%AMRR-H656155-W1818240-R328077-RO0.000*
21,1,1.162086,0.656155,0.,0.,360*
21,1,1.81824,0.000001,0.,0.,360*
1,1,0.656154,-0.581043,0.0000005*
1,1,0.656154,0.581043,0.0000005*
1,1,0.656154,0.581043,-0.0000005*
1,1,0.656154,-0.581043,-0.0000005*%
%AMRect-W1905000-H1270000-RO0.750*
21,1,1.905,1.27,0.,0.,225*%
%AMRR-H285472-W1077620-R142736-RO0.000*
21,1,0.792148,0.285472,0.,0.,360*
21,1,1.07762,0.,0.,0.,360*
1,1,0.285472,-0.396074,0.*
1,1,0.285472,0.396074,0.*
1,1,0.285472,0.396074,-0.*
1,1,0.285472,-0.396074,0.*%
%AMRect-W1800000-H1100000-RO0.250*
21,1,1.8,1.1,0.,0.,315*%
%AMRR-H606155-W2017345-R303077-RO0.000*
21,1,1.411191,0.606155,0.,0.,360*
21,1,2.017345,0.000001,0.,0.,360*
1,1,0.606154,-0.7055955,0.0000005*
1,1,0.606154,0.7055955,0.0000005*
1,1,0.606154,0.7055955,-0.0000005*
1,1,0.606154,-0.7055955,-0.0000005*%
%AMRR-H2017345-W606155-R303077-RO0.000*
21,1,0.000001,2.017345,0.,0.,360*
21,1,0.606155,1.411191,0.,0.,360*
1,1,0.606154,-0.0000005,0.7055955*
1,1,0.606154,0.0000005,0.7055955*
1,1,0.606154,0.0000005,-0.7055955*
1,1,0.606154,-0.0000005,-0.7055955*%
%AMRect-W1905000-H1270000-RO1.000*
21,1,1.905,1.27,0.,0.,180*%
%ADD10C,0.9144*%
%ADD11C,0.8636*%
%ADD12C,0.6604*%
%ADD13C,1.4732*%
%ADD14R,1.147821X1.797821*%
%ADD15R,2.22464X1.062555*%
%ADD16R,2.1564X2.9064*%
%ADD17R,1.48402X0.691872*%
%ADD18R,2.3114X1.6764*%
%ADD19R,2.423745X1.012555*%
%ADD20C,1.6564*%
%ADD21C,2.0564*%
%ADD22C,1.8288*%
%ADD23C,1.0414*%
%ADD24C,1.5064*%
%ADD25C,1.1064*%
%ADD26C,1.1684*%
%ADD27Rect-W2311400-H1676400-RO1.750*%
%ADD28Rect-W2311400-H1676400-RO1.500*%
%ADD29Rect-W2311400-H1676400-RO1.250*%
%ADD30Rect-W1147821-H1797821-RO0.500*%
%ADD31Rect-W1147821-H1797821-RO1.500*%
%ADD32RR-H1062555-W2224640-R328077-RO0.000*%
%ADD33RR-H691872-W1484020-R142736-RO0.000*%
%ADD34Rect-W1147821-H1797821-RO1.000*%
%ADD35Rect-W3106400-H1656400-RO0.500*%
%ADD36Rect-W1106400-H1006400-RO1.500*%
%ADD37RR-H875564-W2377739-R234582-RO1.000*%
%ADD38RR-H2423745-W1012555-R303077-RO0.000*%
%ADD39RR-H1012555-W2423745-R303077-RO0.000*%
%ADD40Rect-W2178534-H1047134-RO0.500*%
%ADD41RR-H1047134-W2178534-R320367-RO0.500*%
%ADD42Rect-W2311400-H1676400-RO1.000*%
%ADD43Rect-W2377739-H875564-RO1.000*%
%ADD44Rect-W2311400-H1676400-RO0.250*%
%ADD45Rect-W1147821-H1797821-RO1.750*%
%ADD46Rect-W2206400-H1506400-RO1.750*%
%ADD47Rect-W1577821-H967821-RO1.000*%
%ADD48Rect-W967821-H1577821-RO1.000*%
%ADD49Rect-W1147821-H1797821-RO0.250*%
%ADD50Rect-W2206400-H1506400-RO0.250*%
%ADD51Rect-W406401-H406401-RO1.750*%
%ADD52Rect-W2306400-H2781400-RO1.750*%
%ADD53Rect-W2306400-H1581400-RO1.750*%
%ADD54Rect-W2506400-H1906400-RO1.750*%
%ADD55Rect-W1786400-H856400-RO1.750*%
%ADD56Rect-W2311400-H1676400-RO0.750*%
%ADD57Rect-W2311400-H1676400-RO0.500*%
%ADD58R,0.2032X1.00051*%
%ADD59R,0.67551X0.2032*%
%ADD60R,0.84361X0.2032*%
%ADD61R,0.2032X1.5548*%
%ADD62R,1.21392X0.2032*%
%ADD63R,1.313472X0.2032*%
%ADD64R,0.2032X0.9398*%
%ADD65R,1.2573X0.2032*%
%ADD66Rect-W203200-H939800-RO1.500*%
%ADD67Rect-W1257300-H203200-RO1.500*%
%ADD68Rect-W203200-H939800-RO1.250*%
%ADD69Rect-W1257300-H203200-RO1.250*%
%ADD70Rect-W203200-H939800-RO1.750*%
%ADD71Rect-W1257300-H203200-RO1.750*%
%ADD72Rect-W203200-H1000510-RO1.500*%
%ADD73Rect-W675510-H203200-RO1.500*%
%ADD74Rect-W203200-H1000510-RO0.500*%
%ADD75Rect-W675510-H203200-RO0.500*%
%ADD76Rect-W203200-H604800-RO1.500*%
%ADD77Rect-W654800-H203200-RO1.500*%
%ADD78Rect-W203200-H1000510-RO1.000*%
%ADD79Rect-W675510-H203200-RO1.000*%
%ADD80Rect-W203200-H539382-RO1.000*%
%ADD81Rect-W1290469-H203200-RO1.000*%
%ADD82Rect-W203200-H929800-RO1.500*%
%ADD83Rect-W929800-H203200-RO1.500*%
%ADD84Rect-W1190867-H203200-RO0.500*%
%ADD85Rect-W203200-H939800-RO1.000*%
%ADD86Rect-W1257300-H203200-RO1.000*%
%ADD87Rect-W400000-H1129800-RO0.500*%
%ADD88Rect-W1129800-H400000-RO0.500*%
%ADD89Rect-W203200-H939800-RO0.250*%
%ADD90Rect-W1257300-H203200-RO0.250*%
%ADD91Rect-W203200-H854800-RO1.750*%
%ADD92Rect-W1204800-H203200-RO1.750*%
%ADD93Rect-W890510-H203200-RO1.000*%
%ADD94Rect-W203200-H854800-RO0.250*%
%ADD95Rect-W1204800-H203200-RO0.250*%
%ADD96Rect-W994800-H203200-RO1.750*%
%ADD97Rect-W203200-H939800-RO0.750*%
%ADD98Rect-W1257300-H203200-RO0.750*%
%ADD99Rect-W203200-H939800-RO0.500*%
%ADD100Rect-W1257300-H203200-RO0.500*%
%ADD101C,0.254*%
%ADD102C,0.4572*%
%ADD103C,0.508*%
%ADD104C,1.0668*%
%ADD105Rect-W741421-H1391421-RO1.000*%
%ADD106Rect-W1800000-H1100000-RO1.750*%
%ADD107Rect-W1971339-H469164-RO1.000*%
%ADD108RR-H469164-W1971339-R234582-RO1.000*%
%ADD109R,0.741421X1.391421*%
%ADD110Rect-W741421-H1391421-RO0.500*%
%ADD111Rect-W700000-H600000-RO1.500*%
%ADD112Rect-W2700000-H1250000-RO0.500*%
%ADD113Rect-W1905000-H1270000-RO1.250*%
%ADD114Rect-W1905000-H1270000-RO0.500*%
%ADD115Rect-W1772134-H640734-RO0.500*%
%ADD116RR-H640734-W1772134-R320367-RO0.500*%
%ADD117Rect-W741421-H1391421-RO0.250*%
%ADD118C,1.4224*%
%ADD119C,1.25*%
%ADD120Rect-W1905000-H1270000-RO0.250*%
%ADD121Rect-W741421-H1391421-RO1.750*%
%ADD122Rect-W1905000-H1270000-RO1.500*%
%ADD123R,1.905X1.27*%
%ADD124Rect-W561421-H1171421-RO1.000*%
%ADD125Rect-W1171421-H561421-RO1.000*%
%ADD126Rect-W741421-H1391421-RO1.500*%
%ADD127Rect-W1-H1-RO1.750*%
%ADD128Rect-W1900000-H1175000-RO1.750*%
%ADD129Rect-W2100000-H1500000-RO1.750*%
%ADD130Rect-W1900000-H2375000-RO1.750*%
%ADD131Rect-W1380000-H450000-RO1.750*%
%ADD132Rect-W1905000-H1270000-RO1.750*%
%ADD133R,1.81824X0.656155*%
%ADD134RR-H656155-W1818240-R328077-RO0.000*%
%ADD135Rect-W1905000-H1270000-RO0.750*%
%ADD136R,1.07762X0.285472*%
%ADD137R,1.75X2.5*%
%ADD138RR-H285472-W1077620-R142736-RO0.000*%
%ADD139C,1.65*%
%ADD140Rect-W1800000-H1100000-RO0.250*%
%ADD141R,2.017345X0.606155*%
%ADD142RR-H606155-W2017345-R303077-RO0.000*%
%ADD143RR-H2017345-W606155-R303077-RO0.000*%
%ADD144Rect-W1905000-H1270000-RO1.000*%
D10*
%LNpour fill*%
G36*
G01*
X-30480Y30480D02*
X-30480Y-30734D01*
X30226Y-30734D01*
X30226Y30480D01*
X-30480Y30480D01*
G37*
%LNpour subtractive shapes*%
%LPC*%
X25146Y25146D02*
X24407Y25885D01*
X23876Y25885*
X21082Y24892D02*
X21082Y26162D01*
X21082Y28702D02*
X21844Y27940D01*
X21844Y27686*
D11*
X5954Y26050D02*
X3810Y28194D01*
X5954Y18774D02*
X5954Y26050D01*
X-1270Y28194D02*
X-1270Y20354D01*
X-4318Y28194D02*
X-3810Y28194D01*
X-9144Y23368D02*
X-6350Y26162D01*
X-4318Y28194*
D10*
X-25171Y25171D02*
X-26187Y24155D01*
X-22223Y27611D02*
X-22223Y24005D01*
X26774Y21844D02*
X26162Y21844D01*
X24130Y21844*
X27432Y22502D02*
X26774Y21844D01*
X23114Y22860D02*
X21082Y24892D01*
X24130Y21844D02*
X23114Y22860D01*
D11*
X21082Y12136D02*
X11628Y21590D01*
X2910Y19674D02*
X3810Y18774D01*
X-0034Y21590D02*
X-1270Y20354D01*
X1746Y13762D02*
X-0794Y13762D01*
X-0794Y16184D02*
X1746Y16184D01*
X5954Y5802D02*
X5954Y12566D01*
X5842Y12678*
X1016Y19674D02*
X2910Y19674D01*
X0562Y19674D02*
X1016Y19674D01*
X-1028Y18084D02*
X0562Y19674D01*
X11628Y21590D02*
X7620Y21590D01*
X4572Y21590D02*
X-0034Y21590D01*
X3810Y18774D02*
X8955Y13629D01*
X4286Y13762D02*
X1746Y13762D01*
X8955Y13629D02*
X8955Y9902D01*
X-3540Y13556D02*
X-3334Y13762D01*
X-5842Y15456D02*
X-7742Y13556D01*
X-8348Y13556*
X-9178Y15456D02*
X-8348Y14626D01*
X-3334Y13762D02*
X-0794Y13762D01*
X-8348Y12636D02*
X-8348Y13556D01*
X-7366Y11654D02*
X-8348Y12636D01*
X-4860Y16184D02*
X-5588Y15456D01*
X-12078Y14656D02*
X-11278Y15456D01*
X-9536Y22606D02*
X-5400Y18470D01*
X-5588Y15456D02*
X-7112Y16980D01*
X-8348Y14626D02*
X-8348Y13556D01*
X-4860Y18084D02*
X-5400Y18470D01*
X-14732Y23368D02*
X-9144Y23368D01*
X-1270Y20354D02*
X-3540Y18084D01*
X-4860Y18084*
X-11278Y17556D02*
X-11278Y15456D01*
X-3334Y16184D02*
X-3334Y13762D01*
X-16510Y22606D02*
X-9536Y22606D01*
X-3334Y16184D02*
X-4860Y16184D01*
X-5842Y18470D02*
X-5400Y18470D01*
X-7112Y17134D02*
X-5842Y18470D01*
X-7112Y16980D02*
X-7112Y17134D01*
D12*
X-12078Y13154D02*
X-12078Y14656D01*
D11*
X-8348Y13556D02*
X-3540Y13556D01*
X-23876Y15240D02*
X-16510Y22606D01*
D12*
X-15630Y13802D02*
X-14982Y13154D01*
D10*
X-23622Y22606D02*
X-25121Y21107D01*
D11*
X-19835Y13802D02*
X-21060Y12577D01*
X-18016Y17724D02*
X-18610Y17724D01*
X-24747Y15385D02*
X-23368Y16764D01*
X-16798Y16506D02*
X-18016Y17724D01*
X-17340Y14186D02*
X-18803Y14186D01*
D10*
X-22223Y24005D02*
X-23622Y22606D01*
D11*
X-16832Y14694D02*
X-16832Y16506D01*
X-21060Y12577D02*
X-21060Y12400D01*
X-24747Y8890D02*
X-24747Y15385D01*
X-16832Y14694D02*
X-17340Y14186D01*
D10*
X-25121Y21107D02*
X-26187Y21107D01*
D11*
X-16832Y16506D02*
X-15782Y17556D01*
X-18803Y14186D02*
X-19451Y14186D01*
X-16764Y23368D02*
X-14732Y23368D01*
X-16722Y12654D02*
X-17052Y12984D01*
D12*
X-14982Y12654D02*
X-16722Y12654D01*
D11*
X-23368Y16764D02*
X-16764Y23368D01*
X-19451Y14186D02*
X-19835Y13802D01*
X-15630Y15456D02*
X-15630Y13802D01*
X-23876Y1270D02*
X-23876Y15240D01*
D10*
X-28727Y21107D02*
X-27611Y22223D01*
X-27611Y22223*
X-26187Y24155D02*
X-26187Y23901D01*
D11*
X26468Y1218D02*
X25400Y2286D01*
X28194Y1218D02*
X26468Y1218D01*
X25260Y2286D02*
X21082Y6464D01*
X11684Y3534D02*
X15748Y3534D01*
X13174Y0587D02*
X14885Y0587D01*
X17266Y3078D02*
X13226Y7118D01*
X23482Y2570D02*
X22974Y3078D01*
X18927Y-0022D02*
X17821Y-0022D01*
X18927Y1237D02*
X20497Y1237D01*
X22049Y0030D02*
X22606Y0587D01*
X22556Y1887D02*
X22606Y1887D01*
X20131Y0587D02*
X20688Y0030D01*
X15144Y7846D02*
X15748Y7846D01*
X23736Y0538D02*
X23736Y2316D01*
X20942Y0792D02*
X21450Y0792D01*
X13226Y7118D02*
X13174Y7118D01*
X17170Y5802D02*
X15748Y7224D01*
X17272Y2010D02*
X17272Y0486D01*
X18927Y0587D02*
X20131Y0587D01*
X12573Y4677D02*
X12700Y4804D01*
X21450Y0792D02*
X21704Y1046D01*
X23736Y2316D02*
X23482Y2570D01*
X13174Y-0063D02*
X10905Y-0063D01*
X23736Y-0110D02*
X23736Y0538D01*
X14503Y8487D02*
X15144Y7846D01*
X21715Y1046D02*
X22556Y1887D01*
X14885Y0587D02*
X14986Y0486D01*
X20688Y0030D02*
X22049Y0030D01*
X13174Y8487D02*
X14503Y8487D01*
X20497Y1237D02*
X20942Y0792D01*
X13174Y1237D02*
X11138Y1237D01*
X12700Y4677D02*
X13174Y5151D01*
X15748Y7224D02*
X15748Y7846D01*
X21073Y1887D02*
X21196Y2010D01*
X13174Y5151D02*
X13174Y5802D01*
X12074Y4677D02*
X12573Y4677D01*
X17272Y0486D02*
X17780Y-0022D01*
X22974Y3078D02*
X17324Y3078D01*
X17821Y-0022D02*
X17780Y-0063D01*
X21082Y6464D02*
X21082Y12136D01*
X23133Y-0713D02*
X23736Y-0110D01*
X19338Y10392D02*
X19338Y5566D01*
X15748Y3534D02*
X17272Y2010D01*
X18927Y1887D02*
X21073Y1887D01*
X12074Y4677D02*
X11430Y4677D01*
X5954Y1762D02*
X8636Y1762D01*
X10974Y8487D02*
X9605Y7118D01*
X7112Y8059D02*
X7112Y7090D01*
X0578Y4804D02*
X-1302Y4804D01*
X0578Y5566D02*
X-0658Y6802D01*
X9605Y1237D02*
X9080Y1762D01*
X8955Y5802D02*
X8955Y3788D01*
X10974Y7118D02*
X9906Y6050D01*
X2178Y3138D02*
X2178Y4880D01*
X7112Y3788D02*
X6350Y3026D01*
X9605Y7118D02*
X8955Y6468D01*
X8955Y9902D02*
X7112Y8059D01*
X10922Y3534D02*
X11684Y3534D01*
X2178Y4880D02*
X1492Y5566D01*
X8955Y6468D02*
X8955Y5802D01*
X0762Y5566D02*
X0508Y5566D01*
X8955Y0962D02*
X5954Y0962D01*
X4286Y8902D02*
X4286Y11662D01*
X5954Y4514D02*
X5954Y5802D01*
X1492Y5566D02*
X0762Y5566D01*
X1746Y6798D02*
X1746Y6802D01*
X10974Y5133D02*
X11430Y4677D01*
X1492Y0635D02*
X1086Y0229D01*
X10630Y-0713D02*
X8955Y0962D01*
X5954Y0162D02*
X7854Y0162D01*
X3778Y6294D02*
X4286Y6802D01*
X7112Y7090D02*
X7112Y3788D01*
X9906Y4550D02*
X10922Y3534D01*
X8079Y7007D02*
X8079Y3138D01*
X4578Y3138D02*
X5954Y4514D01*
X2978Y5566D02*
X1746Y6798D01*
X3778Y3138D02*
X3778Y6294D01*
X1746Y8902D02*
X1746Y11662D01*
X10974Y9902D02*
X8079Y7007D01*
X10974Y5802D02*
X10974Y5133D01*
X8955Y3788D02*
X9605Y3138D01*
X1492Y3138D02*
X1492Y0635D01*
X0578Y3138D02*
X0578Y4804D01*
X9906Y6050D02*
X9906Y4550D01*
X8636Y1762D02*
X9080Y1762D01*
X7854Y0162D02*
X8079Y-0063D01*
X10905Y-0063D02*
X9605Y1237D01*
X2978Y5570D02*
X2978Y3138D01*
X-0728Y6802D02*
X-0794Y6802D01*
X-3300Y6802D02*
X-3334Y6802D01*
D12*
X-12078Y12154D02*
X-10728Y12154D01*
D11*
X-11262Y4026D02*
X-11278Y4026D01*
X-1060Y1762D02*
X-0768Y1470D01*
X-5842Y1502D02*
X-3810Y-0530D01*
X-12480Y2062D02*
X-11278Y3264D01*
X-7366Y11654D02*
X-5842Y10130D01*
X-9432Y7904D02*
X-9432Y5856D01*
D12*
X-12078Y11654D02*
X-11278Y11654D01*
D11*
X-10228Y8700D02*
X-9432Y7904D01*
X-2398Y3138D02*
X-1022Y3138D01*
X-10448Y6566D02*
X-12480Y6566D01*
X-11278Y11654D02*
X-10948Y11324D01*
X-10948Y6896D02*
X-11278Y6566D01*
X-10948Y11154D02*
X-10948Y6896D01*
X-10948Y11324D02*
X-10948Y11154D01*
X-0658Y6802D02*
X-0794Y6802D01*
X-12480Y6380D02*
X-12480Y4348D01*
X-5842Y9072D02*
X-5842Y1502D01*
X-1302Y4804D02*
X-3300Y6802D01*
X-5842Y10130D02*
X-5842Y9072D01*
D12*
X-10728Y12154D02*
X-10228Y11654D01*
D11*
X-0794Y8902D02*
X-0794Y11662D01*
D12*
X-12078Y11154D02*
X-12078Y9220D01*
D11*
X-11278Y4026D02*
X-11278Y3264D01*
X-3334Y11662D02*
X-3334Y8902D01*
X-9432Y5856D02*
X-11262Y4026D01*
X-10228Y11654D02*
X-10228Y8700D01*
X-2398Y1762D02*
X-1060Y1762D01*
X-12078Y9220D02*
X-12480Y8818D01*
X-19524Y10122D02*
X-19846Y10444D01*
X-17385Y10122D02*
X-18864Y10122D01*
X-19360Y6348D02*
X-20862Y6348D01*
D12*
X-14982Y11154D02*
X-16014Y10122D01*
D11*
X-23876Y0754D02*
X-23876Y1270D01*
X-21060Y11669D02*
X-21060Y12154D01*
X-19360Y6348D02*
X-19360Y9958D01*
X-14580Y2062D02*
X-14580Y4348D01*
X-14580Y6566D02*
X-14580Y4348D01*
X-19835Y10444D02*
X-21060Y11669D01*
X-28194Y3810D02*
X-24747Y7257D01*
X-20862Y6348D02*
X-20862Y-0262D01*
X-18803Y10122D02*
X-19524Y10122D01*
D12*
X-14982Y12154D02*
X-16104Y12154D01*
D11*
X-16014Y10122D02*
X-17385Y10122D01*
X-24892Y-0262D02*
X-23876Y0754D01*
X-15884Y10122D02*
X-16014Y10122D01*
X-19360Y9958D02*
X-19524Y10122D01*
X-14580Y6566D02*
X-14580Y8818D01*
X-16798Y11460D02*
X-18416Y11460D01*
X-24747Y7257D02*
X-24747Y8890D01*
X-14580Y8818D02*
X-15884Y10122D01*
X-18416Y11460D02*
X-18610Y11654D01*
D12*
X-16104Y12154D02*
X-16798Y11460D01*
D11*
X25260Y-1494D02*
X25260Y-5558D01*
X22974Y-7844*
X24752Y-0399D02*
X25260Y-0907D01*
X25260Y-1494*
X28194Y-3810D02*
X19304Y-12700D01*
X23876Y-1505D02*
X24498Y-2127D01*
X14732Y-4340D02*
X14478Y-4594D01*
X14478Y-5610D02*
X13716Y-5610D01*
X24498Y-2510D02*
X24498Y-5304D01*
X14213Y-3313D02*
X14732Y-3832D01*
X18927Y-2663D02*
X21349Y-2663D01*
X24498Y-5304D02*
X22974Y-6828D01*
X14620Y-1363D02*
X14945Y-1038D01*
X22212Y-4542D02*
X21704Y-5050D01*
X14945Y-2013D02*
X15240Y-2308D01*
X21958Y-5812D02*
X21704Y-5812D01*
X13174Y-3313D02*
X14213Y-3313D01*
X15494Y-3578D02*
X15494Y-3832D01*
X13174Y-3963D02*
X11299Y-3963D01*
X22974Y-3272D02*
X22974Y-4796D01*
X18910Y-1363D02*
X22081Y-1363D01*
X23736Y-3018D02*
X23736Y-3272D01*
X13716Y-5610D02*
X11938Y-5610D01*
X22974Y-4796D02*
X22212Y-5558D01*
X18927Y-3313D02*
X20423Y-3313D01*
X13174Y-2663D02*
X11555Y-2663D01*
X13174Y-0713D02*
X10630Y-0713D01*
X23736Y-3313D02*
X23736Y-5050D01*
X14579Y-2663D02*
X15240Y-3324D01*
X21715Y-2013D02*
X22974Y-3272D01*
X13174Y-2013D02*
X14224Y-2013D01*
X23736Y-5050D02*
X22974Y-5812D01*
X16256Y-3324D02*
X16256Y-4086D01*
X22212Y-5558D02*
X21958Y-5812D01*
X15240Y-2308D02*
X16256Y-3324D01*
X21349Y-2663D02*
X22212Y-3526D01*
X24498Y-2127D02*
X24498Y-2510D01*
X15494Y-3963D02*
X15494Y-4594D01*
X15240Y-4848D02*
X14478Y-5610D01*
X20423Y-3313D02*
X21196Y-4086D01*
X15240Y-3324D02*
X15494Y-3578D01*
X14732Y-3832D02*
X14732Y-4340D01*
X13174Y-2663D02*
X14579Y-2663D01*
X13174Y-1363D02*
X10851Y-1363D01*
X22081Y-1363D02*
X23482Y-2764D01*
X22974Y-6828D02*
X22466Y-7336D01*
X15494Y-4594D02*
X15240Y-4848D01*
X22212Y-3526D02*
X22212Y-4542D01*
X13174Y-2013D02*
X11430Y-2013D01*
X22466Y-7336D02*
X22212Y-7336D01*
X18927Y-2013D02*
X21715Y-2013D01*
X13174Y-1363D02*
X14620Y-1363D01*
X18927Y-0713D02*
X23133Y-0713D01*
X23482Y-2764D02*
X23736Y-3018D01*
X19304Y-12700D02*
X16256Y-15748D01*
X14478Y-4594D02*
X11662Y-4594D01*
X20434Y-9538D02*
X20434Y-9114D01*
X19418Y-8860D02*
X15324Y-12954D01*
X19418Y-8860D02*
X20180Y-8098D01*
X21196Y-8098*
X22720Y-8098*
X22974Y-7844*
X7450Y-17272D02*
X12530Y-12192D01*
X14986Y-12192*
X19842Y-7336*
X22212Y-7336*
X12446Y-11430D02*
X14732Y-11430D01*
X19558Y-6604*
X21336Y-6604*
X22974Y-5812D02*
X22212Y-6574D01*
X21349Y-6604D02*
X22182Y-6604D01*
X22212Y-6574*
X12254Y-10668D02*
X14478Y-10668D01*
X19334Y-5812*
X21704Y-5812*
X11960Y-9906D02*
X14224Y-9906D01*
X19080Y-5050*
X21704Y-5050*
X11684Y-9144D02*
X13970Y-9144D01*
X14084Y-9144D02*
X18927Y-4301D01*
X18927Y-3963*
X16256Y-4086D02*
X16256Y-6096D01*
X15240Y-7112*
X13970Y-8382*
X12954Y-8382*
X12954Y-8404D02*
X11408Y-8404D01*
X11176Y-7549D02*
X13109Y-7549D01*
X14084Y-6574*
X14224Y-2013D02*
X14945Y-2013D01*
X16116Y-14986D02*
X20434Y-10668D01*
X20434Y-9114*
X2978Y-6880D02*
X3486Y-7388D01*
X5954Y-1438D02*
X4362Y-1438D01*
X4578Y-5214D02*
X8079Y-5214D01*
X7620Y-10690D02*
X4572Y-13738D01*
X0664Y-9420D02*
X0664Y-7474D01*
X11280Y-2013D02*
X11430Y-2013D01*
X3486Y-7388D02*
X3778Y-7388D01*
X10851Y-1363D02*
X9906Y-2308D01*
X10255Y-3038D02*
X11280Y-2013D01*
X5842Y-10690D02*
X4572Y-11960D01*
X8079Y-5214D02*
X10255Y-3038D01*
X2978Y-5214D02*
X2978Y-6372D01*
X3204Y-9420D02*
X7620Y-9420D01*
X8009Y-2238D02*
X8079Y-2308D01*
X0664Y-7474D02*
X0578Y-7388D01*
X5922Y-3070D02*
X5954Y-3038D01*
X7620Y-9420D02*
X9968Y-9420D01*
X4572Y-11960D02*
X3204Y-11960D01*
X3778Y-5214D02*
X3778Y-6588D01*
X7846Y-3838D02*
X5954Y-3838D01*
X11555Y-2663D02*
X10905Y-3313D01*
X9906Y-2308D02*
X8376Y-3838D01*
X11299Y-3963D02*
X10668Y-4594D01*
X2978Y-6810D02*
X2978Y-6372D01*
X10668Y-4594D02*
X10668Y-4594D01*
X0664Y-11960D02*
X2442Y-13738D01*
X8376Y-3838D02*
X7846Y-3838D01*
X4362Y-1438D02*
X4248Y-1324D01*
X5954Y-2238D02*
X8009Y-2238D01*
D10*
X5954Y-3038D02*
X4054Y-3038D01*
X3302Y-2286*
X3302Y-2238D02*
X-2398Y-2238D01*
D11*
X1378Y-5214D02*
X1378Y-3918D01*
X0762Y-3302*
X10905Y-3313D02*
X8122Y-6096D01*
X5588Y-6096*
X5080Y-6604*
X4826Y-6604*
X4578Y-6604D02*
X3778Y-6604D01*
X3778Y-7388D02*
X5312Y-7388D01*
X5842Y-6858*
X8430Y-6810D02*
X9398Y-5842D01*
X10668Y-4594D02*
X9420Y-5842D01*
X9398Y-5842*
X11662Y-4594D02*
X11176Y-5080D01*
X5954Y-6810D02*
X8430Y-6810D01*
X11176Y-5080D02*
X8128Y-8128D01*
X8128Y-8404*
X9652Y-7896D02*
X9652Y-8404D01*
X11938Y-5610D02*
X11706Y-5610D01*
X11684Y-5588*
X11544Y-5610D02*
X9605Y-7549D01*
X9605Y-7896*
X9398Y-14478D02*
X12446Y-11430D01*
X9968Y-12954D02*
X12254Y-10668D01*
X5842Y-14478D02*
X7620Y-12700D01*
X9144Y-12700*
X9166Y-12700D02*
X11960Y-9906D01*
X4804Y-14478D02*
X7344Y-11938D01*
X8890Y-11938*
X11684Y-9144*
X11408Y-8404D02*
X10414Y-9398D01*
X10414Y-9420D02*
X10160Y-9420D01*
X2178Y-5214D02*
X2178Y-3410D01*
X2286Y-3302*
X-2398Y-0638D02*
X-3702Y-0638D01*
X-2398Y-8898D02*
X-1876Y-9420D01*
X-2398Y-2238D02*
X-0832Y-2238D01*
X-7112Y-8118D02*
X-9212Y-10218D01*
X-3702Y-0638D02*
X-3810Y-0530D01*
X-9212Y-10218D02*
X-11176Y-10218D01*
X-2398Y-2238D02*
X-3626Y-2238D01*
X-9212Y-0938D02*
X-11176Y-0938D01*
X-2398Y-5214D02*
X-2398Y-8898D01*
X-4064Y-1800D02*
X-4064Y-0276D01*
X-3626Y-2238D02*
X-4064Y-1800D01*
X-7112Y-3038D02*
X-2398Y-3038D01*
X-7112Y-3038D02*
X-9212Y-0938D01*
X-7112Y-8118D02*
X-2832Y-3838D01*
X-2398Y-3838*
X-10990Y-12446D02*
X-13208Y-12446D01*
X-9466Y-13970D02*
X-10990Y-12446D01*
X-22916Y-6760D02*
X-23778Y-6760D01*
X-25400Y-12192D02*
X-24384Y-13208D01*
X-15020Y-9422D02*
X-15020Y-8914D01*
X-24892Y-3810D02*
X-24892Y-2286D01*
X-25400Y-8914D02*
X-25400Y-12192D01*
X-20310Y-9256D02*
X-20310Y-8914D01*
X-23778Y-6760D02*
X-24384Y-7366D01*
X-20310Y-3166D02*
X-20310Y-6760D01*
X-20862Y-0262D02*
X-20310Y-0814D01*
X-22916Y-6760D02*
X-20310Y-6760D01*
X-25900Y-1270D02*
X-24892Y-0262D01*
X-15008Y-4216D02*
X-15008Y-6760D01*
X-17052Y-11454D02*
X-15020Y-9422D01*
X-24892Y-2286D02*
X-25908Y-1270D01*
X-18796Y-16510D02*
X-24384Y-10922D01*
X-24384Y-7366*
X-18410Y-5932D02*
X-17582Y-6760D01*
X-28194Y-3810D02*
X-25400Y-6604D01*
X-19592Y-9974D02*
X-20310Y-9256D01*
X-18410Y-0814D02*
X-15008Y-4216D01*
X-18068Y-11454D02*
X-17052Y-11454D01*
X-18410Y-3166D02*
X-18410Y-5932D01*
X-19548Y-9974D02*
X-19084Y-10438D01*
X-25400Y-6604D02*
X-25400Y-8890D01*
X-19084Y-10438D02*
X-18068Y-11454D01*
X-13970Y-13208D02*
X-13208Y-12446D01*
X-28194Y-1270D02*
X-25900Y-1270D01*
D10*
X24892Y-21082D02*
X26162Y-21082D01*
X28702Y-21133D02*
X28702Y-21082D01*
X25908Y-24384D02*
X25908Y-23876D01*
X25146Y-25146D02*
X25908Y-24384D01*
X27611Y-22223D02*
X28702Y-21133D01*
X22452Y-23522D02*
X23114Y-22860D01*
X24892Y-21082*
X22452Y-27840D02*
X22452Y-23522D01*
D11*
X12700Y-14478D02*
X8382Y-18796D01*
X16256Y-15748D02*
X15240Y-15748D01*
X9144Y-21844*
X13716Y-21336D02*
X14732Y-20320D01*
X15324Y-12954D02*
X12954Y-12954D01*
X9398Y-16256D02*
X12700Y-12954D01*
X12954Y-12954*
X10160Y-19812D02*
X14986Y-14986D01*
X16002Y-14986*
X14224Y-13970D02*
X13208Y-13970D01*
X12700Y-14478*
D10*
X-0762Y-17272D02*
X0Y-17272D01*
D11*
X0Y-24723D02*
X0Y-25654D01*
X-0254Y-16510D02*
X4804Y-16510D01*
X9228Y-14478D02*
X8382Y-14478D01*
X4572Y-13738D02*
X3204Y-13738D01*
X3556Y-23522D02*
X3556Y-22352D01*
D10*
X1748Y-14194D02*
X2032Y-14478D01*
X1185Y-20538D02*
X2504Y-20538D01*
X2470Y-24538D02*
X1270Y-24538D01*
D11*
X5080Y-23114D02*
X4572Y-23622D01*
D10*
X0Y-20538D02*
X0Y-19050D01*
D11*
X4804Y-16510D02*
X6836Y-14478D01*
D10*
X0Y-14194D02*
X1748Y-14194D01*
D11*
X2442Y-13738D02*
X3204Y-13738D01*
D10*
X0Y-17272D02*
X7366Y-17272D01*
X7450Y-17272D02*
X7366Y-17272D01*
X-0508Y-18034D02*
X-0254Y-18034D01*
D11*
X3556Y-22352D02*
X3556Y-20574D01*
X4572Y-23622D02*
X2286Y-25908D01*
D10*
X2032Y-14478D02*
X3048Y-14478D01*
D11*
X2540Y-24538D02*
X3556Y-23522D01*
D10*
X4826Y-14478D02*
X3048Y-14478D01*
D11*
X5080Y-22098D02*
X5080Y-23114D01*
D10*
X5842Y-14478D02*
X5080Y-15240D01*
D11*
X4572Y-15748*
X4318Y-15748*
X-1524Y-15748*
X1270Y-28194D02*
X5080Y-24384D01*
X5702Y-24384*
X3556Y-28194D02*
X9144Y-22606D01*
X8382Y-18796D02*
X8382Y-19050D01*
X6434Y-20574D02*
X2540Y-20574D01*
X6434Y-20574D02*
X7874Y-20574D01*
X9144Y-21844D02*
X9144Y-22606D01*
X12192Y-22606D02*
X10414Y-24384D01*
X9144Y-24384*
X6350Y-19304D02*
X8128Y-19304D01*
X8382Y-19050*
X7874Y-20574D02*
X9398Y-20574D01*
X10160Y-19812*
X0Y-18034D02*
X7620Y-18034D01*
X9398Y-16256*
X6836Y-14478D02*
X7852Y-13462D01*
X8636Y-13462*
X9398Y-13462*
X9906Y-12954*
D10*
X-1185Y-18711D02*
X-0762Y-18288D01*
X-0508Y-18034*
X-1185Y-21338D02*
X-2030Y-21338D01*
X-1185Y-20538D02*
X-1185Y-18711D01*
D11*
X-1185Y-24538D02*
X-2386Y-24538D01*
D10*
X-3048Y-26416D02*
X-16256Y-13208D01*
X-5334Y-26670D02*
X-5334Y-25654D01*
X-16510Y-14478*
D11*
X-1524Y-17780D02*
X-1016Y-17272D01*
X-2424Y-20538D02*
X-2424Y-18680D01*
X-1524Y-17780*
X-1016Y-17272D02*
X-0762Y-17272D01*
X-2030Y-21338D02*
X-2424Y-20944D01*
X-2424Y-20574*
X-3148Y-22938D02*
X-3148Y-18388D01*
X-1524Y-16764*
X-0254Y-16510D02*
X-1270Y-16510D01*
X-1524Y-16764*
X-3810Y-19304D02*
X-3810Y-23268D01*
X-2794Y-17018D02*
X-3810Y-18034D01*
X-1524Y-15748D02*
X-2794Y-17018D01*
X-3810Y-18034D02*
X-3810Y-19304D01*
X-3810Y-23268D02*
X-2540Y-24538D01*
X-3148Y-22938D02*
X-2348Y-23738D01*
X-1270Y-23738*
X-8382Y-19050D02*
X-3556Y-14224D01*
X-12700Y-14478D02*
X-8382Y-18796D01*
X-8382Y-19050*
X-7874Y-15494D02*
X-6350Y-17018D01*
D10*
X-21107Y-25121D02*
X-21107Y-26162D01*
D11*
X-18796Y-16958D02*
X-18796Y-16510D01*
D10*
X-22860Y-23368D02*
X-21107Y-25121D01*
X-17717Y-21907D02*
X-18347Y-22537D01*
X-18347Y-22537*
X-27686Y-22098D02*
X-24130Y-22098D01*
D11*
X-19863Y-18024D02*
X-18796Y-16958D01*
D10*
X-25146Y-25171D02*
X-25146Y-25146D01*
X-24130Y-22098D02*
X-22860Y-23368D01*
X-24130Y-26187D02*
X-25146Y-25171D01*
X-21590Y-18024D02*
X-22860Y-18024D01*
X-16256Y-13208D02*
X-18796Y-13208D01*
X-16510Y-14478D02*
X-17526Y-14478D01*
X-17582Y-14478D02*
X-19304Y-14478D01*
X-19812Y-13970*
X-19863Y-13970D02*
X-20310Y-13523D01*
X-20310Y-13208*
D11*
X-16256Y-13208D02*
X-13970Y-13208D01*
X-18347Y-22537D02*
X-21839Y-19045D01*
X-22611Y-19045*
X-17107Y-21554D02*
X-17107Y-21296D01*
D10*
X1270Y-28194D02*
X-0508Y-26416D01*
D11*
X2286Y-25908D02*
X1016Y-25908D01*
X0254Y-25908*
X0Y-25654*
D10*
X-0508Y-26416D02*
X-1778Y-26416D01*
X-3048Y-26416D02*
X-1778Y-26416D01*
X-3810Y-28194D02*
X-5334Y-26670D01*
X-21107Y-28473D02*
X-21969Y-27611D01*
X-22223Y-27611*
D13*
X25146Y25146D03*
X21082Y26162D03*
X21082Y28702D03*
X-25171Y25171D03*
X5954Y18662D03*
X7620Y21590D03*
X4572Y21590D03*
X5954Y12712D03*
D14*
X8942Y12170D03*
X11042Y12170D03*
D15*
X-3334Y18084D03*
D14*
X-11278Y17488D03*
X-9178Y17488D03*
D16*
X-13530Y12154D03*
D13*
X-8348Y13556D03*
D17*
X-14982Y13154D03*
D14*
X-13530Y17488D03*
D13*
X-17131Y12900D03*
D14*
X-15630Y15456D03*
X-13530Y15456D03*
X-15630Y17488D03*
D13*
X-28727Y21107D03*
X-26187Y21107D03*
D18*
X28194Y1270D03*
X28194Y3810D03*
D13*
X21196Y2010D03*
D14*
X17848Y7846D03*
D13*
X14986Y0486D03*
X22606Y0333D03*
X22606Y1887D03*
D14*
X19338Y5566D03*
X17238Y5566D03*
X15748Y7846D03*
D13*
X24752Y-0399D03*
X9605Y3138D03*
X8955Y9902D03*
X8079Y3138D03*
X1086Y0232D03*
X11138Y1237D03*
X12074Y4677D03*
X8079Y-0063D03*
X6350Y3060D03*
D14*
X-12480Y6566D03*
X-12480Y4348D03*
D13*
X-2398Y3138D03*
D14*
X-12480Y2062D03*
X-12480Y8818D03*
X-8348Y6566D03*
D13*
X-0768Y1470D03*
D14*
X-10448Y6566D03*
D19*
X-2398Y1762D03*
D20*
X-19360Y6348D03*
D14*
X-14580Y4348D03*
X-14580Y8818D03*
D20*
X-19360Y4348D03*
D14*
X-14580Y6566D03*
X-14580Y2062D03*
D18*
X28194Y-1270D03*
X28194Y-3810D03*
D13*
X14986Y-1038D03*
X20434Y-9114D03*
X21196Y-4086D03*
X23876Y-1505D03*
X14190Y-6574D03*
D21*
X3204Y-9420D03*
D13*
X7592Y-10690D03*
D21*
X0664Y-11960D03*
X3204Y-11960D03*
D13*
X5842Y-10690D03*
X4248Y-1324D03*
X8079Y-2308D03*
X0664Y-7388D03*
D21*
X0664Y-9420D03*
D13*
X0762Y-3302D03*
X9652Y-8404D03*
X8128Y-8404D03*
X11006Y-7549D03*
X2286Y-3302D03*
D21*
X-1876Y-9420D03*
D13*
X-2398Y-5214D03*
D22*
X-7112Y-8118D03*
X-7112Y-3038D03*
D21*
X-1876Y-11960D03*
D13*
X-20310Y-13208D03*
X-18796Y-13208D03*
X-24384Y-13208D03*
X-24892Y-3810D03*
X26162Y-21082D03*
X25146Y-25146D03*
X28702Y-21082D03*
X14732Y-20320D03*
X14224Y-13970D03*
X5080Y-22098D03*
X0Y-14194D03*
X8382Y-14478D03*
X0Y-19050D03*
X5702Y-24384D03*
X6350Y-19304D03*
X9144Y-24384D03*
X-3556Y-14224D03*
X-25146Y-25146D03*
X-21107Y-26187D03*
X-21107Y-28473D03*
D23*
X25146Y25146D03*
X21082Y26162D03*
X21082Y28702D03*
X-25171Y25171D03*
X5954Y18662D03*
X7620Y21590D03*
X4572Y21590D03*
X5954Y12712D03*
X-8348Y13556D03*
X-17131Y12900D03*
X-28727Y21107D03*
X-26187Y21107D03*
X21196Y2010D03*
X14986Y0486D03*
X22606Y0333D03*
X22606Y1887D03*
X9605Y3138D03*
X8955Y9902D03*
X8079Y3138D03*
X1086Y0232D03*
X11138Y1237D03*
X12074Y4677D03*
X8079Y-0063D03*
X6350Y3060D03*
X-2398Y3138D03*
X-0768Y1470D03*
D24*
X-21060Y7848D03*
D25*
X-19360Y6348D03*
X-19360Y4348D03*
D23*
X14986Y-1038D03*
X20434Y-9114D03*
X21196Y-4086D03*
X23876Y-1505D03*
X24752Y-0399D03*
X14190Y-6574D03*
D24*
X3204Y-9420D03*
D23*
X7592Y-10690D03*
D24*
X0664Y-11960D03*
X3204Y-11960D03*
D23*
X5842Y-10690D03*
X4248Y-1324D03*
X8079Y-2308D03*
X0664Y-7388D03*
D24*
X0664Y-9420D03*
D23*
X0762Y-3302D03*
X9652Y-8404D03*
X8128Y-8404D03*
X11006Y-7549D03*
X2286Y-3302D03*
D24*
X-1876Y-9420D03*
D23*
X-2398Y-5214D03*
D26*
X-7112Y-8118D03*
X-7112Y-3038D03*
D24*
X-1876Y-11960D03*
D23*
X-24892Y-3810D03*
X26162Y-21082D03*
X25146Y-25146D03*
X28702Y-21082D03*
X14732Y-20320D03*
X14224Y-13970D03*
X5080Y-22098D03*
X0Y-14194D03*
X8382Y-14478D03*
X0Y-19050D03*
X5702Y-24384D03*
X6350Y-19304D03*
X9144Y-24384D03*
X-3556Y-14224D03*
X-20310Y-13208D03*
X-18796Y-13208D03*
X-24384Y-13208D03*
X-25146Y-25146D03*
X-21107Y-26187D03*
X-21107Y-28473D03*
D27*
X22223Y27611D03*
X24019Y25815D03*
D28*
X3810Y28194D03*
X1270Y28194D03*
X-3810Y28194D03*
X-1270Y28194D03*
D29*
X-24019Y25815D03*
X-22223Y27611D03*
D27*
X25815Y24019D03*
X27611Y22223D03*
D30*
X1746Y13762D03*
D31*
X1746Y18184D03*
D30*
X4286Y13762D03*
D31*
X1746Y16084D03*
D32*
X-3334Y16184D03*
D30*
X-3334Y13762D03*
D32*
X-1028Y16184D03*
D33*
X-12078Y12654D03*
X-12078Y13154D03*
D34*
X-9178Y15456D03*
D32*
X-1028Y18084D03*
D30*
X-0794Y13762D03*
D34*
X-11278Y15456D03*
D32*
X-3334Y17134D03*
D29*
X-25815Y24019D03*
D30*
X-18610Y15624D03*
D35*
X-21060Y12154D03*
X-18610Y12154D03*
D30*
X-18610Y17724D03*
D33*
X-14982Y12654D03*
D29*
X-27611Y22223D03*
D36*
X13174Y8487D03*
X13174Y5802D03*
X13174Y9902D03*
X13174Y7217D03*
D34*
X19270Y10392D03*
X17170Y10392D03*
D37*
X18927Y-0063D03*
X18927Y0587D03*
X18927Y1237D03*
X18927Y1887D03*
X13174Y1887D03*
X13174Y1237D03*
X13174Y0587D03*
X13174Y-0063D03*
D30*
X4286Y6802D03*
X1746Y11662D03*
D36*
X10974Y8487D03*
D30*
X1746Y8902D03*
D36*
X12074Y5802D03*
D30*
X1746Y6802D03*
D36*
X12074Y9902D03*
D30*
X4286Y11662D03*
D36*
X10974Y5802D03*
X10974Y9902D03*
X10974Y7217D03*
D30*
X4286Y8902D03*
D38*
X2178Y3138D03*
X2978Y3138D03*
D39*
X5954Y0162D03*
D38*
X3778Y3138D03*
D39*
X5954Y0962D03*
D38*
X0578Y3138D03*
X4578Y3138D03*
X1378Y3138D03*
X-0222Y3138D03*
D39*
X5954Y1762D03*
D30*
X-3334Y6802D03*
X-0794Y6802D03*
X-0794Y11662D03*
D33*
X-12078Y12154D03*
D30*
X-7366Y9596D03*
X-7366Y11696D03*
X-0794Y8902D03*
X-3334Y11662D03*
D33*
X-12078Y11154D03*
X-12078Y11654D03*
D30*
X-3334Y8902D03*
D39*
X-2398Y0962D03*
D38*
X-1022Y3138D03*
D39*
X-2398Y0162D03*
D33*
X-14982Y12154D03*
X-14982Y11154D03*
D40*
X-18410Y-0814D03*
D41*
X-20310Y-0814D03*
X-19360Y-0814D03*
D33*
X-14982Y11654D03*
D42*
X-28194Y3810D03*
X-28194Y1270D03*
D43*
X18927Y-3963D03*
D37*
X18927Y-3313D03*
X18927Y-2663D03*
X18927Y-2013D03*
X18927Y-1363D03*
X18927Y-0713D03*
X13174Y-0713D03*
X13174Y-1363D03*
X13174Y-2013D03*
X13174Y-2663D03*
X13174Y-3313D03*
X13174Y-3963D03*
D38*
X3778Y-5214D03*
X2978Y-5214D03*
D39*
X5954Y-0638D03*
X5954Y-3038D03*
D38*
X-0222Y-5214D03*
D39*
X5954Y-2238D03*
X5954Y-1438D03*
D38*
X1378Y-5214D03*
X4578Y-5214D03*
X2178Y-5214D03*
D39*
X5954Y-3838D03*
D38*
X0578Y-5214D03*
D31*
X-11176Y-3038D03*
D30*
X-11176Y-8118D03*
X-11176Y-10218D03*
D31*
X-11176Y-0938D03*
D39*
X-2398Y-3038D03*
X-2398Y-0638D03*
X-2398Y-2238D03*
X-2398Y-1438D03*
D38*
X-1022Y-5214D03*
D39*
X-2398Y-3838D03*
D31*
X-15008Y-6760D03*
D41*
X-18410Y-3166D03*
D30*
X-20310Y-8860D03*
D41*
X-20310Y-3166D03*
D31*
X-15008Y-8860D03*
D30*
X-22916Y-8860D03*
X-17582Y-8860D03*
X-17582Y-6760D03*
X-20310Y-6760D03*
X-22916Y-6760D03*
D42*
X-28194Y-3810D03*
X-28194Y-1270D03*
D44*
X25815Y-24019D03*
X27611Y-22223D03*
X24019Y-25815D03*
D45*
X12036Y-22626D03*
X13521Y-21141D03*
D46*
X15255Y-17155D03*
X12639Y-14539D03*
D47*
X1185Y-22138D03*
X1185Y-23738D03*
X1185Y-21338D03*
X1185Y-20538D03*
X1185Y-22938D03*
D48*
X0Y-20353D03*
D47*
X1185Y-24538D03*
D48*
X0Y-24723D03*
D46*
X10871Y-21539D03*
X8255Y-18923D03*
D47*
X-1185Y-21338D03*
X-1185Y-20538D03*
X-1185Y-22138D03*
X-1185Y-22938D03*
X-1185Y-24538D03*
X-1185Y-23738D03*
D49*
X-9432Y-14004D03*
X-7947Y-15489D03*
D50*
X-10871Y-21539D03*
X-8255Y-18923D03*
X-12639Y-14539D03*
D51*
X-20828Y-20828D03*
X-20828Y-20828D03*
X-20828Y-20828D03*
D52*
X-18724Y-22914D03*
D51*
X-20828Y-20828D03*
X-20828Y-20828D03*
D53*
X-20218Y-21420D03*
D51*
X-20828Y-20828D03*
D53*
X-21385Y-20236D03*
D51*
X-20828Y-20828D03*
D54*
X-20952Y-17452D03*
D51*
X-20828Y-20828D03*
D54*
X-17425Y-20943D03*
D51*
X-20828Y-20828D03*
D55*
X-18024Y-19863D03*
X-19863Y-18024D03*
D56*
X-25815Y-24019D03*
D55*
X-18484Y-19403D03*
D52*
X-22887Y-18769D03*
D55*
X-19403Y-18484D03*
D56*
X-24019Y-25815D03*
D55*
X-18944Y-18944D03*
D50*
X-15255Y-17155D03*
D56*
X-27611Y-22223D03*
D44*
X22223Y-27611D03*
D57*
X3810Y-28194D03*
X1270Y-28194D03*
X-3810Y-28194D03*
X-1270Y-28194D03*
D56*
X-22223Y-27611D03*
%LNpour readded shapes*%
%LPD*%
D58*
X11042Y12619D03*
X11042Y11721D03*
D59*
X10755Y12170D03*
X11329Y12170D03*
D60*
X-11707Y12654D03*
D58*
X-9178Y17937D03*
X-9178Y17039D03*
D59*
X-9465Y17488D03*
X-8891Y17488D03*
D61*
X-13530Y12881D03*
X-13530Y11427D03*
D62*
X-3890Y17134D03*
X-2778Y17134D03*
D58*
X-13530Y17937D03*
X-13530Y17039D03*
D59*
X-13817Y17488D03*
X-13243Y17488D03*
D58*
X-13530Y15905D03*
X-13530Y15007D03*
D59*
X-13817Y15456D03*
X-13243Y15456D03*
D58*
X17848Y8295D03*
X17848Y7397D03*
D59*
X17561Y7846D03*
X18135Y7846D03*
D58*
X-8348Y7015D03*
X-8348Y6117D03*
D59*
X-8635Y6566D03*
X-8061Y6566D03*
D63*
X-3004Y0162D03*
X-1792Y0162D03*
D60*
X-15353Y11654D03*
D64*
X28194Y-0851D03*
X28194Y-1689D03*
D65*
X27616Y-1270D03*
X28772Y-1270D03*
D63*
X5348Y-0638D03*
X6560Y-0638D03*
X-1792Y-1438D03*
D66*
X0851Y28194D03*
X1689Y28194D03*
D67*
X1270Y27616D03*
X1270Y28772D03*
D68*
X-23723Y26112D03*
D69*
X-23611Y25407D03*
X-24428Y26224D03*
D70*
X26112Y23723D03*
D71*
X25407Y23611D03*
X26224Y24428D03*
D72*
X1297Y18184D03*
X2195Y18184D03*
D73*
X1746Y17897D03*
X1746Y18471D03*
D74*
X-18161Y15624D03*
X-19059Y15624D03*
D75*
X-18610Y15911D03*
X-18610Y15337D03*
D76*
X12922Y9902D03*
X13426Y9902D03*
D77*
X13174Y9625D03*
X13174Y10179D03*
D78*
X17170Y10841D03*
D79*
X17457Y10392D03*
X16883Y10392D03*
D80*
X13174Y2106D03*
D81*
X13768Y1887D03*
X12580Y1887D03*
D74*
X-6917Y9596D03*
X-7815Y9596D03*
D75*
X-7366Y9883D03*
X-7366Y9309D03*
D82*
X-19774Y4348D03*
X-18946Y4348D03*
D83*
X-19360Y3934D03*
X-19360Y4762D03*
D84*
X-19360Y-0269D03*
X-19360Y-1359D03*
D85*
X-28194Y0851D03*
X-28194Y1689D03*
D86*
X-27616Y1270D03*
X-28772Y1270D03*
D72*
X-11625Y-3038D03*
X-10727Y-3038D03*
D73*
X-11176Y-3325D03*
X-11176Y-2751D03*
D74*
X-10727Y-8118D03*
X-11625Y-8118D03*
D75*
X-11176Y-7831D03*
X-11176Y-8405D03*
D87*
X-1362Y-11960D03*
X-2391Y-11960D03*
D88*
X-1876Y-11446D03*
X-1876Y-12474D03*
D74*
X-22467Y-8860D03*
X-23365Y-8860D03*
D75*
X-22916Y-8573D03*
X-22916Y-9147D03*
D74*
X-17133Y-8860D03*
X-18031Y-8860D03*
D75*
X-17582Y-8573D03*
X-17582Y-9147D03*
D89*
X23723Y-26112D03*
D90*
X23611Y-25407D03*
X24428Y-26224D03*
D91*
X15522Y-17422D03*
D92*
X15645Y-16765D03*
D93*
X1579Y-22138D03*
X0791Y-22138D03*
X1579Y-23738D03*
X0791Y-23738D03*
X1579Y-21338D03*
X0791Y-21338D03*
D92*
X11261Y-21149D03*
D94*
X-11138Y-21806D03*
D95*
X-11261Y-21149D03*
X-10481Y-21929D03*
D96*
X-18340Y-20179D03*
X-17709Y-19547D03*
D97*
X-26112Y-23723D03*
D98*
X-25407Y-23611D03*
D94*
X-15522Y-17422D03*
D95*
X-15645Y-16765D03*
X-14865Y-17545D03*
D99*
X-0851Y-28194D03*
X-1689Y-28194D03*
D100*
X-1270Y-27616D03*
X-1270Y-28772D03*
D82*
X-19774Y4348D03*
X-18946Y4348D03*
D83*
X-19360Y3934D03*
X-19360Y4762D03*
D87*
X-1362Y-11960D03*
X-2391Y-11960D03*
D88*
X-1876Y-11446D03*
X-1876Y-12474D03*
%LNtop copper_traces*%
D101*
X-13030Y12654D02*
X-13530Y12154D01*
D102*
X-9500Y12828D02*
X-10228Y13556D01*
D103*
X5954Y-3038D02*
X4054Y-3038D01*
X-21590Y-18024D02*
X-22860Y-18024D01*
D102*
X16116Y-14986D02*
X20434Y-10668D01*
X9420Y-5842D02*
X9398Y-5842D01*
X-7874Y-15494D02*
X-6350Y-17018D01*
X8122Y-6096D02*
X5588Y-6096D01*
X18927Y1887D02*
X21073Y1887D01*
X11960Y-9906D02*
X14224Y-9906D01*
X25260Y-0907D02*
X25260Y-1494D01*
X2978Y5570D02*
X2978Y3138D01*
D101*
X-12078Y12654D02*
X-13030Y12654D01*
D102*
X10905Y-0063D02*
X9605Y1237D01*
X7854Y0162D02*
X8079Y-0063D01*
X6434Y-20574D02*
X7874Y-20574D01*
X-2832Y-3838D02*
X-2398Y-3838D01*
X8955Y6468D02*
X8955Y5802D01*
X12700Y-12954D02*
X12954Y-12954D01*
X23482Y-2764D02*
X23736Y-3018D01*
X13716Y-21336D02*
X14732Y-20320D01*
X-7112Y-8118D02*
X-2832Y-3838D01*
X-6350Y26162D02*
X-4318Y28194D01*
X-19084Y-10438D02*
X-18068Y-11454D01*
X14478Y-4594D02*
X11662Y-4594D01*
X0646Y17134D02*
X1778Y18266D01*
X5080Y-24384D02*
X5702Y-24384D01*
X-25400Y-6604D02*
X-25400Y-8890D01*
X18927Y-0713D02*
X23133Y-0713D01*
X13174Y-1363D02*
X14620Y-1363D01*
D103*
X3302Y-2238D02*
X-2398Y-2238D01*
D102*
X1270Y-28194D02*
X5080Y-24384D01*
X2178Y-5214D02*
X2178Y-3410D01*
X16256Y-6096D02*
X15240Y-7112D01*
X-23778Y-6760D02*
X-24384Y-7366D01*
X5312Y-7388D02*
X5842Y-6858D01*
X-17582Y-10438D02*
X-17582Y-8914D01*
X-11176Y-3038D02*
X-11176Y-5356D01*
X18927Y-2013D02*
X21715Y-2013D01*
X10905Y-3313D02*
X8122Y-6096D01*
X-3810Y-23268D02*
X-2540Y-24538D01*
D103*
X-5334Y-26670D02*
X-5334Y-25654D01*
D102*
X14224Y-9906D02*
X19080Y-5050D01*
D103*
X23876Y23876D02*
X25790Y23876D01*
D102*
X22466Y-7336D02*
X22212Y-7336D01*
X-12078Y9220D02*
X-12480Y8818D01*
X9968Y-12954D02*
X12254Y-10668D01*
D103*
X25146Y-25146D02*
X25908Y-24384D01*
D102*
X8955Y13629D02*
X8955Y9902D01*
X5954Y18774D02*
X5954Y26050D01*
X15748Y3534D02*
X17272Y2010D01*
X8636Y1762D02*
X9080Y1762D01*
X-9144Y23368D02*
X-6350Y26162D01*
X-7112Y-3038D02*
X-9212Y-0938D01*
X-19548Y-9974D02*
X-19084Y-10438D01*
X-2398Y1762D02*
X-1060Y1762D01*
X-8348Y13556D02*
X-3540Y13556D01*
X13174Y-2013D02*
X11430Y-2013D01*
X11938Y-5610D02*
X11706Y-5610D01*
D103*
X-24130Y-26187D02*
X-25146Y-25171D01*
D102*
X5954Y-2238D02*
X8009Y-2238D01*
D103*
X23876Y-25146D02*
X23876Y-23876D01*
D102*
X-7112Y-3038D02*
X-2398Y-3038D01*
X20688Y0030D02*
X22049Y0030D01*
D101*
X-15630Y13802D02*
X-14982Y13154D01*
D102*
X5080Y-22098D02*
X5080Y-23114D01*
D103*
X27432Y22502D02*
X26774Y21844D01*
D102*
X2978Y-5214D02*
X2978Y-6372D01*
D103*
X27611Y-22223D02*
X28702Y-21133D01*
D102*
X-1185Y-24538D02*
X-2386Y-24538D01*
X19338Y10392D02*
X19338Y5566D01*
X23133Y-0713D02*
X23736Y-0110D01*
X-4318Y28194D02*
X-3810Y28194D01*
X9652Y-7896D02*
X9652Y-8404D01*
X-18410Y-3166D02*
X-18410Y-5932D01*
X15324Y-12954D02*
X12954Y-12954D01*
D103*
X-16510Y-14478D02*
X-17526Y-14478D01*
D102*
X-10228Y19520D02*
X-9178Y18470D01*
X22212Y-3526D02*
X22212Y-4542D01*
D101*
X-12078Y13154D02*
X-12078Y14656D01*
D102*
X-1270Y28194D02*
X-1270Y20354D01*
X-18068Y-11454D02*
X-17052Y-11454D01*
D103*
X4826Y-14478D02*
X3048Y-14478D01*
D102*
X8955Y0962D02*
X5954Y0962D01*
X15494Y-4594D02*
X15240Y-4848D01*
X8376Y-3838D02*
X7846Y-3838D01*
X-10990Y-12446D02*
X-13208Y-12446D01*
X-19451Y14186D02*
X-19835Y13802D01*
D103*
X2032Y-14478D02*
X3048Y-14478D01*
D102*
X-0762Y-1432D02*
X-0768Y-1438D01*
X-28194Y1270D02*
X-25908Y1270D01*
X-18416Y11460D02*
X-18610Y11654D01*
X-7112Y16980D02*
X-7112Y17134D01*
X5842Y-14478D02*
X7620Y-12700D01*
X5080Y-6604D02*
X4826Y-6604D01*
X15748Y7224D02*
X15748Y7846D01*
X10974Y5133D02*
X11430Y4677D01*
X21082Y6464D02*
X21082Y12136D01*
D103*
X-22223Y24005D02*
X-23622Y22606D01*
D102*
X0578Y3138D02*
X0578Y4804D01*
D103*
X1185Y-22138D02*
X2540Y-22138D01*
D102*
X16680Y9902D02*
X17170Y10392D01*
X22974Y-6828D02*
X22466Y-7336D01*
X-2424Y-18680D02*
X-1524Y-17780D01*
X22081Y-1363D02*
X23482Y-2764D01*
X-23368Y16764D02*
X-16764Y23368D01*
X-10228Y11654D02*
X-10228Y8700D01*
X16256Y-4086D02*
X16256Y-6096D01*
X-15630Y15456D02*
X-15630Y13802D01*
X3556Y17134D02*
X2424Y18266D01*
X17821Y-0022D02*
X17780Y-0063D01*
D103*
X2540Y-22138D02*
X1740Y-21338D01*
D102*
X-18610Y15624D02*
X-19876Y15624D01*
X-14580Y8818D02*
X-15884Y10122D01*
X2178Y-3410D02*
X2286Y-3302D01*
X22974Y3078D02*
X17324Y3078D01*
D101*
X-14982Y12654D02*
X-16722Y12654D01*
D103*
X-1185Y-20538D02*
X-1185Y-18711D01*
X21844Y27940D02*
X21844Y27686D01*
D102*
X4572Y-23622D02*
X2286Y-25908D01*
X21082Y12136D02*
X11628Y21590D01*
X-9432Y5856D02*
X-11262Y4026D01*
X-16722Y12654D02*
X-17052Y12984D01*
X-16764Y23368D02*
X-14732Y23368D01*
X-1270Y-16510D02*
X-1524Y-16764D01*
D103*
X4054Y-3038D02*
X3302Y-2286D01*
D102*
X20434Y-9538D02*
X20434Y-9114D01*
X13174Y-1363D02*
X10851Y-1363D01*
X1378Y-3918D02*
X0762Y-3302D01*
X-14732Y23368D02*
X-9144Y23368D01*
X-3148Y-22938D02*
X-3148Y-18388D01*
X0254Y-25908D02*
X0Y-25654D01*
X-24747Y7257D02*
X-24747Y8890D01*
X14620Y-1363D02*
X14945Y-1038D01*
X-3334Y11662D02*
X-3334Y8902D01*
D103*
X-21969Y-27611D02*
X-22223Y-27611D01*
D102*
X-18803Y14186D02*
X-19451Y14186D01*
X-7112Y17134D02*
X-5842Y18470D01*
D103*
X-22223Y27611D02*
X-22223Y24005D01*
X5842Y-14478D02*
X5080Y-15240D01*
D102*
X13174Y-2663D02*
X14579Y-2663D01*
X14986Y-14986D02*
X16002Y-14986D01*
D103*
X1740Y-21338D02*
X1185Y-21338D01*
D102*
X-16832Y16506D02*
X-15782Y17556D01*
X9144Y-21844D02*
X9144Y-22606D01*
X14732Y-3832D02*
X14732Y-4340D01*
X-0762Y-0276D02*
X-0762Y-1432D01*
X28194Y-3810D02*
X19304Y-12700D01*
X-5842Y18470D02*
X-5400Y18470D01*
X21196Y-8098D02*
X22720Y-8098D01*
X-16798Y11460D02*
X-18416Y11460D01*
X1492Y3138D02*
X1492Y0635D01*
X8890Y-11938D02*
X11684Y-9144D01*
X-11278Y4026D02*
X-11278Y3264D01*
X17848Y7846D02*
X17848Y9224D01*
X-18410Y-0814D02*
X-15008Y-4216D01*
X8955Y3788D02*
X9605Y3138D01*
D103*
X-25121Y21107D02*
X-26187Y21107D01*
D102*
X24498Y-5304D02*
X22974Y-6828D01*
X8430Y-6810D02*
X9398Y-5842D01*
X10974Y5802D02*
X10974Y5133D01*
X-19360Y-0814D02*
X-19360Y4348D01*
X17272Y0486D02*
X17780Y-0022D01*
D103*
X-21107Y-28473D02*
X-21969Y-27611D01*
D102*
X-14580Y6566D02*
X-14580Y8818D01*
X15494Y-3578D02*
X15494Y-3832D01*
X14224Y-13970D02*
X13208Y-13970D01*
X12074Y4677D02*
X12573Y4677D01*
X-19592Y-9974D02*
X-20310Y-9256D01*
D103*
X-3048Y-26416D02*
X-1778Y-26416D01*
D102*
X-28194Y-3810D02*
X-25400Y-6604D01*
X11706Y-5610D02*
X11684Y-5588D01*
D103*
X22452Y-27840D02*
X22452Y-23522D01*
D102*
X3556Y-22352D02*
X3556Y-20574D01*
X15240Y-3324D02*
X15494Y-3578D01*
X13174Y5151D02*
X13174Y5802D01*
X-19360Y9958D02*
X-19524Y10122D01*
X-3334Y16184D02*
X-4860Y16184D01*
D103*
X26162Y21844D02*
X24130Y21844D01*
D102*
X20423Y-3313D02*
X21196Y-4086D01*
X11684Y-9144D02*
X13970Y-9144D01*
X-18410Y-5932D02*
X-17582Y-6760D01*
X-24384Y-10922D02*
X-24384Y-7366D01*
X2978Y-6810D02*
X2978Y-6372D01*
X11299Y-3963D02*
X10668Y-4594D01*
D103*
X-26187Y24155D02*
X-26187Y23901D01*
D102*
X4286Y13762D02*
X1746Y13762D01*
X-18796Y-16510D02*
X-24384Y-10922D01*
X-8348Y7920D02*
X-9500Y9072D01*
X10974Y7118D02*
X9906Y6050D01*
X10974Y9902D02*
X8079Y7007D01*
X21073Y1887D02*
X21196Y2010D01*
D103*
X-23622Y22606D02*
X-25121Y21107D01*
D102*
X-16510Y22606D02*
X-9536Y22606D01*
X15240Y-7112D02*
X13970Y-8382D01*
X-13530Y15456D02*
X-13530Y13154D01*
X2424Y18266D02*
X1746Y18266D01*
X-24892Y-2286D02*
X-25908Y-1270D01*
X-13970Y-13208D02*
X-13208Y-12446D01*
X15494Y-3963D02*
X15494Y-4594D01*
D103*
X21082Y28702D02*
X21844Y27940D01*
D101*
X-12078Y11154D02*
X-12078Y9220D01*
D103*
X24130Y21844D02*
X23114Y22860D01*
D102*
X1746Y8902D02*
X1746Y11662D01*
X4318Y-15748D02*
X-1524Y-15748D01*
X21349Y-2663D02*
X22212Y-3526D01*
X-17052Y-11454D02*
X-15020Y-9422D01*
X-0794Y8902D02*
X-0794Y11662D01*
X-8382Y-19050D02*
X-3556Y-14224D01*
X20434Y-10668D02*
X20434Y-9114D01*
X12700Y4677D02*
X13174Y5151D01*
X4362Y-1438D02*
X4248Y-1324D01*
X3778Y3138D02*
X3778Y6294D01*
X-3334Y17134D02*
X0646Y17134D01*
X-3626Y-2238D02*
X-4064Y-1800D01*
X2978Y5566D02*
X1746Y6798D01*
D103*
X25146Y25146D02*
X24407Y25885D01*
D102*
X9906Y-2308D02*
X8376Y-3838D01*
D103*
X2170Y-23738D02*
X2540Y-23368D01*
X-24130Y-22098D02*
X-22860Y-23368D01*
X1270Y-28194D02*
X-0508Y-26416D01*
D102*
X14224Y-2013D02*
X14945Y-2013D01*
D103*
X-0508Y-18034D02*
X-0254Y-18034D01*
X7450Y-17272D02*
X7366Y-17272D01*
D102*
X5011Y-0712D02*
X4362Y-0063D01*
X3810Y18774D02*
X8955Y13629D01*
X-4064Y-1800D02*
X-4064Y-0276D01*
X13174Y1237D02*
X11138Y1237D01*
X-16256Y-13208D02*
X-13970Y-13208D01*
X4578Y3138D02*
X5954Y4514D01*
X22974Y-3272D02*
X22974Y-4796D01*
X15240Y-2308D02*
X16256Y-3324D01*
X-2398Y-5214D02*
X-2398Y-8898D01*
X-12700Y-14478D02*
X-8382Y-18796D01*
X11544Y-5610D02*
X9605Y-7549D01*
X15240Y-15748D02*
X9144Y-21844D01*
D103*
X21082Y24892D02*
X21082Y26162D01*
D102*
X11628Y21590D02*
X7620Y21590D01*
X4572Y-15748D02*
X4318Y-15748D01*
X1016Y-25908D02*
X0254Y-25908D01*
X24752Y-0399D02*
X25260Y-0907D01*
X19558Y-6604D02*
X21336Y-6604D01*
X7852Y-13462D02*
X8636Y-13462D01*
X8079Y7007D02*
X8079Y3138D01*
X9906Y4550D02*
X10922Y3534D01*
X-3540Y17134D02*
X-5588Y17134D01*
X-15884Y10122D02*
X-16014Y10122D01*
D101*
X-10728Y12154D02*
X-10228Y11654D01*
D102*
X-1028Y18084D02*
X0562Y19674D01*
X3556Y-28194D02*
X9144Y-22606D01*
X-11176Y-5356D02*
X-11176Y-8118D01*
X-12480Y6380D02*
X-12480Y4348D01*
D103*
X23114Y22860D02*
X21082Y24892D01*
D102*
X-5842Y10130D02*
X-5842Y9072D01*
D103*
X0Y-17272D02*
X7366Y-17272D01*
X-1270Y-28194D02*
X-2032Y-28194D01*
D102*
X11176Y-7549D02*
X13109Y-7549D01*
X7112Y7090D02*
X7112Y3788D01*
X-25900Y-1270D02*
X-24892Y-0262D01*
X22212Y-5558D02*
X21958Y-5812D01*
D103*
X-20310Y-13523D02*
X-20310Y-13208D01*
D102*
X-3334Y16184D02*
X-3334Y13762D01*
X-11278Y17556D02*
X-11278Y15456D01*
X-3540Y18084D02*
X-4860Y18084D01*
X10255Y-3038D02*
X11280Y-2013D01*
X-1200Y0162D02*
X-0762Y-0276D01*
X8636Y-13462D02*
X9398Y-13462D01*
X5080Y-15240D02*
X4572Y-15748D01*
X16256Y-3324D02*
X16256Y-4086D01*
X23736Y-5050D02*
X22974Y-5812D01*
X-16832Y14694D02*
X-17340Y14186D01*
X10922Y2518D02*
X11424Y2518D01*
D103*
X-25146Y-24130D02*
X-24130Y-24130D01*
D102*
X-1016Y-17272D02*
X-0762Y-17272D01*
X25260Y2286D02*
X21082Y6464D01*
X-2030Y-21338D02*
X-2424Y-20944D01*
X20497Y1237D02*
X20942Y0792D01*
X3778Y6294D02*
X4286Y6802D01*
X-22916Y-10438D02*
X-22916Y-8914D01*
X14478Y-10668D02*
X19334Y-5812D01*
D103*
X-3048Y-26416D02*
X-16256Y-13208D01*
D102*
X13174Y8487D02*
X14503Y8487D01*
X-24892Y-0262D02*
X-23876Y0754D01*
X-16014Y10122D02*
X-17385Y10122D01*
X-23876Y1270D02*
X-23876Y15240D01*
D103*
X23114Y-22860D02*
X24892Y-21082D01*
D102*
X28194Y1218D02*
X26468Y1218D01*
X2442Y-13738D02*
X3204Y-13738D01*
X-9500Y9072D02*
X-9500Y12828D01*
X9605Y-7549D02*
X9605Y-7896D01*
X-1302Y4804D02*
X-3300Y6802D01*
X7620Y-12700D02*
X9144Y-12700D01*
X-1270Y20354D02*
X-3540Y18084D01*
D103*
X-19304Y-14478D02*
X-19812Y-13970D01*
X2540Y-23368D02*
X2540Y-22138D01*
D101*
X-14982Y12154D02*
X-16104Y12154D01*
D102*
X-18803Y10122D02*
X-19524Y10122D01*
X-24747Y8890D02*
X-24747Y15385D01*
X0562Y19674D02*
X1016Y19674D01*
X11555Y-2663D02*
X10905Y-3313D01*
X7846Y-3838D02*
X5954Y-3838D01*
X-8348Y8614D02*
X-8348Y7920D01*
X13174Y-2013D02*
X14224Y-2013D01*
X14885Y0587D02*
X14986Y0486D01*
D101*
X-16104Y12154D02*
X-16798Y11460D01*
D103*
X-17582Y-14478D02*
X-19304Y-14478D01*
D102*
X7874Y-20574D02*
X9398Y-20574D01*
X21715Y-2013D02*
X22974Y-3272D01*
X-20862Y6348D02*
X-20862Y-0262D01*
X-21839Y-19045D02*
X-22611Y-19045D01*
D103*
X-25146Y-25171D02*
X-25146Y-25146D01*
D102*
X5954Y0162D02*
X7854Y0162D01*
X1016Y19674D02*
X2910Y19674D01*
X3778Y-5214D02*
X3778Y-6588D01*
X10630Y-0713D02*
X8955Y0962D01*
X1492Y0635D02*
X1086Y0229D01*
X25260Y2286D02*
X26328Y1218D01*
X11662Y-4594D02*
X11176Y-5080D01*
D103*
X-3810Y-28194D02*
X-5334Y-26670D01*
D102*
X-28194Y3810D02*
X-24747Y7257D01*
X9398Y-20574D02*
X10160Y-19812D01*
X23482Y2570D02*
X22974Y3078D01*
X-5842Y9072D02*
X-5842Y1502D01*
X21715Y1046D02*
X22556Y1887D01*
D103*
X-23901Y25171D02*
X-23901Y23901D01*
D102*
X-19863Y-18024D02*
X-18796Y-16958D01*
X3204Y-9420D02*
X7620Y-9420D01*
X-9212Y-0938D02*
X-11176Y-0938D01*
D103*
X24407Y25885D02*
X23876Y25885D01*
D102*
X6350Y-19304D02*
X8128Y-19304D01*
X1746Y6798D02*
X1746Y6802D01*
X4572Y-11960D02*
X3204Y-11960D01*
X12254Y-10668D02*
X14478Y-10668D01*
X1492Y5566D02*
X0762Y5566D01*
X14579Y-2663D02*
X15240Y-3324D01*
X-21060Y12577D02*
X-21060Y12400D01*
D103*
X26774Y21844D02*
X26162Y21844D01*
D102*
X-0254Y-16510D02*
X-1270Y-16510D01*
X-4860Y18084D02*
X-5400Y18470D01*
X10160Y-19812D02*
X14986Y-14986D01*
X7112Y3788D02*
X6350Y3026D01*
X23736Y-3313D02*
X23736Y-5050D01*
X-8348Y14626D02*
X-8348Y13556D01*
X7620Y-18034D02*
X9398Y-16256D01*
X-15008Y-4216D02*
X-15008Y-6760D01*
X-22916Y-6760D02*
X-20310Y-6760D01*
X7620Y-9420D02*
X9968Y-9420D01*
X12446Y-11430D02*
X14732Y-11430D01*
X5954Y4514D02*
X5954Y5802D01*
X-3810Y-18034D02*
X-3810Y-19304D01*
X-20862Y-0262D02*
X-20310Y-0814D01*
X-2398Y-2238D02*
X-3626Y-2238D01*
X14732Y-11430D02*
X19558Y-6604D01*
X-5588Y15456D02*
X-7112Y16980D01*
X-0658Y6802D02*
X-0794Y6802D01*
X-2424Y-20944D02*
X-2424Y-20574D01*
X13174Y-0713D02*
X10630Y-0713D01*
X14503Y8487D02*
X15144Y7846D01*
X-9536Y22606D02*
X-5400Y18470D01*
X-10948Y11324D02*
X-10948Y11154D01*
X13174Y1887D02*
X12061Y1887D01*
X23736Y-0110D02*
X23736Y0538D01*
X4362Y-0063D02*
X4070Y0229D01*
X-12078Y14656D02*
X-11278Y15456D01*
X13174Y-0063D02*
X10905Y-0063D01*
X13174Y9902D02*
X14478Y9902D01*
X23736Y2316D02*
X23482Y2570D01*
D103*
X-1185Y-21338D02*
X-2030Y-21338D01*
D102*
X8382Y-18796D02*
X8382Y-19050D01*
X-9466Y-13970D02*
X-10990Y-12446D01*
X14986Y-12192D02*
X19842Y-7336D01*
X19418Y-8860D02*
X15324Y-12954D01*
X19080Y-5050D02*
X21704Y-5050D01*
X7450Y-17272D02*
X12530Y-12192D01*
X-10948Y6896D02*
X-11278Y6566D01*
X4578Y-6604D02*
X3778Y-6604D01*
X-11278Y11654D02*
X-10948Y11324D01*
X4286Y8902D02*
X4286Y11662D01*
X-9212Y-10218D02*
X-11176Y-10218D01*
X11424Y2518D02*
X11430Y2524D01*
X-20310Y-3166D02*
X-20310Y-6760D01*
X-4860Y16184D02*
X-5588Y15456D01*
X13109Y-7549D02*
X14084Y-6574D01*
X5922Y-3070D02*
X5954Y-3038D01*
X-7366Y11654D02*
X-8348Y12636D01*
D101*
X-14030Y11654D02*
X-13530Y12154D01*
D103*
X0Y-14194D02*
X1748Y-14194D01*
D102*
X21450Y0792D02*
X21704Y1046D01*
X-8348Y12636D02*
X-8348Y13556D01*
D103*
X-27686Y-22098D02*
X-24130Y-22098D01*
D102*
X9398Y-13462D02*
X9906Y-12954D01*
X12573Y4677D02*
X12700Y4804D01*
X-19835Y10444D02*
X-21060Y11669D01*
X14084Y-9144D02*
X18927Y-4301D01*
D103*
X-19863Y-13970D02*
X-20310Y-13523D01*
X-27611Y22223D02*
X-27611Y22223D01*
X-25171Y25171D02*
X-26187Y24155D01*
D102*
X-16832Y14694D02*
X-16832Y16506D01*
D101*
X-10948Y12654D02*
X-10448Y13154D01*
D102*
X5954Y12566D02*
X5842Y12678D01*
X18927Y0587D02*
X20131Y0587D01*
X13174Y-2663D02*
X11555Y-2663D01*
X12061Y1887D02*
X11430Y2518D01*
X0664Y-7474D02*
X0578Y-7388D01*
X17272Y2010D02*
X17272Y0486D01*
X-2424Y-20538D02*
X-2424Y-18680D01*
X-3334Y13762D02*
X-0794Y13762D01*
D103*
X-18347Y-22537D02*
X-18347Y-22537D01*
D102*
X4804Y-16510D02*
X6836Y-14478D01*
X-3702Y-0638D02*
X-3810Y-0530D01*
X-7112Y-8118D02*
X-9212Y-10218D01*
X-2398Y-2238D02*
X-0832Y-2238D01*
X0762Y5566D02*
X0508Y5566D01*
D103*
X0Y-20538D02*
X0Y-19050D01*
D102*
X9166Y-12700D02*
X11960Y-9906D01*
X19304Y-12700D02*
X16256Y-15748D01*
X8009Y-2238D02*
X8079Y-2308D01*
D103*
X-17717Y-21907D02*
X-18347Y-22537D01*
X-22860Y-23368D02*
X-21107Y-25121D01*
D102*
X2286Y-25908D02*
X1016Y-25908D01*
X6434Y-20574D02*
X2540Y-20574D01*
X5954Y5802D02*
X5954Y12566D01*
X4070Y0229D02*
X4070Y0454D01*
X2178Y4880D02*
X1492Y5566D01*
X19842Y-7336D02*
X22212Y-7336D01*
X3778Y-7388D02*
X5312Y-7388D01*
X1378Y-5214D02*
X1378Y-3918D01*
X-2398Y3138D02*
X-1022Y3138D01*
X7344Y-11938D02*
X8890Y-11938D01*
X1270Y28194D02*
X1270Y26050D01*
X10922Y3534D02*
X11684Y3534D01*
D103*
X22452Y-23522D02*
X23114Y-22860D01*
D102*
X5954Y-6810D02*
X8430Y-6810D01*
X-13530Y13154D02*
X-13030Y12654D01*
X17170Y5802D02*
X15748Y7224D01*
X19334Y-5812D02*
X21704Y-5812D01*
X-17340Y14186D02*
X-18803Y14186D01*
X8079Y-5214D02*
X10255Y-3038D01*
X5842Y-10690D02*
X4572Y-11960D01*
X13226Y7118D02*
X13174Y7118D01*
X8955Y9902D02*
X7112Y8059D01*
X5080Y-23114D02*
X4572Y-23622D01*
X22974Y-4796D02*
X22212Y-5558D01*
X13716Y-5610D02*
X11938Y-5610D01*
X-2398Y0162D02*
X-1200Y0162D01*
X-10228Y8700D02*
X-9432Y7904D01*
X9605Y7118D02*
X8955Y6468D01*
D103*
X2470Y-24538D02*
X1270Y-24538D01*
X1185Y-20538D02*
X2504Y-20538D01*
D102*
X-14580Y6566D02*
X-14580Y4348D01*
D101*
X-12078Y11654D02*
X-11278Y11654D01*
D103*
X1748Y-14194D02*
X2032Y-14478D01*
D102*
X16256Y-15748D02*
X15240Y-15748D01*
X20942Y0792D02*
X21450Y0792D01*
X-16798Y16506D02*
X-18016Y17724D01*
X-14580Y2062D02*
X-14580Y4348D01*
X-19360Y6348D02*
X-19360Y9958D01*
X-0794Y16184D02*
X1746Y16184D01*
X13208Y-13970D02*
X12700Y-14478D01*
X1746Y13762D02*
X-0794Y13762D01*
X-9178Y15456D02*
X-8348Y14626D01*
D103*
X25908Y-24384D02*
X25908Y-23876D01*
D102*
X23736Y-3018D02*
X23736Y-3272D01*
X-17107Y-21554D02*
X-17107Y-21296D01*
X-3810Y-19304D02*
X-3810Y-23268D01*
X-21060Y11669D02*
X-21060Y12154D01*
X13174Y10392D02*
X11396Y12170D01*
X10851Y-1363D02*
X9906Y-2308D01*
X3486Y-7388D02*
X3778Y-7388D01*
X11176Y-5080D02*
X8128Y-8128D01*
X11280Y-2013D02*
X11430Y-2013D01*
X18910Y-1363D02*
X22081Y-1363D01*
X19418Y-8860D02*
X20180Y-8098D01*
X15792Y9902D02*
X16680Y9902D01*
X-9432Y7904D02*
X-9432Y5856D01*
X10668Y-4594D02*
X10668Y-4594D01*
X23736Y0538D02*
X23736Y2316D01*
X15144Y7846D02*
X15748Y7846D01*
X-2794Y-17018D02*
X-3810Y-18034D01*
X0664Y-9420D02*
X0664Y-7474D01*
X20131Y0587D02*
X20688Y0030D01*
X-7366Y11654D02*
X-5842Y10130D01*
X7620Y-10690D02*
X4572Y-13738D01*
X-13530Y17488D02*
X-13530Y15456D01*
X22182Y-6604D02*
X22212Y-6574D01*
D103*
X-16256Y-13208D02*
X-18796Y-13208D01*
D102*
X-1524Y-17780D02*
X-1016Y-17272D01*
X12954Y-8404D02*
X11408Y-8404D01*
X22556Y1887D02*
X22606Y1887D01*
X13174Y-3963D02*
X11299Y-3963D01*
X-25400Y-8914D02*
X-25400Y-12192D01*
X-24747Y15385D02*
X-23368Y16764D01*
X-24892Y-3810D02*
X-24892Y-2286D01*
X-2398Y-8898D02*
X-1876Y-9420D01*
X14478Y-5610D02*
X13716Y-5610D01*
X-10948Y11154D02*
X-10948Y6896D01*
D103*
X-0762Y-18288D02*
X-0508Y-18034D01*
D102*
X-3148Y-18388D02*
X-1524Y-16764D01*
X-18347Y-22537D02*
X-21839Y-19045D01*
X2178Y3138D02*
X2178Y4880D01*
X11396Y12170D02*
X10974Y12170D01*
X18927Y-4301D02*
X18927Y-3963D01*
X25260Y-5558D02*
X22974Y-7844D01*
X22049Y0030D02*
X22606Y0587D01*
X9906Y6050D02*
X9906Y4550D01*
X-18796Y-16958D02*
X-18796Y-16510D01*
X-20310Y-9256D02*
X-20310Y-8914D01*
X-10448Y6566D02*
X-12480Y6566D01*
D103*
X1270Y-23738D02*
X2170Y-23738D01*
D102*
X10974Y8487D02*
X9605Y7118D01*
X-28194Y-1270D02*
X-25900Y-1270D01*
X-12480Y2062D02*
X-11278Y3264D01*
X18927Y-3313D02*
X20423Y-3313D01*
X18927Y1237D02*
X20497Y1237D01*
X13174Y-3313D02*
X14213Y-3313D01*
X8955Y5802D02*
X8955Y3788D01*
X17848Y9224D02*
X17170Y9902D01*
X10668Y-4594D02*
X9420Y-5842D01*
X3556Y-23522D02*
X3556Y-22352D01*
D103*
X28702Y-21133D02*
X28702Y-21082D01*
D102*
X21349Y-6604D02*
X22182Y-6604D01*
X21958Y-5812D02*
X21704Y-5812D01*
X9605Y1237D02*
X9080Y1762D01*
X4578Y-5214D02*
X8079Y-5214D01*
X-18016Y17724D02*
X-18610Y17724D01*
X15792Y9902D02*
X14478Y9902D01*
X-7742Y13556D02*
X-8348Y13556D01*
X5954Y26050D02*
X3810Y28194D01*
X-2398Y-0638D02*
X-3702Y-0638D01*
X-5842Y1502D02*
X-3810Y-0530D01*
X22720Y-8098D02*
X22974Y-7844D01*
X-0034Y21590D02*
X-1270Y20354D01*
X-7366Y9596D02*
X-8348Y8614D01*
X25260Y-1494D02*
X25260Y-5558D01*
D103*
X-21107Y-25121D02*
X-21107Y-26162D01*
D102*
X0664Y-11960D02*
X2442Y-13738D01*
X14945Y-2013D02*
X15240Y-2308D01*
X-1060Y1762D02*
X-0768Y1470D01*
X22212Y-4542D02*
X21704Y-5050D01*
X12530Y-12192D02*
X14986Y-12192D01*
X-15020Y-9422D02*
X-15020Y-8914D01*
D101*
X-12078Y12654D02*
X-10948Y12654D01*
D102*
X5954Y-0712D02*
X5011Y-0712D01*
X0Y-18034D02*
X7620Y-18034D01*
X13174Y9902D02*
X13174Y10392D01*
D101*
X-14982Y11654D02*
X-14030Y11654D01*
D102*
X-8348Y6566D02*
X-8348Y7920D01*
X-2398Y-1438D02*
X-0768Y-1438D01*
X4572Y-13738D02*
X3204Y-13738D01*
X18927Y-2663D02*
X21349Y-2663D01*
X-23876Y0754D02*
X-23876Y1270D01*
X-9178Y18470D02*
X-9178Y17488D01*
X10414Y-24384D02*
X9144Y-24384D01*
X-19835Y13802D02*
X-21060Y12577D01*
D103*
X-5334Y-25654D02*
X-16510Y-14478D01*
D102*
X24498Y-2127D02*
X24498Y-2510D01*
X14213Y-3313D02*
X14732Y-3832D01*
X4572Y21590D02*
X-0034Y21590D01*
X-11262Y4026D02*
X-11278Y4026D01*
X0578Y5566D02*
X-0658Y6802D01*
X4804Y-14478D02*
X7344Y-11938D01*
X24498Y-2510D02*
X24498Y-5304D01*
D101*
X-14982Y11154D02*
X-16014Y10122D01*
D102*
X0578Y4804D02*
X-1302Y4804D01*
X9398Y-14478D02*
X12446Y-11430D01*
D103*
X24892Y-21082D02*
X26162Y-21082D01*
D102*
X18927Y-0022D02*
X17821Y-0022D01*
X6836Y-14478D02*
X7852Y-13462D01*
X5588Y-6096D02*
X5080Y-6604D01*
X-1524Y-15748D02*
X-2794Y-17018D01*
D101*
X-12078Y12154D02*
X-10728Y12154D01*
D102*
X7112Y8059D02*
X7112Y7090D01*
D103*
X-0508Y-26416D02*
X-1778Y-26416D01*
D102*
X-2348Y-23738D02*
X-1270Y-23738D01*
X15240Y-4848D02*
X14478Y-5610D01*
D103*
X-1185Y-18711D02*
X-0762Y-18288D01*
D102*
X22974Y-5812D02*
X22212Y-6574D01*
X-3148Y-22938D02*
X-2348Y-23738D01*
X-19876Y15624D02*
X-20552Y14948D01*
X9228Y-14478D02*
X8382Y-14478D01*
X-19360Y6348D02*
X-20862Y6348D01*
X8128Y-19304D02*
X8382Y-19050D01*
X12700Y-14478D02*
X8382Y-18796D01*
X2910Y19674D02*
X3810Y18774D01*
D103*
X-2032Y-28194D02*
X-2540Y-27686D01*
D102*
X-0254Y-16510D02*
X4804Y-16510D01*
D103*
X-28727Y21107D02*
X-27611Y22223D01*
D102*
X10414Y-9420D02*
X10160Y-9420D01*
X-17385Y10122D02*
X-18864Y10122D01*
X20180Y-8098D02*
X21196Y-8098D01*
X-8382Y-18796D02*
X-8382Y-19050D01*
X2540Y-24538D02*
X3556Y-23522D01*
X-3300Y6802D02*
X-3334Y6802D01*
X0Y-24723D02*
X0Y-25654D01*
X17266Y3078D02*
X13226Y7118D01*
X5954Y1762D02*
X8636Y1762D01*
X11408Y-8404D02*
X10414Y-9398D01*
X-25400Y-12192D02*
X-24384Y-13208D01*
X12192Y-22606D02*
X10414Y-24384D01*
X5954Y-1438D02*
X4362Y-1438D01*
X13174Y0587D02*
X14885Y0587D01*
X14732Y-4340D02*
X14478Y-4594D01*
X8128Y-8128D02*
X8128Y-8404D01*
X26328Y1218D02*
X26468Y1218D01*
X-22916Y-6760D02*
X-23778Y-6760D01*
X2978Y-6880D02*
X3486Y-7388D01*
X23876Y-1505D02*
X24498Y-2127D01*
X-3540Y13556D02*
X-3334Y13762D01*
X13970Y-8382D02*
X12954Y-8382D01*
X-5842Y15456D02*
X-7742Y13556D01*
X-23876Y15240D02*
X-16510Y22606D01*
X-0728Y6802D02*
X-0794Y6802D01*
X-19524Y10122D02*
X-19846Y10444D01*
D103*
X-0762Y-17272D02*
X0Y-17272D01*
D102*
X11684Y3534D02*
X15748Y3534D01*
X9398Y-16256D02*
X12700Y-12954D01*
X12074Y4677D02*
X11430Y4677D01*
D104*
X6350Y3060D03*
X24752Y-0399D03*
X5954Y12712D03*
X0664Y-7388D03*
X8079Y-0063D03*
X4070Y0454D03*
X9144Y-24384D03*
X-24384Y-13208D03*
X-0768Y1470D03*
X-8348Y13556D03*
X8128Y-8404D03*
X23876Y-23876D03*
X-23901Y23901D03*
X8079Y-2308D03*
X23876Y-1505D03*
X-25908Y1270D03*
X28702Y-21082D03*
X2540Y-22138D03*
X12074Y4677D03*
X0762Y-3302D03*
X-21107Y-28473D03*
X4248Y-1324D03*
X-21107Y-26187D03*
X14478Y9902D03*
X25146Y25146D03*
X22606Y1887D03*
X-26187Y21107D03*
X21196Y-4086D03*
X11138Y1237D03*
X-24130Y-24130D03*
X25146Y-25146D03*
X5842Y-10690D03*
X6350Y-19304D03*
X-22916Y-10438D03*
X-20552Y14948D03*
X0Y-19050D03*
X-28727Y21107D03*
X3556Y17134D03*
X23876Y23876D03*
X8382Y-14478D03*
X26162Y-21082D03*
X14224Y-13970D03*
X14190Y-6574D03*
X22606Y0333D03*
X14986Y0486D03*
X1086Y0232D03*
X14732Y-20320D03*
X4572Y21590D03*
X0Y-14194D03*
X-10228Y13556D03*
X-18796Y-13208D03*
X-2398Y-5214D03*
X11006Y-7549D03*
X21082Y28702D03*
X-17131Y12900D03*
X5080Y-22098D03*
X-24892Y-3810D03*
X-0768Y-1140D03*
X9652Y-8404D03*
X21082Y26162D03*
X21196Y2010D03*
X10905Y2524D03*
X7620Y21590D03*
X-2398Y3138D03*
X-2540Y-27686D03*
X20434Y-9114D03*
X-5588Y17134D03*
X-10228Y19520D03*
X-25146Y-25146D03*
X14986Y-1038D03*
X-25171Y25171D03*
X5702Y-24384D03*
X5954Y18662D03*
X8079Y3138D03*
X8955Y9902D03*
X-20310Y-13208D03*
X-17582Y-10438D03*
X-3556Y-14224D03*
X2286Y-3302D03*
X1270Y26050D03*
X-11176Y-5356D03*
X7592Y-10690D03*
X9605Y3138D03*
%LNtop copper component beb80eaad782ebe9*%
D105*
X-9178Y15456D03*
X-11278Y15456D03*
%LNtop copper component f220e2559b024aca*%
D106*
X15255Y-17155D03*
X10871Y-21539D03*
X12639Y-14539D03*
X8255Y-18923D03*
%LNtop copper component 716399b5ec3ff10e*%
D107*
X18927Y-3963D03*
D108*
X18927Y-3313D03*
X18927Y-2663D03*
X18927Y-2013D03*
X18927Y-1363D03*
X18927Y-0713D03*
X18927Y-0063D03*
X18927Y0587D03*
X18927Y1237D03*
X18927Y1887D03*
X13174Y1887D03*
X13174Y1237D03*
X13174Y0587D03*
X13174Y-0063D03*
X13174Y-0713D03*
X13174Y-1363D03*
X13174Y-2013D03*
X13174Y-2663D03*
X13174Y-3313D03*
X13174Y-3963D03*
%LNtop copper component c42ff391cce3d33d*%
D109*
X-14580Y4348D03*
X-12480Y4348D03*
%LNtop copper component 05a1bf65de73c0c1*%
D110*
X-22916Y-6760D03*
X-22916Y-8860D03*
%LNtop copper component 4296f28cb9e6f1b4*%
D111*
X12074Y5802D03*
X10974Y5802D03*
X10974Y7217D03*
X10974Y8487D03*
X10974Y9902D03*
X12074Y9902D03*
X13174Y9902D03*
X13174Y8487D03*
X13174Y7217D03*
X13174Y5802D03*
%LNtop copper component aa8b2c3a0102c054*%
D109*
X-10448Y6566D03*
X-8348Y6566D03*
%LNtop copper component 06c0945df6a01aad*%
D112*
X-18610Y12154D03*
X-21060Y12154D03*
%LNtop copper component 9cbfcdd4f20fc654*%
D113*
X-22223Y27611D03*
X-24019Y25815D03*
X-25815Y24019D03*
X-27611Y22223D03*
%LNtop copper component 781711039570e6ff*%
D109*
X-15630Y15456D03*
X-13530Y15456D03*
%LNtop copper component dd12a5884f70bee7*%
D110*
X-3334Y13762D03*
X-3334Y11662D03*
%LNtop copper component 4b4bc9244a92f48f*%
X-0794Y13762D03*
X-0794Y11662D03*
%LNtop copper component 15618ea7413358b2*%
D114*
X-3810Y-28194D03*
X-1270Y-28194D03*
X1270Y-28194D03*
X3810Y-28194D03*
%LNtop copper component 260b264faae608ce*%
D110*
X1746Y8902D03*
X1746Y6802D03*
%LNtop copper component f68f485a6a4fb12e*%
D115*
X-18410Y-0814D03*
D116*
X-19360Y-0814D03*
X-20310Y-0814D03*
X-20310Y-3166D03*
X-18410Y-3166D03*
%LNtop copper component 3bd052a5f03b9332*%
D117*
X-9432Y-14004D03*
X-7947Y-15489D03*
%LNtop copper component db8f1da01d8f6e47*%
D118*
X-7112Y-8118D03*
X-7112Y-3038D03*
%LNtop copper component 26f6fa9b4e3697ca*%
D119*
X-19360Y6348D03*
X-19360Y4348D03*
%LNtop copper component 2987aaf8abc72a42*%
D120*
X22223Y-27611D03*
X24019Y-25815D03*
X25815Y-24019D03*
X27611Y-22223D03*
%LNtop copper component 590d8cae9c605ff0*%
D110*
X-0794Y8902D03*
X-0794Y6802D03*
%LNtop copper component e3f61c0a2c128970*%
X-11176Y-8118D03*
X-11176Y-10218D03*
%LNtop copper component 79ca14763ce3abd8*%
D121*
X12036Y-22626D03*
X13521Y-21141D03*
%LNtop copper component 9a7d5eb6b9bd6e32*%
D110*
X-20310Y-6760D03*
X-20310Y-8860D03*
%LNtop copper component 6f361a60cfde0d04*%
D122*
X3810Y28194D03*
X1270Y28194D03*
X-1270Y28194D03*
X-3810Y28194D03*
%LNtop copper component f4fabeeb908bd5ba*%
D123*
X28194Y-3810D03*
X28194Y-1270D03*
X28194Y1270D03*
X28194Y3810D03*
%LNtop copper component 6db7bdd78ee681d9*%
D124*
X0Y-24723D03*
D125*
X-1185Y-21338D03*
X1185Y-22938D03*
X1185Y-20538D03*
X1185Y-24538D03*
X-1185Y-23738D03*
X-1185Y-22938D03*
X-1185Y-24538D03*
X1185Y-22138D03*
X-1185Y-22138D03*
X1185Y-21338D03*
X-1185Y-20538D03*
X1185Y-23738D03*
D124*
X0Y-20353D03*
%LNtop copper component e235e8971882a55e*%
D109*
X17238Y5566D03*
X19338Y5566D03*
%LNtop copper component 68a7e395ece5492c*%
D110*
X4286Y8902D03*
X4286Y6802D03*
%LNtop copper component e7051b2b2805eb37*%
D126*
X1746Y16084D03*
X1746Y18184D03*
%LNtop copper component ec5ab950653071ca*%
D109*
X-11278Y17488D03*
X-9178Y17488D03*
%LNtop copper component 0e867a3c19666a82*%
X-14580Y2062D03*
X-12480Y2062D03*
%LNtop copper component 162f7d07dea3da75*%
X15748Y7846D03*
X17848Y7846D03*
%LNtop copper component 07ba0c5d4a7a4e02*%
X8942Y12170D03*
X11042Y12170D03*
%LNtop copper component 14f1055c4d1089ed*%
D127*
X-20828Y-20828D03*
X-20828Y-20828D03*
D128*
X-21385Y-20236D03*
D129*
X-20952Y-17452D03*
D127*
X-20828Y-20828D03*
D129*
X-17425Y-20943D03*
D127*
X-20828Y-20828D03*
D130*
X-18724Y-22914D03*
D127*
X-20828Y-20828D03*
X-20828Y-20828D03*
X-20828Y-20828D03*
X-20828Y-20828D03*
D128*
X-20218Y-21420D03*
D127*
X-20828Y-20828D03*
D131*
X-18944Y-18944D03*
X-19863Y-18024D03*
X-18484Y-19403D03*
X-19403Y-18484D03*
X-18024Y-19863D03*
D130*
X-22887Y-18769D03*
%LNtop copper component cc9f9b79252b0a74*%
D110*
X4286Y13762D03*
X4286Y11662D03*
%LNtop copper component 63ff0f5540c8ca29*%
D132*
X27611Y22223D03*
X25815Y24019D03*
X24019Y25815D03*
X22223Y27611D03*
%LNtop copper component e236cd287ee15b86*%
D109*
X-14580Y6566D03*
X-12480Y6566D03*
%LNtop copper component 96f420afb51e076d*%
D110*
X-7366Y11696D03*
X-7366Y9596D03*
%LNtop copper component 4bf2e97556516e23*%
D133*
X-3334Y18084D03*
D134*
X-3334Y17134D03*
X-3334Y16184D03*
X-1028Y16184D03*
X-1028Y18084D03*
%LNtop copper component ba02c652f2eddfd1*%
D135*
X-27611Y-22223D03*
X-25815Y-24019D03*
X-24019Y-25815D03*
X-22223Y-27611D03*
%LNtop copper component 980529a8efc2a642*%
D136*
X-14982Y13154D03*
D137*
X-13530Y12154D03*
D138*
X-14982Y12654D03*
X-14982Y12154D03*
X-14982Y11654D03*
X-14982Y11154D03*
X-12078Y11154D03*
X-12078Y11654D03*
X-12078Y12154D03*
X-12078Y12654D03*
X-12078Y13154D03*
%LNtop copper component e2bc7beb142f3684*%
D109*
X-15630Y17488D03*
X-13530Y17488D03*
%LNtop copper component e41167a18c6b7d24*%
D126*
X-15008Y-8860D03*
X-15008Y-6760D03*
%LNtop copper component 613bc691a411fb2b*%
D105*
X19270Y10392D03*
X17170Y10392D03*
%LNtop copper component ab0f4d277d178ad3*%
D139*
X3204Y-9420D03*
X0664Y-9420D03*
X-1876Y-9420D03*
X3204Y-11960D03*
X0664Y-11960D03*
X-1876Y-11960D03*
%LNtop copper component 7d1b4828299bd936*%
D140*
X-10871Y-21539D03*
X-15255Y-17155D03*
X-8255Y-18923D03*
X-12639Y-14539D03*
%LNtop copper component 108beaf41594700f*%
D141*
X-2398Y1762D03*
D142*
X-2398Y-3038D03*
D143*
X3778Y-5214D03*
X2178Y3138D03*
X2978Y-5214D03*
D142*
X5954Y-0638D03*
D143*
X2978Y3138D03*
D142*
X5954Y0162D03*
X5954Y-3038D03*
D143*
X3778Y3138D03*
D142*
X5954Y0962D03*
X-2398Y-0638D03*
X-2398Y0962D03*
D143*
X-0222Y-5214D03*
D142*
X5954Y-2238D03*
D143*
X0578Y3138D03*
D142*
X5954Y-1438D03*
D143*
X1378Y-5214D03*
X4578Y3138D03*
X-1022Y3138D03*
D142*
X-2398Y-2238D03*
D143*
X1378Y3138D03*
D142*
X-2398Y0162D03*
X-2398Y-1438D03*
D143*
X4578Y-5214D03*
X2178Y-5214D03*
X-1022Y-5214D03*
X-0222Y3138D03*
D142*
X5954Y1762D03*
X-2398Y-3838D03*
X5954Y-3838D03*
D143*
X0578Y-5214D03*
%LNtop copper component c7f2a2bcece131e5*%
D110*
X-17582Y-6760D03*
X-17582Y-8860D03*
%LNtop copper component 8132c3c0ac6c43ff*%
D126*
X-11176Y-3038D03*
X-11176Y-0938D03*
%LNtop copper component cd9a568377799ef8*%
D109*
X-14580Y8818D03*
X-12480Y8818D03*
%LNtop copper component ea07bc83115d531b*%
D110*
X1746Y13762D03*
X1746Y11662D03*
%LNtop copper component e6062f75892d83a3*%
D144*
X-28194Y3810D03*
X-28194Y1270D03*
X-28194Y-1270D03*
X-28194Y-3810D03*
%LNtop copper component ff1dc2f0dbcf46e9*%
D110*
X-18610Y17724D03*
X-18610Y15624D03*
%LNtop copper component 0c1a80d3f34f5b53*%
X-3334Y8902D03*
X-3334Y6802D03*
M02*