%FSLAX33Y33*%
%MOMM*%
%ADD10C,0.15*%
%ADD11C,0.2032*%
%ADD12C,0.5*%
%ADD13C,0.5*%
%ADD14C,0.5*%
%ADD15C,0.5*%
D10*
%LNbottom silkscreen_traces*%
%LNbottom silkscreen component b0b7ce341c71e36d*%
G01*
X20366Y24464D02*
X24464Y20366D01*
X20366Y24464D02*
X23796Y27894D01*
X27894Y23796*
X24464Y20366*
D11*
X24277Y19527D02*
X24277Y19527D01*
X25290Y18514*
X25424Y18648*
X24531Y19541*
X25029Y20040*
X24910Y20159*
X24277Y19527*
X25072Y20322D02*
X25072Y20322D01*
X26085Y19309*
X26816Y20041*
X26697Y20161*
X26099Y19563*
X25789Y19873*
X26349Y20433*
X26230Y20551*
X25670Y19991*
X25326Y20336*
X25947Y20958*
X25828Y21077*
X25072Y20322*
X26013Y21262D02*
X26013Y21262D01*
X27025Y20250*
X27374Y20598*
X27428Y20655*
X27474Y20706*
X27511Y20752*
X27539Y20793*
X27569Y20847*
X27592Y20902*
X27607Y20958*
X27615Y21014*
X27617Y21088*
X27608Y21161*
X27590Y21234*
X27562Y21307*
X27525Y21379*
X27479Y21450*
X27425Y21519*
X27361Y21587*
X27304Y21642*
X27246Y21689*
X27188Y21730*
X27130Y21765*
X27073Y21793*
X27018Y21815*
X26965Y21832*
X26914Y21843*
X26864Y21849*
X26817Y21851*
X26772Y21849*
X26729Y21843*
X26687Y21832*
X26645Y21817*
X26602Y21797*
X26558Y21773*
X26514Y21744*
X26469Y21710*
X26424Y21671*
X26378Y21627*
X26013Y21262*
X26338Y21277D02*
X26518Y21456D01*
X26565Y21501*
X26608Y21537*
X26646Y21566*
X26681Y21586*
X26714Y21601*
X26745Y21611*
X26774Y21617*
X26801Y21619*
X26843Y21616*
X26887Y21607*
X26933Y21592*
X26981Y21570*
X27030Y21542*
X27082Y21506*
X27135Y21462*
X27189Y21411*
X27258Y21337*
X27310Y21266*
X27346Y21200*
X27368Y21138*
X27378Y21079*
X27380Y21025*
X27373Y20975*
X27358Y20930*
X27340Y20897*
X27310Y20855*
X27269Y20807*
X27216Y20751*
X27040Y20575*
X26338Y21277*
X27724Y21875D02*
X27724Y21875D01*
X27703Y21823*
X27691Y21774*
X27686Y21726*
X27690Y21680*
X27701Y21636*
X27720Y21594*
X27745Y21555*
X27778Y21517*
X27836Y21469*
X27900Y21435*
X27969Y21416*
X28044Y21411*
X28120Y21421*
X28193Y21447*
X28263Y21489*
X28330Y21547*
X28388Y21614*
X28431Y21685*
X28457Y21760*
X28467Y21837*
X28461Y21913*
X28442Y21983*
X28408Y22047*
X28360Y22105*
X28323Y22137*
X28285Y22162*
X28244Y22180*
X28200Y22191*
X28155Y22195*
X28108Y22191*
X28059Y22179*
X28008Y22159*
X28034Y22220*
X28050Y22281*
X28056Y22340*
X28052Y22399*
X28037Y22456*
X28014Y22510*
X27981Y22561*
X27939Y22609*
X27871Y22666*
X27796Y22706*
X27716Y22729*
X27629Y22736*
X27540Y22725*
X27456Y22696*
X27375Y22648*
X27298Y22582*
X27233Y22506*
X27185Y22425*
X27156Y22340*
X27146Y22252*
X27152Y22165*
X27176Y22083*
X27217Y22008*
X27275Y21939*
X27326Y21895*
X27378Y21861*
X27433Y21837*
X27490Y21823*
X27549Y21821*
X27607Y21828*
X27666Y21846*
X27724Y21875*
X27945Y21676D02*
X27920Y21706D01*
X27903Y21737*
X27893Y21769*
X27890Y21803*
X27893Y21837*
X27904Y21870*
X27922Y21902*
X27949Y21933*
X27979Y21959*
X28010Y21977*
X28042Y21987*
X28077Y21991*
X28111Y21988*
X28141Y21979*
X28170Y21963*
X28197Y21941*
X28220Y21912*
X28237Y21882*
X28246Y21850*
X28249Y21815*
X28246Y21779*
X28235Y21747*
X28218Y21716*
X28193Y21686*
X28163Y21661*
X28132Y21643*
X28100Y21633*
X28065Y21629*
X28030Y21631*
X27999Y21640*
X27971Y21655*
X27945Y21676*
X27438Y22104D02*
X27417Y22127D01*
X27400Y22152*
X27385Y22180*
X27373Y22211*
X27365Y22241*
X27363Y22271*
X27364Y22302*
X27371Y22333*
X27382Y22364*
X27397Y22393*
X27416Y22420*
X27438Y22445*
X27477Y22479*
X27518Y22502*
X27561Y22515*
X27607Y22520*
X27652Y22516*
X27695Y22503*
X27735Y22480*
X27774Y22448*
X27807Y22408*
X27830Y22367*
X27844Y22323*
X27848Y22276*
X27843Y22229*
X27829Y22185*
X27806Y22143*
X27772Y22103*
X27734Y22071*
X27693Y22049*
X27651Y22035*
X27605Y22031*
X27559Y22036*
X27516Y22049*
X27476Y22071*
X27438Y22104*
X28269Y22520D02*
X28269Y22520D01*
X28357Y22437*
X28441Y22367*
X28520Y22311*
X28595Y22268*
X28668Y22237*
X28738Y22217*
X28807Y22208*
X28874Y22209*
X28939Y22222*
X29001Y22247*
X29060Y22284*
X29117Y22333*
X29154Y22375*
X29185Y22418*
X29209Y22463*
X29227Y22509*
X29238Y22556*
X29243Y22605*
X29241Y22655*
X29234Y22705*
X29220Y22756*
X29201Y22809*
X29176Y22863*
X29146Y22918*
X29108Y22977*
X29059Y23040*
X29000Y23108*
X28930Y23180*
X28842Y23263*
X28759Y23332*
X28680Y23388*
X28605Y23431*
X28533Y23462*
X28463Y23483*
X28394Y23492*
X28327Y23491*
X28262Y23478*
X28199Y23454*
X28140Y23416*
X28083Y23367*
X28020Y23291*
X27979Y23210*
X27958Y23124*
X27958Y23032*
X27987Y22915*
X28049Y22791*
X28143Y22659*
X28269Y22520*
X28433Y22684D02*
X28325Y22799D01*
X28246Y22899*
X28196Y22982*
X28174Y23048*
X28170Y23104*
X28176Y23152*
X28193Y23193*
X28221Y23228*
X28257Y23256*
X28298Y23273*
X28346Y23280*
X28402Y23276*
X28468Y23253*
X28551Y23203*
X28651Y23124*
X28766Y23017*
X28874Y22901*
X28953Y22801*
X29003Y22718*
X29025Y22652*
X29030Y22597*
X29022Y22549*
X29005Y22507*
X28976Y22471*
X28940Y22442*
X28902Y22425*
X28860Y22417*
X28813Y22421*
X28740Y22445*
X28652Y22496*
X28549Y22576*
X28433Y22684*
D12*
X20670Y25327D03*
%LNbottom silkscreen component 0aa07872bdd810e4*%
D10*
X-20366Y-24464D02*
X-24464Y-20366D01*
X-20366Y-24464D02*
X-23796Y-27894D01*
X-27894Y-23796*
X-24464Y-20366*
D11*
X-24277Y-19781D02*
X-24277Y-19781D01*
X-25290Y-18768*
X-25424Y-18902*
X-24531Y-19795*
X-25029Y-20294*
X-24910Y-20413*
X-24277Y-19781*
X-25072Y-20576D02*
X-25072Y-20576D01*
X-26085Y-19563*
X-26816Y-20295*
X-26697Y-20415*
X-26099Y-19817*
X-25789Y-20127*
X-26349Y-20687*
X-26230Y-20806*
X-25670Y-20245*
X-25326Y-20590*
X-25947Y-21212*
X-25828Y-21331*
X-25072Y-20576*
X-26013Y-21516D02*
X-26013Y-21516D01*
X-27025Y-20504*
X-27374Y-20852*
X-27428Y-20909*
X-27474Y-20960*
X-27511Y-21006*
X-27539Y-21047*
X-27569Y-21101*
X-27592Y-21156*
X-27607Y-21212*
X-27615Y-21268*
X-27617Y-21342*
X-27608Y-21415*
X-27590Y-21488*
X-27562Y-21561*
X-27525Y-21633*
X-27479Y-21704*
X-27425Y-21773*
X-27361Y-21841*
X-27304Y-21896*
X-27246Y-21943*
X-27188Y-21984*
X-27130Y-22019*
X-27073Y-22047*
X-27018Y-22069*
X-26965Y-22086*
X-26914Y-22097*
X-26864Y-22103*
X-26817Y-22105*
X-26772Y-22103*
X-26729Y-22097*
X-26687Y-22086*
X-26645Y-22071*
X-26602Y-22051*
X-26558Y-22027*
X-26514Y-21998*
X-26469Y-21964*
X-26424Y-21925*
X-26378Y-21881*
X-26013Y-21516*
X-26338Y-21531D02*
X-26518Y-21710D01*
X-26565Y-21755*
X-26608Y-21791*
X-26646Y-21820*
X-26681Y-21840*
X-26714Y-21855*
X-26745Y-21865*
X-26774Y-21871*
X-26801Y-21873*
X-26843Y-21870*
X-26887Y-21861*
X-26933Y-21846*
X-26981Y-21824*
X-27030Y-21796*
X-27082Y-21760*
X-27135Y-21717*
X-27189Y-21665*
X-27258Y-21591*
X-27310Y-21520*
X-27346Y-21454*
X-27368Y-21392*
X-27378Y-21333*
X-27380Y-21279*
X-27373Y-21229*
X-27358Y-21184*
X-27340Y-21151*
X-27310Y-21109*
X-27269Y-21061*
X-27216Y-21005*
X-27040Y-20829*
X-26338Y-21531*
X-27724Y-22129D02*
X-27724Y-22129D01*
X-27703Y-22077*
X-27691Y-22028*
X-27686Y-21980*
X-27690Y-21934*
X-27701Y-21890*
X-27720Y-21848*
X-27745Y-21809*
X-27778Y-21771*
X-27836Y-21723*
X-27900Y-21689*
X-27969Y-21670*
X-28044Y-21665*
X-28119Y-21675*
X-28193Y-21701*
X-28263Y-21743*
X-28330Y-21801*
X-28388Y-21868*
X-28431Y-21939*
X-28457Y-22014*
X-28467Y-22091*
X-28461Y-22167*
X-28442Y-22237*
X-28408Y-22301*
X-28360Y-22359*
X-28323Y-22391*
X-28285Y-22416*
X-28244Y-22434*
X-28200Y-22445*
X-28155Y-22449*
X-28108Y-22445*
X-28059Y-22433*
X-28008Y-22413*
X-28034Y-22474*
X-28050Y-22535*
X-28056Y-22594*
X-28052Y-22653*
X-28037Y-22710*
X-28014Y-22764*
X-27981Y-22815*
X-27939Y-22863*
X-27871Y-22920*
X-27796Y-22960*
X-27716Y-22983*
X-27629Y-22990*
X-27540Y-22979*
X-27456Y-22950*
X-27375Y-22902*
X-27298Y-22836*
X-27233Y-22760*
X-27185Y-22679*
X-27156Y-22594*
X-27146Y-22506*
X-27152Y-22419*
X-27176Y-22337*
X-27217Y-22262*
X-27275Y-22193*
X-27326Y-22149*
X-27378Y-22115*
X-27433Y-22091*
X-27490Y-22078*
X-27549Y-22075*
X-27607Y-22082*
X-27666Y-22100*
X-27724Y-22129*
X-27945Y-21930D02*
X-27920Y-21960D01*
X-27903Y-21991*
X-27893Y-22023*
X-27890Y-22057*
X-27893Y-22091*
X-27904Y-22124*
X-27922Y-22156*
X-27949Y-22187*
X-27979Y-22213*
X-28010Y-22231*
X-28042Y-22241*
X-28077Y-22245*
X-28111Y-22242*
X-28141Y-22233*
X-28170Y-22217*
X-28197Y-22195*
X-28220Y-22166*
X-28237Y-22136*
X-28246Y-22104*
X-28249Y-22069*
X-28246Y-22033*
X-28235Y-22001*
X-28218Y-21970*
X-28193Y-21940*
X-28163Y-21915*
X-28132Y-21897*
X-28100Y-21887*
X-28065Y-21883*
X-28030Y-21885*
X-27999Y-21894*
X-27971Y-21909*
X-27945Y-21930*
X-27438Y-22358D02*
X-27417Y-22381D01*
X-27400Y-22406*
X-27385Y-22434*
X-27373Y-22465*
X-27365Y-22495*
X-27363Y-22526*
X-27364Y-22556*
X-27371Y-22587*
X-27382Y-22618*
X-27397Y-22647*
X-27416Y-22674*
X-27438Y-22699*
X-27477Y-22733*
X-27518Y-22756*
X-27561Y-22770*
X-27607Y-22774*
X-27652Y-22770*
X-27695Y-22757*
X-27735Y-22734*
X-27774Y-22702*
X-27807Y-22662*
X-27830Y-22621*
X-27844Y-22577*
X-27848Y-22530*
X-27843Y-22483*
X-27829Y-22439*
X-27806Y-22397*
X-27772Y-22357*
X-27734Y-22325*
X-27693Y-22303*
X-27651Y-22289*
X-27605Y-22285*
X-27559Y-22290*
X-27516Y-22303*
X-27476Y-22325*
X-27438Y-22358*
X-28025Y-22934D02*
X-28244Y-23118D01*
X-28186Y-23207*
X-28166Y-23252*
X-28154Y-23295*
X-28152Y-23336*
X-28157Y-23375*
X-28170Y-23412*
X-28189Y-23446*
X-28216Y-23478*
X-28256Y-23510*
X-28298Y-23532*
X-28345Y-23544*
X-28397Y-23547*
X-28451Y-23539*
X-28503Y-23520*
X-28555Y-23489*
X-28606Y-23445*
X-28647Y-23397*
X-28676Y-23349*
X-28693Y-23301*
X-28699Y-23252*
X-28694Y-23204*
X-28680Y-23158*
X-28655Y-23114*
X-28618Y-23071*
X-28592Y-23048*
X-28565Y-23029*
X-28536Y-23014*
X-28505Y-23003*
X-28474Y-22996*
X-28443Y-22993*
X-28413Y-22994*
X-28350Y-23004*
X-28198Y-22805*
X-28895Y-22329*
X-29464Y-22899*
X-29273Y-23089*
X-28863Y-22679*
X-28667Y-22809*
X-28633Y-22801*
X-28707Y-22831*
X-28774Y-22872*
X-28834Y-22923*
X-28898Y-22999*
X-28944Y-23084*
X-28972Y-23176*
X-28981Y-23275*
X-28970Y-23374*
X-28940Y-23468*
X-28890Y-23556*
X-28821Y-23637*
X-28743Y-23704*
X-28659Y-23755*
X-28569Y-23791*
X-28472Y-23810*
X-28354Y-23810*
X-28242Y-23784*
X-28138Y-23731*
X-28042Y-23652*
X-27976Y-23575*
X-27926Y-23494*
X-27894Y-23407*
X-27879Y-23316*
X-27882Y-23226*
X-27903Y-23138*
X-27941Y-23055*
X-28025Y-22934*
D13*
X-20670Y-25327D03*
%LNbottom silkscreen component b05ff74f7c6ce018*%
D10*
X24464Y-20366D02*
X20366Y-24464D01*
X24464Y-20366D02*
X27894Y-23796D01*
X23796Y-27894*
X20366Y-24464*
D11*
X20035Y-24277D02*
X20035Y-24277D01*
X19022Y-25290*
X19156Y-25424*
X20049Y-24531*
X20548Y-25029*
X20667Y-24910*
X20035Y-24277*
X20830Y-25072D02*
X20830Y-25072D01*
X19817Y-26085*
X20549Y-26816*
X20669Y-26697*
X20071Y-26099*
X20381Y-25789*
X20941Y-26349*
X21060Y-26230*
X20499Y-25670*
X20844Y-25326*
X21466Y-25947*
X21585Y-25828*
X20830Y-25072*
X21770Y-26013D02*
X21770Y-26013D01*
X20758Y-27025*
X21106Y-27374*
X21163Y-27428*
X21214Y-27474*
X21260Y-27511*
X21301Y-27539*
X21355Y-27569*
X21410Y-27592*
X21466Y-27607*
X21522Y-27615*
X21596Y-27617*
X21669Y-27608*
X21742Y-27590*
X21815Y-27562*
X21887Y-27525*
X21958Y-27479*
X22027Y-27425*
X22095Y-27361*
X22150Y-27304*
X22197Y-27246*
X22238Y-27188*
X22273Y-27130*
X22301Y-27073*
X22323Y-27018*
X22340Y-26965*
X22351Y-26914*
X22357Y-26864*
X22359Y-26817*
X22357Y-26772*
X22351Y-26729*
X22340Y-26687*
X22325Y-26645*
X22305Y-26602*
X22281Y-26558*
X22252Y-26514*
X22218Y-26469*
X22179Y-26424*
X22135Y-26378*
X21770Y-26013*
X21785Y-26338D02*
X21964Y-26518D01*
X22009Y-26565*
X22045Y-26608*
X22074Y-26646*
X22094Y-26681*
X22109Y-26714*
X22119Y-26745*
X22125Y-26774*
X22127Y-26801*
X22124Y-26843*
X22115Y-26887*
X22100Y-26933*
X22078Y-26981*
X22050Y-27030*
X22014Y-27082*
X21971Y-27135*
X21919Y-27189*
X21845Y-27258*
X21774Y-27310*
X21708Y-27346*
X21646Y-27368*
X21587Y-27378*
X21533Y-27380*
X21483Y-27373*
X21438Y-27358*
X21405Y-27340*
X21363Y-27310*
X21315Y-27269*
X21259Y-27216*
X21083Y-27040*
X21785Y-26338*
X22383Y-27724D02*
X22383Y-27724D01*
X22331Y-27703*
X22282Y-27691*
X22234Y-27686*
X22188Y-27690*
X22144Y-27701*
X22102Y-27720*
X22063Y-27745*
X22025Y-27778*
X21977Y-27836*
X21943Y-27900*
X21924Y-27969*
X21919Y-28044*
X21929Y-28120*
X21955Y-28193*
X21997Y-28263*
X22055Y-28330*
X22122Y-28388*
X22193Y-28431*
X22268Y-28457*
X22345Y-28467*
X22421Y-28461*
X22491Y-28442*
X22555Y-28408*
X22613Y-28360*
X22645Y-28323*
X22670Y-28285*
X22688Y-28244*
X22699Y-28200*
X22703Y-28155*
X22699Y-28108*
X22687Y-28059*
X22667Y-28008*
X22728Y-28034*
X22789Y-28050*
X22848Y-28056*
X22907Y-28052*
X22964Y-28037*
X23018Y-28014*
X23069Y-27981*
X23117Y-27939*
X23174Y-27871*
X23214Y-27796*
X23237Y-27716*
X23244Y-27629*
X23233Y-27540*
X23204Y-27456*
X23156Y-27375*
X23090Y-27299*
X23014Y-27233*
X22933Y-27185*
X22848Y-27156*
X22760Y-27146*
X22673Y-27152*
X22591Y-27176*
X22516Y-27217*
X22447Y-27275*
X22403Y-27326*
X22369Y-27378*
X22345Y-27433*
X22332Y-27490*
X22329Y-27549*
X22336Y-27607*
X22354Y-27666*
X22383Y-27724*
X22184Y-27945D02*
X22214Y-27920D01*
X22245Y-27903*
X22277Y-27893*
X22311Y-27890*
X22345Y-27893*
X22378Y-27904*
X22410Y-27922*
X22441Y-27949*
X22467Y-27979*
X22485Y-28010*
X22495Y-28042*
X22499Y-28077*
X22496Y-28111*
X22487Y-28141*
X22471Y-28170*
X22449Y-28197*
X22420Y-28220*
X22390Y-28237*
X22358Y-28246*
X22323Y-28249*
X22287Y-28246*
X22255Y-28235*
X22224Y-28218*
X22194Y-28193*
X22169Y-28163*
X22151Y-28132*
X22141Y-28100*
X22137Y-28065*
X22139Y-28030*
X22148Y-27999*
X22163Y-27972*
X22184Y-27945*
X22612Y-27438D02*
X22635Y-27417D01*
X22660Y-27400*
X22688Y-27385*
X22719Y-27373*
X22749Y-27365*
X22780Y-27363*
X22810Y-27365*
X22841Y-27371*
X22872Y-27382*
X22901Y-27397*
X22928Y-27416*
X22953Y-27438*
X22987Y-27477*
X23010Y-27518*
X23024Y-27561*
X23028Y-27607*
X23024Y-27652*
X23011Y-27695*
X22988Y-27735*
X22956Y-27774*
X22916Y-27807*
X22875Y-27830*
X22831Y-27844*
X22784Y-27848*
X22737Y-27843*
X22693Y-27829*
X22651Y-27806*
X22611Y-27772*
X22579Y-27734*
X22557Y-27693*
X22543Y-27651*
X22539Y-27605*
X22544Y-27559*
X22557Y-27516*
X22579Y-27476*
X22612Y-27438*
X23926Y-28169D02*
X23926Y-28169D01*
X23684Y-28411*
X23244Y-27972*
X23130Y-28086*
X22936Y-29204*
X23038Y-29305*
X23694Y-28649*
X23831Y-28786*
X23945Y-28672*
X23808Y-28535*
X24050Y-28293*
X23926Y-28169*
X23498Y-28525D02*
X23192Y-28831D01*
X23285Y-28313*
X23498Y-28525*
D14*
X25327Y-20670D03*
%LNbottom silkscreen component 20fe53ca9ea174ff*%
D10*
X-24464Y20366D02*
X-20366Y24464D01*
X-24464Y20366D02*
X-27894Y23796D01*
X-23796Y27894*
X-20366Y24464*
D11*
X-19781Y24277D02*
X-19781Y24277D01*
X-18768Y25290*
X-18902Y25424*
X-19795Y24531*
X-20294Y25029*
X-20413Y24910*
X-19781Y24277*
X-20576Y25072D02*
X-20576Y25072D01*
X-19563Y26085*
X-20295Y26816*
X-20415Y26697*
X-19817Y26099*
X-20127Y25789*
X-20687Y26349*
X-20806Y26230*
X-20245Y25670*
X-20590Y25326*
X-21212Y25947*
X-21331Y25828*
X-20576Y25072*
X-21516Y26013D02*
X-21516Y26013D01*
X-20504Y27025*
X-20852Y27374*
X-20909Y27428*
X-20960Y27474*
X-21006Y27511*
X-21047Y27539*
X-21101Y27569*
X-21156Y27592*
X-21212Y27607*
X-21268Y27615*
X-21342Y27617*
X-21415Y27608*
X-21488Y27590*
X-21561Y27562*
X-21633Y27525*
X-21704Y27479*
X-21773Y27425*
X-21841Y27361*
X-21896Y27304*
X-21943Y27246*
X-21984Y27188*
X-22019Y27130*
X-22047Y27073*
X-22069Y27018*
X-22086Y26965*
X-22097Y26914*
X-22103Y26864*
X-22105Y26817*
X-22103Y26772*
X-22097Y26729*
X-22086Y26687*
X-22071Y26645*
X-22051Y26602*
X-22027Y26558*
X-21998Y26514*
X-21964Y26469*
X-21925Y26424*
X-21881Y26378*
X-21516Y26013*
X-21531Y26338D02*
X-21710Y26518D01*
X-21755Y26565*
X-21791Y26608*
X-21820Y26646*
X-21840Y26681*
X-21855Y26714*
X-21865Y26745*
X-21871Y26774*
X-21873Y26801*
X-21870Y26843*
X-21861Y26887*
X-21846Y26933*
X-21824Y26981*
X-21796Y27030*
X-21760Y27082*
X-21717Y27135*
X-21665Y27189*
X-21591Y27258*
X-21520Y27310*
X-21454Y27346*
X-21392Y27368*
X-21333Y27378*
X-21279Y27380*
X-21229Y27373*
X-21184Y27358*
X-21151Y27340*
X-21109Y27310*
X-21061Y27269*
X-21005Y27216*
X-20829Y27040*
X-21531Y26338*
X-22129Y27724D02*
X-22129Y27724D01*
X-22077Y27703*
X-22028Y27691*
X-21980Y27686*
X-21934Y27690*
X-21890Y27701*
X-21848Y27720*
X-21809Y27745*
X-21771Y27778*
X-21723Y27836*
X-21689Y27900*
X-21670Y27969*
X-21665Y28044*
X-21675Y28120*
X-21701Y28193*
X-21743Y28263*
X-21801Y28330*
X-21868Y28388*
X-21939Y28431*
X-22014Y28457*
X-22091Y28467*
X-22167Y28461*
X-22237Y28442*
X-22301Y28408*
X-22359Y28360*
X-22391Y28323*
X-22416Y28285*
X-22434Y28244*
X-22445Y28200*
X-22449Y28155*
X-22445Y28108*
X-22433Y28059*
X-22413Y28008*
X-22474Y28034*
X-22535Y28050*
X-22594Y28056*
X-22653Y28052*
X-22710Y28037*
X-22764Y28014*
X-22815Y27981*
X-22863Y27939*
X-22920Y27871*
X-22960Y27796*
X-22983Y27716*
X-22990Y27629*
X-22979Y27540*
X-22950Y27456*
X-22902Y27375*
X-22836Y27299*
X-22760Y27233*
X-22679Y27185*
X-22594Y27156*
X-22506Y27146*
X-22419Y27152*
X-22337Y27176*
X-22262Y27217*
X-22193Y27275*
X-22149Y27326*
X-22115Y27378*
X-22091Y27433*
X-22078Y27490*
X-22075Y27549*
X-22082Y27607*
X-22100Y27666*
X-22129Y27724*
X-21930Y27945D02*
X-21960Y27920D01*
X-21991Y27903*
X-22023Y27893*
X-22057Y27890*
X-22091Y27893*
X-22124Y27904*
X-22156Y27922*
X-22187Y27949*
X-22213Y27979*
X-22231Y28010*
X-22241Y28042*
X-22245Y28077*
X-22242Y28111*
X-22233Y28141*
X-22217Y28170*
X-22195Y28197*
X-22166Y28220*
X-22136Y28237*
X-22104Y28246*
X-22069Y28249*
X-22033Y28246*
X-22001Y28235*
X-21970Y28218*
X-21940Y28193*
X-21915Y28163*
X-21897Y28132*
X-21887Y28100*
X-21883Y28065*
X-21885Y28030*
X-21894Y27999*
X-21909Y27972*
X-21930Y27945*
X-22358Y27438D02*
X-22381Y27417D01*
X-22406Y27400*
X-22434Y27385*
X-22465Y27373*
X-22495Y27365*
X-22526Y27363*
X-22556Y27364*
X-22587Y27371*
X-22618Y27382*
X-22647Y27397*
X-22674Y27416*
X-22699Y27438*
X-22733Y27477*
X-22756Y27518*
X-22770Y27561*
X-22774Y27607*
X-22770Y27652*
X-22757Y27695*
X-22734Y27735*
X-22702Y27774*
X-22662Y27807*
X-22621Y27830*
X-22577Y27844*
X-22530Y27848*
X-22483Y27843*
X-22439Y27829*
X-22397Y27806*
X-22357Y27772*
X-22325Y27734*
X-22303Y27693*
X-22289Y27651*
X-22285Y27605*
X-22290Y27559*
X-22303Y27516*
X-22325Y27476*
X-22358Y27438*
X-22916Y28510D02*
X-22916Y28510D01*
X-22864Y28490*
X-22814Y28477*
X-22766Y28473*
X-22720Y28477*
X-22677Y28488*
X-22635Y28506*
X-22595Y28532*
X-22557Y28565*
X-22509Y28623*
X-22476Y28686*
X-22456Y28756*
X-22451Y28830*
X-22461Y28906*
X-22487Y28979*
X-22529Y29049*
X-22587Y29117*
X-22655Y29175*
X-22726Y29217*
X-22800Y29243*
X-22878Y29253*
X-22953Y29248*
X-23023Y29228*
X-23088Y29194*
X-23146Y29146*
X-23178Y29110*
X-23202Y29071*
X-23220Y29030*
X-23231Y28987*
X-23235Y28941*
X-23231Y28894*
X-23219Y28845*
X-23200Y28794*
X-23261Y28821*
X-23321Y28837*
X-23381Y28842*
X-23440Y28838*
X-23496Y28824*
X-23550Y28800*
X-23602Y28767*
X-23650Y28725*
X-23706Y28657*
X-23746Y28583*
X-23770Y28502*
X-23776Y28415*
X-23765Y28327*
X-23736Y28242*
X-23689Y28162*
X-23623Y28085*
X-23546Y28019*
X-23465Y27972*
X-23381Y27943*
X-23293Y27932*
X-23205Y27939*
X-23124Y27963*
X-23049Y28004*
X-22979Y28062*
X-22935Y28112*
X-22901Y28165*
X-22877Y28220*
X-22864Y28277*
X-22861Y28335*
X-22869Y28394*
X-22887Y28452*
X-22916Y28510*
X-22717Y28732D02*
X-22747Y28707D01*
X-22777Y28689*
X-22809Y28679*
X-22844Y28676*
X-22878Y28680*
X-22911Y28691*
X-22942Y28709*
X-22974Y28736*
X-22999Y28766*
X-23017Y28797*
X-23028Y28829*
X-23031Y28863*
X-23028Y28897*
X-23019Y28928*
X-23004Y28956*
X-22981Y28983*
X-22953Y29007*
X-22923Y29023*
X-22891Y29033*
X-22855Y29036*
X-22820Y29032*
X-22787Y29022*
X-22756Y29005*
X-22727Y28980*
X-22701Y28950*
X-22684Y28919*
X-22673Y28886*
X-22669Y28851*
X-22672Y28817*
X-22681Y28786*
X-22695Y28758*
X-22717Y28732*
X-23144Y28224D02*
X-23167Y28204D01*
X-23193Y28186*
X-23221Y28171*
X-23251Y28159*
X-23282Y28152*
X-23312Y28149*
X-23342Y28151*
X-23374Y28158*
X-23405Y28169*
X-23434Y28184*
X-23461Y28202*
X-23486Y28224*
X-23519Y28264*
X-23542Y28305*
X-23556Y28348*
X-23561Y28393*
X-23557Y28439*
X-23543Y28481*
X-23521Y28522*
X-23488Y28561*
X-23449Y28594*
X-23407Y28617*
X-23364Y28630*
X-23316Y28634*
X-23269Y28629*
X-23225Y28615*
X-23184Y28592*
X-23144Y28559*
X-23111Y28520*
X-23089Y28480*
X-23076Y28437*
X-23071Y28391*
X-23076Y28345*
X-23089Y28303*
X-23112Y28263*
X-23144Y28224*
D15*
X-25327Y20670D03*
%LNtext*%
D11*
X2914Y6950D02*
X2914Y6950D01*
X2914Y7859*
X2733Y7859*
X2517Y7215*
X2504Y7173*
X2492Y7137*
X2482Y7106*
X2474Y7081*
X2465Y7109*
X2454Y7142*
X2441Y7181*
X2426Y7227*
X2208Y7859*
X2046Y7859*
X2046Y6950*
X2162Y6950*
X2162Y7711*
X2426Y6950*
X2535Y6950*
X2798Y7724*
X2798Y6950*
X2914Y6950*
X1437Y7031D02*
X1437Y7031D01*
X1467Y7007*
X1497Y6986*
X1527Y6970*
X1556Y6957*
X1585Y6947*
X1615Y6941*
X1647Y6936*
X1679Y6935*
X1730Y6938*
X1775Y6948*
X1814Y6965*
X1846Y6988*
X1871Y7016*
X1890Y7049*
X1901Y7084*
X1904Y7124*
X1903Y7147*
X1899Y7170*
X1892Y7191*
X1882Y7212*
X1870Y7231*
X1857Y7248*
X1841Y7263*
X1824Y7276*
X1806Y7288*
X1787Y7297*
X1766Y7306*
X1744Y7313*
X1726Y7317*
X1703Y7321*
X1676Y7325*
X1645Y7330*
X1582Y7338*
X1528Y7347*
X1482Y7357*
X1446Y7368*
X1446Y7378*
X1445Y7387*
X1445Y7393*
X1445Y7397*
X1447Y7429*
X1453Y7455*
X1463Y7477*
X1477Y7493*
X1501Y7510*
X1530Y7522*
X1564Y7529*
X1604Y7531*
X1641Y7529*
X1672Y7524*
X1699Y7516*
X1720Y7503*
X1738Y7487*
X1753Y7465*
X1766Y7438*
X1776Y7406*
X1885Y7421*
X1876Y7454*
X1865Y7484*
X1852Y7511*
X1836Y7534*
X1817Y7554*
X1794Y7572*
X1768Y7587*
X1737Y7600*
X1704Y7610*
X1668Y7618*
X1629Y7622*
X1588Y7623*
X1548Y7622*
X1511Y7618*
X1479Y7612*
X1451Y7604*
X1426Y7593*
X1405Y7581*
X1387Y7568*
X1373Y7554*
X1362Y7538*
X1352Y7520*
X1345Y7500*
X1339Y7478*
X1336Y7461*
X1334Y7438*
X1333Y7409*
X1333Y7375*
X1333Y7226*
X1333Y7155*
X1331Y7099*
X1329Y7057*
X1326Y7029*
X1321Y7009*
X1315Y6989*
X1307Y6969*
X1298Y6950*
X1414Y6950*
X1422Y6968*
X1429Y6988*
X1433Y7009*
X1437Y7031*
X1497Y7209D02*
X1465Y7220D01*
X1510Y7208*
X1562Y7198*
X1620Y7188*
X1651Y7183*
X1675Y7178*
X1694Y7174*
X1705Y7169*
X1713Y7166*
X1718Y7161*
X1723Y7157*
X1727Y7152*
X1730Y7146*
X1732Y7140*
X1734Y7134*
X1734Y7128*
X1733Y7116*
X1730Y7107*
X1725Y7099*
X1718Y7091*
X1708Y7084*
X1695Y7079*
X1676Y7075*
X1652Y7073*
X1627Y7075*
X1604Y7079*
X1582Y7086*
X1563Y7095*
X1545Y7107*
X1531Y7119*
X1519Y7134*
X1510Y7150*
X1505Y7163*
X1501Y7183*
X1498Y7209*
X1497Y7240*
X1497Y7209*
X1212Y6899D02*
X1212Y7659D01*
X1010Y7659*
X1010Y7695*
X1085Y7568*
X1064Y7598*
X1042Y7623*
X1019Y7643*
X0995Y7657*
X0971Y7667*
X0945Y7672*
X0918Y7674*
X0882Y7672*
X0846Y7663*
X0811Y7649*
X0740Y7611*
X0814Y7412*
X0883Y7448*
X0897Y7453*
X0911Y7456*
X0924Y7457*
X0934Y7456*
X0942Y7454*
X0951Y7451*
X0959Y7445*
X0966Y7439*
X0972Y7431*
X0978Y7421*
X0983Y7409*
X0990Y7383*
X0995Y7355*
X0998Y7326*
X0999Y7294*
X0999Y6899*
X1212Y6899*
X0737Y6950D02*
X0737Y6950D01*
X0737Y7859*
X0625Y7859*
X0625Y7341*
X0361Y7609*
X0216Y7609*
X0468Y7364*
X0191Y6950*
X0328Y6950*
X0546Y7287*
X0625Y7211*
X0625Y6950*
X0737Y6950*
X-0260Y6950D02*
X-0260Y6950D01*
X-0260Y7859*
X-0601Y7859*
X-0651Y7857*
X-0695Y7852*
X-0734Y7844*
X-0768Y7831*
X-0798Y7816*
X-0824Y7796*
X-0847Y7773*
X-0867Y7747*
X-0882Y7718*
X-0894Y7688*
X-0900Y7658*
X-0902Y7627*
X-0901Y7598*
X-0895Y7570*
X-0885Y7543*
X-0871Y7517*
X-0853Y7492*
X-0831Y7470*
X-0805Y7451*
X-0775Y7434*
X-0814Y7419*
X-0848Y7401*
X-0878Y7378*
X-0902Y7351*
X-0922Y7321*
X-0935Y7288*
X-0944Y7252*
X-0947Y7214*
X-0945Y7182*
X-0940Y7152*
X-0931Y7123*
X-0920Y7095*
X-0905Y7069*
X-0889Y7046*
X-0872Y7027*
X-0853Y7010*
X-0832Y6996*
X-0808Y6984*
X-0782Y6974*
X-0753Y6965*
X-0722Y6959*
X-0687Y6954*
X-0648Y6951*
X-0607Y6950*
X-0260Y6950*
X-0431Y7528D02*
X-0576Y7528D01*
X-0612Y7529*
X-0641Y7530*
X-0663Y7533*
X-0677Y7536*
X-0692Y7542*
X-0704Y7548*
X-0713Y7555*
X-0720Y7563*
X-0725Y7572*
X-0729Y7583*
X-0732Y7596*
X-0733Y7612*
X-0732Y7628*
X-0730Y7641*
X-0725Y7654*
X-0719Y7665*
X-0713Y7673*
X-0705Y7680*
X-0696Y7686*
X-0685Y7691*
X-0668Y7695*
X-0641Y7698*
X-0605Y7700*
X-0562Y7701*
X-0431Y7701*
X-0431Y7528*
X-0431Y7108D02*
X-0606Y7108D01*
X-0633Y7108*
X-0654Y7109*
X-0669Y7110*
X-0680Y7112*
X-0696Y7115*
X-0710Y7119*
X-0721Y7124*
X-0731Y7129*
X-0739Y7135*
X-0746Y7142*
X-0753Y7151*
X-0759Y7161*
X-0764Y7172*
X-0768Y7184*
X-0770Y7198*
X-0771Y7213*
X-0770Y7231*
X-0767Y7247*
X-0761Y7260*
X-0754Y7273*
X-0745Y7284*
X-0735Y7293*
X-0722Y7300*
X-0707Y7306*
X-0688Y7311*
X-0661Y7316*
X-0629Y7318*
X-0590Y7319*
X-0431Y7319*
X-0431Y7108*
X-1046Y6899D02*
X-1046Y7659D01*
X-1248Y7659*
X-1248Y7695*
X-1173Y7568*
X-1194Y7598*
X-1216Y7623*
X-1239Y7643*
X-1262Y7657*
X-1287Y7667*
X-1313Y7672*
X-1340Y7674*
X-1376Y7672*
X-1412Y7663*
X-1447Y7649*
X-1517Y7611*
X-1444Y7412*
X-1375Y7448*
X-1361Y7453*
X-1347Y7456*
X-1334Y7457*
X-1324Y7456*
X-1316Y7454*
X-1307Y7451*
X-1299Y7445*
X-1292Y7439*
X-1286Y7431*
X-1280Y7421*
X-1275Y7409*
X-1268Y7383*
X-1263Y7355*
X-1260Y7326*
X-1259Y7294*
X-1259Y6899*
X-1046Y6899*
X-1950Y7031D02*
X-1950Y7031D01*
X-1920Y7007*
X-1890Y6986*
X-1860Y6970*
X-1831Y6957*
X-1802Y6947*
X-1772Y6941*
X-1740Y6936*
X-1708Y6935*
X-1657Y6938*
X-1612Y6948*
X-1574Y6965*
X-1541Y6988*
X-1516Y7016*
X-1497Y7049*
X-1487Y7084*
X-1483Y7124*
X-1484Y7147*
X-1488Y7170*
X-1495Y7191*
X-1505Y7212*
X-1517Y7231*
X-1530Y7248*
X-1546Y7263*
X-1563Y7276*
X-1581Y7288*
X-1601Y7297*
X-1621Y7306*
X-1643Y7313*
X-1661Y7317*
X-1684Y7321*
X-1711Y7325*
X-1742Y7330*
X-1805Y7338*
X-1859Y7347*
X-1905Y7357*
X-1941Y7368*
X-1941Y7378*
X-1942Y7387*
X-1942Y7393*
X-1942Y7397*
X-1940Y7429*
X-1934Y7455*
X-1924Y7477*
X-1910Y7493*
X-1886Y7510*
X-1857Y7522*
X-1823Y7529*
X-1783Y7531*
X-1746Y7529*
X-1715Y7524*
X-1688Y7516*
X-1667Y7503*
X-1649Y7487*
X-1634Y7465*
X-1622Y7438*
X-1611Y7406*
X-1502Y7421*
X-1511Y7454*
X-1522Y7484*
X-1535Y7511*
X-1551Y7534*
X-1570Y7554*
X-1593Y7572*
X-1619Y7587*
X-1650Y7600*
X-1683Y7610*
X-1719Y7618*
X-1758Y7622*
X-1799Y7623*
X-1839Y7622*
X-1876Y7618*
X-1908Y7612*
X-1936Y7604*
X-1961Y7593*
X-1982Y7581*
X-2000Y7568*
X-2014Y7554*
X-2025Y7538*
X-2035Y7520*
X-2043Y7500*
X-2048Y7478*
X-2051Y7461*
X-2053Y7438*
X-2054Y7409*
X-2054Y7375*
X-2054Y7226*
X-2054Y7155*
X-2056Y7099*
X-2058Y7057*
X-2061Y7029*
X-2066Y7009*
X-2072Y6989*
X-2080Y6969*
X-2089Y6950*
X-1973Y6950*
X-1965Y6968*
X-1959Y6988*
X-1954Y7009*
X-1950Y7031*
X-1890Y7209D02*
X-1922Y7220D01*
X-1877Y7208*
X-1825Y7198*
X-1767Y7188*
X-1736Y7183*
X-1712Y7178*
X-1693Y7174*
X-1682Y7169*
X-1674Y7166*
X-1669Y7161*
X-1664Y7157*
X-1660Y7152*
X-1657Y7146*
X-1655Y7140*
X-1653Y7134*
X-1653Y7128*
X-1654Y7116*
X-1657Y7107*
X-1662Y7099*
X-1669Y7091*
X-1679Y7084*
X-1692Y7079*
X-1711Y7075*
X-1735Y7073*
X-1760Y7075*
X-1783Y7079*
X-1805Y7086*
X-1824Y7095*
X-1842Y7107*
X-1856Y7119*
X-1868Y7134*
X-1877Y7150*
X-1882Y7163*
X-1887Y7183*
X-1889Y7209*
X-1890Y7240*
X-1890Y7209*
X-2654Y6950D02*
X-2654Y6950D01*
X-2654Y7033*
X-2619Y6990*
X-2577Y6960*
X-2527Y6941*
X-2470Y6935*
X-2432Y6938*
X-2395Y6946*
X-2359Y6960*
X-2325Y6979*
X-2294Y7002*
X-2267Y7031*
X-2243Y7063*
X-2223Y7100*
X-2207Y7140*
X-2196Y7183*
X-2189Y7230*
X-2187Y7279*
X-2189Y7327*
X-2195Y7373*
X-2205Y7416*
X-2220Y7458*
X-2238Y7495*
X-2261Y7528*
X-2287Y7557*
X-2318Y7581*
X-2352Y7599*
X-2388Y7613*
X-2426Y7621*
X-2465Y7623*
X-2494Y7622*
X-2521Y7617*
X-2547Y7609*
X-2571Y7598*
X-2593Y7585*
X-2613Y7569*
X-2631Y7552*
X-2647Y7533*
X-2647Y7859*
X-2758Y7859*
X-2758Y6950*
X-2654Y6950*
X-2352Y7279D02*
X-2355Y7226D01*
X-2364Y7182*
X-2377Y7148*
X-2394Y7122*
X-2415Y7102*
X-2436Y7088*
X-2457Y7081*
X-2481Y7078*
X-2505Y7081*
X-2526Y7088*
X-2547Y7101*
X-2566Y7119*
X-2582Y7144*
X-2594Y7176*
X-2602Y7218*
X-2605Y7269*
X-2602Y7327*
X-2594Y7373*
X-2581Y7409*
X-2564Y7436*
X-2544Y7456*
X-2523Y7469*
X-2501Y7477*
X-2476Y7480*
X-2451Y7477*
X-2430Y7470*
X-2410Y7457*
X-2391Y7438*
X-2376Y7413*
X-2363Y7379*
X-2355Y7334*
X-2352Y7279*
X-2931Y6950D02*
X-2931Y6950D01*
X-2931Y7859*
X-3043Y7859*
X-3043Y6950*
X-2931Y6950*
X-3666Y7162D02*
X-3666Y7162D01*
X-3782Y7148*
X-3765Y7100*
X-3743Y7058*
X-3715Y7022*
X-3681Y6991*
X-3641Y6967*
X-3597Y6949*
X-3547Y6939*
X-3492Y6935*
X-3424Y6941*
X-3363Y6957*
X-3309Y6985*
X-3263Y7024*
X-3226Y7073*
X-3199Y7131*
X-3184Y7198*
X-3178Y7274*
X-3184Y7352*
X-3200Y7421*
X-3226Y7481*
X-3264Y7532*
X-3310Y7572*
X-3362Y7601*
X-3421Y7618*
X-3486Y7623*
X-3549Y7618*
X-3606Y7601*
X-3657Y7573*
X-3702Y7534*
X-3738Y7484*
X-3764Y7425*
X-3780Y7357*
X-3785Y7281*
X-3785Y7275*
X-3785Y7268*
X-3785Y7260*
X-3785Y7251*
X-3294Y7251*
X-3300Y7200*
X-3312Y7155*
X-3331Y7117*
X-3355Y7085*
X-3384Y7059*
X-3417Y7041*
X-3453Y7030*
X-3493Y7027*
X-3522Y7029*
X-3550Y7035*
X-3575Y7045*
X-3598Y7059*
X-3618Y7078*
X-3636Y7101*
X-3653Y7129*
X-3666Y7162*
X-3358Y7393D02*
X-3609Y7393D01*
X-3612Y7372*
X-3605Y7399*
X-3596Y7419*
X-3586Y7435*
X-3565Y7455*
X-3543Y7469*
X-3517Y7478*
X-3487Y7481*
X-3459Y7478*
X-3435Y7471*
X-3414Y7460*
X-3394Y7444*
X-3377Y7424*
X-3364Y7400*
X-3355Y7372*
X-3358Y7393*
X-3917Y6696D02*
X-3917Y6696D01*
X-3904Y6801*
X-3922Y6797*
X-3939Y6794*
X-3954Y6792*
X-3968Y6791*
X-3986Y6792*
X-4002Y6794*
X-4016Y6798*
X-4028Y6804*
X-4039Y6810*
X-4048Y6819*
X-4057Y6828*
X-4064Y6838*
X-4071Y6850*
X-4078Y6868*
X-4088Y6891*
X-4099Y6921*
X-4100Y6927*
X-4103Y6933*
X-4105Y6940*
X-4108Y6949*
X-3859Y7609*
X-3979Y7609*
X-4116Y7227*
X-4129Y7190*
X-4141Y7153*
X-4153Y7114*
X-4164Y7075*
X-4174Y7113*
X-4185Y7151*
X-4197Y7188*
X-4210Y7225*
X-4350Y7609*
X-4462Y7609*
X-4211Y6939*
X-4192Y6889*
X-4176Y6847*
X-4161Y6814*
X-4149Y6789*
X-4133Y6764*
X-4117Y6742*
X-4099Y6723*
X-4081Y6708*
X-4060Y6697*
X-4038Y6689*
X-4015Y6684*
X-3989Y6683*
X-3972Y6684*
X-3955Y6686*
X-3936Y6690*
X-3917Y6696*
X2830Y8550D02*
X2830Y8550D01*
X2830Y9459*
X2487Y9459*
X2445Y9459*
X2407Y9457*
X2375Y9454*
X2349Y9450*
X2317Y9444*
X2287Y9434*
X2261Y9422*
X2237Y9408*
X2215Y9391*
X2196Y9370*
X2179Y9347*
X2164Y9320*
X2152Y9291*
X2143Y9261*
X2138Y9229*
X2136Y9196*
X2141Y9140*
X2155Y9089*
X2178Y9042*
X2210Y9000*
X2254Y8965*
X2313Y8940*
X2388Y8925*
X2477Y8920*
X2710Y8920*
X2710Y8550*
X2830Y8550*
X2659Y9078D02*
X2476Y9078D01*
X2426Y9080*
X2388Y9087*
X2361Y9097*
X2343Y9109*
X2330Y9124*
X2320Y9142*
X2313Y9164*
X2311Y9193*
X2312Y9213*
X2316Y9231*
X2322Y9247*
X2331Y9261*
X2341Y9273*
X2352Y9282*
X2364Y9289*
X2379Y9295*
X2391Y9297*
X2412Y9299*
X2441Y9301*
X2478Y9301*
X2659Y9301*
X2659Y9078*
X2020Y8993D02*
X2020Y8993D01*
X2012Y9100*
X1989Y9195*
X1951Y9277*
X1898Y9347*
X1833Y9403*
X1759Y9443*
X1676Y9467*
X1584Y9475*
X1523Y9471*
X1465Y9460*
X1409Y9441*
X1357Y9415*
X1310Y9382*
X1268Y9343*
X1233Y9298*
X1203Y9247*
X1180Y9192*
X1163Y9133*
X1153Y9070*
X1150Y9003*
X1154Y8936*
X1164Y8872*
X1181Y8812*
X1206Y8756*
X1237Y8705*
X1273Y8660*
X1316Y8622*
X1364Y8591*
X1416Y8566*
X1470Y8549*
X1527Y8538*
X1585Y8534*
X1647Y8538*
X1706Y8550*
X1762Y8569*
X1814Y8597*
X1862Y8630*
X1903Y8670*
X1938Y8715*
X1967Y8766*
X1990Y8820*
X2006Y8876*
X2016Y8934*
X2020Y8993*
X1845Y8991D02*
X1840Y8921D01*
X1825Y8861*
X1802Y8810*
X1770Y8767*
X1731Y8732*
X1687Y8708*
X1639Y8693*
X1585Y8688*
X1530Y8694*
X1482Y8708*
X1438Y8733*
X1400Y8767*
X1368Y8811*
X1345Y8864*
X1330Y8929*
X1325Y9004*
X1327Y9053*
X1333Y9098*
X1344Y9139*
X1358Y9177*
X1376Y9210*
X1397Y9238*
X1421Y9262*
X1449Y9283*
X1479Y9299*
X1512Y9311*
X1546Y9318*
X1583Y9321*
X1636Y9316*
X1683Y9302*
X1727Y9279*
X1767Y9248*
X1800Y9206*
X1824Y9151*
X1839Y9079*
X1845Y8991*
X0735Y8550D02*
X0735Y8550D01*
X1087Y9459*
X0957Y9459*
X0721Y8799*
X0707Y8760*
X0695Y8722*
X0683Y8685*
X0673Y8650*
X0662Y8687*
X0650Y8724*
X0638Y8761*
X0624Y8799*
X0379Y9459*
X0256Y9459*
X0612Y8550*
X0735Y8550*
X-0205Y8550D02*
X-0205Y8550D01*
X-0205Y9459*
X-0518Y9459*
X-0568Y9458*
X-0612Y9456*
X-0649Y9452*
X-0680Y9446*
X-0718Y9435*
X-0752Y9421*
X-0784Y9403*
X-0813Y9381*
X-0847Y9348*
X-0876Y9312*
X-0901Y9271*
X-0921Y9226*
X-0936Y9177*
X-0948Y9124*
X-0954Y9069*
X-0956Y9010*
X-0955Y8959*
X-0950Y8912*
X-0943Y8867*
X-0932Y8826*
X-0919Y8788*
X-0905Y8753*
X-0888Y8721*
X-0870Y8694*
X-0851Y8669*
X-0831Y8647*
X-0810Y8628*
X-0787Y8611*
X-0764Y8597*
X-0738Y8585*
X-0710Y8574*
X-0679Y8566*
X-0646Y8559*
X-0611Y8554*
X-0573Y8551*
X-0533Y8550*
X-0205Y8550*
X-0376Y8708D02*
X-0519Y8708D01*
X-0559Y8709*
X-0593Y8712*
X-0622Y8716*
X-0645Y8722*
X-0664Y8730*
X-0681Y8738*
X-0695Y8747*
X-0706Y8757*
X-0722Y8775*
X-0736Y8797*
X-0749Y8823*
X-0760Y8852*
X-0769Y8885*
X-0776Y8923*
X-0780Y8965*
X-0782Y9011*
X-0779Y9074*
X-0771Y9127*
X-0758Y9170*
X-0742Y9205*
X-0721Y9234*
X-0700Y9257*
X-0677Y9274*
X-0653Y9286*
X-0633Y9292*
X-0603Y9297*
X-0563Y9300*
X-0516Y9301*
X-0376Y9301*
X-0376Y8708*
X-1108Y9331D02*
X-1108Y9331D01*
X-1108Y9459*
X-1220Y9459*
X-1220Y9331*
X-1108Y9331*
X-1108Y8550D02*
X-1108Y8550D01*
X-1108Y9209*
X-1220Y9209*
X-1220Y8550*
X-1108Y8550*
X-1345Y8747D02*
X-1345Y8747D01*
X-1456Y8764*
X-1462Y8733*
X-1473Y8705*
X-1488Y8682*
X-1507Y8662*
X-1531Y8647*
X-1558Y8636*
X-1590Y8629*
X-1626Y8627*
X-1662Y8629*
X-1693Y8635*
X-1719Y8645*
X-1740Y8658*
X-1757Y8675*
X-1768Y8692*
X-1775Y8711*
X-1777Y8732*
X-1775Y8750*
X-1769Y8765*
X-1759Y8779*
X-1745Y8791*
X-1729Y8799*
X-1705Y8808*
X-1672Y8818*
X-1631Y8829*
X-1574Y8844*
X-1527Y8858*
X-1489Y8871*
X-1460Y8883*
X-1438Y8895*
X-1419Y8910*
X-1402Y8926*
X-1388Y8945*
X-1378Y8966*
X-1370Y8987*
X-1365Y9010*
X-1364Y9034*
X-1365Y9055*
X-1369Y9076*
X-1375Y9096*
X-1384Y9115*
X-1395Y9133*
X-1408Y9150*
X-1422Y9164*
X-1439Y9178*
X-1453Y9187*
X-1470Y9195*
X-1489Y9203*
X-1510Y9210*
X-1533Y9216*
X-1556Y9220*
X-1581Y9223*
X-1606Y9223*
X-1644Y9222*
X-1679Y9218*
X-1712Y9211*
X-1742Y9201*
X-1770Y9189*
X-1793Y9175*
X-1813Y9159*
X-1829Y9141*
X-1842Y9120*
X-1853Y9096*
X-1861Y9069*
X-1867Y9039*
X-1758Y9024*
X-1753Y9048*
X-1744Y9069*
X-1731Y9087*
X-1715Y9103*
X-1695Y9116*
X-1672Y9125*
X-1645Y9130*
X-1614Y9132*
X-1579Y9130*
X-1549Y9125*
X-1524Y9117*
X-1505Y9106*
X-1490Y9093*
X-1480Y9079*
X-1474Y9063*
X-1472Y9047*
X-1473Y9036*
X-1475Y9026*
X-1479Y9017*
X-1485Y9008*
X-1493Y8999*
X-1503Y8991*
X-1515Y8984*
X-1528Y8978*
X-1541Y8974*
X-1561Y8968*
X-1590Y8960*
X-1627Y8949*
X-1682Y8934*
X-1727Y8921*
X-1764Y8908*
X-1792Y8898*
X-1814Y8886*
X-1834Y8873*
X-1851Y8857*
X-1866Y8839*
X-1877Y8819*
X-1886Y8796*
X-1891Y8771*
X-1892Y8743*
X-1890Y8716*
X-1884Y8689*
X-1874Y8663*
X-1860Y8638*
X-1842Y8615*
X-1820Y8595*
X-1795Y8577*
X-1766Y8562*
X-1734Y8550*
X-1700Y8542*
X-1665Y8537*
X-1627Y8535*
X-1566Y8538*
X-1514Y8548*
X-1469Y8565*
X-1431Y8588*
X-1401Y8618*
X-1376Y8655*
X-1358Y8697*
X-1345Y8747*
X-2455Y8791D02*
X-2455Y8791D01*
X-2564Y8777*
X-2552Y8723*
X-2532Y8676*
X-2506Y8634*
X-2472Y8599*
X-2433Y8571*
X-2390Y8551*
X-2342Y8539*
X-2290Y8535*
X-2226Y8541*
X-2168Y8557*
X-2117Y8585*
X-2073Y8623*
X-2037Y8672*
X-2011Y8731*
X-1996Y8799*
X-1991Y8877*
X-1993Y8928*
X-2000Y8977*
X-2011Y9022*
X-2026Y9063*
X-2046Y9101*
X-2071Y9133*
X-2100Y9161*
X-2134Y9183*
X-2171Y9201*
X-2209Y9213*
X-2249Y9221*
X-2291Y9223*
X-2342Y9220*
X-2388Y9210*
X-2430Y9193*
X-2466Y9169*
X-2498Y9139*
X-2522Y9104*
X-2541Y9062*
X-2554Y9015*
X-2445Y8998*
X-2436Y9029*
X-2424Y9056*
X-2409Y9079*
X-2391Y9098*
X-2370Y9113*
X-2347Y9123*
X-2322Y9130*
X-2295Y9132*
X-2255Y9128*
X-2219Y9117*
X-2187Y9098*
X-2158Y9071*
X-2135Y9037*
X-2119Y8993*
X-2109Y8941*
X-2106Y8880*
X-2109Y8818*
X-2118Y8765*
X-2134Y8722*
X-2156Y8687*
X-2184Y8661*
X-2215Y8642*
X-2250Y8631*
X-2289Y8627*
X-2321Y8629*
X-2349Y8637*
X-2376Y8650*
X-2399Y8667*
X-2419Y8690*
X-2435Y8718*
X-2447Y8752*
X-2455Y8791*
X-3196Y8550D02*
X-3196Y8550D01*
X-2945Y9209*
X-3063Y9209*
X-3204Y8814*
X-3216Y8782*
X-3226Y8749*
X-3237Y8716*
X-3247Y8681*
X-3255Y8709*
X-3264Y8739*
X-3276Y8771*
X-3288Y8807*
X-3435Y9209*
X-3549Y9209*
X-3300Y8550*
X-3196Y8550*
X-4037Y8550D02*
X-4037Y8550D01*
X-3926Y8550*
X-3926Y9261*
X-3904Y9242*
X-3879Y9223*
X-3851Y9204*
X-3820Y9184*
X-3788Y9166*
X-3758Y9151*
X-3729Y9138*
X-3702Y9127*
X-3702Y9235*
X-3748Y9258*
X-3790Y9283*
X-3830Y9311*
X-3866Y9341*
X-3899Y9372*
X-3926Y9403*
X-3948Y9433*
X-3965Y9463*
X-4037Y9463*
X-4037Y8550*
M02*